<svg width="389" height="221" viewBox="0 0 389 221" fill="none" xmlns="http://www.w3.org/2000/svg">
<rect x="24" y="0.729919" width="341" height="220" rx="8" fill="#20452F"/>
<path d="M54.5824 35.639L58.2259 46.3009H58.3729L62.0163 35.639H64.1513L59.4403 48.7299H57.1584L52.4474 35.639H54.5824ZM67.2788 48.9472C66.6566 48.9472 66.0941 48.8322 65.5913 48.6021C65.0884 48.3677 64.69 48.0289 64.396 47.5857C64.1062 47.1426 63.9613 46.5992 63.9613 45.9558C63.9613 45.4018 64.0678 44.9458 64.2809 44.5879C64.494 44.2299 64.7816 43.9465 65.1438 43.7377C65.506 43.5289 65.9109 43.3713 66.3583 43.2647C66.8058 43.1582 67.2617 43.0772 67.7262 43.0218C68.3143 42.9536 68.7915 42.8982 69.158 42.8556C69.5245 42.8088 69.7908 42.7342 69.957 42.6319C70.1232 42.5296 70.2063 42.3634 70.2063 42.1333V42.0886C70.2063 41.5303 70.0487 41.0978 69.7333 40.791C69.4222 40.4842 68.9577 40.3308 68.3398 40.3308C67.6964 40.3308 67.1893 40.4735 66.8185 40.759C66.4521 41.0403 66.1985 41.3535 66.0579 41.6987L64.2617 41.2896C64.4748 40.693 64.7859 40.2115 65.195 39.845C65.6083 39.4742 66.0835 39.2058 66.6204 39.0396C67.1573 38.8691 67.7219 38.7839 68.3143 38.7839C68.7063 38.7839 69.1218 38.8308 69.5607 38.9245C70.0039 39.014 70.4173 39.1802 70.8008 39.4231C71.1886 39.666 71.506 40.0133 71.7532 40.465C72.0004 40.9124 72.1239 41.4941 72.1239 42.21V48.7299H70.2575V47.3876H70.1808C70.0572 47.6347 69.8718 47.8776 69.6246 48.1163C69.3775 48.3549 69.06 48.5531 68.6722 48.7107C68.2844 48.8684 67.82 48.9472 67.2788 48.9472ZM67.6942 47.4132C68.2227 47.4132 68.6744 47.3088 69.0494 47.0999C69.4286 46.8911 69.7163 46.6184 69.9123 46.2818C70.1126 45.9409 70.2127 45.5765 70.2127 45.1887V43.9231C70.1445 43.9913 70.0124 44.0552 69.8164 44.1149C69.6246 44.1703 69.4052 44.2193 69.158 44.2619C68.9109 44.3002 68.6701 44.3365 68.4357 44.3705C68.2013 44.4004 68.0053 44.4259 67.8477 44.4472C67.4769 44.4941 67.1381 44.573 66.8313 44.6838C66.5288 44.7946 66.2859 44.9544 66.1026 45.1632C65.9237 45.3677 65.8342 45.6404 65.8342 45.9813C65.8342 46.4544 66.0089 46.8123 66.3583 47.0552C66.7077 47.2938 67.1531 47.4132 67.6942 47.4132ZM76.0808 35.639V48.7299H74.1696V35.639H76.0808ZM78.152 48.7299V38.9117H80.0632V48.7299H78.152ZM79.1172 37.3968C78.7848 37.3968 78.4993 37.286 78.2607 37.0644C78.0263 36.8386 77.9091 36.5701 77.9091 36.259C77.9091 35.9437 78.0263 35.6752 78.2607 35.4536C78.4993 35.2278 78.7848 35.1149 79.1172 35.1149C79.4496 35.1149 79.733 35.2278 79.9673 35.4536C80.206 35.6752 80.3253 35.9437 80.3253 36.259C80.3253 36.5701 80.206 36.8386 79.9673 37.0644C79.733 37.286 79.4496 37.3968 79.1172 37.3968ZM85.8098 48.9217C85.0172 48.9217 84.3098 48.7193 83.6877 48.3144C83.0698 47.9053 82.584 47.3237 82.2303 46.5694C81.8809 45.8109 81.7061 44.9011 81.7061 43.84C81.7061 42.7789 81.883 41.8713 82.2367 41.117C82.5946 40.3627 83.0847 39.7853 83.7069 39.3847C84.329 38.9842 85.0343 38.7839 85.8226 38.7839C86.432 38.7839 86.9221 38.8862 87.2928 39.0907C87.6678 39.291 87.9576 39.5254 88.1621 39.7938C88.3709 40.0623 88.5328 40.2988 88.6479 40.5034H88.763V35.639H90.6742V48.7299H88.8077V47.2022H88.6479C88.5328 47.411 88.3667 47.6497 88.1493 47.9181C87.9363 48.1866 87.6422 48.421 87.2672 48.6213C86.8922 48.8215 86.4064 48.9217 85.8098 48.9217ZM86.2317 47.2917C86.7814 47.2917 87.2459 47.1468 87.6252 46.8571C88.0087 46.563 88.2985 46.1561 88.4945 45.6362C88.6948 45.1163 88.7949 44.5112 88.7949 43.8208C88.7949 43.139 88.6969 42.5424 88.5009 42.0311C88.3049 41.5197 88.0172 41.1213 87.638 40.8357C87.2587 40.5502 86.79 40.4075 86.2317 40.4075C85.6564 40.4075 85.177 40.5566 84.7935 40.8549C84.41 41.1532 84.1202 41.5602 83.9242 42.0758C83.7324 42.5914 83.6365 43.1731 83.6365 43.8208C83.6365 44.4771 83.7346 45.0673 83.9306 45.5914C84.1266 46.1156 84.4164 46.5311 84.7999 46.8379C85.1877 47.1404 85.665 47.2917 86.2317 47.2917ZM95.7592 48.9472C95.1371 48.9472 94.5746 48.8322 94.0717 48.6021C93.5689 48.3677 93.1705 48.0289 92.8764 47.5857C92.5866 47.1426 92.4418 46.5992 92.4418 45.9558C92.4418 45.4018 92.5483 44.9458 92.7614 44.5879C92.9744 44.2299 93.2621 43.9465 93.6243 43.7377C93.9865 43.5289 94.3913 43.3713 94.8388 43.2647C95.2862 43.1582 95.7422 43.0772 96.2067 43.0218C96.7947 42.9536 97.272 42.8982 97.6385 42.8556C98.005 42.8088 98.2713 42.7342 98.4375 42.6319C98.6037 42.5296 98.6868 42.3634 98.6868 42.1333V42.0886C98.6868 41.5303 98.5291 41.0978 98.2138 40.791C97.9027 40.4842 97.4382 40.3308 96.8203 40.3308C96.1768 40.3308 95.6697 40.4735 95.299 40.759C94.9325 41.0403 94.679 41.3535 94.5384 41.6987L92.7422 41.2896C92.9553 40.693 93.2663 40.2115 93.6754 39.845C94.0888 39.4742 94.5639 39.2058 95.1009 39.0396C95.6378 38.8691 96.2024 38.7839 96.7947 38.7839C97.1868 38.7839 97.6023 38.8308 98.0412 38.9245C98.4844 39.014 98.8977 39.1802 99.2812 39.4231C99.669 39.666 99.9865 40.0133 100.234 40.465C100.481 40.9124 100.604 41.4941 100.604 42.21V48.7299H98.7379V47.3876H98.6612C98.5376 47.6347 98.3523 47.8776 98.1051 48.1163C97.858 48.3549 97.5405 48.5531 97.1527 48.7107C96.7649 48.8684 96.3004 48.9472 95.7592 48.9472ZM96.1747 47.4132C96.7031 47.4132 97.1548 47.3088 97.5298 47.0999C97.9091 46.8911 98.1967 46.6184 98.3928 46.2818C98.593 45.9409 98.6932 45.5765 98.6932 45.1887V43.9231C98.625 43.9913 98.4929 44.0552 98.2969 44.1149C98.1051 44.1703 97.8857 44.2193 97.6385 44.2619C97.3913 44.3002 97.1506 44.3365 96.9162 44.3705C96.6818 44.4004 96.4858 44.4259 96.3281 44.4472C95.9574 44.4941 95.6186 44.573 95.3118 44.6838C95.0092 44.7946 94.7663 44.9544 94.5831 45.1632C94.4041 45.3677 94.3146 45.6404 94.3146 45.9813C94.3146 46.4544 94.4893 46.8123 94.8388 47.0552C95.1882 47.2938 95.6335 47.4132 96.1747 47.4132ZM107.233 38.9117V40.4458H101.87V38.9117H107.233ZM103.308 36.5595H105.22V45.8471C105.22 46.2178 105.275 46.497 105.386 46.6845C105.497 46.8677 105.639 46.9934 105.814 47.0616C105.993 47.1255 106.187 47.1575 106.396 47.1575C106.549 47.1575 106.683 47.1468 106.798 47.1255C106.914 47.1042 107.003 47.0872 107.067 47.0744L107.412 48.6532C107.301 48.6958 107.144 48.7384 106.939 48.7811C106.735 48.8279 106.479 48.8535 106.172 48.8578C105.669 48.8663 105.2 48.7768 104.766 48.5893C104.331 48.4018 103.98 48.112 103.711 47.72C103.443 47.3279 103.308 46.8357 103.308 46.2434V36.5595ZM112.973 48.9281C112.006 48.9281 111.173 48.7214 110.474 48.308C109.779 47.8904 109.243 47.3045 108.863 46.5502C108.488 45.7917 108.301 44.9032 108.301 43.8847C108.301 42.8791 108.488 41.9927 108.863 41.2257C109.243 40.4586 109.771 39.8599 110.449 39.4295C111.13 38.9991 111.927 38.7839 112.839 38.7839C113.393 38.7839 113.93 38.8755 114.45 39.0588C114.97 39.242 115.436 39.5296 115.85 39.9217C116.263 40.3137 116.589 40.823 116.828 41.4494C117.066 42.0715 117.186 42.8279 117.186 43.7186V44.3961H109.381V42.9643H115.313C115.313 42.4615 115.211 42.0161 115.006 41.6284C114.801 41.2363 114.514 40.9274 114.143 40.7015C113.777 40.4757 113.346 40.3627 112.852 40.3627C112.315 40.3627 111.846 40.4948 111.446 40.759C111.049 41.019 110.743 41.3599 110.525 41.7818C110.312 42.1994 110.206 42.6532 110.206 43.1433V44.2619C110.206 44.9181 110.321 45.4764 110.551 45.9366C110.785 46.3968 111.111 46.7484 111.529 46.9913C111.946 47.2299 112.434 47.3492 112.993 47.3492C113.355 47.3492 113.685 47.2981 113.983 47.1958C114.282 47.0893 114.539 46.9316 114.757 46.7228C114.974 46.514 115.14 46.2562 115.255 45.9494L117.064 46.2754C116.919 46.808 116.659 47.2747 116.284 47.6752C115.914 48.0715 115.447 48.3805 114.885 48.6021C114.326 48.8194 113.689 48.9281 112.973 48.9281ZM125.927 48.9472C125.305 48.9472 124.743 48.8322 124.24 48.6021C123.737 48.3677 123.338 48.0289 123.044 47.5857C122.755 47.1426 122.61 46.5992 122.61 45.9558C122.61 45.4018 122.716 44.9458 122.929 44.5879C123.142 44.2299 123.43 43.9465 123.792 43.7377C124.154 43.5289 124.559 43.3713 125.007 43.2647C125.454 43.1582 125.91 43.0772 126.375 43.0218C126.963 42.9536 127.44 42.8982 127.806 42.8556C128.173 42.8088 128.439 42.7342 128.605 42.6319C128.772 42.5296 128.855 42.3634 128.855 42.1333V42.0886C128.855 41.5303 128.697 41.0978 128.382 40.791C128.071 40.4842 127.606 40.3308 126.988 40.3308C126.345 40.3308 125.838 40.4735 125.467 40.759C125.1 41.0403 124.847 41.3535 124.706 41.6987L122.91 41.2896C123.123 40.693 123.434 40.2115 123.843 39.845C124.257 39.4742 124.732 39.2058 125.269 39.0396C125.806 38.8691 126.37 38.7839 126.963 38.7839C127.355 38.7839 127.77 38.8308 128.209 38.9245C128.652 39.014 129.066 39.1802 129.449 39.4231C129.837 39.666 130.154 40.0133 130.402 40.465C130.649 40.9124 130.772 41.4941 130.772 42.21V48.7299H128.906V47.3876H128.829C128.706 47.6347 128.52 47.8776 128.273 48.1163C128.026 48.3549 127.708 48.5531 127.321 48.7107C126.933 48.8684 126.468 48.9472 125.927 48.9472ZM126.343 47.4132C126.871 47.4132 127.323 47.3088 127.698 47.0999C128.077 46.8911 128.365 46.6184 128.561 46.2818C128.761 45.9409 128.861 45.5765 128.861 45.1887V43.9231C128.793 43.9913 128.661 44.0552 128.465 44.1149C128.273 44.1703 128.054 44.2193 127.806 44.2619C127.559 44.3002 127.319 44.3365 127.084 44.3705C126.85 44.4004 126.654 44.4259 126.496 44.4472C126.125 44.4941 125.787 44.573 125.48 44.6838C125.177 44.7946 124.934 44.9544 124.751 45.1632C124.572 45.3677 124.483 45.6404 124.483 45.9813C124.483 46.4544 124.657 46.8123 125.007 47.0552C125.356 47.2938 125.801 47.4132 126.343 47.4132ZM140.175 41.3088L138.443 41.6156C138.371 41.394 138.256 41.183 138.098 40.9828C137.944 40.7825 137.736 40.6184 137.471 40.4906C137.207 40.3627 136.877 40.2988 136.481 40.2988C135.939 40.2988 135.488 40.4203 135.126 40.6632C134.763 40.9018 134.582 41.2107 134.582 41.59C134.582 41.9181 134.704 42.1823 134.947 42.3826C135.189 42.5829 135.581 42.747 136.123 42.8748L137.682 43.2328C138.586 43.4416 139.259 43.7633 139.702 44.198C140.145 44.6326 140.367 45.1972 140.367 45.8919C140.367 46.4799 140.197 47.0041 139.856 47.4643C139.519 47.9203 139.048 48.2782 138.443 48.5382C137.842 48.7981 137.145 48.9281 136.353 48.9281C135.253 48.9281 134.356 48.6937 133.662 48.2249C132.967 47.7519 132.541 47.0808 132.383 46.2115L134.231 45.9302C134.346 46.4117 134.582 46.7761 134.94 47.0232C135.298 47.2661 135.765 47.3876 136.34 47.3876C136.966 47.3876 137.467 47.2576 137.842 46.9977C138.217 46.7335 138.405 46.4117 138.405 46.0325C138.405 45.7257 138.29 45.4678 138.059 45.259C137.834 45.0502 137.486 44.8926 137.018 44.786L135.356 44.4217C134.439 44.2129 133.762 43.8805 133.323 43.4245C132.888 42.9686 132.671 42.3911 132.671 41.6923C132.671 41.1127 132.833 40.6056 133.157 40.171C133.481 39.7363 133.928 39.3975 134.499 39.1546C135.07 38.9075 135.724 38.7839 136.461 38.7839C137.523 38.7839 138.358 39.014 138.967 39.4742C139.577 39.9302 139.979 40.5417 140.175 41.3088ZM149.326 41.3088L147.593 41.6156C147.521 41.394 147.406 41.183 147.248 40.9828C147.095 40.7825 146.886 40.6184 146.622 40.4906C146.358 40.3627 146.027 40.2988 145.631 40.2988C145.09 40.2988 144.638 40.4203 144.276 40.6632C143.914 40.9018 143.733 41.2107 143.733 41.59C143.733 41.9181 143.854 42.1823 144.097 42.3826C144.34 42.5829 144.732 42.747 145.273 42.8748L146.833 43.2328C147.736 43.4416 148.409 43.7633 148.853 44.198C149.296 44.6326 149.517 45.1972 149.517 45.8919C149.517 46.4799 149.347 47.0041 149.006 47.4643C148.669 47.9203 148.199 48.2782 147.593 48.5382C146.993 48.7981 146.296 48.9281 145.503 48.9281C144.404 48.9281 143.507 48.6937 142.812 48.2249C142.118 47.7519 141.691 47.0808 141.534 46.2115L143.381 45.9302C143.496 46.4117 143.733 46.7761 144.091 47.0232C144.449 47.2661 144.915 47.3876 145.49 47.3876C146.117 47.3876 146.618 47.2576 146.993 46.9977C147.368 46.7335 147.555 46.4117 147.555 46.0325C147.555 45.7257 147.44 45.4678 147.21 45.259C146.984 45.0502 146.637 44.8926 146.168 44.786L144.506 44.4217C143.59 44.2129 142.912 43.8805 142.473 43.4245C142.039 42.9686 141.821 42.3911 141.821 41.6923C141.821 41.1127 141.983 40.6056 142.307 40.171C142.631 39.7363 143.078 39.3975 143.65 39.1546C144.221 38.9075 144.875 38.7839 145.612 38.7839C146.673 38.7839 147.508 39.014 148.118 39.4742C148.727 39.9302 149.13 40.5417 149.326 41.3088ZM155.35 48.9281C154.383 48.9281 153.55 48.7214 152.851 48.308C152.156 47.8904 151.619 47.3045 151.24 46.5502C150.865 45.7917 150.678 44.9032 150.678 43.8847C150.678 42.8791 150.865 41.9927 151.24 41.2257C151.619 40.4586 152.148 39.8599 152.825 39.4295C153.507 38.9991 154.304 38.7839 155.216 38.7839C155.77 38.7839 156.307 38.8755 156.827 39.0588C157.347 39.242 157.813 39.5296 158.227 39.9217C158.64 40.3137 158.966 40.823 159.205 41.4494C159.443 42.0715 159.563 42.8279 159.563 43.7186V44.3961H151.758V42.9643H157.69C157.69 42.4615 157.588 42.0161 157.383 41.6284C157.178 41.2363 156.891 40.9274 156.52 40.7015C156.154 40.4757 155.723 40.3627 155.229 40.3627C154.692 40.3627 154.223 40.4948 153.823 40.759C153.426 41.019 153.119 41.3599 152.902 41.7818C152.689 42.1994 152.583 42.6532 152.583 43.1433V44.2619C152.583 44.9181 152.698 45.4764 152.928 45.9366C153.162 46.3968 153.488 46.7484 153.906 46.9913C154.323 47.2299 154.811 47.3492 155.369 47.3492C155.732 47.3492 156.062 47.2981 156.36 47.1958C156.659 47.0893 156.916 46.9316 157.134 46.7228C157.351 46.514 157.517 46.2562 157.632 45.9494L159.441 46.2754C159.296 46.808 159.036 47.2747 158.661 47.6752C158.291 48.0715 157.824 48.3805 157.262 48.6021C156.703 48.8194 156.066 48.9281 155.35 48.9281ZM165.766 38.9117V40.4458H160.403V38.9117H165.766ZM161.842 36.5595H163.753V45.8471C163.753 46.2178 163.808 46.497 163.919 46.6845C164.03 46.8677 164.173 46.9934 164.347 47.0616C164.526 47.1255 164.72 47.1575 164.929 47.1575C165.082 47.1575 165.217 47.1468 165.332 47.1255C165.447 47.1042 165.536 47.0872 165.6 47.0744L165.945 48.6532C165.835 48.6958 165.677 48.7384 165.472 48.7811C165.268 48.8279 165.012 48.8535 164.705 48.8578C164.202 48.8663 163.734 48.7768 163.299 48.5893C162.864 48.4018 162.513 48.112 162.244 47.72C161.976 47.3279 161.842 46.8357 161.842 46.2434V36.5595ZM174.58 41.3088L172.847 41.6156C172.775 41.394 172.66 41.183 172.502 40.9828C172.349 40.7825 172.14 40.6184 171.876 40.4906C171.612 40.3627 171.281 40.2988 170.885 40.2988C170.344 40.2988 169.892 40.4203 169.53 40.6632C169.168 40.9018 168.987 41.2107 168.987 41.59C168.987 41.9181 169.108 42.1823 169.351 42.3826C169.594 42.5829 169.986 42.747 170.527 42.8748L172.087 43.2328C172.99 43.4416 173.663 43.7633 174.107 44.198C174.55 44.6326 174.771 45.1972 174.771 45.8919C174.771 46.4799 174.601 47.0041 174.26 47.4643C173.923 47.9203 173.452 48.2782 172.847 48.5382C172.246 48.7981 171.55 48.9281 170.757 48.9281C169.658 48.9281 168.761 48.6937 168.066 48.2249C167.371 47.7519 166.945 47.0808 166.788 46.2115L168.635 45.9302C168.75 46.4117 168.987 46.7761 169.344 47.0232C169.702 47.2661 170.169 47.3876 170.744 47.3876C171.371 47.3876 171.871 47.2576 172.246 46.9977C172.621 46.7335 172.809 46.4117 172.809 46.0325C172.809 45.7257 172.694 45.4678 172.464 45.259C172.238 45.0502 171.891 44.8926 171.422 44.786L169.76 44.4217C168.844 44.2129 168.166 43.8805 167.727 43.4245C167.293 42.9686 167.075 42.3911 167.075 41.6923C167.075 41.1127 167.237 40.6056 167.561 40.171C167.885 39.7363 168.332 39.3975 168.903 39.1546C169.474 38.9075 170.129 38.7839 170.866 38.7839C171.927 38.7839 172.762 39.014 173.371 39.4742C173.981 39.9302 174.384 40.5417 174.58 41.3088Z" fill="white"/>
<path opacity="0.75" d="M62.0994 70.2299H60.7784C60.7003 69.8499 60.5636 69.5161 60.3683 69.2285C60.1765 68.9409 59.9421 68.6994 59.6651 68.5041C59.3917 68.3052 59.0881 68.1561 58.7543 68.0566C58.4205 67.9572 58.0724 67.9075 57.7102 67.9075C57.0497 67.9075 56.4513 68.0744 55.9151 68.4082C55.3825 68.742 54.9581 69.2338 54.642 69.8837C54.3295 70.5335 54.1733 71.3308 54.1733 72.2754C54.1733 73.22 54.3295 74.0172 54.642 74.6671C54.9581 75.3169 55.3825 75.8088 55.9151 76.1426C56.4513 76.4764 57.0497 76.6433 57.7102 76.6433C58.0724 76.6433 58.4205 76.5936 58.7543 76.4941C59.0881 76.3947 59.3917 76.2473 59.6651 76.052C59.9421 75.8531 60.1765 75.6099 60.3683 75.3222C60.5636 75.0311 60.7003 74.6972 60.7784 74.3208H62.0994C62 74.8784 61.8189 75.3773 61.5561 75.8176C61.2933 76.258 60.9666 76.6326 60.576 76.9416C60.1854 77.247 59.7468 77.4796 59.2603 77.6394C58.7773 77.7992 58.2607 77.8791 57.7102 77.8791C56.7798 77.8791 55.9524 77.6518 55.228 77.1972C54.5036 76.7427 53.9336 76.0964 53.5181 75.2583C53.1026 74.4203 52.8949 73.4259 52.8949 72.2754C52.8949 71.1248 53.1026 70.1305 53.5181 69.2924C53.9336 68.4544 54.5036 67.808 55.228 67.3535C55.9524 66.899 56.7798 66.6717 57.7102 66.6717C58.2607 66.6717 58.7773 66.7516 59.2603 66.9114C59.7468 67.0712 60.1854 67.3056 60.576 67.6145C60.9666 67.9199 61.2933 68.2928 61.5561 68.7331C61.8189 69.1699 62 69.6688 62.0994 70.2299ZM67.3875 77.9004C66.6489 77.9004 66.0008 77.7246 65.4433 77.373C64.8893 77.0215 64.4561 76.5296 64.1436 75.8975C63.8346 75.2654 63.6801 74.5268 63.6801 73.6816C63.6801 72.8294 63.8346 72.0854 64.1436 71.4497C64.4561 70.8141 64.8893 70.3205 65.4433 69.9689C66.0008 69.6173 66.6489 69.4416 67.3875 69.4416C68.1262 69.4416 68.7725 69.6173 69.3264 69.9689C69.884 70.3205 70.3172 70.8141 70.6262 71.4497C70.9387 72.0854 71.0949 72.8294 71.0949 73.6816C71.0949 74.5268 70.9387 75.2654 70.6262 75.8975C70.3172 76.5296 69.884 77.0215 69.3264 77.373C68.7725 77.7246 68.1262 77.9004 67.3875 77.9004ZM67.3875 76.7711C67.9486 76.7711 68.4102 76.6273 68.7725 76.3396C69.1347 76.052 69.4028 75.6738 69.5768 75.2051C69.7508 74.7363 69.8378 74.2285 69.8378 73.6816C69.8378 73.1347 69.7508 72.6252 69.5768 72.1529C69.4028 71.6806 69.1347 71.2988 68.7725 71.0076C68.4102 70.7164 67.9486 70.5708 67.3875 70.5708C66.8264 70.5708 66.3648 70.7164 66.0026 71.0076C65.6404 71.2988 65.3722 71.6806 65.1982 72.1529C65.0242 72.6252 64.9372 73.1347 64.9372 73.6816C64.9372 74.2285 65.0242 74.7363 65.1982 75.2051C65.3722 75.6738 65.6404 76.052 66.0026 76.3396C66.3648 76.6273 66.8264 76.7711 67.3875 76.7711ZM74.271 72.808V77.7299H73.0138V69.5481H74.2283V70.8265H74.3349C74.5266 70.411 74.8178 70.0772 75.2085 69.8251C75.5991 69.5694 76.1033 69.4416 76.7212 69.4416C77.2752 69.4416 77.7599 69.5552 78.1754 69.7825C78.5909 70.0062 78.9141 70.3471 79.1449 70.8052C79.3757 71.2597 79.4911 71.835 79.4911 72.5311V77.7299H78.234V72.6163C78.234 71.9735 78.0671 71.4728 77.7333 71.1142C77.3995 70.7519 76.9414 70.5708 76.359 70.5708C75.9577 70.5708 75.5991 70.6578 75.283 70.8318C74.9705 71.0058 74.7237 71.2597 74.5426 71.5936C74.3615 71.9274 74.271 72.3322 74.271 72.808ZM87.5837 71.3805L86.4545 71.7001C86.3834 71.5119 86.2787 71.329 86.1402 71.1514C86.0052 70.9703 85.8206 70.8212 85.5862 70.704C85.3518 70.5868 85.0518 70.5282 84.686 70.5282C84.1853 70.5282 83.768 70.6436 83.4342 70.8745C83.104 71.1017 82.9388 71.3911 82.9388 71.7427C82.9388 72.0552 83.0525 72.302 83.2797 72.4831C83.507 72.6642 83.8621 72.8151 84.3451 72.9359L85.5596 73.2342C86.2911 73.4117 86.8362 73.6834 87.1949 74.0492C87.5535 74.4114 87.7329 74.8784 87.7329 75.4501C87.7329 75.9188 87.5979 76.3379 87.328 76.7072C87.0617 77.0765 86.6888 77.3677 86.2094 77.5808C85.73 77.7938 85.1725 77.9004 84.5368 77.9004C83.7023 77.9004 83.0116 77.7193 82.4648 77.3571C81.9179 76.9948 81.5716 76.4657 81.426 75.7697L82.6192 75.4714C82.7329 75.9117 82.9477 76.242 83.2638 76.4622C83.5834 76.6823 84.0006 76.7924 84.5155 76.7924C85.1015 76.7924 85.5667 76.6681 85.9111 76.4196C86.2591 76.1674 86.4332 75.8656 86.4332 75.514C86.4332 75.2299 86.3337 74.992 86.1349 74.8002C85.936 74.6049 85.6306 74.4593 85.2187 74.3634L83.855 74.0438C83.1057 73.8663 82.5553 73.5911 82.2037 73.2182C81.8557 72.8418 81.6817 72.3713 81.6817 71.8066C81.6817 71.345 81.8113 70.9366 82.0706 70.5815C82.3334 70.2264 82.6903 69.9476 83.1412 69.7452C83.5958 69.5428 84.1107 69.4416 84.686 69.4416C85.4956 69.4416 86.1313 69.6191 86.593 69.9742C87.0581 70.3294 87.3884 70.7981 87.5837 71.3805ZM92.949 77.9004C92.2104 77.9004 91.5623 77.7246 91.0048 77.373C90.4508 77.0215 90.0176 76.5296 89.7051 75.8975C89.3961 75.2654 89.2417 74.5268 89.2417 73.6816C89.2417 72.8294 89.3961 72.0854 89.7051 71.4497C90.0176 70.8141 90.4508 70.3205 91.0048 69.9689C91.5623 69.6173 92.2104 69.4416 92.949 69.4416C93.6877 69.4416 94.334 69.6173 94.888 69.9689C95.4455 70.3205 95.8787 70.8141 96.1877 71.4497C96.5002 72.0854 96.6564 72.8294 96.6564 73.6816C96.6564 74.5268 96.5002 75.2654 96.1877 75.8975C95.8787 76.5296 95.4455 77.0215 94.888 77.373C94.334 77.7246 93.6877 77.9004 92.949 77.9004ZM92.949 76.7711C93.5101 76.7711 93.9718 76.6273 94.334 76.3396C94.6962 76.052 94.9643 75.6738 95.1383 75.2051C95.3123 74.7363 95.3993 74.2285 95.3993 73.6816C95.3993 73.1347 95.3123 72.6252 95.1383 72.1529C94.9643 71.6806 94.6962 71.2988 94.334 71.0076C93.9718 70.7164 93.5101 70.5708 92.949 70.5708C92.388 70.5708 91.9263 70.7164 91.5641 71.0076C91.2019 71.2988 90.9338 71.6806 90.7598 72.1529C90.5858 72.6252 90.4988 73.1347 90.4988 73.6816C90.4988 74.2285 90.5858 74.7363 90.7598 75.2051C90.9338 75.6738 91.2019 76.052 91.5641 76.3396C91.9263 76.6273 92.388 76.7711 92.949 76.7711ZM99.8325 66.8208V77.7299H98.5754V66.8208H99.8325ZM102.135 77.7299V69.5481H103.392V77.7299H102.135ZM102.774 68.1845C102.529 68.1845 102.318 68.101 102.14 67.9341C101.966 67.7672 101.879 67.5666 101.879 67.3322C101.879 67.0978 101.966 66.8972 102.14 66.7303C102.318 66.5634 102.529 66.4799 102.774 66.4799C103.019 66.4799 103.229 66.5634 103.403 66.7303C103.58 66.8972 103.669 67.0978 103.669 67.3322C103.669 67.5666 103.58 67.7672 103.403 67.9341C103.229 68.101 103.019 68.1845 102.774 68.1845ZM108.784 77.9004C108.102 77.9004 107.5 77.7281 106.978 77.3837C106.456 77.0357 106.048 76.5456 105.753 75.9135C105.458 75.2779 105.311 74.5268 105.311 73.6603C105.311 72.8009 105.458 72.0552 105.753 71.4231C106.048 70.791 106.458 70.3027 106.984 69.9583C107.509 69.6138 108.116 69.4416 108.805 69.4416C109.338 69.4416 109.759 69.5303 110.068 69.7079C110.38 69.8819 110.618 70.0808 110.782 70.3045C110.948 70.5247 111.078 70.7058 111.17 70.8478H111.277V66.8208H112.534V77.7299H111.32V76.4728H111.17C111.078 76.622 110.947 76.8102 110.776 77.0374C110.606 77.2612 110.362 77.4618 110.046 77.6394C109.73 77.8134 109.31 77.9004 108.784 77.9004ZM108.954 76.7711C109.459 76.7711 109.885 76.6397 110.233 76.3769C110.581 76.1106 110.845 75.7431 111.027 75.2743C111.208 74.802 111.298 74.2569 111.298 73.639C111.298 73.0282 111.209 72.4938 111.032 72.0357C110.854 71.574 110.592 71.2154 110.244 70.9597C109.896 70.7004 109.466 70.5708 108.954 70.5708C108.422 70.5708 107.978 70.7075 107.623 70.981C107.271 71.2509 107.007 71.6184 106.829 72.0836C106.655 72.5453 106.568 73.0637 106.568 73.639C106.568 74.2214 106.657 74.7505 106.834 75.2264C107.016 75.6987 107.282 76.0751 107.633 76.3556C107.989 76.6326 108.429 76.7711 108.954 76.7711ZM117.419 77.9217C116.9 77.9217 116.43 77.824 116.007 77.6287C115.584 77.4298 115.249 77.144 115 76.7711C114.752 76.3947 114.627 75.9401 114.627 75.4075C114.627 74.9387 114.72 74.5588 114.904 74.2676C115.089 73.9728 115.336 73.742 115.645 73.5751C115.954 73.4082 116.295 73.2839 116.668 73.2022C117.044 73.117 117.422 73.0495 117.802 72.9998C118.299 72.9359 118.702 72.8879 119.011 72.856C119.324 72.8205 119.551 72.7619 119.693 72.6802C119.839 72.5985 119.911 72.4565 119.911 72.2541V72.2115C119.911 71.6859 119.768 71.2775 119.48 70.9863C119.196 70.6951 118.764 70.5495 118.186 70.5495C117.585 70.5495 117.115 70.6809 116.774 70.9437C116.433 71.2065 116.193 71.487 116.055 71.7853L114.862 71.3592C115.075 70.862 115.359 70.4749 115.714 70.198C116.073 69.9174 116.463 69.7221 116.886 69.612C117.312 69.4984 117.731 69.4416 118.143 69.4416C118.406 69.4416 118.708 69.4735 119.049 69.5374C119.393 69.5978 119.725 69.7239 120.045 69.9156C120.368 70.1074 120.636 70.3968 120.849 70.7839C121.062 71.171 121.169 71.6894 121.169 72.3393V77.7299H119.911V76.622H119.848C119.762 76.7995 119.62 76.9895 119.421 77.1919C119.223 77.3943 118.958 77.5666 118.628 77.7086C118.297 77.8507 117.894 77.9217 117.419 77.9217ZM117.61 76.7924C118.108 76.7924 118.527 76.6948 118.867 76.4995C119.212 76.3041 119.471 76.052 119.645 75.7431C119.823 75.4341 119.911 75.1092 119.911 74.7683V73.6177C119.858 73.6816 119.741 73.7402 119.56 73.7935C119.382 73.8432 119.176 73.8876 118.942 73.9267C118.711 73.9622 118.486 73.9941 118.266 74.0225C118.049 74.0474 117.873 74.0687 117.738 74.0865C117.411 74.1291 117.106 74.1983 116.822 74.2942C116.541 74.3865 116.314 74.5268 116.14 74.715C115.97 74.8997 115.884 75.1518 115.884 75.4714C115.884 75.9082 116.046 76.2384 116.369 76.4622C116.696 76.6823 117.11 76.7924 117.61 76.7924ZM127.021 69.5481V70.6134H122.781V69.5481H127.021ZM124.017 67.5879H125.274V75.3862C125.274 75.7413 125.326 76.0076 125.429 76.1852C125.535 76.3592 125.67 76.4764 125.833 76.5367C126 76.5936 126.176 76.622 126.361 76.622C126.499 76.622 126.613 76.6149 126.702 76.6007C126.79 76.5829 126.862 76.5687 126.915 76.558L127.17 77.6873C127.085 77.7193 126.966 77.7512 126.814 77.7832C126.661 77.8187 126.467 77.8365 126.233 77.8365C125.878 77.8365 125.53 77.7601 125.189 77.6074C124.852 77.4547 124.571 77.2221 124.347 76.9096C124.127 76.5971 124.017 76.2029 124.017 75.7271V67.5879ZM132.255 77.9004C131.466 77.9004 130.786 77.7264 130.215 77.3784C129.646 77.0268 129.208 76.5367 128.899 75.9082C128.594 75.2761 128.441 74.541 128.441 73.7029C128.441 72.8649 128.594 72.1262 128.899 71.487C129.208 70.8443 129.638 70.3436 130.188 69.9849C130.742 69.6227 131.388 69.4416 132.127 69.4416C132.553 69.4416 132.974 69.5126 133.389 69.6546C133.805 69.7967 134.183 70.0275 134.524 70.3471C134.865 70.6632 135.137 71.0822 135.339 71.6042C135.541 72.1262 135.643 72.769 135.643 73.5325V74.0651H129.336V72.9785H134.364C134.364 72.5169 134.272 72.1049 134.087 71.7427C133.906 71.3805 133.647 71.0946 133.309 70.8851C132.976 70.6756 132.581 70.5708 132.127 70.5708C131.626 70.5708 131.193 70.6951 130.827 70.9437C130.465 71.1887 130.186 71.5083 129.991 71.9025C129.796 72.2967 129.698 72.7193 129.698 73.1703V73.8947C129.698 74.5126 129.805 75.0364 130.018 75.4661C130.234 75.8922 130.534 76.2171 130.918 76.4409C131.301 76.661 131.747 76.7711 132.255 76.7711C132.585 76.7711 132.883 76.7249 133.15 76.6326C133.42 76.5367 133.652 76.3947 133.847 76.2065C134.043 76.0147 134.194 75.7768 134.3 75.4927L135.515 75.8336C135.387 76.2455 135.172 76.6078 134.87 76.9203C134.568 77.2292 134.195 77.4707 133.752 77.6447C133.308 77.8151 132.809 77.9004 132.255 77.9004ZM144.181 77.9217C143.663 77.9217 143.192 77.824 142.77 77.6287C142.347 77.4298 142.012 77.144 141.763 76.7711C141.514 76.3947 141.39 75.9401 141.39 75.4075C141.39 74.9387 141.482 74.5588 141.667 74.2676C141.852 73.9728 142.099 73.742 142.407 73.5751C142.716 73.4082 143.057 73.2839 143.43 73.2022C143.807 73.117 144.185 73.0495 144.565 72.9998C145.062 72.9359 145.465 72.8879 145.774 72.856C146.086 72.8205 146.314 72.7619 146.456 72.6802C146.601 72.5985 146.674 72.4565 146.674 72.2541V72.2115C146.674 71.6859 146.53 71.2775 146.243 70.9863C145.959 70.6951 145.527 70.5495 144.948 70.5495C144.348 70.5495 143.878 70.6809 143.537 70.9437C143.196 71.2065 142.956 71.487 142.818 71.7853L141.624 71.3592C141.838 70.862 142.122 70.4749 142.477 70.198C142.835 69.9174 143.226 69.7221 143.649 69.612C144.075 69.4984 144.494 69.4416 144.906 69.4416C145.169 69.4416 145.47 69.4735 145.811 69.5374C146.156 69.5978 146.488 69.7239 146.807 69.9156C147.131 70.1074 147.399 70.3968 147.612 70.7839C147.825 71.171 147.931 71.6894 147.931 72.3393V77.7299H146.674V76.622H146.61C146.525 76.7995 146.383 76.9895 146.184 77.1919C145.985 77.3943 145.721 77.5666 145.39 77.7086C145.06 77.8507 144.657 77.9217 144.181 77.9217ZM144.373 76.7924C144.87 76.7924 145.289 76.6948 145.63 76.4995C145.975 76.3041 146.234 76.052 146.408 75.7431C146.585 75.4341 146.674 75.1092 146.674 74.7683V73.6177C146.621 73.6816 146.504 73.7402 146.323 73.7935C146.145 73.8432 145.939 73.8876 145.705 73.9267C145.474 73.9622 145.248 73.9941 145.028 74.0225C144.812 74.0474 144.636 74.0687 144.501 74.0865C144.174 74.1291 143.869 74.1983 143.585 74.2942C143.304 74.3865 143.077 74.5268 142.903 74.715C142.732 74.8997 142.647 75.1518 142.647 75.4714C142.647 75.9082 142.809 76.2384 143.132 76.4622C143.459 76.6823 143.872 76.7924 144.373 76.7924ZM151.483 72.808V77.7299H150.226V69.5481H151.44V70.8265H151.547C151.739 70.411 152.03 70.0772 152.42 69.8251C152.811 69.5694 153.315 69.4416 153.933 69.4416C154.487 69.4416 154.972 69.5552 155.387 69.7825C155.803 70.0062 156.126 70.3471 156.357 70.8052C156.588 71.2597 156.703 71.835 156.703 72.5311V77.7299H155.446V72.6163C155.446 71.9735 155.279 71.4728 154.945 71.1142C154.611 70.7519 154.153 70.5708 153.571 70.5708C153.17 70.5708 152.811 70.6578 152.495 70.8318C152.182 71.0058 151.936 71.2597 151.755 71.5936C151.573 71.9274 151.483 72.3322 151.483 72.808ZM162.09 77.9004C161.408 77.9004 160.806 77.7281 160.284 77.3837C159.762 77.0357 159.354 76.5456 159.059 75.9135C158.764 75.2779 158.617 74.5268 158.617 73.6603C158.617 72.8009 158.764 72.0552 159.059 71.4231C159.354 70.791 159.764 70.3027 160.289 69.9583C160.815 69.6138 161.422 69.4416 162.111 69.4416C162.644 69.4416 163.064 69.5303 163.373 69.7079C163.686 69.8819 163.924 70.0808 164.087 70.3045C164.254 70.5247 164.384 70.7058 164.476 70.8478H164.583V66.8208H165.84V77.7299H164.625V76.4728H164.476C164.384 76.622 164.252 76.8102 164.082 77.0374C163.911 77.2612 163.668 77.4618 163.352 77.6394C163.036 77.8134 162.615 77.9004 162.09 77.9004ZM162.26 76.7711C162.764 76.7711 163.191 76.6397 163.539 76.3769C163.887 76.1106 164.151 75.7431 164.332 75.2743C164.513 74.802 164.604 74.2569 164.604 73.639C164.604 73.0282 164.515 72.4938 164.338 72.0357C164.16 71.574 163.897 71.2154 163.549 70.9597C163.201 70.7004 162.771 70.5708 162.26 70.5708C161.727 70.5708 161.284 70.7075 160.928 70.981C160.577 71.2509 160.312 71.6184 160.135 72.0836C159.961 72.5453 159.874 73.0637 159.874 73.639C159.874 74.2214 159.963 74.7505 160.14 75.2264C160.321 75.6987 160.588 76.0751 160.939 76.3556C161.294 76.6326 161.735 76.7711 162.26 76.7711ZM172.535 77.7299V69.5481H173.75V70.8265H173.856C174.027 70.3897 174.302 70.0506 174.682 69.8091C175.062 69.5641 175.518 69.4416 176.051 69.4416C176.591 69.4416 177.04 69.5641 177.399 69.8091C177.761 70.0506 178.043 70.3897 178.246 70.8265H178.331C178.54 70.4039 178.855 70.0683 179.274 69.8198C179.693 69.5676 180.195 69.4416 180.781 69.4416C181.513 69.4416 182.111 69.6706 182.576 70.1287C183.041 70.5833 183.274 71.2917 183.274 72.2541V77.7299H182.017V72.2541C182.017 71.6504 181.852 71.2189 181.521 70.9597C181.191 70.7004 180.802 70.5708 180.355 70.5708C179.78 70.5708 179.334 70.7448 179.018 71.0928C178.702 71.4373 178.544 71.8741 178.544 72.4032V77.7299H177.265V72.1262C177.265 71.661 177.115 71.2864 176.813 71.0023C176.511 70.7146 176.122 70.5708 175.646 70.5708C175.319 70.5708 175.014 70.6578 174.73 70.8318C174.449 71.0058 174.222 71.2473 174.048 71.5563C173.878 71.8617 173.792 72.215 173.792 72.6163V77.7299H172.535ZM188.896 77.9004C188.158 77.9004 187.51 77.7246 186.952 77.373C186.398 77.0215 185.965 76.5296 185.652 75.8975C185.343 75.2654 185.189 74.5268 185.189 73.6816C185.189 72.8294 185.343 72.0854 185.652 71.4497C185.965 70.8141 186.398 70.3205 186.952 69.9689C187.51 69.6173 188.158 69.4416 188.896 69.4416C189.635 69.4416 190.281 69.6173 190.835 69.9689C191.393 70.3205 191.826 70.8141 192.135 71.4497C192.447 72.0854 192.604 72.8294 192.604 73.6816C192.604 74.5268 192.447 75.2654 192.135 75.8975C191.826 76.5296 191.393 77.0215 190.835 77.373C190.281 77.7246 189.635 77.9004 188.896 77.9004ZM188.896 76.7711C189.457 76.7711 189.919 76.6273 190.281 76.3396C190.643 76.052 190.912 75.6738 191.086 75.2051C191.26 74.7363 191.347 74.2285 191.347 73.6816C191.347 73.1347 191.26 72.6252 191.086 72.1529C190.912 71.6806 190.643 71.2988 190.281 71.0076C189.919 70.7164 189.457 70.5708 188.896 70.5708C188.335 70.5708 187.874 70.7164 187.511 71.0076C187.149 71.2988 186.881 71.6806 186.707 72.1529C186.533 72.6252 186.446 73.1347 186.446 73.6816C186.446 74.2285 186.533 74.7363 186.707 75.2051C186.881 75.6738 187.149 76.052 187.511 76.3396C187.874 76.6273 188.335 76.7711 188.896 76.7711ZM195.78 72.808V77.7299H194.523V69.5481H195.737V70.8265H195.844C196.035 70.411 196.327 70.0772 196.717 69.8251C197.108 69.5694 197.612 69.4416 198.23 69.4416C198.784 69.4416 199.269 69.5552 199.684 69.7825C200.1 70.0062 200.423 70.3471 200.654 70.8052C200.884 71.2597 201 71.835 201 72.5311V77.7299H199.743V72.6163C199.743 71.9735 199.576 71.4728 199.242 71.1142C198.908 70.7519 198.45 70.5708 197.868 70.5708C197.467 70.5708 197.108 70.6578 196.792 70.8318C196.479 71.0058 196.233 71.2597 196.051 71.5936C195.87 71.9274 195.78 72.3322 195.78 72.808ZM203.297 77.7299V69.5481H204.554V77.7299H203.297ZM203.936 68.1845C203.691 68.1845 203.48 68.101 203.302 67.9341C203.128 67.7672 203.041 67.5666 203.041 67.3322C203.041 67.0978 203.128 66.8972 203.302 66.7303C203.48 66.5634 203.691 66.4799 203.936 66.4799C204.181 66.4799 204.391 66.5634 204.565 66.7303C204.742 66.8972 204.831 67.0978 204.831 67.3322C204.831 67.5666 204.742 67.7672 204.565 67.9341C204.391 68.101 204.181 68.1845 203.936 68.1845ZM210.415 69.5481V70.6134H206.175V69.5481H210.415ZM207.411 67.5879H208.668V75.3862C208.668 75.7413 208.719 76.0076 208.822 76.1852C208.929 76.3592 209.064 76.4764 209.227 76.5367C209.394 76.5936 209.57 76.622 209.754 76.622C209.893 76.622 210.006 76.6149 210.095 76.6007C210.184 76.5829 210.255 76.5687 210.308 76.558L210.564 77.6873C210.479 77.7193 210.36 77.7512 210.207 77.7832C210.054 77.8187 209.861 77.8365 209.627 77.8365C209.271 77.8365 208.923 77.7601 208.582 77.6074C208.245 77.4547 207.965 77.2221 207.741 76.9096C207.521 76.5971 207.411 76.2029 207.411 75.7271V67.5879ZM215.542 77.9004C214.803 77.9004 214.155 77.7246 213.598 77.373C213.044 77.0215 212.61 76.5296 212.298 75.8975C211.989 75.2654 211.834 74.5268 211.834 73.6816C211.834 72.8294 211.989 72.0854 212.298 71.4497C212.61 70.8141 213.044 70.3205 213.598 69.9689C214.155 69.6173 214.803 69.4416 215.542 69.4416C216.28 69.4416 216.927 69.6173 217.481 69.9689C218.038 70.3205 218.472 70.8141 218.78 71.4497C219.093 72.0854 219.249 72.8294 219.249 73.6816C219.249 74.5268 219.093 75.2654 218.78 75.8975C218.472 76.5296 218.038 77.0215 217.481 77.373C216.927 77.7246 216.28 77.9004 215.542 77.9004ZM215.542 76.7711C216.103 76.7711 216.565 76.6273 216.927 76.3396C217.289 76.052 217.557 75.6738 217.731 75.2051C217.905 74.7363 217.992 74.2285 217.992 73.6816C217.992 73.1347 217.905 72.6252 217.731 72.1529C217.557 71.6806 217.289 71.2988 216.927 71.0076C216.565 70.7164 216.103 70.5708 215.542 70.5708C214.981 70.5708 214.519 70.7164 214.157 71.0076C213.795 71.2988 213.527 71.6806 213.353 72.1529C213.179 72.6252 213.092 73.1347 213.092 73.6816C213.092 74.2285 213.179 74.7363 213.353 75.2051C213.527 75.6738 213.795 76.052 214.157 76.3396C214.519 76.6273 214.981 76.7711 215.542 76.7711ZM221.168 77.7299V69.5481H222.383V70.7839H222.468C222.617 70.3791 222.887 70.0506 223.278 69.7985C223.668 69.5463 224.108 69.4203 224.599 69.4203C224.691 69.4203 224.806 69.422 224.945 69.4256C225.083 69.4291 225.188 69.4345 225.259 69.4416V70.72C225.216 70.7093 225.119 70.6933 224.966 70.672C224.817 70.6472 224.659 70.6347 224.492 70.6347C224.094 70.6347 223.739 70.7182 223.427 70.8851C223.118 71.0485 222.873 71.2757 222.692 71.5669C222.514 71.8546 222.425 72.183 222.425 72.5524V77.7299H221.168ZM55.5582 98.9217C55.0398 98.9217 54.5692 98.824 54.1467 98.6287C53.7241 98.4298 53.3885 98.144 53.1399 97.7711C52.8913 97.3947 52.767 96.9401 52.767 96.4075C52.767 95.9387 52.8594 95.5588 53.044 95.2676C53.2287 94.9728 53.4755 94.742 53.7844 94.5751C54.0934 94.4082 54.4343 94.2839 54.8072 94.2022C55.1836 94.117 55.5618 94.0495 55.9418 93.9998C56.4389 93.9359 56.842 93.8879 57.1509 93.856C57.4634 93.8205 57.6907 93.7619 57.8327 93.6802C57.9783 93.5985 58.0511 93.4565 58.0511 93.2541V93.2115C58.0511 92.6859 57.9073 92.2775 57.6197 91.9863C57.3356 91.6951 56.9041 91.5495 56.3253 91.5495C55.7251 91.5495 55.2546 91.6809 54.9137 91.9437C54.5728 92.2065 54.3331 92.487 54.1946 92.7853L53.0014 92.3592C53.2145 91.862 53.4986 91.4749 53.8537 91.198C54.2124 90.9174 54.603 90.7221 55.0256 90.612C55.4517 90.4984 55.8707 90.4416 56.2827 90.4416C56.5455 90.4416 56.8473 90.4735 57.1882 90.5374C57.5327 90.5978 57.8647 90.7239 58.1843 90.9156C58.5075 91.1074 58.7756 91.3968 58.9886 91.7839C59.2017 92.171 59.3082 92.6894 59.3082 93.3393V98.7299H58.0511V97.622H57.9872C57.902 97.7995 57.7599 97.9895 57.5611 98.1919C57.3622 98.3943 57.0977 98.5666 56.7674 98.7086C56.4371 98.8507 56.0341 98.9217 55.5582 98.9217ZM55.75 97.7924C56.2472 97.7924 56.6662 97.6948 57.0071 97.4995C57.3516 97.3041 57.6108 97.052 57.7848 96.7431C57.9624 96.4341 58.0511 96.1092 58.0511 95.7683V94.6177C57.9979 94.6816 57.8807 94.7402 57.6996 94.7935C57.522 94.8432 57.3161 94.8876 57.0817 94.9267C56.8509 94.9622 56.6254 94.9941 56.4052 95.0225C56.1886 95.0474 56.0128 95.0687 55.8778 95.0865C55.5511 95.1291 55.2457 95.1983 54.9616 95.2942C54.6811 95.3865 54.4538 95.5268 54.2798 95.715C54.1094 95.8997 54.0241 96.1518 54.0241 96.4714C54.0241 96.9082 54.1857 97.2384 54.5089 97.4622C54.8356 97.6823 55.2493 97.7924 55.75 97.7924ZM62.8598 87.8208V98.7299H61.6027V87.8208H62.8598ZM66.4194 87.8208V98.7299H65.1623V87.8208H66.4194ZM73.7503 101.798C73.5372 101.798 73.3472 101.78 73.1803 101.745C73.0134 101.713 72.898 101.681 72.8341 101.649L73.1537 100.541C73.4591 100.619 73.729 100.648 73.9633 100.626C74.1977 100.605 74.4055 100.5 74.5866 100.312C74.7712 100.127 74.9399 99.8272 75.0926 99.4117L75.327 98.7725L72.3014 90.5481H73.665L75.9236 97.068H76.0088L78.2673 90.5481H79.6309L76.1579 99.9231C76.0017 100.346 75.8081 100.695 75.5773 100.972C75.3465 101.253 75.0784 101.461 74.773 101.596C74.4711 101.731 74.1302 101.798 73.7503 101.798ZM84.3211 98.9004C83.5825 98.9004 82.9344 98.7246 82.3769 98.373C81.8229 98.0215 81.3896 97.5296 81.0771 96.8975C80.7682 96.2654 80.6137 95.5268 80.6137 94.6816C80.6137 93.8294 80.7682 93.0854 81.0771 92.4497C81.3896 91.8141 81.8229 91.3205 82.3769 90.9689C82.9344 90.6173 83.5825 90.4416 84.3211 90.4416C85.0597 90.4416 85.7061 90.6173 86.26 90.9689C86.8176 91.3205 87.2508 91.8141 87.5597 92.4497C87.8722 93.0854 88.0285 93.8294 88.0285 94.6816C88.0285 95.5268 87.8722 96.2654 87.5597 96.8975C87.2508 97.5296 86.8176 98.0215 86.26 98.373C85.7061 98.7246 85.0597 98.9004 84.3211 98.9004ZM84.3211 97.7711C84.8822 97.7711 85.3438 97.6273 85.7061 97.3396C86.0683 97.052 86.3364 96.6738 86.5104 96.2051C86.6844 95.7363 86.7714 95.2285 86.7714 94.6816C86.7714 94.1347 86.6844 93.6252 86.5104 93.1529C86.3364 92.6806 86.0683 92.2988 85.7061 92.0076C85.3438 91.7164 84.8822 91.5708 84.3211 91.5708C83.76 91.5708 83.2984 91.7164 82.9362 92.0076C82.574 92.2988 82.3058 92.6806 82.1318 93.1529C81.9578 93.6252 81.8708 94.1347 81.8708 94.6816C81.8708 95.2285 81.9578 95.7363 82.1318 96.2051C82.3058 96.6738 82.574 97.052 82.9362 97.3396C83.2984 97.6273 83.76 97.7711 84.3211 97.7711ZM95.1037 95.3847V90.5481H96.3608V98.7299H95.1037V97.345H95.0185C94.8267 97.7605 94.5284 98.1138 94.1236 98.405C93.7188 98.6926 93.2074 98.8365 92.5895 98.8365C92.0781 98.8365 91.6236 98.7246 91.2259 98.5009C90.8281 98.2736 90.5156 97.9327 90.2884 97.4781C90.0611 97.02 89.9474 96.443 89.9474 95.747V90.5481H91.2045V95.6617C91.2045 96.2583 91.3714 96.7342 91.7053 97.0893C92.0426 97.4444 92.4723 97.622 92.9943 97.622C93.3068 97.622 93.6246 97.5421 93.9478 97.3823C94.2745 97.2225 94.5479 96.9774 94.7681 96.6472C94.9918 96.3169 95.1037 95.8961 95.1037 95.3847ZM98.6633 98.7299V90.5481H99.8778V91.7839H99.963C100.112 91.3791 100.382 91.0506 100.773 90.7985C101.163 90.5463 101.604 90.4203 102.094 90.4203C102.186 90.4203 102.301 90.422 102.44 90.4256C102.578 90.4291 102.683 90.4345 102.754 90.4416V91.72C102.712 91.7093 102.614 91.6933 102.461 91.672C102.312 91.6472 102.154 91.6347 101.987 91.6347C101.589 91.6347 101.234 91.7182 100.922 91.8851C100.613 92.0485 100.368 92.2757 100.187 92.5669C100.009 92.8546 99.9204 93.183 99.9204 93.5524V98.7299H98.6633ZM111.893 98.9004C111.105 98.9004 110.425 98.7264 109.853 98.3784C109.285 98.0268 108.847 97.5367 108.538 96.9082C108.232 96.2761 108.08 95.541 108.08 94.7029C108.08 93.8649 108.232 93.1262 108.538 92.487C108.847 91.8443 109.276 91.3436 109.827 90.9849C110.381 90.6227 111.027 90.4416 111.766 90.4416C112.192 90.4416 112.613 90.5126 113.028 90.6546C113.444 90.7967 113.822 91.0275 114.163 91.3471C114.504 91.6632 114.775 92.0822 114.978 92.6042C115.18 93.1262 115.281 93.769 115.281 94.5325V95.0651H108.974V93.9785H114.003C114.003 93.5169 113.911 93.1049 113.726 92.7427C113.545 92.3805 113.286 92.0946 112.948 91.8851C112.614 91.6756 112.22 91.5708 111.766 91.5708C111.265 91.5708 110.832 91.6951 110.466 91.9437C110.104 92.1887 109.825 92.5083 109.63 92.9025C109.434 93.2967 109.337 93.7193 109.337 94.1703V94.8947C109.337 95.5126 109.443 96.0364 109.656 96.4661C109.873 96.8922 110.173 97.2171 110.556 97.4409C110.94 97.661 111.386 97.7711 111.893 97.7711C112.224 97.7711 112.522 97.7249 112.788 97.6326C113.058 97.5367 113.291 97.3947 113.486 97.2065C113.681 97.0147 113.832 96.7768 113.939 96.4927L115.153 96.8336C115.026 97.2455 114.811 97.6078 114.509 97.9203C114.207 98.2292 113.834 98.4707 113.39 98.6447C112.946 98.8151 112.447 98.9004 111.893 98.9004ZM122.776 101.798V97.4728H122.669C122.577 97.622 122.446 97.8102 122.275 98.0374C122.105 98.2612 121.862 98.4618 121.545 98.6394C121.229 98.8134 120.809 98.9004 120.283 98.9004C119.601 98.9004 118.999 98.7281 118.477 98.3837C117.955 98.0357 117.547 97.5456 117.252 96.9135C116.957 96.2779 116.81 95.5268 116.81 94.6603C116.81 93.8009 116.957 93.0552 117.252 92.4231C117.547 91.791 117.957 91.3027 118.483 90.9583C119.008 90.6138 119.615 90.4416 120.304 90.4416C120.837 90.4416 121.258 90.5303 121.567 90.7079C121.879 90.8819 122.117 91.0808 122.281 91.3045C122.447 91.5247 122.577 91.7058 122.669 91.8478H122.819V90.5481H124.033V101.798H122.776ZM120.453 97.7711C120.958 97.7711 121.384 97.6397 121.732 97.3769C122.08 97.1106 122.344 96.7431 122.526 96.2743C122.707 95.802 122.797 95.2569 122.797 94.639C122.797 94.0282 122.708 93.4938 122.531 93.0357C122.353 92.574 122.091 92.2154 121.743 91.9597C121.395 91.7004 120.965 91.5708 120.453 91.5708C119.921 91.5708 119.477 91.7075 119.122 91.981C118.77 92.2509 118.506 92.6184 118.328 93.0836C118.154 93.5453 118.067 94.0637 118.067 94.639C118.067 95.2214 118.156 95.7505 118.333 96.2264C118.515 96.6987 118.781 97.0751 119.132 97.3556C119.488 97.6326 119.928 97.7711 120.453 97.7711ZM131.49 95.3847V90.5481H132.748V98.7299H131.49V97.345H131.405C131.213 97.7605 130.915 98.1138 130.51 98.405C130.105 98.6926 129.594 98.8365 128.976 98.8365C128.465 98.8365 128.01 98.7246 127.613 98.5009C127.215 98.2736 126.902 97.9327 126.675 97.4781C126.448 97.02 126.334 96.443 126.334 95.747V90.5481H127.591V95.6617C127.591 96.2583 127.758 96.7342 128.092 97.0893C128.429 97.4444 128.859 97.622 129.381 97.622C129.694 97.622 130.011 97.5421 130.335 97.3823C130.661 97.2225 130.935 96.9774 131.155 96.6472C131.379 96.3169 131.49 95.8961 131.49 95.3847ZM135.05 98.7299V90.5481H136.307V98.7299H135.05ZM135.689 89.1845C135.444 89.1845 135.233 89.101 135.055 88.9341C134.881 88.7672 134.794 88.5666 134.794 88.3322C134.794 88.0978 134.881 87.8972 135.055 87.7303C135.233 87.5634 135.444 87.4799 135.689 87.4799C135.934 87.4799 136.144 87.5634 136.318 87.7303C136.495 87.8972 136.584 88.0978 136.584 88.3322C136.584 88.5666 136.495 88.7672 136.318 88.9341C136.144 89.101 135.934 89.1845 135.689 89.1845ZM142.168 90.5481V91.6134H137.928V90.5481H142.168ZM139.164 88.5879H140.421V96.3862C140.421 96.7413 140.472 97.0076 140.575 97.1852C140.682 97.3592 140.817 97.4764 140.98 97.5367C141.147 97.5936 141.323 97.622 141.507 97.622C141.646 97.622 141.759 97.6149 141.848 97.6007C141.937 97.5829 142.008 97.5687 142.061 97.558L142.317 98.6873C142.232 98.7193 142.113 98.7512 141.96 98.7832C141.807 98.8187 141.614 98.8365 141.379 98.8365C141.024 98.8365 140.676 98.7601 140.335 98.6074C139.998 98.4547 139.718 98.2221 139.494 97.9096C139.274 97.5971 139.164 97.2029 139.164 96.7271V88.5879ZM144.059 98.7299V90.5481H145.316V98.7299H144.059ZM144.698 89.1845C144.453 89.1845 144.242 89.101 144.064 88.9341C143.89 88.7672 143.803 88.5666 143.803 88.3322C143.803 88.0978 143.89 87.8972 144.064 87.7303C144.242 87.5634 144.453 87.4799 144.698 87.4799C144.943 87.4799 145.153 87.5634 145.327 87.7303C145.504 87.8972 145.593 88.0978 145.593 88.3322C145.593 88.5666 145.504 88.7672 145.327 88.9341C145.153 89.101 144.943 89.1845 144.698 89.1845ZM151.049 98.9004C150.26 98.9004 149.58 98.7264 149.009 98.3784C148.44 98.0268 148.002 97.5367 147.693 96.9082C147.388 96.2761 147.235 95.541 147.235 94.7029C147.235 93.8649 147.388 93.1262 147.693 92.487C148.002 91.8443 148.432 91.3436 148.982 90.9849C149.536 90.6227 150.182 90.4416 150.921 90.4416C151.347 90.4416 151.768 90.5126 152.183 90.6546C152.599 90.7967 152.977 91.0275 153.318 91.3471C153.659 91.6632 153.93 92.0822 154.133 92.6042C154.335 93.1262 154.437 93.769 154.437 94.5325V95.0651H148.13V93.9785H153.158C153.158 93.5169 153.066 93.1049 152.881 92.7427C152.7 92.3805 152.441 92.0946 152.103 91.8851C151.77 91.6756 151.375 91.5708 150.921 91.5708C150.42 91.5708 149.987 91.6951 149.621 91.9437C149.259 92.1887 148.98 92.5083 148.785 92.9025C148.59 93.2967 148.492 93.7193 148.492 94.1703V94.8947C148.492 95.5126 148.598 96.0364 148.812 96.4661C149.028 96.8922 149.328 97.2171 149.712 97.4409C150.095 97.661 150.541 97.7711 151.049 97.7711C151.379 97.7711 151.677 97.7249 151.944 97.6326C152.214 97.5367 152.446 97.3947 152.641 97.2065C152.837 97.0147 152.988 96.7768 153.094 96.4927L154.309 96.8336C154.181 97.2455 153.966 97.6078 153.664 97.9203C153.362 98.2292 152.989 98.4707 152.546 98.6447C152.102 98.8151 151.603 98.9004 151.049 98.9004ZM162.144 92.3805L161.015 92.7001C160.944 92.5119 160.839 92.329 160.701 92.1514C160.566 91.9703 160.381 91.8212 160.147 91.704C159.912 91.5868 159.612 91.5282 159.247 91.5282C158.746 91.5282 158.329 91.6436 157.995 91.8745C157.665 92.1017 157.499 92.3911 157.499 92.7427C157.499 93.0552 157.613 93.302 157.84 93.4831C158.068 93.6642 158.423 93.8151 158.906 93.9359L160.12 94.2342C160.852 94.4117 161.397 94.6834 161.755 95.0492C162.114 95.4114 162.293 95.8784 162.293 96.4501C162.293 96.9188 162.158 97.3379 161.889 97.7072C161.622 98.0765 161.249 98.3677 160.77 98.5808C160.291 98.7938 159.733 98.9004 159.097 98.9004C158.263 98.9004 157.572 98.7193 157.025 98.3571C156.478 97.9948 156.132 97.4657 155.987 96.7697L157.18 96.4714C157.293 96.9117 157.508 97.242 157.824 97.4622C158.144 97.6823 158.561 97.7924 159.076 97.7924C159.662 97.7924 160.127 97.6681 160.472 97.4196C160.82 97.1674 160.994 96.8656 160.994 96.514C160.994 96.2299 160.894 95.992 160.695 95.8002C160.497 95.6049 160.191 95.4593 159.779 95.3634L158.416 95.0438C157.666 94.8663 157.116 94.5911 156.764 94.2182C156.416 93.8418 156.242 93.3713 156.242 92.8066C156.242 92.345 156.372 91.9366 156.631 91.5815C156.894 91.2264 157.251 90.9476 157.702 90.7452C158.156 90.5428 158.671 90.4416 159.247 90.4416C160.056 90.4416 160.692 90.6191 161.153 90.9742C161.619 91.3294 161.949 91.7981 162.144 92.3805ZM171.963 90.5481V91.6134H167.723V90.5481H171.963ZM168.958 88.5879H170.216V96.3862C170.216 96.7413 170.267 97.0076 170.37 97.1852C170.477 97.3592 170.612 97.4764 170.775 97.5367C170.942 97.5936 171.118 97.622 171.302 97.622C171.441 97.622 171.554 97.6149 171.643 97.6007C171.732 97.5829 171.803 97.5687 171.856 97.558L172.112 98.6873C172.027 98.7193 171.908 98.7512 171.755 98.7832C171.602 98.8187 171.409 98.8365 171.174 98.8365C170.819 98.8365 170.471 98.7601 170.13 98.6074C169.793 98.4547 169.512 98.2221 169.289 97.9096C169.069 97.5971 168.958 97.2029 168.958 96.7271V88.5879ZM177.09 98.9004C176.351 98.9004 175.703 98.7246 175.145 98.373C174.591 98.0215 174.158 97.5296 173.846 96.8975C173.537 96.2654 173.382 95.5268 173.382 94.6816C173.382 93.8294 173.537 93.0854 173.846 92.4497C174.158 91.8141 174.591 91.3205 175.145 90.9689C175.703 90.6173 176.351 90.4416 177.09 90.4416C177.828 90.4416 178.475 90.6173 179.029 90.9689C179.586 91.3205 180.019 91.8141 180.328 92.4497C180.641 93.0854 180.797 93.8294 180.797 94.6816C180.797 95.5268 180.641 96.2654 180.328 96.8975C180.019 97.5296 179.586 98.0215 179.029 98.373C178.475 98.7246 177.828 98.9004 177.09 98.9004ZM177.09 97.7711C177.651 97.7711 178.112 97.6273 178.475 97.3396C178.837 97.052 179.105 96.6738 179.279 96.2051C179.453 95.7363 179.54 95.2285 179.54 94.6816C179.54 94.1347 179.453 93.6252 179.279 93.1529C179.105 92.6806 178.837 92.2988 178.475 92.0076C178.112 91.7164 177.651 91.5708 177.09 91.5708C176.529 91.5708 176.067 91.7164 175.705 92.0076C175.343 92.2988 175.074 92.6806 174.9 93.1529C174.726 93.6252 174.639 94.1347 174.639 94.6816C174.639 95.2285 174.726 95.7363 174.9 96.2051C175.074 96.6738 175.343 97.052 175.705 97.3396C176.067 97.6273 176.529 97.7711 177.09 97.7711ZM187.744 101.798C187.531 101.798 187.341 101.78 187.174 101.745C187.008 101.713 186.892 101.681 186.828 101.649L187.148 100.541C187.453 100.619 187.723 100.648 187.957 100.626C188.192 100.605 188.4 100.5 188.581 100.312C188.765 100.127 188.934 99.8272 189.087 99.4117L189.321 98.7725L186.296 90.5481H187.659L189.918 97.068H190.003L192.261 90.5481H193.625L190.152 99.9231C189.996 100.346 189.802 100.695 189.571 100.972C189.341 101.253 189.073 101.461 188.767 101.596C188.465 101.731 188.124 101.798 187.744 101.798ZM198.315 98.9004C197.577 98.9004 196.929 98.7246 196.371 98.373C195.817 98.0215 195.384 97.5296 195.071 96.8975C194.762 96.2654 194.608 95.5268 194.608 94.6816C194.608 93.8294 194.762 93.0854 195.071 92.4497C195.384 91.8141 195.817 91.3205 196.371 90.9689C196.929 90.6173 197.577 90.4416 198.315 90.4416C199.054 90.4416 199.7 90.6173 200.254 90.9689C200.812 91.3205 201.245 91.8141 201.554 92.4497C201.866 93.0854 202.023 93.8294 202.023 94.6816C202.023 95.5268 201.866 96.2654 201.554 96.8975C201.245 97.5296 200.812 98.0215 200.254 98.373C199.7 98.7246 199.054 98.9004 198.315 98.9004ZM198.315 97.7711C198.876 97.7711 199.338 97.6273 199.7 97.3396C200.062 97.052 200.331 96.6738 200.505 96.2051C200.679 95.7363 200.766 95.2285 200.766 94.6816C200.766 94.1347 200.679 93.6252 200.505 93.1529C200.331 92.6806 200.062 92.2988 199.7 92.0076C199.338 91.7164 198.876 91.5708 198.315 91.5708C197.754 91.5708 197.293 91.7164 196.93 92.0076C196.568 92.2988 196.3 92.6806 196.126 93.1529C195.952 93.6252 195.865 94.1347 195.865 94.6816C195.865 95.2285 195.952 95.7363 196.126 96.2051C196.3 96.6738 196.568 97.052 196.93 97.3396C197.293 97.6273 197.754 97.7711 198.315 97.7711ZM209.098 95.3847V90.5481H210.355V98.7299H209.098V97.345H209.013C208.821 97.7605 208.523 98.1138 208.118 98.405C207.713 98.6926 207.202 98.8365 206.584 98.8365C206.072 98.8365 205.618 98.7246 205.22 98.5009C204.822 98.2736 204.51 97.9327 204.282 97.4781C204.055 97.02 203.942 96.443 203.942 95.747V90.5481H205.199V95.6617C205.199 96.2583 205.366 96.7342 205.699 97.0893C206.037 97.4444 206.466 97.622 206.988 97.622C207.301 97.622 207.619 97.5421 207.942 97.3823C208.269 97.2225 208.542 96.9774 208.762 96.6472C208.986 96.3169 209.098 95.8961 209.098 95.3847ZM212.657 98.7299V90.5481H213.872V91.7839H213.957C214.106 91.3791 214.376 91.0506 214.767 90.7985C215.157 90.5463 215.598 90.4203 216.088 90.4203C216.18 90.4203 216.296 90.422 216.434 90.4256C216.573 90.4291 216.677 90.4345 216.748 90.4416V91.72C216.706 91.7093 216.608 91.6933 216.455 91.672C216.306 91.6472 216.148 91.6347 215.981 91.6347C215.584 91.6347 215.228 91.7182 214.916 91.8851C214.607 92.0485 214.362 92.2757 214.181 92.5669C214.003 92.8546 213.915 93.183 213.915 93.5524V98.7299H212.657ZM53.1506 122.798V111.548H54.3651V112.848H54.5142C54.6065 112.706 54.7344 112.525 54.8977 112.304C55.0646 112.081 55.3026 111.882 55.6115 111.708C55.924 111.53 56.3466 111.442 56.8793 111.442C57.5682 111.442 58.1754 111.614 58.701 111.958C59.2266 112.303 59.6367 112.791 59.9315 113.423C60.2262 114.055 60.3736 114.801 60.3736 115.66C60.3736 116.527 60.2262 117.278 59.9315 117.914C59.6367 118.546 59.2283 119.036 58.7063 119.384C58.1843 119.728 57.5824 119.9 56.9006 119.9C56.375 119.9 55.9542 119.813 55.6381 119.639C55.3221 119.462 55.0788 119.261 54.9084 119.037C54.7379 118.81 54.6065 118.622 54.5142 118.473H54.4077V122.798H53.1506ZM54.3864 115.639C54.3864 116.257 54.4769 116.802 54.658 117.274C54.8391 117.743 55.1037 118.111 55.4517 118.377C55.7997 118.64 56.2259 118.771 56.7301 118.771C57.2557 118.771 57.6942 118.633 58.0458 118.356C58.4009 118.075 58.6673 117.699 58.8448 117.226C59.0259 116.751 59.1165 116.221 59.1165 115.639C59.1165 115.064 59.0277 114.545 58.8501 114.084C58.6761 113.618 58.4116 113.251 58.0565 112.981C57.7049 112.708 57.2628 112.571 56.7301 112.571C56.2188 112.571 55.7891 112.7 55.4411 112.96C55.093 113.215 54.8303 113.574 54.6527 114.036C54.4751 114.494 54.3864 115.028 54.3864 115.639ZM65.6151 119.9C64.8764 119.9 64.2283 119.725 63.6708 119.373C63.1168 119.021 62.6836 118.53 62.3711 117.898C62.0621 117.265 61.9077 116.527 61.9077 115.682C61.9077 114.829 62.0621 114.085 62.3711 113.45C62.6836 112.814 63.1168 112.32 63.6708 111.969C64.2283 111.617 64.8764 111.442 65.6151 111.442C66.3537 111.442 67 111.617 67.554 111.969C68.1115 112.32 68.5447 112.814 68.8537 113.45C69.1662 114.085 69.3224 114.829 69.3224 115.682C69.3224 116.527 69.1662 117.265 68.8537 117.898C68.5447 118.53 68.1115 119.021 67.554 119.373C67 119.725 66.3537 119.9 65.6151 119.9ZM65.6151 118.771C66.1761 118.771 66.6378 118.627 67 118.34C67.3622 118.052 67.6303 117.674 67.8043 117.205C67.9783 116.736 68.0653 116.228 68.0653 115.682C68.0653 115.135 67.9783 114.625 67.8043 114.153C67.6303 113.681 67.3622 113.299 67 113.008C66.6378 112.716 66.1761 112.571 65.6151 112.571C65.054 112.571 64.5923 112.716 64.2301 113.008C63.8679 113.299 63.5998 113.681 63.4258 114.153C63.2518 114.625 63.1648 115.135 63.1648 115.682C63.1648 116.228 63.2518 116.736 63.4258 117.205C63.5998 117.674 63.8679 118.052 64.2301 118.34C64.5923 118.627 65.054 118.771 65.6151 118.771ZM71.2414 119.73V111.548H72.4559V112.784H72.5411C72.6903 112.379 72.9601 112.051 73.3508 111.798C73.7414 111.546 74.1817 111.42 74.6718 111.42C74.7641 111.42 74.8795 111.422 75.018 111.426C75.1565 111.429 75.2613 111.434 75.3323 111.442V112.72C75.2897 112.709 75.192 112.693 75.0393 112.672C74.8902 112.647 74.7322 112.635 74.5653 112.635C74.1675 112.635 73.8124 112.718 73.4999 112.885C73.191 113.048 72.9459 113.276 72.7648 113.567C72.5873 113.855 72.4985 114.183 72.4985 114.552V119.73H71.2414ZM80.8934 111.548V112.613H76.6533V111.548H80.8934ZM77.8891 109.588H79.1462V117.386C79.1462 117.741 79.1977 118.008 79.3007 118.185C79.4072 118.359 79.5422 118.476 79.7055 118.537C79.8724 118.594 80.0482 118.622 80.2329 118.622C80.3714 118.622 80.485 118.615 80.5738 118.601C80.6626 118.583 80.7336 118.569 80.7868 118.558L81.0425 119.687C80.9573 119.719 80.8383 119.751 80.6856 119.783C80.5329 119.819 80.3394 119.836 80.105 119.836C79.7499 119.836 79.4019 119.76 79.061 119.607C78.7236 119.455 78.4431 119.222 78.2194 118.91C77.9992 118.597 77.8891 118.203 77.8891 117.727V109.588ZM86.4278 111.548V112.613H82.0173V111.548H86.4278ZM83.3383 119.73V110.419C83.3383 109.95 83.4484 109.559 83.6686 109.247C83.8888 108.934 84.1746 108.7 84.5262 108.544C84.8778 108.388 85.2488 108.309 85.6395 108.309C85.9484 108.309 86.2006 108.334 86.3959 108.384C86.5912 108.434 86.7368 108.48 86.8327 108.523L86.4704 109.609C86.4065 109.588 86.3177 109.561 86.2041 109.529C86.094 109.497 85.9484 109.481 85.7673 109.481C85.3518 109.481 85.0518 109.586 84.8671 109.796C84.686 110.005 84.5954 110.312 84.5954 110.717V119.73H83.3383ZM91.1766 119.9C90.4379 119.9 89.7899 119.725 89.2323 119.373C88.6784 119.021 88.2451 118.53 87.9326 117.898C87.6237 117.265 87.4692 116.527 87.4692 115.682C87.4692 114.829 87.6237 114.085 87.9326 113.45C88.2451 112.814 88.6784 112.32 89.2323 111.969C89.7899 111.617 90.4379 111.442 91.1766 111.442C91.9152 111.442 92.5615 111.617 93.1155 111.969C93.673 112.32 94.1063 112.814 94.4152 113.45C94.7277 114.085 94.884 114.829 94.884 115.682C94.884 116.527 94.7277 117.265 94.4152 117.898C94.1063 118.53 93.673 119.021 93.1155 119.373C92.5615 119.725 91.9152 119.9 91.1766 119.9ZM91.1766 118.771C91.7377 118.771 92.1993 118.627 92.5615 118.34C92.9237 118.052 93.1919 117.674 93.3659 117.205C93.5399 116.736 93.6269 116.228 93.6269 115.682C93.6269 115.135 93.5399 114.625 93.3659 114.153C93.1919 113.681 92.9237 113.299 92.5615 113.008C92.1993 112.716 91.7377 112.571 91.1766 112.571C90.6155 112.571 90.1539 112.716 89.7916 113.008C89.4294 113.299 89.1613 113.681 88.9873 114.153C88.8133 114.625 88.7263 115.135 88.7263 115.682C88.7263 116.228 88.8133 116.736 88.9873 117.205C89.1613 117.674 89.4294 118.052 89.7916 118.34C90.1539 118.627 90.6155 118.771 91.1766 118.771ZM98.06 108.821V119.73H96.8029V108.821H98.06ZM100.362 119.73V111.548H101.62V119.73H100.362ZM101.002 110.184C100.757 110.184 100.545 110.101 100.368 109.934C100.194 109.767 100.107 109.567 100.107 109.332C100.107 109.098 100.194 108.897 100.368 108.73C100.545 108.563 100.757 108.48 101.002 108.48C101.247 108.48 101.456 108.563 101.63 108.73C101.808 108.897 101.897 109.098 101.897 109.332C101.897 109.567 101.808 109.767 101.63 109.934C101.456 110.101 101.247 110.184 101.002 110.184ZM107.246 119.9C106.507 119.9 105.859 119.725 105.302 119.373C104.748 119.021 104.314 118.53 104.002 117.898C103.693 117.265 103.539 116.527 103.539 115.682C103.539 114.829 103.693 114.085 104.002 113.45C104.314 112.814 104.748 112.32 105.302 111.969C105.859 111.617 106.507 111.442 107.246 111.442C107.985 111.442 108.631 111.617 109.185 111.969C109.742 112.32 110.176 112.814 110.485 113.45C110.797 114.085 110.953 114.829 110.953 115.682C110.953 116.527 110.797 117.265 110.485 117.898C110.176 118.53 109.742 119.021 109.185 119.373C108.631 119.725 107.985 119.9 107.246 119.9ZM107.246 118.771C107.807 118.771 108.269 118.627 108.631 118.34C108.993 118.052 109.261 117.674 109.435 117.205C109.609 116.736 109.696 116.228 109.696 115.682C109.696 115.135 109.609 114.625 109.435 114.153C109.261 113.681 108.993 113.299 108.631 113.008C108.269 112.716 107.807 112.571 107.246 112.571C106.685 112.571 106.223 112.716 105.861 113.008C105.499 113.299 105.231 113.681 105.057 114.153C104.883 114.625 104.796 115.135 104.796 115.682C104.796 116.228 104.883 116.736 105.057 117.205C105.231 117.674 105.499 118.052 105.861 118.34C106.223 118.627 106.685 118.771 107.246 118.771ZM120.521 119.9C119.733 119.9 119.053 119.726 118.481 119.378C117.913 119.027 117.475 118.537 117.166 117.908C116.86 117.276 116.707 116.541 116.707 115.703C116.707 114.865 116.86 114.126 117.166 113.487C117.475 112.844 117.904 112.344 118.455 111.985C119.009 111.623 119.655 111.442 120.394 111.442C120.82 111.442 121.241 111.513 121.656 111.655C122.071 111.797 122.45 112.028 122.791 112.347C123.131 112.663 123.403 113.082 123.606 113.604C123.808 114.126 123.909 114.769 123.909 115.532V116.065H117.602V114.978H122.631C122.631 114.517 122.538 114.105 122.354 113.743C122.173 113.38 121.913 113.095 121.576 112.885C121.242 112.676 120.848 112.571 120.394 112.571C119.893 112.571 119.46 112.695 119.094 112.944C118.732 113.189 118.453 113.508 118.258 113.903C118.062 114.297 117.965 114.719 117.965 115.17V115.895C117.965 116.513 118.071 117.036 118.284 117.466C118.501 117.892 118.801 118.217 119.184 118.441C119.568 118.661 120.014 118.771 120.521 118.771C120.852 118.771 121.15 118.725 121.416 118.633C121.686 118.537 121.919 118.395 122.114 118.206C122.309 118.015 122.46 117.777 122.567 117.493L123.781 117.834C123.653 118.246 123.439 118.608 123.137 118.92C122.835 119.229 122.462 119.471 122.018 119.645C121.574 119.815 121.075 119.9 120.521 119.9ZM128.229 119.922C127.711 119.922 127.24 119.824 126.818 119.629C126.395 119.43 126.059 119.144 125.811 118.771C125.562 118.395 125.438 117.94 125.438 117.407C125.438 116.939 125.53 116.559 125.715 116.268C125.9 115.973 126.146 115.742 126.455 115.575C126.764 115.408 127.105 115.284 127.478 115.202C127.854 115.117 128.233 115.05 128.613 115C129.11 114.936 129.513 114.888 129.822 114.856C130.134 114.82 130.362 114.762 130.504 114.68C130.649 114.599 130.722 114.456 130.722 114.254V114.211C130.722 113.686 130.578 113.278 130.291 112.986C130.006 112.695 129.575 112.55 128.996 112.55C128.396 112.55 127.926 112.681 127.585 112.944C127.244 113.206 127.004 113.487 126.866 113.785L125.672 113.359C125.885 112.862 126.169 112.475 126.525 112.198C126.883 111.917 127.274 111.722 127.696 111.612C128.123 111.498 128.542 111.442 128.954 111.442C129.216 111.442 129.518 111.474 129.859 111.537C130.204 111.598 130.536 111.724 130.855 111.916C131.178 112.107 131.446 112.397 131.66 112.784C131.873 113.171 131.979 113.689 131.979 114.339V119.73H130.722V118.622H130.658C130.573 118.8 130.431 118.99 130.232 119.192C130.033 119.394 129.769 119.567 129.438 119.709C129.108 119.851 128.705 119.922 128.229 119.922ZM128.421 118.792C128.918 118.792 129.337 118.695 129.678 118.499C130.022 118.304 130.282 118.052 130.456 117.743C130.633 117.434 130.722 117.109 130.722 116.768V115.618C130.669 115.682 130.552 115.74 130.37 115.793C130.193 115.843 129.987 115.888 129.753 115.927C129.522 115.962 129.296 115.994 129.076 116.023C128.859 116.047 128.684 116.069 128.549 116.086C128.222 116.129 127.917 116.198 127.633 116.294C127.352 116.387 127.125 116.527 126.951 116.715C126.78 116.9 126.695 117.152 126.695 117.471C126.695 117.908 126.857 118.238 127.18 118.462C127.506 118.682 127.92 118.792 128.421 118.792ZM140.069 113.38L138.94 113.7C138.869 113.512 138.764 113.329 138.626 113.151C138.491 112.97 138.306 112.821 138.072 112.704C137.837 112.587 137.537 112.528 137.171 112.528C136.671 112.528 136.253 112.644 135.92 112.874C135.589 113.102 135.424 113.391 135.424 113.743C135.424 114.055 135.538 114.302 135.765 114.483C135.992 114.664 136.347 114.815 136.83 114.936L138.045 115.234C138.776 115.412 139.322 115.683 139.68 116.049C140.039 116.411 140.218 116.878 140.218 117.45C140.218 117.919 140.083 118.338 139.813 118.707C139.547 119.077 139.174 119.368 138.695 119.581C138.215 119.794 137.658 119.9 137.022 119.9C136.188 119.9 135.497 119.719 134.95 119.357C134.403 118.995 134.057 118.466 133.911 117.77L135.105 117.471C135.218 117.912 135.433 118.242 135.749 118.462C136.069 118.682 136.486 118.792 137.001 118.792C137.587 118.792 138.052 118.668 138.396 118.42C138.744 118.167 138.919 117.866 138.919 117.514C138.919 117.23 138.819 116.992 138.62 116.8C138.421 116.605 138.116 116.459 137.704 116.363L136.34 116.044C135.591 115.866 135.041 115.591 134.689 115.218C134.341 114.842 134.167 114.371 134.167 113.807C134.167 113.345 134.297 112.937 134.556 112.581C134.819 112.226 135.176 111.948 135.627 111.745C136.081 111.543 136.596 111.442 137.171 111.442C137.981 111.442 138.617 111.619 139.078 111.974C139.544 112.329 139.874 112.798 140.069 113.38ZM142.111 119.73V111.548H143.368V119.73H142.111ZM142.75 110.184C142.505 110.184 142.293 110.101 142.116 109.934C141.942 109.767 141.855 109.567 141.855 109.332C141.855 109.098 141.942 108.897 142.116 108.73C142.293 108.563 142.505 108.48 142.75 108.48C142.995 108.48 143.204 108.563 143.378 108.73C143.556 108.897 143.645 109.098 143.645 109.332C143.645 109.567 143.556 109.767 143.378 109.934C143.204 110.101 142.995 110.184 142.75 110.184ZM146.927 108.821V119.73H145.67V108.821H146.927ZM150.039 122.798C149.826 122.798 149.636 122.78 149.469 122.745C149.302 122.713 149.187 122.681 149.123 122.649L149.443 121.541C149.748 121.619 150.018 121.648 150.252 121.626C150.487 121.605 150.695 121.5 150.876 121.312C151.06 121.127 151.229 120.827 151.382 120.412L151.616 119.773L148.59 111.548H149.954L152.213 118.068H152.298L154.556 111.548H155.92L152.447 120.923C152.291 121.346 152.097 121.695 151.866 121.972C151.636 122.253 151.367 122.461 151.062 122.596C150.76 122.731 150.419 122.798 150.039 122.798Z" fill="white"/>
<rect x="52" y="144.73" width="181" height="48" rx="6" fill="white"/>
<path d="M80.5813 166.267C80.4783 165.944 80.3398 165.655 80.1658 165.399C79.9954 165.14 79.7912 164.92 79.5533 164.738C79.3153 164.554 79.0437 164.414 78.7383 164.318C78.4364 164.222 78.1044 164.174 77.7422 164.174C77.1278 164.174 76.5739 164.332 76.0803 164.648C75.5866 164.964 75.196 165.427 74.9084 166.038C74.6243 166.645 74.4822 167.389 74.4822 168.27C74.4822 169.154 74.6261 169.902 74.9137 170.513C75.2013 171.123 75.5955 171.587 76.0962 171.903C76.5969 172.219 77.1669 172.377 77.8061 172.377C78.3991 172.377 78.9158 172.256 79.3562 172.015C79.8001 171.773 80.1428 171.432 80.3842 170.992C80.6293 170.548 80.7518 170.026 80.7518 169.426L81.1779 169.506H78.0565V168.148H82.3445V169.389C82.3445 170.305 82.1491 171.1 81.7585 171.775C81.3714 172.446 80.8352 172.965 80.1499 173.33C79.468 173.696 78.6868 173.879 77.8061 173.879C76.8189 173.879 75.9524 173.652 75.2067 173.197C74.4645 172.743 73.8857 172.098 73.4702 171.264C73.0547 170.426 72.8469 169.431 72.8469 168.281C72.8469 167.411 72.9677 166.629 73.2092 165.937C73.4506 165.244 73.7898 164.657 74.2266 164.174C74.6669 163.687 75.1836 163.316 75.7766 163.061C76.3732 162.801 77.0249 162.672 77.7315 162.672C78.321 162.672 78.8697 162.759 79.3775 162.933C79.8888 163.107 80.3434 163.353 80.7411 163.673C81.1424 163.993 81.4744 164.373 81.7372 164.813C82 165.25 82.1776 165.735 82.2699 166.267H80.5813ZM87.3323 173.895C86.5262 173.895 85.8319 173.723 85.2496 173.378C84.6707 173.03 84.2233 172.542 83.9072 171.914C83.5947 171.281 83.4385 170.541 83.4385 169.692C83.4385 168.854 83.5947 168.116 83.9072 167.476C84.2233 166.837 84.6636 166.338 85.2282 165.98C85.7964 165.621 86.4605 165.442 87.2204 165.442C87.6821 165.442 88.1295 165.518 88.5628 165.671C88.996 165.823 89.3849 166.063 89.7293 166.39C90.0738 166.716 90.3454 167.141 90.5443 167.663C90.7432 168.181 90.8426 168.812 90.8426 169.554V170.118H84.3387V168.925H89.2819C89.2819 168.506 89.1966 168.135 89.0262 167.812C88.8557 167.485 88.616 167.228 88.3071 167.04C88.0017 166.851 87.643 166.757 87.2311 166.757C86.7836 166.757 86.393 166.867 86.0592 167.088C85.729 167.304 85.4733 167.588 85.2922 167.94C85.1146 168.288 85.0258 168.666 85.0258 169.074V170.007C85.0258 170.553 85.1217 171.019 85.3135 171.402C85.5088 171.786 85.7805 172.079 86.1285 172.281C86.4765 172.48 86.8831 172.579 87.3483 172.579C87.6501 172.579 87.9253 172.537 88.1739 172.452C88.4225 172.363 88.6373 172.231 88.8184 172.057C88.9996 171.883 89.1381 171.668 89.2339 171.413L90.7414 171.684C90.6206 172.128 90.404 172.517 90.0915 172.851C89.7826 173.181 89.3937 173.439 88.925 173.623C88.4598 173.804 87.9289 173.895 87.3323 173.895ZM95.929 165.548V166.827H91.4599V165.548H95.929ZM92.6584 163.588H94.2511V171.328C94.2511 171.637 94.2972 171.869 94.3896 172.025C94.4819 172.178 94.6009 172.283 94.7464 172.34C94.8956 172.393 95.0572 172.42 95.2312 172.42C95.359 172.42 95.4709 172.411 95.5668 172.393C95.6626 172.375 95.7372 172.361 95.7905 172.35L96.0781 173.666C95.9858 173.702 95.8544 173.737 95.6839 173.773C95.5135 173.812 95.3004 173.833 95.0447 173.836C94.6257 173.844 94.2351 173.769 93.8729 173.613C93.5107 173.456 93.2177 173.215 92.994 172.888C92.7702 172.562 92.6584 172.151 92.6584 171.658V163.588ZM106.792 167.546L105.348 167.801C105.288 167.617 105.192 167.441 105.06 167.274C104.933 167.107 104.759 166.97 104.538 166.864C104.318 166.757 104.043 166.704 103.713 166.704C103.262 166.704 102.885 166.805 102.583 167.008C102.282 167.206 102.131 167.464 102.131 167.78C102.131 168.053 102.232 168.274 102.434 168.441C102.637 168.607 102.963 168.744 103.414 168.851L104.714 169.149C105.467 169.323 106.028 169.591 106.397 169.953C106.767 170.316 106.951 170.786 106.951 171.365C106.951 171.855 106.809 172.292 106.525 172.675C106.245 173.055 105.852 173.353 105.348 173.57C104.847 173.787 104.267 173.895 103.606 173.895C102.69 173.895 101.942 173.7 101.364 173.309C100.785 172.915 100.43 172.356 100.298 171.631L101.838 171.397C101.934 171.798 102.131 172.102 102.429 172.308C102.727 172.51 103.116 172.611 103.596 172.611C104.118 172.611 104.535 172.503 104.847 172.286C105.16 172.066 105.316 171.798 105.316 171.482C105.316 171.226 105.22 171.012 105.028 170.838C104.84 170.664 104.551 170.532 104.16 170.443L102.775 170.14C102.012 169.966 101.447 169.689 101.081 169.309C100.719 168.929 100.538 168.448 100.538 167.865C100.538 167.382 100.673 166.96 100.943 166.597C101.213 166.235 101.586 165.953 102.061 165.751C102.537 165.545 103.082 165.442 103.697 165.442C104.581 165.442 105.277 165.633 105.785 166.017C106.293 166.397 106.628 166.906 106.792 167.546ZM112.022 165.548V166.827H107.553V165.548H112.022ZM108.751 163.588H110.344V171.328C110.344 171.637 110.39 171.869 110.482 172.025C110.575 172.178 110.694 172.283 110.839 172.34C110.988 172.393 111.15 172.42 111.324 172.42C111.452 172.42 111.564 172.411 111.66 172.393C111.755 172.375 111.83 172.361 111.883 172.35L112.171 173.666C112.079 173.702 111.947 173.737 111.777 173.773C111.606 173.812 111.393 173.833 111.138 173.836C110.718 173.844 110.328 173.769 109.966 173.613C109.603 173.456 109.31 173.215 109.087 172.888C108.863 172.562 108.751 172.151 108.751 171.658V163.588ZM115.665 173.911C115.146 173.911 114.677 173.815 114.258 173.623C113.839 173.428 113.507 173.146 113.262 172.776C113.021 172.407 112.9 171.954 112.9 171.418C112.9 170.956 112.989 170.577 113.166 170.278C113.344 169.98 113.584 169.744 113.885 169.57C114.187 169.396 114.525 169.264 114.898 169.176C115.27 169.087 115.65 169.019 116.037 168.973C116.528 168.916 116.925 168.87 117.231 168.835C117.536 168.796 117.758 168.733 117.896 168.648C118.035 168.563 118.104 168.425 118.104 168.233V168.195C118.104 167.73 117.973 167.37 117.71 167.114C117.451 166.858 117.064 166.731 116.549 166.731C116.013 166.731 115.59 166.85 115.281 167.088C114.976 167.322 114.764 167.583 114.647 167.871L113.15 167.53C113.328 167.032 113.587 166.631 113.928 166.326C114.273 166.017 114.669 165.793 115.116 165.655C115.563 165.513 116.034 165.442 116.528 165.442C116.854 165.442 117.2 165.481 117.566 165.559C117.936 165.633 118.28 165.772 118.6 165.974C118.923 166.177 119.187 166.466 119.393 166.842C119.599 167.215 119.702 167.7 119.702 168.297V173.73H118.147V172.611H118.083C117.98 172.817 117.825 173.02 117.619 173.219C117.414 173.417 117.149 173.583 116.826 173.714C116.503 173.845 116.116 173.911 115.665 173.911ZM116.011 172.633C116.451 172.633 116.828 172.546 117.14 172.372C117.456 172.198 117.696 171.97 117.859 171.69C118.026 171.406 118.11 171.102 118.11 170.779V169.724C118.053 169.781 117.943 169.834 117.779 169.884C117.619 169.93 117.437 169.971 117.231 170.007C117.025 170.039 116.824 170.069 116.629 170.097C116.433 170.122 116.27 170.143 116.139 170.161C115.83 170.2 115.547 170.266 115.292 170.358C115.04 170.45 114.837 170.584 114.684 170.758C114.535 170.928 114.461 171.155 114.461 171.439C114.461 171.834 114.606 172.132 114.898 172.334C115.189 172.533 115.56 172.633 116.011 172.633ZM121.324 173.73V165.548H122.863V166.848H122.948C123.097 166.407 123.36 166.061 123.737 165.809C124.117 165.553 124.546 165.426 125.026 165.426C125.125 165.426 125.242 165.429 125.377 165.436C125.516 165.443 125.624 165.452 125.702 165.463V166.986C125.638 166.969 125.525 166.949 125.361 166.928C125.198 166.903 125.035 166.89 124.871 166.89C124.495 166.89 124.159 166.97 123.864 167.13C123.573 167.286 123.342 167.505 123.172 167.785C123.002 168.062 122.916 168.378 122.916 168.733V173.73H121.324ZM130.883 165.548V166.827H126.414V165.548H130.883ZM127.612 163.588H129.205V171.328C129.205 171.637 129.251 171.869 129.344 172.025C129.436 172.178 129.555 172.283 129.701 172.34C129.85 172.393 130.011 172.42 130.185 172.42C130.313 172.42 130.425 172.411 130.521 172.393C130.617 172.375 130.691 172.361 130.745 172.35L131.032 173.666C130.94 173.702 130.809 173.737 130.638 173.773C130.468 173.812 130.255 173.833 129.999 173.836C129.58 173.844 129.189 173.769 128.827 173.613C128.465 173.456 128.172 173.215 127.948 172.888C127.724 172.562 127.612 172.151 127.612 171.658V163.588ZM135.583 173.895C134.777 173.895 134.083 173.723 133.501 173.378C132.922 173.03 132.474 172.542 132.158 171.914C131.846 171.281 131.689 170.541 131.689 169.692C131.689 168.854 131.846 168.116 132.158 167.476C132.474 166.837 132.915 166.338 133.479 165.98C134.047 165.621 134.711 165.442 135.471 165.442C135.933 165.442 136.381 165.518 136.814 165.671C137.247 165.823 137.636 166.063 137.98 166.39C138.325 166.716 138.596 167.141 138.795 167.663C138.994 168.181 139.094 168.812 139.094 169.554V170.118H132.59V168.925H137.533C137.533 168.506 137.448 168.135 137.277 167.812C137.107 167.485 136.867 167.228 136.558 167.04C136.253 166.851 135.894 166.757 135.482 166.757C135.035 166.757 134.644 166.867 134.31 167.088C133.98 167.304 133.724 167.588 133.543 167.94C133.366 168.288 133.277 168.666 133.277 169.074V170.007C133.277 170.553 133.373 171.019 133.564 171.402C133.76 171.786 134.031 172.079 134.379 172.281C134.727 172.48 135.134 172.579 135.599 172.579C135.901 172.579 136.176 172.537 136.425 172.452C136.673 172.363 136.888 172.231 137.069 172.057C137.251 171.883 137.389 171.668 137.485 171.413L138.992 171.684C138.872 172.128 138.655 172.517 138.343 172.851C138.034 173.181 137.645 173.439 137.176 173.623C136.711 173.804 136.18 173.895 135.583 173.895ZM143.424 173.89C142.763 173.89 142.174 173.721 141.655 173.384C141.14 173.043 140.735 172.558 140.441 171.929C140.149 171.297 140.004 170.539 140.004 169.655C140.004 168.771 140.151 168.014 140.446 167.386C140.744 166.757 141.153 166.276 141.671 165.942C142.19 165.608 142.777 165.442 143.434 165.442C143.942 165.442 144.35 165.527 144.659 165.697C144.972 165.864 145.213 166.059 145.384 166.283C145.558 166.507 145.693 166.704 145.789 166.874H145.884V162.821H147.477V173.73H145.922V172.457H145.789C145.693 172.631 145.554 172.83 145.373 173.053C145.196 173.277 144.951 173.472 144.638 173.639C144.326 173.806 143.921 173.89 143.424 173.89ZM143.775 172.531C144.233 172.531 144.62 172.411 144.936 172.169C145.256 171.924 145.497 171.585 145.661 171.152C145.828 170.719 145.911 170.214 145.911 169.639C145.911 169.071 145.829 168.574 145.666 168.148C145.503 167.721 145.263 167.389 144.947 167.151C144.631 166.914 144.24 166.795 143.775 166.795C143.296 166.795 142.896 166.919 142.577 167.167C142.257 167.416 142.016 167.755 141.852 168.185C141.692 168.615 141.612 169.099 141.612 169.639C141.612 170.186 141.694 170.678 141.858 171.115C142.021 171.551 142.262 171.898 142.582 172.153C142.905 172.405 143.303 172.531 143.775 172.531ZM154.313 168.872V173.73H152.72V165.548H154.249V166.88H154.35C154.538 166.447 154.833 166.099 155.234 165.836C155.639 165.573 156.149 165.442 156.763 165.442C157.321 165.442 157.809 165.559 158.228 165.793C158.647 166.024 158.972 166.368 159.203 166.827C159.434 167.285 159.549 167.851 159.549 168.526V173.73H157.956V168.717C157.956 168.124 157.802 167.661 157.493 167.327C157.184 166.99 156.759 166.821 156.22 166.821C155.85 166.821 155.522 166.901 155.234 167.061C154.95 167.221 154.725 167.455 154.558 167.764C154.394 168.069 154.313 168.439 154.313 168.872ZM164.631 173.895C163.864 173.895 163.195 173.719 162.623 173.368C162.051 173.016 161.608 172.524 161.291 171.892C160.975 171.26 160.817 170.521 160.817 169.676C160.817 168.828 160.975 168.085 161.291 167.45C161.608 166.814 162.051 166.32 162.623 165.969C163.195 165.617 163.864 165.442 164.631 165.442C165.398 165.442 166.068 165.617 166.639 165.969C167.211 166.32 167.655 166.814 167.971 167.45C168.287 168.085 168.445 168.828 168.445 169.676C168.445 170.521 168.287 171.26 167.971 171.892C167.655 172.524 167.211 173.016 166.639 173.368C166.068 173.719 165.398 173.895 164.631 173.895ZM164.637 172.558C165.134 172.558 165.546 172.427 165.872 172.164C166.199 171.901 166.441 171.551 166.597 171.115C166.757 170.678 166.837 170.197 166.837 169.671C166.837 169.149 166.757 168.67 166.597 168.233C166.441 167.792 166.199 167.439 165.872 167.173C165.546 166.906 165.134 166.773 164.637 166.773C164.136 166.773 163.72 166.906 163.39 167.173C163.063 167.439 162.82 167.792 162.66 168.233C162.504 168.67 162.426 169.149 162.426 169.671C162.426 170.197 162.504 170.678 162.66 171.115C162.82 171.551 163.063 171.901 163.39 172.164C163.72 172.427 164.136 172.558 164.637 172.558ZM171.248 173.73L168.84 165.548H170.486L172.089 171.557H172.169L173.778 165.548H175.424L177.022 171.53H177.102L178.695 165.548H180.34L177.938 173.73H176.313L174.652 167.823H174.529L172.867 173.73H171.248Z" fill="#43BA00"/>
<rect width="24" height="24" transform="translate(189 156.73)" fill="white"/>
<path d="M203 162.73L209 168.73M209 168.73L203 174.73M209 168.73H194" stroke="#43BA00" stroke-width="2" stroke-linecap="round" stroke-linejoin="round"/>
<ellipse cx="31.9499" cy="32.0131" rx="31.9499" ry="32.0131" transform="matrix(1.00041 0 -0.00116086 0.999591 275.074 28.7299)" fill="#43BA00"/>
<path d="M304.016 77.5727C299.037 77.1303 294.082 73.4718 294.084 71.5568C294.086 69.6841 295.606 68.7977 297.099 67.6641C298.592 66.5306 305.401 73.4122 309.476 72.028C313.55 70.6438 311.102 66.9714 307.439 64.5827C303.123 61.7685 300.009 59.6746 297.113 55.19C295.551 52.9783 293.057 46.7624 298.231 44.0022C299.85 43.1389 300.464 42.5928 305.231 42.7387L305.334 39.4684C306.438 38.207 311.036 38.2664 312.31 39.6819L312.206 42.9522C315.131 43.6603 322.099 45.6361 322.783 47.7586C323.599 48.6332 324.21 51.174 322.777 52.9171C320.4 55.8093 304.063 46.1351 305.35 52.9171C306.405 58.4754 325.792 64.2138 320.293 72.7069C319.131 75.5677 314.192 78.0227 311.099 77.7895L310.997 80.9809C309.455 82.8002 304.963 82.5269 304.012 81.0801L304.016 77.5727Z" fill="white"/>
</svg>
