<svg width="40" height="41" viewBox="0 0 40 41" fill="none" xmlns="http://www.w3.org/2000/svg">
<ellipse cx="20" cy="20.7299" rx="20" ry="20" fill="#43BA00"/>
<path opacity="0.4" d="M8.56812 19.1594C8.62606 21.7298 8.78831 26.1262 8.81148 26.6111C8.89377 27.6478 9.31213 28.6955 9.96343 29.4343C10.8697 30.471 11.9857 30.9338 13.5421 30.9338C15.693 30.9448 18.0641 30.9448 20.3669 30.9448C22.6789 30.9448 24.9225 30.9448 26.8173 30.9338C28.3517 30.9338 29.5025 30.4589 30.3971 29.4343C31.0484 28.6955 31.4668 27.6368 31.5259 26.6111C31.5491 26.2032 31.665 21.4308 31.7345 19.1594H8.56812Z" fill="white"/>
<path d="M19.2825 23.893V25.3157C19.2825 25.7708 19.6719 26.1402 20.1516 26.1402C20.6314 26.1402 21.0208 25.7708 21.0208 25.3157V23.893C21.0208 23.4379 20.6314 23.0685 20.1516 23.0685C19.6719 23.0685 19.2825 23.4379 19.2825 23.893Z" fill="white"/>
<path fill-rule="evenodd" clip-rule="evenodd" d="M18.084 22.983C17.9681 23.3821 17.5636 23.6371 17.1256 23.5821C14.1692 23.1908 11.3438 22.1958 8.95879 20.7018C8.71426 20.55 8.56824 20.2906 8.56824 20.0135V16.2031C8.56824 13.8944 10.5523 12.0166 12.9918 12.0166H15.2713C15.4892 10.4203 16.9146 9.17911 18.6553 9.17911H21.6476C23.3871 9.17911 24.8137 10.4203 25.0316 12.0166H27.3227C29.7552 12.0166 31.7346 13.8944 31.7346 16.2031V20.0135C31.7346 20.2906 31.5875 20.5489 31.3452 20.7018C28.9556 22.2024 26.1186 23.2018 23.1426 23.592C23.102 23.5975 23.0626 23.5997 23.0232 23.5997C22.6303 23.5997 22.2792 23.348 22.1807 22.9786C21.9466 22.1035 21.1087 21.4911 20.1456 21.4911C19.1698 21.4911 18.3412 22.0903 18.084 22.983ZM21.6476 10.8282H18.6553C17.8753 10.8282 17.224 11.3339 17.0294 12.0166H23.2723C23.0776 11.3339 22.4263 10.8282 21.6476 10.8282Z" fill="white"/>
</svg>
