<svg width="342" height="73" viewBox="0 0 342 73" fill="none" xmlns="http://www.w3.org/2000/svg">
<rect x="0.5" y="1.22992" width="341" height="71" rx="7.5" stroke="black" stroke-opacity="0.15"/>
<ellipse cx="36" cy="36.7299" rx="20" ry="20" fill="#43BA00"/>
<path opacity="0.4" d="M24.5681 35.1594C24.6261 37.7298 24.7883 42.1262 24.8115 42.6111C24.8938 43.6478 25.3121 44.6955 25.9634 45.4343C26.8697 46.471 27.9857 46.9338 29.5421 46.9338C31.693 46.9448 34.0641 46.9448 36.3669 46.9448C38.6789 46.9448 40.9225 46.9448 42.8173 46.9338C44.3517 46.9338 45.5025 46.4589 46.3971 45.4343C47.0484 44.6955 47.4668 43.6368 47.5259 42.6111C47.5491 42.2032 47.665 37.4308 47.7345 35.1594H24.5681Z" fill="white"/>
<path d="M35.2825 39.893V41.3157C35.2825 41.7708 35.6719 42.1402 36.1516 42.1402C36.6314 42.1402 37.0208 41.7708 37.0208 41.3157V39.893C37.0208 39.4379 36.6314 39.0685 36.1516 39.0685C35.6719 39.0685 35.2825 39.4379 35.2825 39.893Z" fill="white"/>
<path fill-rule="evenodd" clip-rule="evenodd" d="M34.084 38.983C33.9681 39.3821 33.5636 39.6371 33.1256 39.5821C30.1692 39.1908 27.3438 38.1958 24.9588 36.7018C24.7143 36.55 24.5682 36.2906 24.5682 36.0135V32.2031C24.5682 29.8944 26.5523 28.0166 28.9918 28.0166H31.2713C31.4892 26.4203 32.9146 25.1791 34.6553 25.1791H37.6476C39.3871 25.1791 40.8137 26.4203 41.0316 28.0166H43.3227C45.7552 28.0166 47.7346 29.8944 47.7346 32.2031V36.0135C47.7346 36.2906 47.5875 36.5489 47.3452 36.7018C44.9556 38.2024 42.1186 39.2018 39.1426 39.592C39.102 39.5975 39.0626 39.5997 39.0232 39.5997C38.6303 39.5997 38.2792 39.348 38.1807 38.9786C37.9466 38.1035 37.1087 37.4911 36.1456 37.4911C35.1698 37.4911 34.3412 38.0903 34.084 38.983ZM37.6476 26.8282H34.6553C33.8753 26.8282 33.224 27.3339 33.0294 28.0166H39.2723C39.0776 27.3339 38.4263 26.8282 37.6476 26.8282Z" fill="white"/>
<path d="M73.3583 16.3663H75.6222L79.5582 25.9771H79.7031L83.6392 16.3663H85.9031V28.7299H84.1282V19.7832H84.0135L80.3672 28.7118H78.8942L75.2479 19.7771H75.1332V28.7299H73.3583V16.3663ZM89.6112 32.2072C89.3416 32.2072 89.0961 32.1851 88.8747 32.1408C88.6534 32.1005 88.4884 32.0563 88.3797 32.008L88.8144 30.5289C89.1444 30.6175 89.4382 30.6557 89.6958 30.6436C89.9533 30.6316 90.1807 30.535 90.3779 30.3539C90.5792 30.1727 90.7562 29.8769 90.9092 29.4664L91.1325 28.8507L87.7398 19.4572H89.6716L92.02 26.6532H92.1166L94.4649 19.4572H96.4028L92.5814 29.9675C92.4043 30.4504 92.1789 30.8589 91.9053 31.193C91.6316 31.5311 91.3056 31.7846 90.9273 31.9536C90.549 32.1227 90.1103 32.2072 89.6112 32.2072ZM102.743 28.7299V16.3663H107.15C108.112 16.3663 108.909 16.5414 109.541 16.8915C110.173 17.2416 110.645 17.7206 110.959 18.3283C111.273 18.932 111.43 19.6121 111.43 20.3688C111.43 21.1294 111.271 21.8136 110.953 22.4213C110.639 23.025 110.164 23.5039 109.529 23.8581C108.897 24.2083 108.102 24.3833 107.144 24.3833H104.113V22.8017H106.975C107.583 22.8017 108.076 22.697 108.454 22.4877C108.832 22.2744 109.11 21.9847 109.287 21.6184C109.464 21.2522 109.553 20.8356 109.553 20.3688C109.553 19.9019 109.464 19.4874 109.287 19.1252C109.11 18.7629 108.83 18.4792 108.448 18.274C108.07 18.0687 107.571 17.9661 106.951 17.9661H104.608V28.7299H102.743ZM117.262 28.9171C116.393 28.9171 115.634 28.7178 114.986 28.3194C114.338 27.921 113.835 27.3636 113.477 26.6472C113.119 25.9308 112.939 25.0937 112.939 24.1358C112.939 23.1739 113.119 22.3328 113.477 21.6124C113.835 20.892 114.338 20.3325 114.986 19.9341C115.634 19.5357 116.393 19.3365 117.262 19.3365C118.131 19.3365 118.89 19.5357 119.538 19.9341C120.186 20.3325 120.689 20.892 121.047 21.6124C121.405 22.3328 121.584 23.1739 121.584 24.1358C121.584 25.0937 121.405 25.9308 121.047 26.6472C120.689 27.3636 120.186 27.921 119.538 28.3194C118.89 28.7178 118.131 28.9171 117.262 28.9171ZM117.268 27.4018C117.831 27.4018 118.298 27.2529 118.669 26.9551C119.039 26.6572 119.312 26.2608 119.49 25.7658C119.671 25.2708 119.761 24.7254 119.761 24.1298C119.761 23.5382 119.671 22.9948 119.49 22.4998C119.312 22.0008 119.039 21.6003 118.669 21.2985C118.298 20.9966 117.831 20.8457 117.268 20.8457C116.7 20.8457 116.23 20.9966 115.855 21.2985C115.485 21.6003 115.209 22.0008 115.028 22.4998C114.851 22.9948 114.763 23.5382 114.763 24.1298C114.763 24.7254 114.851 25.2708 115.028 25.7658C115.209 26.2608 115.485 26.6572 115.855 26.9551C116.23 27.2529 116.7 27.4018 117.268 27.4018ZM123.599 28.7299V19.4572H125.344V20.9302H125.44C125.609 20.4312 125.907 20.0387 126.334 19.753C126.765 19.4632 127.252 19.3183 127.795 19.3183C127.908 19.3183 128.04 19.3224 128.193 19.3304C128.35 19.3385 128.473 19.3485 128.562 19.3606V21.0872C128.489 21.067 128.36 21.0449 128.175 21.0208C127.99 20.9926 127.805 20.9785 127.62 20.9785C127.193 20.9785 126.813 21.0691 126.479 21.2502C126.149 21.4272 125.887 21.6748 125.694 21.9927C125.501 22.3066 125.404 22.6648 125.404 23.0673V28.7299H123.599ZM135 19.4572V20.9061H129.935V19.4572H135ZM131.293 17.2356H133.098V26.0073C133.098 26.3574 133.151 26.621 133.255 26.7981C133.36 26.9712 133.495 27.0899 133.66 27.1543C133.829 27.2146 134.012 27.2448 134.209 27.2448C134.354 27.2448 134.481 27.2348 134.589 27.2146C134.698 27.1945 134.783 27.1784 134.843 27.1664L135.169 28.6575C135.064 28.6977 134.915 28.738 134.722 28.7782C134.529 28.8225 134.288 28.8466 133.998 28.8507C133.523 28.8587 133.08 28.7742 132.67 28.5971C132.259 28.42 131.927 28.1463 131.674 27.7761C131.42 27.4058 131.293 26.941 131.293 26.3816V17.2356ZM141.41 19.4572V20.9061H136.17V19.4572H141.41ZM137.606 28.7299V18.3826C137.606 17.8031 137.733 17.3221 137.987 16.9398C138.24 16.5534 138.576 16.2657 138.995 16.0765C139.413 15.8833 139.868 15.7867 140.359 15.7867C140.721 15.7867 141.031 15.8169 141.289 15.8773C141.546 15.9336 141.738 15.986 141.862 16.0343L141.44 17.4952C141.355 17.471 141.247 17.4429 141.114 17.4107C140.981 17.3745 140.82 17.3563 140.631 17.3563C140.192 17.3563 139.878 17.465 139.689 17.6823C139.504 17.8997 139.411 18.2136 139.411 18.6241V28.7299H137.606ZM146.813 28.9171C145.943 28.9171 145.185 28.7178 144.537 28.3194C143.889 27.921 143.386 27.3636 143.028 26.6472C142.669 25.9308 142.49 25.0937 142.49 24.1358C142.49 23.1739 142.669 22.3328 143.028 21.6124C143.386 20.892 143.889 20.3325 144.537 19.9341C145.185 19.5357 145.943 19.3365 146.813 19.3365C147.682 19.3365 148.441 19.5357 149.089 19.9341C149.737 20.3325 150.24 20.892 150.598 21.6124C150.956 22.3328 151.135 23.1739 151.135 24.1358C151.135 25.0937 150.956 25.9308 150.598 26.6472C150.24 27.3636 149.737 27.921 149.089 28.3194C148.441 28.7178 147.682 28.9171 146.813 28.9171ZM146.819 27.4018C147.382 27.4018 147.849 27.2529 148.219 26.9551C148.59 26.6572 148.863 26.2608 149.04 25.7658C149.221 25.2708 149.312 24.7254 149.312 24.1298C149.312 23.5382 149.221 22.9948 149.04 22.4998C148.863 22.0008 148.59 21.6003 148.219 21.2985C147.849 20.9966 147.382 20.8457 146.819 20.8457C146.251 20.8457 145.78 20.9966 145.406 21.2985C145.036 21.6003 144.76 22.0008 144.579 22.4998C144.402 22.9948 144.313 23.5382 144.313 24.1298C144.313 24.7254 144.402 25.2708 144.579 25.7658C144.76 26.2608 145.036 26.6572 145.406 26.9551C145.78 27.2529 146.251 27.4018 146.819 27.4018ZM154.955 16.3663V28.7299H153.15V16.3663H154.955ZM157.383 28.7299V19.4572H159.188V28.7299H157.383ZM158.295 18.0264C157.981 18.0264 157.711 17.9218 157.486 17.7125C157.265 17.4992 157.154 17.2457 157.154 16.9519C157.154 16.654 157.265 16.4005 157.486 16.1912C157.711 15.9779 157.981 15.8713 158.295 15.8713C158.609 15.8713 158.876 15.9779 159.098 16.1912C159.323 16.4005 159.436 16.654 159.436 16.9519C159.436 17.2457 159.323 17.4992 159.098 17.7125C158.876 17.9218 158.609 18.0264 158.295 18.0264ZM165.523 28.9171C164.653 28.9171 163.895 28.7178 163.247 28.3194C162.599 27.921 162.096 27.3636 161.737 26.6472C161.379 25.9308 161.2 25.0937 161.2 24.1358C161.2 23.1739 161.379 22.3328 161.737 21.6124C162.096 20.892 162.599 20.3325 163.247 19.9341C163.895 19.5357 164.653 19.3365 165.523 19.3365C166.392 19.3365 167.151 19.5357 167.799 19.9341C168.447 20.3325 168.95 20.892 169.308 21.6124C169.666 22.3328 169.845 23.1739 169.845 24.1358C169.845 25.0937 169.666 25.9308 169.308 26.6472C168.95 27.3636 168.447 27.921 167.799 28.3194C167.151 28.7178 166.392 28.9171 165.523 28.9171ZM165.529 27.4018C166.092 27.4018 166.559 27.2529 166.929 26.9551C167.3 26.6572 167.573 26.2608 167.75 25.7658C167.931 25.2708 168.022 24.7254 168.022 24.1298C168.022 23.5382 167.931 22.9948 167.75 22.4998C167.573 22.0008 167.3 21.6003 166.929 21.2985C166.559 20.9966 166.092 20.8457 165.529 20.8457C164.961 20.8457 164.49 20.9966 164.116 21.2985C163.746 21.6003 163.47 22.0008 163.289 22.4998C163.112 22.9948 163.023 23.5382 163.023 24.1298C163.023 24.7254 163.112 25.2708 163.289 25.7658C163.47 26.2608 163.746 26.6572 164.116 26.9551C164.49 27.2529 164.961 27.4018 165.529 27.4018Z" fill="black"/>
<path opacity="0.7" d="M73.7685 39.8208L77.0071 49.0041H77.1349L80.3736 39.8208H81.7585L77.7528 50.7299H76.3892L72.3835 39.8208H73.7685ZM83.2873 50.7299V42.5481H84.5444V50.7299H83.2873ZM83.9265 41.1845C83.6815 41.1845 83.4702 41.101 83.2926 40.9341C83.1186 40.7672 83.0316 40.5666 83.0316 40.3322C83.0316 40.0978 83.1186 39.8972 83.2926 39.7303C83.4702 39.5634 83.6815 39.4799 83.9265 39.4799C84.1715 39.4799 84.381 39.5634 84.555 39.7303C84.7326 39.8972 84.8214 40.0978 84.8214 40.3322C84.8214 40.5666 84.7326 40.7672 84.555 40.9341C84.381 41.101 84.1715 41.1845 83.9265 41.1845ZM90.2773 50.9004C89.4889 50.9004 88.8089 50.7264 88.2371 50.3784C87.6689 50.0268 87.2304 49.5367 86.9214 48.9082C86.616 48.2761 86.4633 47.541 86.4633 46.7029C86.4633 45.8649 86.616 45.1262 86.9214 44.487C87.2304 43.8443 87.6601 43.3436 88.2105 42.9849C88.7645 42.6227 89.4108 42.4416 90.1494 42.4416C90.5756 42.4416 90.9964 42.5126 91.4118 42.6546C91.8273 42.7967 92.2055 43.0275 92.5464 43.3471C92.8873 43.6632 93.159 44.0822 93.3614 44.6042C93.5638 45.1262 93.665 45.769 93.665 46.5325V47.0651H87.3582V45.9785H92.3866C92.3866 45.5169 92.2943 45.1049 92.1096 44.7427C91.9285 44.3805 91.6693 44.0946 91.3319 43.8851C90.9981 43.6756 90.604 43.5708 90.1494 43.5708C89.6487 43.5708 89.2155 43.6951 88.8497 43.9437C88.4875 44.1887 88.2087 44.5083 88.0134 44.9025C87.8181 45.2967 87.7204 45.7193 87.7204 46.1703V46.8947C87.7204 47.5126 87.827 48.0364 88.04 48.4661C88.2567 48.8922 88.5567 49.2171 88.9403 49.4409C89.3238 49.661 89.7694 49.7711 90.2773 49.7711C90.6075 49.7711 90.9058 49.7249 91.1721 49.6326C91.442 49.5367 91.6746 49.3947 91.8699 49.2065C92.0653 49.0147 92.2162 48.7768 92.3227 48.4927L93.5372 48.8336C93.4094 49.2455 93.1945 49.6078 92.8927 49.9203C92.5908 50.2292 92.218 50.4707 91.7741 50.6447C91.3302 50.8151 90.8312 50.9004 90.2773 50.9004ZM97.431 50.7299L94.9381 42.5481H96.2591L98.0276 48.8123H98.1128L99.86 42.5481H101.202L102.928 48.791H103.013L104.782 42.5481H106.103L103.61 50.7299H102.374L100.584 44.4444H100.457L98.6668 50.7299H97.431ZM112.793 53.7981C112.58 53.7981 112.39 53.7803 112.223 53.7448C112.056 53.7129 111.941 53.6809 111.877 53.649L112.197 52.541C112.502 52.6191 112.772 52.6475 113.006 52.6262C113.241 52.6049 113.448 52.5002 113.63 52.312C113.814 52.1273 113.983 51.8272 114.136 51.4117L114.37 50.7725L111.344 42.5481H112.708L114.967 49.068H115.052L117.31 42.5481H118.674L115.201 51.9231C115.045 52.3457 114.851 52.6955 114.62 52.9725C114.389 53.253 114.121 53.4607 113.816 53.5957C113.514 53.7306 113.173 53.7981 112.793 53.7981ZM123.364 50.9004C122.625 50.9004 121.977 50.7246 121.42 50.373C120.866 50.0215 120.433 49.5296 120.12 48.8975C119.811 48.2654 119.657 47.5268 119.657 46.6816C119.657 45.8294 119.811 45.0854 120.12 44.4497C120.433 43.8141 120.866 43.3205 121.42 42.9689C121.977 42.6173 122.625 42.4416 123.364 42.4416C124.103 42.4416 124.749 42.6173 125.303 42.9689C125.861 43.3205 126.294 43.8141 126.603 44.4497C126.915 45.0854 127.071 45.8294 127.071 46.6816C127.071 47.5268 126.915 48.2654 126.603 48.8975C126.294 49.5296 125.861 50.0215 125.303 50.373C124.749 50.7246 124.103 50.9004 123.364 50.9004ZM123.364 49.7711C123.925 49.7711 124.387 49.6273 124.749 49.3396C125.111 49.052 125.379 48.6738 125.553 48.2051C125.727 47.7363 125.814 47.2285 125.814 46.6816C125.814 46.1347 125.727 45.6252 125.553 45.1529C125.379 44.6806 125.111 44.2988 124.749 44.0076C124.387 43.7164 123.925 43.5708 123.364 43.5708C122.803 43.5708 122.341 43.7164 121.979 44.0076C121.617 44.2988 121.349 44.6806 121.175 45.1529C121.001 45.6252 120.914 46.1347 120.914 46.6816C120.914 47.2285 121.001 47.7363 121.175 48.2051C121.349 48.6738 121.617 49.052 121.979 49.3396C122.341 49.6273 122.803 49.7711 123.364 49.7711ZM134.147 47.3847V42.5481H135.404V50.7299H134.147V49.345H134.061C133.87 49.7605 133.571 50.1138 133.167 50.405C132.762 50.6926 132.25 50.8365 131.632 50.8365C131.121 50.8365 130.667 50.7246 130.269 50.5009C129.871 50.2736 129.559 49.9327 129.331 49.4781C129.104 49.02 128.99 48.443 128.99 47.747V42.5481H130.248V47.6617C130.248 48.2583 130.414 48.7342 130.748 49.0893C131.086 49.4444 131.515 49.622 132.037 49.622C132.35 49.622 132.668 49.5421 132.991 49.3823C133.317 49.2225 133.591 48.9774 133.811 48.6472C134.035 48.3169 134.147 47.8961 134.147 47.3847ZM137.706 50.7299V42.5481H138.921V43.7839H139.006C139.155 43.3791 139.425 43.0506 139.816 42.7985C140.206 42.5463 140.647 42.4203 141.137 42.4203C141.229 42.4203 141.344 42.422 141.483 42.4256C141.621 42.4291 141.726 42.4345 141.797 42.4416V43.72C141.755 43.7093 141.657 43.6933 141.504 43.672C141.355 43.6472 141.197 43.6347 141.03 43.6347C140.632 43.6347 140.277 43.7182 139.965 43.8851C139.656 44.0485 139.411 44.2757 139.23 44.5669C139.052 44.8546 138.963 45.183 138.963 45.5524V50.7299H137.706ZM147.506 50.7299V42.5481H148.763V50.7299H147.506ZM148.145 41.1845C147.9 41.1845 147.689 41.101 147.511 40.9341C147.337 40.7672 147.25 40.5666 147.25 40.3322C147.25 40.0978 147.337 39.8972 147.511 39.7303C147.689 39.5634 147.9 39.4799 148.145 39.4799C148.39 39.4799 148.6 39.5634 148.774 39.7303C148.951 39.8972 149.04 40.0978 149.04 40.3322C149.04 40.5666 148.951 40.7672 148.774 40.9341C148.6 41.101 148.39 41.1845 148.145 41.1845ZM152.323 45.808V50.7299H151.066V42.5481H152.28V43.8265H152.387C152.578 43.411 152.87 43.0772 153.26 42.8251C153.651 42.5694 154.155 42.4416 154.773 42.4416C155.327 42.4416 155.812 42.5552 156.227 42.7825C156.643 43.0062 156.966 43.3471 157.197 43.8052C157.427 44.2597 157.543 44.835 157.543 45.5311V50.7299H156.286V45.6163C156.286 44.9735 156.119 44.4728 155.785 44.1142C155.451 43.7519 154.993 43.5708 154.411 43.5708C154.009 43.5708 153.651 43.6578 153.335 43.8318C153.022 44.0058 152.775 44.2597 152.594 44.5936C152.413 44.9274 152.323 45.3322 152.323 45.808ZM166.237 42.5481L163.212 50.7299H161.933L158.908 42.5481H160.271L162.53 49.068H162.615L164.874 42.5481H166.237ZM171.034 50.9004C170.246 50.9004 169.566 50.7264 168.994 50.3784C168.426 50.0268 167.987 49.5367 167.678 48.9082C167.373 48.2761 167.22 47.541 167.22 46.7029C167.22 45.8649 167.373 45.1262 167.678 44.487C167.987 43.8443 168.417 43.3436 168.967 42.9849C169.521 42.6227 170.168 42.4416 170.906 42.4416C171.332 42.4416 171.753 42.5126 172.169 42.6546C172.584 42.7967 172.962 43.0275 173.303 43.3471C173.644 43.6632 173.916 44.0822 174.118 44.6042C174.321 45.1262 174.422 45.769 174.422 46.5325V47.0651H168.115V45.9785H173.143C173.143 45.5169 173.051 45.1049 172.866 44.7427C172.685 44.3805 172.426 44.0946 172.089 43.8851C171.755 43.6756 171.361 43.5708 170.906 43.5708C170.406 43.5708 169.972 43.6951 169.607 43.9437C169.244 44.1887 168.966 44.5083 168.77 44.9025C168.575 45.2967 168.477 45.7193 168.477 46.1703V46.8947C168.477 47.5126 168.584 48.0364 168.797 48.4661C169.013 48.8922 169.314 49.2171 169.697 49.4409C170.081 49.661 170.526 49.7711 171.034 49.7711C171.364 49.7711 171.663 49.7249 171.929 49.6326C172.199 49.5367 172.431 49.3947 172.627 49.2065C172.822 49.0147 172.973 48.7768 173.08 48.4927L174.294 48.8336C174.166 49.2455 173.951 49.6078 173.65 49.9203C173.348 50.2292 172.975 50.4707 172.531 50.6447C172.087 50.8151 171.588 50.9004 171.034 50.9004ZM182.13 44.3805L181 44.7001C180.929 44.5119 180.825 44.329 180.686 44.1514C180.551 43.9703 180.366 43.8212 180.132 43.704C179.898 43.5868 179.598 43.5282 179.232 43.5282C178.731 43.5282 178.314 43.6436 177.98 43.8745C177.65 44.1017 177.485 44.3911 177.485 44.7427C177.485 45.0552 177.598 45.302 177.826 45.4831C178.053 45.6642 178.408 45.8151 178.891 45.9359L180.105 46.2342C180.837 46.4117 181.382 46.6834 181.741 47.0492C182.099 47.4114 182.279 47.8784 182.279 48.4501C182.279 48.9188 182.144 49.3379 181.874 49.7072C181.608 50.0765 181.235 50.3677 180.755 50.5808C180.276 50.7938 179.718 50.9004 179.083 50.9004C178.248 50.9004 177.558 50.7193 177.011 50.3571C176.464 49.9948 176.118 49.4657 175.972 48.7697L177.165 48.4714C177.279 48.9117 177.494 49.242 177.81 49.4622C178.129 49.6823 178.547 49.7924 179.061 49.7924C179.647 49.7924 180.113 49.6681 180.457 49.4196C180.805 49.1674 180.979 48.8656 180.979 48.514C180.979 48.2299 180.88 47.992 180.681 47.8002C180.482 47.6049 180.176 47.4593 179.765 47.3634L178.401 47.0438C177.652 46.8663 177.101 46.5911 176.75 46.2182C176.402 45.8418 176.228 45.3713 176.228 44.8066C176.228 44.345 176.357 43.9366 176.616 43.5815C176.879 43.2264 177.236 42.9476 177.687 42.7452C178.142 42.5428 178.657 42.4416 179.232 42.4416C180.042 42.4416 180.677 42.6191 181.139 42.9742C181.604 43.3294 181.934 43.7981 182.13 44.3805ZM187.729 42.5481V43.6134H183.489V42.5481H187.729ZM184.725 40.5879H185.982V48.3862C185.982 48.7413 186.034 49.0076 186.137 49.1852C186.243 49.3592 186.378 49.4764 186.541 49.5367C186.708 49.5936 186.884 49.622 187.069 49.622C187.207 49.622 187.321 49.6149 187.41 49.6007C187.498 49.5829 187.57 49.5687 187.623 49.558L187.878 50.6873C187.793 50.7193 187.674 50.7512 187.522 50.7832C187.369 50.8187 187.175 50.8365 186.941 50.8365C186.586 50.8365 186.238 50.7601 185.897 50.6074C185.56 50.4547 185.279 50.2221 185.055 49.9096C184.835 49.5971 184.725 49.2029 184.725 48.7271V40.5879ZM189.62 50.7299V42.5481H190.835V43.8265H190.941C191.112 43.3897 191.387 43.0506 191.767 42.8091C192.147 42.5641 192.603 42.4416 193.136 42.4416C193.676 42.4416 194.125 42.5641 194.484 42.8091C194.846 43.0506 195.128 43.3897 195.331 43.8265H195.416C195.625 43.4039 195.94 43.0683 196.359 42.8198C196.778 42.5676 197.28 42.4416 197.866 42.4416C198.598 42.4416 199.196 42.6706 199.661 43.1287C200.126 43.5833 200.359 44.2917 200.359 45.2541V50.7299H199.102V45.2541C199.102 44.6504 198.937 44.2189 198.606 43.9597C198.276 43.7004 197.887 43.5708 197.44 43.5708C196.865 43.5708 196.419 43.7448 196.103 44.0928C195.787 44.4373 195.629 44.8741 195.629 45.4032V50.7299H194.35V45.1262C194.35 44.661 194.199 44.2864 193.898 44.0023C193.596 43.7146 193.207 43.5708 192.731 43.5708C192.404 43.5708 192.099 43.6578 191.815 43.8318C191.534 44.0058 191.307 44.2473 191.133 44.5563C190.963 44.8617 190.877 45.215 190.877 45.6163V50.7299H189.62ZM206.088 50.9004C205.299 50.9004 204.619 50.7264 204.048 50.3784C203.479 50.0268 203.041 49.5367 202.732 48.9082C202.427 48.2761 202.274 47.541 202.274 46.7029C202.274 45.8649 202.427 45.1262 202.732 44.487C203.041 43.8443 203.471 43.3436 204.021 42.9849C204.575 42.6227 205.221 42.4416 205.96 42.4416C206.386 42.4416 206.807 42.5126 207.222 42.6546C207.638 42.7967 208.016 43.0275 208.357 43.3471C208.698 43.6632 208.97 44.0822 209.172 44.6042C209.374 45.1262 209.476 45.769 209.476 46.5325V47.0651H203.169V45.9785H208.197C208.197 45.5169 208.105 45.1049 207.92 44.7427C207.739 44.3805 207.48 44.0946 207.142 43.8851C206.809 43.6756 206.415 43.5708 205.96 43.5708C205.459 43.5708 205.026 43.6951 204.66 43.9437C204.298 44.1887 204.019 44.5083 203.824 44.9025C203.629 45.2967 203.531 45.7193 203.531 46.1703V46.8947C203.531 47.5126 203.638 48.0364 203.851 48.4661C204.067 48.8922 204.367 49.2171 204.751 49.4409C205.134 49.661 205.58 49.7711 206.088 49.7711C206.418 49.7711 206.716 49.7249 206.983 49.6326C207.253 49.5367 207.485 49.3947 207.68 49.2065C207.876 49.0147 208.027 48.7768 208.133 48.4927L209.348 48.8336C209.22 49.2455 209.005 49.6078 208.703 49.9203C208.401 50.2292 208.028 50.4707 207.585 50.6447C207.141 50.8151 206.642 50.9004 206.088 50.9004ZM212.645 45.808V50.7299H211.388V42.5481H212.602V43.8265H212.709C212.901 43.411 213.192 43.0772 213.582 42.8251C213.973 42.5694 214.477 42.4416 215.095 42.4416C215.649 42.4416 216.134 42.5552 216.549 42.7825C216.965 43.0062 217.288 43.3471 217.519 43.8052C217.75 44.2597 217.865 44.835 217.865 45.5311V50.7299H216.608V45.6163C216.608 44.9735 216.441 44.4728 216.107 44.1142C215.774 43.7519 215.315 43.5708 214.733 43.5708C214.332 43.5708 213.973 43.6578 213.657 43.8318C213.345 44.0058 213.098 44.2597 212.917 44.5936C212.736 44.9274 212.645 45.3322 212.645 45.808ZM223.721 42.5481V43.6134H219.48V42.5481H223.721ZM220.716 40.5879H221.973V48.3862C221.973 48.7413 222.025 49.0076 222.128 49.1852C222.234 49.3592 222.369 49.4764 222.533 49.5367C222.7 49.5936 222.875 49.622 223.06 49.622C223.199 49.622 223.312 49.6149 223.401 49.6007C223.49 49.5829 223.561 49.5687 223.614 49.558L223.87 50.6873C223.784 50.7193 223.665 50.7512 223.513 50.7832C223.36 50.8187 223.167 50.8365 222.932 50.8365C222.577 50.8365 222.229 50.7601 221.888 50.6074C221.551 50.4547 221.27 50.2221 221.047 49.9096C220.826 49.5971 220.716 49.2029 220.716 48.7271V40.5879ZM229.83 53.7981V42.5481H231.045V43.8478H231.194C231.286 43.7058 231.414 43.5247 231.577 43.3045C231.744 43.0808 231.982 42.8819 232.291 42.7079C232.604 42.5303 233.026 42.4416 233.559 42.4416C234.248 42.4416 234.855 42.6138 235.381 42.9583C235.906 43.3027 236.316 43.791 236.611 44.4231C236.906 45.0552 237.053 45.8009 237.053 46.6603C237.053 47.5268 236.906 48.2779 236.611 48.9135C236.316 49.5456 235.908 50.0357 235.386 50.3837C234.864 50.7281 234.262 50.9004 233.58 50.9004C233.055 50.9004 232.634 50.8134 232.318 50.6394C232.002 50.4618 231.759 50.2612 231.588 50.0374C231.418 49.8102 231.286 49.622 231.194 49.4728H231.087V53.7981H229.83ZM231.066 46.639C231.066 47.2569 231.157 47.802 231.338 48.2743C231.519 48.7431 231.783 49.1106 232.131 49.3769C232.479 49.6397 232.906 49.7711 233.41 49.7711C233.935 49.7711 234.374 49.6326 234.725 49.3556C235.081 49.0751 235.347 48.6987 235.525 48.2264C235.706 47.7505 235.796 47.2214 235.796 46.639C235.796 46.0637 235.707 45.5453 235.53 45.0836C235.356 44.6184 235.091 44.2509 234.736 43.981C234.385 43.7075 233.942 43.5708 233.41 43.5708C232.898 43.5708 232.469 43.7004 232.121 43.9597C231.773 44.2154 231.51 44.574 231.332 45.0357C231.155 45.4938 231.066 46.0282 231.066 46.639ZM242.295 50.9004C241.556 50.9004 240.908 50.7246 240.35 50.373C239.797 50.0215 239.363 49.5296 239.051 48.8975C238.742 48.2654 238.587 47.5268 238.587 46.6816C238.587 45.8294 238.742 45.0854 239.051 44.4497C239.363 43.8141 239.797 43.3205 240.35 42.9689C240.908 42.6173 241.556 42.4416 242.295 42.4416C243.033 42.4416 243.68 42.6173 244.234 42.9689C244.791 43.3205 245.224 43.8141 245.533 44.4497C245.846 45.0854 246.002 45.8294 246.002 46.6816C246.002 47.5268 245.846 48.2654 245.533 48.8975C245.224 49.5296 244.791 50.0215 244.234 50.373C243.68 50.7246 243.033 50.9004 242.295 50.9004ZM242.295 49.7711C242.856 49.7711 243.317 49.6273 243.68 49.3396C244.042 49.052 244.31 48.6738 244.484 48.2051C244.658 47.7363 244.745 47.2285 244.745 46.6816C244.745 46.1347 244.658 45.6252 244.484 45.1529C244.31 44.6806 244.042 44.2988 243.68 44.0076C243.317 43.7164 242.856 43.5708 242.295 43.5708C241.734 43.5708 241.272 43.7164 240.91 44.0076C240.548 44.2988 240.279 44.6806 240.105 45.1529C239.931 45.6252 239.844 46.1347 239.844 46.6816C239.844 47.2285 239.931 47.7363 240.105 48.2051C240.279 48.6738 240.548 49.052 240.91 49.3396C241.272 49.6273 241.734 49.7711 242.295 49.7711ZM247.921 50.7299V42.5481H249.136V43.7839H249.221C249.37 43.3791 249.64 43.0506 250.03 42.7985C250.421 42.5463 250.861 42.4203 251.351 42.4203C251.444 42.4203 251.559 42.422 251.698 42.4256C251.836 42.4291 251.941 42.4345 252.012 42.4416V43.72C251.969 43.7093 251.872 43.6933 251.719 43.672C251.57 43.6472 251.412 43.6347 251.245 43.6347C250.847 43.6347 250.492 43.7182 250.18 43.8851C249.871 44.0485 249.626 44.2757 249.445 44.5669C249.267 44.8546 249.178 45.183 249.178 45.5524V50.7299H247.921ZM257.573 42.5481V43.6134H253.333V42.5481H257.573ZM254.569 40.5879H255.826V48.3862C255.826 48.7413 255.877 49.0076 255.98 49.1852C256.087 49.3592 256.222 49.4764 256.385 49.5367C256.552 49.5936 256.728 49.622 256.913 49.622C257.051 49.622 257.165 49.6149 257.253 49.6007C257.342 49.5829 257.413 49.5687 257.467 49.558L257.722 50.6873C257.637 50.7193 257.518 50.7512 257.365 50.7832C257.213 50.8187 257.019 50.8365 256.785 50.8365C256.43 50.8365 256.082 50.7601 255.741 50.6074C255.403 50.4547 255.123 50.2221 254.899 49.9096C254.679 49.5971 254.569 49.2029 254.569 48.7271V40.5879ZM263.108 42.5481V43.6134H258.697V42.5481H263.108ZM260.018 50.7299V41.4188C260.018 40.9501 260.128 40.5595 260.348 40.247C260.568 39.9345 260.854 39.7001 261.206 39.5438C261.557 39.3876 261.929 39.3095 262.319 39.3095C262.628 39.3095 262.88 39.3343 263.076 39.384C263.271 39.4338 263.416 39.4799 263.512 39.5225L263.15 40.6092C263.086 40.5879 262.997 40.5612 262.884 40.5293C262.774 40.4973 262.628 40.4813 262.447 40.4813C262.032 40.4813 261.731 40.5861 261.547 40.7956C261.366 41.0051 261.275 41.3123 261.275 41.7171V50.7299H260.018ZM267.856 50.9004C267.118 50.9004 266.47 50.7246 265.912 50.373C265.358 50.0215 264.925 49.5296 264.612 48.8975C264.303 48.2654 264.149 47.5268 264.149 46.6816C264.149 45.8294 264.303 45.0854 264.612 44.4497C264.925 43.8141 265.358 43.3205 265.912 42.9689C266.47 42.6173 267.118 42.4416 267.856 42.4416C268.595 42.4416 269.241 42.6173 269.795 42.9689C270.353 43.3205 270.786 43.8141 271.095 44.4497C271.407 45.0854 271.564 45.8294 271.564 46.6816C271.564 47.5268 271.407 48.2654 271.095 48.8975C270.786 49.5296 270.353 50.0215 269.795 50.373C269.241 50.7246 268.595 50.9004 267.856 50.9004ZM267.856 49.7711C268.417 49.7711 268.879 49.6273 269.241 49.3396C269.603 49.052 269.872 48.6738 270.046 48.2051C270.22 47.7363 270.307 47.2285 270.307 46.6816C270.307 46.1347 270.22 45.6252 270.046 45.1529C269.872 44.6806 269.603 44.2988 269.241 44.0076C268.879 43.7164 268.417 43.5708 267.856 43.5708C267.295 43.5708 266.834 43.7164 266.471 44.0076C266.109 44.2988 265.841 44.6806 265.667 45.1529C265.493 45.6252 265.406 46.1347 265.406 46.6816C265.406 47.2285 265.493 47.7363 265.667 48.2051C265.841 48.6738 266.109 49.052 266.471 49.3396C266.834 49.6273 267.295 49.7711 267.856 49.7711ZM274.74 39.8208V50.7299H273.483V39.8208H274.74ZM277.042 50.7299V42.5481H278.299V50.7299H277.042ZM277.681 41.1845C277.436 41.1845 277.225 41.101 277.047 40.9341C276.873 40.7672 276.786 40.5666 276.786 40.3322C276.786 40.0978 276.873 39.8972 277.047 39.7303C277.225 39.5634 277.436 39.4799 277.681 39.4799C277.926 39.4799 278.136 39.5634 278.31 39.7303C278.487 39.8972 278.576 40.0978 278.576 40.3322C278.576 40.5666 278.487 40.7672 278.31 40.9341C278.136 41.101 277.926 41.1845 277.681 41.1845ZM283.926 50.9004C283.187 50.9004 282.539 50.7246 281.981 50.373C281.427 50.0215 280.994 49.5296 280.682 48.8975C280.373 48.2654 280.218 47.5268 280.218 46.6816C280.218 45.8294 280.373 45.0854 280.682 44.4497C280.994 43.8141 281.427 43.3205 281.981 42.9689C282.539 42.6173 283.187 42.4416 283.926 42.4416C284.664 42.4416 285.311 42.6173 285.865 42.9689C286.422 43.3205 286.855 43.8141 287.164 44.4497C287.477 45.0854 287.633 45.8294 287.633 46.6816C287.633 47.5268 287.477 48.2654 287.164 48.8975C286.855 49.5296 286.422 50.0215 285.865 50.373C285.311 50.7246 284.664 50.9004 283.926 50.9004ZM283.926 49.7711C284.487 49.7711 284.948 49.6273 285.311 49.3396C285.673 49.052 285.941 48.6738 286.115 48.2051C286.289 47.7363 286.376 47.2285 286.376 46.6816C286.376 46.1347 286.289 45.6252 286.115 45.1529C285.941 44.6806 285.673 44.2988 285.311 44.0076C284.948 43.7164 284.487 43.5708 283.926 43.5708C283.365 43.5708 282.903 43.7164 282.541 44.0076C282.178 44.2988 281.91 44.6806 281.736 45.1529C281.562 45.6252 281.475 46.1347 281.475 46.6816C281.475 47.2285 281.562 47.7363 281.736 48.2051C281.91 48.6738 282.178 49.052 282.541 49.3396C282.903 49.6273 283.365 49.7711 283.926 49.7711Z" fill="black"/>
</svg>
