<svg width="26" height="26" viewBox="0 0 26 26" fill="none" xmlns="http://www.w3.org/2000/svg">
<path d="M11.5389 6.51788C11.5919 6.62569 11.6269 6.74115 11.6425 6.85984L11.9321 11.1654V11.1654L12.0759 13.3294C12.0773 13.552 12.1123 13.7731 12.1795 13.9856C12.3531 14.398 12.7707 14.6601 13.2251 14.6418L20.1486 14.1889C20.4485 14.184 20.738 14.2961 20.9535 14.5007C21.1331 14.6711 21.2491 14.8941 21.2856 15.1339L21.2979 15.2795C21.0114 19.2468 18.0976 22.5559 14.1385 23.41C10.1794 24.2642 6.1196 22.4598 4.1632 18.9764C3.59918 17.9644 3.24689 16.8521 3.12702 15.7047C3.07694 15.365 3.05489 15.0219 3.06108 14.6788C3.05489 10.4254 6.08383 6.74817 10.3238 5.86168C10.8341 5.78222 11.3343 6.05237 11.5389 6.51788Z" fill="#808080"/>
<path opacity="0.4" d="M14.3649 2.82092C19.1071 2.94157 23.0928 6.35169 23.86 10.9449L23.8527 10.9787V10.9787L23.8318 11.028L23.8347 11.1633C23.8238 11.3426 23.7546 11.515 23.6354 11.6543C23.5111 11.7994 23.3414 11.8983 23.1545 11.9366L23.0405 11.9523L15.0525 12.4698C14.7868 12.496 14.5222 12.4103 14.3246 12.2341C14.16 12.0872 14.0547 11.889 14.025 11.6753L13.4888 3.69893C13.4795 3.67196 13.4795 3.64272 13.4888 3.61575C13.4961 3.39589 13.5929 3.18806 13.7575 3.03871C13.9221 2.88935 14.1409 2.81092 14.3649 2.82092Z" fill="#808080"/>
</svg>
