<svg width="341" height="221" viewBox="0 0 341 221" fill="none" xmlns="http://www.w3.org/2000/svg">
<rect y="0.729919" width="341" height="220" rx="8" fill="#20452F"/>
<path d="M30.5824 35.639L34.2259 46.3009H34.3729L38.0163 35.639H40.1513L35.4403 48.7299H33.1584L28.4474 35.639H30.5824ZM43.2788 48.9472C42.6566 48.9472 42.0941 48.8322 41.5913 48.6021C41.0884 48.3677 40.69 48.0289 40.396 47.5857C40.1062 47.1426 39.9613 46.5992 39.9613 45.9558C39.9613 45.4018 40.0678 44.9458 40.2809 44.5879C40.494 44.2299 40.7816 43.9465 41.1438 43.7377C41.506 43.5289 41.9109 43.3713 42.3583 43.2647C42.8058 43.1582 43.2617 43.0772 43.7262 43.0218C44.3143 42.9536 44.7915 42.8982 45.158 42.8556C45.5245 42.8088 45.7908 42.7342 45.957 42.6319C46.1232 42.5296 46.2063 42.3634 46.2063 42.1333V42.0886C46.2063 41.5303 46.0487 41.0978 45.7333 40.791C45.4222 40.4842 44.9577 40.3308 44.3398 40.3308C43.6964 40.3308 43.1893 40.4735 42.8185 40.759C42.4521 41.0403 42.1985 41.3535 42.0579 41.6987L40.2617 41.2896C40.4748 40.693 40.7859 40.2115 41.195 39.845C41.6083 39.4742 42.0835 39.2058 42.6204 39.0396C43.1573 38.8691 43.7219 38.7839 44.3143 38.7839C44.7063 38.7839 45.1218 38.8308 45.5607 38.9245C46.0039 39.014 46.4173 39.1802 46.8008 39.4231C47.1886 39.666 47.506 40.0133 47.7532 40.465C48.0004 40.9124 48.1239 41.4941 48.1239 42.21V48.7299H46.2575V47.3876H46.1808C46.0572 47.6347 45.8718 47.8776 45.6246 48.1163C45.3775 48.3549 45.06 48.5531 44.6722 48.7107C44.2844 48.8684 43.82 48.9472 43.2788 48.9472ZM43.6942 47.4132C44.2227 47.4132 44.6744 47.3088 45.0494 47.0999C45.4286 46.8911 45.7163 46.6184 45.9123 46.2818C46.1126 45.9409 46.2127 45.5765 46.2127 45.1887V43.9231C46.1445 43.9913 46.0124 44.0552 45.8164 44.1149C45.6246 44.1703 45.4052 44.2193 45.158 44.2619C44.9109 44.3002 44.6701 44.3365 44.4357 44.3705C44.2013 44.4004 44.0053 44.4259 43.8477 44.4472C43.4769 44.4941 43.1381 44.573 42.8313 44.6838C42.5288 44.7946 42.2859 44.9544 42.1026 45.1632C41.9237 45.3677 41.8342 45.6404 41.8342 45.9813C41.8342 46.4544 42.0089 46.8123 42.3583 47.0552C42.7077 47.2938 43.1531 47.4132 43.6942 47.4132ZM52.0808 35.639V48.7299H50.1696V35.639H52.0808ZM54.152 48.7299V38.9117H56.0632V48.7299H54.152ZM55.1172 37.3968C54.7848 37.3968 54.4993 37.286 54.2607 37.0644C54.0263 36.8386 53.9091 36.5701 53.9091 36.259C53.9091 35.9437 54.0263 35.6752 54.2607 35.4536C54.4993 35.2278 54.7848 35.1149 55.1172 35.1149C55.4496 35.1149 55.733 35.2278 55.9673 35.4536C56.206 35.6752 56.3253 35.9437 56.3253 36.259C56.3253 36.5701 56.206 36.8386 55.9673 37.0644C55.733 37.286 55.4496 37.3968 55.1172 37.3968ZM61.8098 48.9217C61.0172 48.9217 60.3098 48.7193 59.6877 48.3144C59.0698 47.9053 58.584 47.3237 58.2303 46.5694C57.8809 45.8109 57.7061 44.9011 57.7061 43.84C57.7061 42.7789 57.883 41.8713 58.2367 41.117C58.5946 40.3627 59.0847 39.7853 59.7069 39.3847C60.329 38.9842 61.0343 38.7839 61.8226 38.7839C62.432 38.7839 62.9221 38.8862 63.2928 39.0907C63.6678 39.291 63.9576 39.5254 64.1621 39.7938C64.3709 40.0623 64.5328 40.2988 64.6479 40.5034H64.763V35.639H66.6742V48.7299H64.8077V47.2022H64.6479C64.5328 47.411 64.3667 47.6497 64.1493 47.9181C63.9363 48.1866 63.6422 48.421 63.2672 48.6213C62.8922 48.8215 62.4064 48.9217 61.8098 48.9217ZM62.2317 47.2917C62.7814 47.2917 63.2459 47.1468 63.6252 46.8571C64.0087 46.563 64.2985 46.1561 64.4945 45.6362C64.6948 45.1163 64.7949 44.5112 64.7949 43.8208C64.7949 43.139 64.6969 42.5424 64.5009 42.0311C64.3049 41.5197 64.0172 41.1213 63.638 40.8357C63.2587 40.5502 62.79 40.4075 62.2317 40.4075C61.6564 40.4075 61.177 40.5566 60.7935 40.8549C60.41 41.1532 60.1202 41.5602 59.9242 42.0758C59.7324 42.5914 59.6365 43.1731 59.6365 43.8208C59.6365 44.4771 59.7346 45.0673 59.9306 45.5914C60.1266 46.1156 60.4164 46.5311 60.7999 46.8379C61.1877 47.1404 61.665 47.2917 62.2317 47.2917ZM71.7592 48.9472C71.1371 48.9472 70.5746 48.8322 70.0717 48.6021C69.5689 48.3677 69.1705 48.0289 68.8764 47.5857C68.5866 47.1426 68.4418 46.5992 68.4418 45.9558C68.4418 45.4018 68.5483 44.9458 68.7614 44.5879C68.9744 44.2299 69.2621 43.9465 69.6243 43.7377C69.9865 43.5289 70.3913 43.3713 70.8388 43.2647C71.2862 43.1582 71.7422 43.0772 72.2067 43.0218C72.7947 42.9536 73.272 42.8982 73.6385 42.8556C74.005 42.8088 74.2713 42.7342 74.4375 42.6319C74.6037 42.5296 74.6868 42.3634 74.6868 42.1333V42.0886C74.6868 41.5303 74.5291 41.0978 74.2138 40.791C73.9027 40.4842 73.4382 40.3308 72.8203 40.3308C72.1768 40.3308 71.6697 40.4735 71.299 40.759C70.9325 41.0403 70.679 41.3535 70.5384 41.6987L68.7422 41.2896C68.9553 40.693 69.2663 40.2115 69.6754 39.845C70.0888 39.4742 70.5639 39.2058 71.1009 39.0396C71.6378 38.8691 72.2024 38.7839 72.7947 38.7839C73.1868 38.7839 73.6023 38.8308 74.0412 38.9245C74.4844 39.014 74.8977 39.1802 75.2812 39.4231C75.669 39.666 75.9865 40.0133 76.2337 40.465C76.4808 40.9124 76.6044 41.4941 76.6044 42.21V48.7299H74.7379V47.3876H74.6612C74.5376 47.6347 74.3523 47.8776 74.1051 48.1163C73.858 48.3549 73.5405 48.5531 73.1527 48.7107C72.7649 48.8684 72.3004 48.9472 71.7592 48.9472ZM72.1747 47.4132C72.7031 47.4132 73.1548 47.3088 73.5298 47.0999C73.9091 46.8911 74.1967 46.6184 74.3928 46.2818C74.593 45.9409 74.6932 45.5765 74.6932 45.1887V43.9231C74.625 43.9913 74.4929 44.0552 74.2969 44.1149C74.1051 44.1703 73.8857 44.2193 73.6385 44.2619C73.3913 44.3002 73.1506 44.3365 72.9162 44.3705C72.6818 44.4004 72.4858 44.4259 72.3281 44.4472C71.9574 44.4941 71.6186 44.573 71.3118 44.6838C71.0092 44.7946 70.7663 44.9544 70.5831 45.1632C70.4041 45.3677 70.3146 45.6404 70.3146 45.9813C70.3146 46.4544 70.4893 46.8123 70.8388 47.0552C71.1882 47.2938 71.6335 47.4132 72.1747 47.4132ZM83.2331 38.9117V40.4458H77.8702V38.9117H83.2331ZM79.3084 36.5595H81.2196V45.8471C81.2196 46.2178 81.275 46.497 81.3858 46.6845C81.4966 46.8677 81.6394 46.9934 81.8141 47.0616C81.9931 47.1255 82.187 47.1575 82.3958 47.1575C82.5492 47.1575 82.6834 47.1468 82.7985 47.1255C82.9135 47.1042 83.003 47.0872 83.0669 47.0744L83.4121 48.6532C83.3013 48.6958 83.1436 48.7384 82.9391 48.7811C82.7346 48.8279 82.4789 48.8535 82.1721 48.8578C81.6692 48.8663 81.2005 48.7768 80.7658 48.5893C80.3311 48.4018 79.9796 48.112 79.7111 47.72C79.4426 47.3279 79.3084 46.8357 79.3084 46.2434V36.5595ZM88.9734 48.9281C88.006 48.9281 87.1729 48.7214 86.4741 48.308C85.7795 47.8904 85.2425 47.3045 84.8633 46.5502C84.4883 45.7917 84.3008 44.9032 84.3008 43.8847C84.3008 42.8791 84.4883 41.9927 84.8633 41.2257C85.2425 40.4586 85.771 39.8599 86.4485 39.4295C87.1303 38.9991 87.9272 38.7839 88.8391 38.7839C89.3931 38.7839 89.93 38.8755 90.4499 39.0588C90.9698 39.242 91.4364 39.5296 91.8498 39.9217C92.2631 40.3137 92.5891 40.823 92.8278 41.4494C93.0664 42.0715 93.1857 42.8279 93.1857 43.7186V44.3961H85.381V42.9643H91.3129C91.3129 42.4615 91.2106 42.0161 91.006 41.6284C90.8015 41.2363 90.5138 40.9274 90.1431 40.7015C89.7766 40.4757 89.3462 40.3627 88.8519 40.3627C88.315 40.3627 87.8462 40.4948 87.4457 40.759C87.0494 41.019 86.7425 41.3599 86.5252 41.7818C86.3121 42.1994 86.2056 42.6532 86.2056 43.1433V44.2619C86.2056 44.9181 86.3207 45.4764 86.5508 45.9366C86.7852 46.3968 87.1112 46.7484 87.5288 46.9913C87.9464 47.2299 88.4343 47.3492 88.9925 47.3492C89.3548 47.3492 89.685 47.2981 89.9833 47.1958C90.2816 47.0893 90.5394 46.9316 90.7567 46.7228C90.9741 46.514 91.1403 46.2562 91.2553 45.9494L93.0643 46.2754C92.9194 46.808 92.6594 47.2747 92.2844 47.6752C91.9137 48.0715 91.4471 48.3805 90.8846 48.6021C90.3263 48.8194 89.6893 48.9281 88.9734 48.9281ZM101.927 48.9472C101.305 48.9472 100.743 48.8322 100.24 48.6021C99.7369 48.3677 99.3384 48.0289 99.0444 47.5857C98.7546 47.1426 98.6097 46.5992 98.6097 45.9558C98.6097 45.4018 98.7163 44.9458 98.9293 44.5879C99.1424 44.2299 99.43 43.9465 99.7923 43.7377C100.154 43.5289 100.559 43.3713 101.007 43.2647C101.454 43.1582 101.91 43.0772 102.375 43.0218C102.963 42.9536 103.44 42.8982 103.806 42.8556C104.173 42.8088 104.439 42.7342 104.605 42.6319C104.772 42.5296 104.855 42.3634 104.855 42.1333V42.0886C104.855 41.5303 104.697 41.0978 104.382 40.791C104.071 40.4842 103.606 40.3308 102.988 40.3308C102.345 40.3308 101.838 40.4735 101.467 40.759C101.1 41.0403 100.847 41.3535 100.706 41.6987L98.9102 41.2896C99.1232 40.693 99.4343 40.2115 99.8434 39.845C100.257 39.4742 100.732 39.2058 101.269 39.0396C101.806 38.8691 102.37 38.7839 102.963 38.7839C103.355 38.7839 103.77 38.8308 104.209 38.9245C104.652 39.014 105.066 39.1802 105.449 39.4231C105.837 39.666 106.154 40.0133 106.402 40.465C106.649 40.9124 106.772 41.4941 106.772 42.21V48.7299H104.906V47.3876H104.829C104.706 47.6347 104.52 47.8776 104.273 48.1163C104.026 48.3549 103.708 48.5531 103.321 48.7107C102.933 48.8684 102.468 48.9472 101.927 48.9472ZM102.343 47.4132C102.871 47.4132 103.323 47.3088 103.698 47.0999C104.077 46.8911 104.365 46.6184 104.561 46.2818C104.761 45.9409 104.861 45.5765 104.861 45.1887V43.9231C104.793 43.9913 104.661 44.0552 104.465 44.1149C104.273 44.1703 104.054 44.2193 103.806 44.2619C103.559 44.3002 103.319 44.3365 103.084 44.3705C102.85 44.4004 102.654 44.4259 102.496 44.4472C102.125 44.4941 101.787 44.573 101.48 44.6838C101.177 44.7946 100.934 44.9544 100.751 45.1632C100.572 45.3677 100.483 45.6404 100.483 45.9813C100.483 46.4544 100.657 46.8123 101.007 47.0552C101.356 47.2938 101.801 47.4132 102.343 47.4132ZM116.175 41.3088L114.443 41.6156C114.371 41.394 114.256 41.183 114.098 40.9828C113.944 40.7825 113.736 40.6184 113.471 40.4906C113.207 40.3627 112.877 40.2988 112.481 40.2988C111.939 40.2988 111.488 40.4203 111.126 40.6632C110.763 40.9018 110.582 41.2107 110.582 41.59C110.582 41.9181 110.704 42.1823 110.947 42.3826C111.189 42.5829 111.581 42.747 112.123 42.8748L113.682 43.2328C114.586 43.4416 115.259 43.7633 115.702 44.198C116.145 44.6326 116.367 45.1972 116.367 45.8919C116.367 46.4799 116.197 47.0041 115.856 47.4643C115.519 47.9203 115.048 48.2782 114.443 48.5382C113.842 48.7981 113.145 48.9281 112.353 48.9281C111.253 48.9281 110.356 48.6937 109.662 48.2249C108.967 47.7519 108.541 47.0808 108.383 46.2115L110.231 45.9302C110.346 46.4117 110.582 46.7761 110.94 47.0232C111.298 47.2661 111.765 47.3876 112.34 47.3876C112.966 47.3876 113.467 47.2576 113.842 46.9977C114.217 46.7335 114.405 46.4117 114.405 46.0325C114.405 45.7257 114.29 45.4678 114.059 45.259C113.834 45.0502 113.486 44.8926 113.018 44.786L111.356 44.4217C110.439 44.2129 109.762 43.8805 109.323 43.4245C108.888 42.9686 108.671 42.3911 108.671 41.6923C108.671 41.1127 108.833 40.6056 109.157 40.171C109.481 39.7363 109.928 39.3975 110.499 39.1546C111.07 38.9075 111.724 38.7839 112.461 38.7839C113.523 38.7839 114.358 39.014 114.967 39.4742C115.577 39.9302 115.979 40.5417 116.175 41.3088ZM125.326 41.3088L123.593 41.6156C123.521 41.394 123.406 41.183 123.248 40.9828C123.095 40.7825 122.886 40.6184 122.622 40.4906C122.358 40.3627 122.027 40.2988 121.631 40.2988C121.09 40.2988 120.638 40.4203 120.276 40.6632C119.914 40.9018 119.733 41.2107 119.733 41.59C119.733 41.9181 119.854 42.1823 120.097 42.3826C120.34 42.5829 120.732 42.747 121.273 42.8748L122.833 43.2328C123.736 43.4416 124.409 43.7633 124.853 44.198C125.296 44.6326 125.517 45.1972 125.517 45.8919C125.517 46.4799 125.347 47.0041 125.006 47.4643C124.669 47.9203 124.199 48.2782 123.593 48.5382C122.993 48.7981 122.296 48.9281 121.503 48.9281C120.404 48.9281 119.507 48.6937 118.812 48.2249C118.118 47.7519 117.691 47.0808 117.534 46.2115L119.381 45.9302C119.496 46.4117 119.733 46.7761 120.091 47.0232C120.449 47.2661 120.915 47.3876 121.49 47.3876C122.117 47.3876 122.618 47.2576 122.993 46.9977C123.368 46.7335 123.555 46.4117 123.555 46.0325C123.555 45.7257 123.44 45.4678 123.21 45.259C122.984 45.0502 122.637 44.8926 122.168 44.786L120.506 44.4217C119.59 44.2129 118.912 43.8805 118.473 43.4245C118.039 42.9686 117.821 42.3911 117.821 41.6923C117.821 41.1127 117.983 40.6056 118.307 40.171C118.631 39.7363 119.078 39.3975 119.65 39.1546C120.221 38.9075 120.875 38.7839 121.612 38.7839C122.673 38.7839 123.508 39.014 124.118 39.4742C124.727 39.9302 125.13 40.5417 125.326 41.3088ZM131.35 48.9281C130.383 48.9281 129.55 48.7214 128.851 48.308C128.156 47.8904 127.619 47.3045 127.24 46.5502C126.865 45.7917 126.678 44.9032 126.678 43.8847C126.678 42.8791 126.865 41.9927 127.24 41.2257C127.619 40.4586 128.148 39.8599 128.825 39.4295C129.507 38.9991 130.304 38.7839 131.216 38.7839C131.77 38.7839 132.307 38.8755 132.827 39.0588C133.347 39.242 133.813 39.5296 134.227 39.9217C134.64 40.3137 134.966 40.823 135.205 41.4494C135.443 42.0715 135.563 42.8279 135.563 43.7186V44.3961H127.758V42.9643H133.69C133.69 42.4615 133.588 42.0161 133.383 41.6284C133.178 41.2363 132.891 40.9274 132.52 40.7015C132.154 40.4757 131.723 40.3627 131.229 40.3627C130.692 40.3627 130.223 40.4948 129.823 40.759C129.426 41.019 129.119 41.3599 128.902 41.7818C128.689 42.1994 128.583 42.6532 128.583 43.1433V44.2619C128.583 44.9181 128.698 45.4764 128.928 45.9366C129.162 46.3968 129.488 46.7484 129.906 46.9913C130.323 47.2299 130.811 47.3492 131.369 47.3492C131.732 47.3492 132.062 47.2981 132.36 47.1958C132.659 47.0893 132.916 46.9316 133.134 46.7228C133.351 46.514 133.517 46.2562 133.632 45.9494L135.441 46.2754C135.296 46.808 135.036 47.2747 134.661 47.6752C134.291 48.0715 133.824 48.3805 133.262 48.6021C132.703 48.8194 132.066 48.9281 131.35 48.9281ZM141.766 38.9117V40.4458H136.403V38.9117H141.766ZM137.842 36.5595H139.753V45.8471C139.753 46.2178 139.808 46.497 139.919 46.6845C140.03 46.8677 140.173 46.9934 140.347 47.0616C140.526 47.1255 140.72 47.1575 140.929 47.1575C141.082 47.1575 141.217 47.1468 141.332 47.1255C141.447 47.1042 141.536 47.0872 141.6 47.0744L141.945 48.6532C141.835 48.6958 141.677 48.7384 141.472 48.7811C141.268 48.8279 141.012 48.8535 140.705 48.8578C140.202 48.8663 139.734 48.7768 139.299 48.5893C138.864 48.4018 138.513 48.112 138.244 47.72C137.976 47.3279 137.842 46.8357 137.842 46.2434V36.5595ZM150.58 41.3088L148.847 41.6156C148.775 41.394 148.66 41.183 148.502 40.9828C148.349 40.7825 148.14 40.6184 147.876 40.4906C147.612 40.3627 147.281 40.2988 146.885 40.2988C146.344 40.2988 145.892 40.4203 145.53 40.6632C145.168 40.9018 144.987 41.2107 144.987 41.59C144.987 41.9181 145.108 42.1823 145.351 42.3826C145.594 42.5829 145.986 42.747 146.527 42.8748L148.087 43.2328C148.99 43.4416 149.663 43.7633 150.107 44.198C150.55 44.6326 150.771 45.1972 150.771 45.8919C150.771 46.4799 150.601 47.0041 150.26 47.4643C149.923 47.9203 149.452 48.2782 148.847 48.5382C148.246 48.7981 147.55 48.9281 146.757 48.9281C145.658 48.9281 144.761 48.6937 144.066 48.2249C143.371 47.7519 142.945 47.0808 142.788 46.2115L144.635 45.9302C144.75 46.4117 144.987 46.7761 145.344 47.0232C145.702 47.2661 146.169 47.3876 146.744 47.3876C147.371 47.3876 147.871 47.2576 148.246 46.9977C148.621 46.7335 148.809 46.4117 148.809 46.0325C148.809 45.7257 148.694 45.4678 148.464 45.259C148.238 45.0502 147.891 44.8926 147.422 44.786L145.76 44.4217C144.844 44.2129 144.166 43.8805 143.727 43.4245C143.293 42.9686 143.075 42.3911 143.075 41.6923C143.075 41.1127 143.237 40.6056 143.561 40.171C143.885 39.7363 144.332 39.3975 144.903 39.1546C145.474 38.9075 146.129 38.7839 146.866 38.7839C147.927 38.7839 148.762 39.014 149.371 39.4742C149.981 39.9302 150.384 40.5417 150.58 41.3088Z" fill="white"/>
<path opacity="0.75" d="M38.0994 70.2299H36.7784C36.7003 69.8499 36.5636 69.5161 36.3683 69.2285C36.1765 68.9409 35.9421 68.6994 35.6651 68.5041C35.3917 68.3052 35.0881 68.1561 34.7543 68.0566C34.4205 67.9572 34.0724 67.9075 33.7102 67.9075C33.0497 67.9075 32.4513 68.0744 31.9151 68.4082C31.3825 68.742 30.9581 69.2338 30.642 69.8837C30.3295 70.5335 30.1733 71.3308 30.1733 72.2754C30.1733 73.22 30.3295 74.0172 30.642 74.6671C30.9581 75.3169 31.3825 75.8088 31.9151 76.1426C32.4513 76.4764 33.0497 76.6433 33.7102 76.6433C34.0724 76.6433 34.4205 76.5936 34.7543 76.4941C35.0881 76.3947 35.3917 76.2473 35.6651 76.052C35.9421 75.8531 36.1765 75.6099 36.3683 75.3222C36.5636 75.0311 36.7003 74.6972 36.7784 74.3208H38.0994C38 74.8784 37.8189 75.3773 37.5561 75.8176C37.2933 76.258 36.9666 76.6326 36.576 76.9416C36.1854 77.247 35.7468 77.4796 35.2603 77.6394C34.7773 77.7992 34.2607 77.8791 33.7102 77.8791C32.7798 77.8791 31.9524 77.6518 31.228 77.1972C30.5036 76.7427 29.9336 76.0964 29.5181 75.2583C29.1026 74.4203 28.8949 73.4259 28.8949 72.2754C28.8949 71.1248 29.1026 70.1305 29.5181 69.2924C29.9336 68.4544 30.5036 67.808 31.228 67.3535C31.9524 66.899 32.7798 66.6717 33.7102 66.6717C34.2607 66.6717 34.7773 66.7516 35.2603 66.9114C35.7468 67.0712 36.1854 67.3056 36.576 67.6145C36.9666 67.9199 37.2933 68.2928 37.5561 68.7331C37.8189 69.1699 38 69.6688 38.0994 70.2299ZM43.3875 77.9004C42.6489 77.9004 42.0008 77.7246 41.4433 77.373C40.8893 77.0215 40.4561 76.5296 40.1436 75.8975C39.8346 75.2654 39.6801 74.5268 39.6801 73.6816C39.6801 72.8294 39.8346 72.0854 40.1436 71.4497C40.4561 70.8141 40.8893 70.3205 41.4433 69.9689C42.0008 69.6173 42.6489 69.4416 43.3875 69.4416C44.1262 69.4416 44.7725 69.6173 45.3264 69.9689C45.884 70.3205 46.3172 70.8141 46.6262 71.4497C46.9387 72.0854 47.0949 72.8294 47.0949 73.6816C47.0949 74.5268 46.9387 75.2654 46.6262 75.8975C46.3172 76.5296 45.884 77.0215 45.3264 77.373C44.7725 77.7246 44.1262 77.9004 43.3875 77.9004ZM43.3875 76.7711C43.9486 76.7711 44.4102 76.6273 44.7725 76.3396C45.1347 76.052 45.4028 75.6738 45.5768 75.2051C45.7508 74.7363 45.8378 74.2285 45.8378 73.6816C45.8378 73.1347 45.7508 72.6252 45.5768 72.1529C45.4028 71.6806 45.1347 71.2988 44.7725 71.0076C44.4102 70.7164 43.9486 70.5708 43.3875 70.5708C42.8264 70.5708 42.3648 70.7164 42.0026 71.0076C41.6404 71.2988 41.3722 71.6806 41.1982 72.1529C41.0242 72.6252 40.9372 73.1347 40.9372 73.6816C40.9372 74.2285 41.0242 74.7363 41.1982 75.2051C41.3722 75.6738 41.6404 76.052 42.0026 76.3396C42.3648 76.6273 42.8264 76.7711 43.3875 76.7711ZM50.271 72.808V77.7299H49.0138V69.5481H50.2283V70.8265H50.3349C50.5266 70.411 50.8178 70.0772 51.2085 69.8251C51.5991 69.5694 52.1033 69.4416 52.7212 69.4416C53.2752 69.4416 53.7599 69.5552 54.1754 69.7825C54.5909 70.0062 54.9141 70.3471 55.1449 70.8052C55.3757 71.2597 55.4911 71.835 55.4911 72.5311V77.7299H54.234V72.6163C54.234 71.9735 54.0671 71.4728 53.7333 71.1142C53.3995 70.7519 52.9414 70.5708 52.359 70.5708C51.9577 70.5708 51.5991 70.6578 51.283 70.8318C50.9705 71.0058 50.7237 71.2597 50.5426 71.5936C50.3615 71.9274 50.271 72.3322 50.271 72.808ZM63.5837 71.3805L62.4545 71.7001C62.3834 71.5119 62.2787 71.329 62.1402 71.1514C62.0052 70.9703 61.8206 70.8212 61.5862 70.704C61.3518 70.5868 61.0518 70.5282 60.686 70.5282C60.1853 70.5282 59.768 70.6436 59.4342 70.8745C59.104 71.1017 58.9388 71.3911 58.9388 71.7427C58.9388 72.0552 59.0525 72.302 59.2797 72.4831C59.507 72.6642 59.8621 72.8151 60.3451 72.9359L61.5596 73.2342C62.2911 73.4117 62.8362 73.6834 63.1949 74.0492C63.5535 74.4114 63.7329 74.8784 63.7329 75.4501C63.7329 75.9188 63.5979 76.3379 63.328 76.7072C63.0617 77.0765 62.6888 77.3677 62.2094 77.5808C61.73 77.7938 61.1725 77.9004 60.5368 77.9004C59.7023 77.9004 59.0116 77.7193 58.4648 77.3571C57.9179 76.9948 57.5716 76.4657 57.426 75.7697L58.6192 75.4714C58.7329 75.9117 58.9477 76.242 59.2638 76.4622C59.5834 76.6823 60.0006 76.7924 60.5155 76.7924C61.1015 76.7924 61.5667 76.6681 61.9111 76.4196C62.2591 76.1674 62.4332 75.8656 62.4332 75.514C62.4332 75.2299 62.3337 74.992 62.1349 74.8002C61.936 74.6049 61.6306 74.4593 61.2187 74.3634L59.855 74.0438C59.1057 73.8663 58.5553 73.5911 58.2037 73.2182C57.8557 72.8418 57.6817 72.3713 57.6817 71.8066C57.6817 71.345 57.8113 70.9366 58.0706 70.5815C58.3334 70.2264 58.6903 69.9476 59.1412 69.7452C59.5958 69.5428 60.1107 69.4416 60.686 69.4416C61.4956 69.4416 62.1313 69.6191 62.593 69.9742C63.0581 70.3294 63.3884 70.7981 63.5837 71.3805ZM68.949 77.9004C68.2104 77.9004 67.5623 77.7246 67.0048 77.373C66.4508 77.0215 66.0176 76.5296 65.7051 75.8975C65.3961 75.2654 65.2417 74.5268 65.2417 73.6816C65.2417 72.8294 65.3961 72.0854 65.7051 71.4497C66.0176 70.8141 66.4508 70.3205 67.0048 69.9689C67.5623 69.6173 68.2104 69.4416 68.949 69.4416C69.6877 69.4416 70.334 69.6173 70.888 69.9689C71.4455 70.3205 71.8787 70.8141 72.1877 71.4497C72.5002 72.0854 72.6564 72.8294 72.6564 73.6816C72.6564 74.5268 72.5002 75.2654 72.1877 75.8975C71.8787 76.5296 71.4455 77.0215 70.888 77.373C70.334 77.7246 69.6877 77.9004 68.949 77.9004ZM68.949 76.7711C69.5101 76.7711 69.9718 76.6273 70.334 76.3396C70.6962 76.052 70.9643 75.6738 71.1383 75.2051C71.3123 74.7363 71.3993 74.2285 71.3993 73.6816C71.3993 73.1347 71.3123 72.6252 71.1383 72.1529C70.9643 71.6806 70.6962 71.2988 70.334 71.0076C69.9718 70.7164 69.5101 70.5708 68.949 70.5708C68.388 70.5708 67.9263 70.7164 67.5641 71.0076C67.2019 71.2988 66.9338 71.6806 66.7598 72.1529C66.5858 72.6252 66.4988 73.1347 66.4988 73.6816C66.4988 74.2285 66.5858 74.7363 66.7598 75.2051C66.9338 75.6738 67.2019 76.052 67.5641 76.3396C67.9263 76.6273 68.388 76.7711 68.949 76.7711ZM75.8325 66.8208V77.7299H74.5754V66.8208H75.8325ZM78.1349 77.7299V69.5481H79.392V77.7299H78.1349ZM78.7741 68.1845C78.5291 68.1845 78.3178 68.101 78.1403 67.9341C77.9663 67.7672 77.8793 67.5666 77.8793 67.3322C77.8793 67.0978 77.9663 66.8972 78.1403 66.7303C78.3178 66.5634 78.5291 66.4799 78.7741 66.4799C79.0192 66.4799 79.2287 66.5634 79.4027 66.7303C79.5803 66.8972 79.669 67.0978 79.669 67.3322C79.669 67.5666 79.5803 67.7672 79.4027 67.9341C79.2287 68.101 79.0192 68.1845 78.7741 68.1845ZM84.784 77.9004C84.1022 77.9004 83.5003 77.7281 82.9782 77.3837C82.4562 77.0357 82.0479 76.5456 81.7531 75.9135C81.4584 75.2779 81.311 74.5268 81.311 73.6603C81.311 72.8009 81.4584 72.0552 81.7531 71.4231C82.0479 70.791 82.458 70.3027 82.9836 69.9583C83.5091 69.6138 84.1164 69.4416 84.8053 69.4416C85.338 69.4416 85.7588 69.5303 86.0677 69.7079C86.3802 69.8819 86.6182 70.0808 86.7815 70.3045C86.9484 70.5247 87.078 70.7058 87.1704 70.8478H87.2769V66.8208H88.534V77.7299H87.3195V76.4728H87.1704C87.078 76.622 86.9466 76.8102 86.7762 77.0374C86.6057 77.2612 86.3625 77.4618 86.0464 77.6394C85.7304 77.8134 85.3096 77.9004 84.784 77.9004ZM84.9545 76.7711C85.4587 76.7711 85.8849 76.6397 86.2329 76.3769C86.5809 76.1106 86.8454 75.7431 87.0265 75.2743C87.2077 74.802 87.2982 74.2569 87.2982 73.639C87.2982 73.0282 87.2094 72.4938 87.0319 72.0357C86.8543 71.574 86.5915 71.2154 86.2435 70.9597C85.8955 70.7004 85.4658 70.5708 84.9545 70.5708C84.4218 70.5708 83.9779 70.7075 83.6228 70.981C83.2712 71.2509 83.0067 71.6184 82.8291 72.0836C82.6551 72.5453 82.5681 73.0637 82.5681 73.639C82.5681 74.2214 82.6569 74.7505 82.8344 75.2264C83.0155 75.6987 83.2819 76.0751 83.6334 76.3556C83.9885 76.6326 84.4289 76.7711 84.9545 76.7711ZM93.4186 77.9217C92.9001 77.9217 92.4296 77.824 92.007 77.6287C91.5844 77.4298 91.2488 77.144 91.0003 76.7711C90.7517 76.3947 90.6274 75.9401 90.6274 75.4075C90.6274 74.9387 90.7197 74.5588 90.9044 74.2676C91.089 73.9728 91.3358 73.742 91.6448 73.5751C91.9537 73.4082 92.2947 73.2839 92.6675 73.2022C93.0439 73.117 93.4221 73.0495 93.8021 72.9998C94.2993 72.9359 94.7023 72.8879 95.0113 72.856C95.3238 72.8205 95.551 72.7619 95.6931 72.6802C95.8387 72.5985 95.9115 72.4565 95.9115 72.2541V72.2115C95.9115 71.6859 95.7677 71.2775 95.48 70.9863C95.1959 70.6951 94.7645 70.5495 94.1856 70.5495C93.5855 70.5495 93.115 70.6809 92.7741 70.9437C92.4331 71.2065 92.1934 71.487 92.055 71.7853L90.8618 71.3592C91.0748 70.862 91.3589 70.4749 91.714 70.198C92.0727 69.9174 92.4633 69.7221 92.8859 69.612C93.3121 69.4984 93.7311 69.4416 94.143 69.4416C94.4058 69.4416 94.7077 69.4735 95.0486 69.5374C95.393 69.5978 95.7251 69.7239 96.0447 69.9156C96.3678 70.1074 96.6359 70.3968 96.849 70.7839C97.0621 71.171 97.1686 71.6894 97.1686 72.3393V77.7299H95.9115V76.622H95.8476C95.7623 76.7995 95.6203 76.9895 95.4214 77.1919C95.2226 77.3943 94.958 77.5666 94.6278 77.7086C94.2975 77.8507 93.8944 77.9217 93.4186 77.9217ZM93.6104 76.7924C94.1075 76.7924 94.5265 76.6948 94.8675 76.4995C95.2119 76.3041 95.4711 76.052 95.6452 75.7431C95.8227 75.4341 95.9115 75.1092 95.9115 74.7683V73.6177C95.8582 73.6816 95.741 73.7402 95.5599 73.7935C95.3824 73.8432 95.1764 73.8876 94.942 73.9267C94.7112 73.9622 94.4857 73.9941 94.2655 74.0225C94.0489 74.0474 93.8731 74.0687 93.7382 74.0865C93.4115 74.1291 93.1061 74.1983 92.822 74.2942C92.5415 74.3865 92.3142 74.5268 92.1402 74.715C91.9697 74.8997 91.8845 75.1518 91.8845 75.4714C91.8845 75.9082 92.0461 76.2384 92.3692 76.4622C92.6959 76.6823 93.1096 76.7924 93.6104 76.7924ZM103.021 69.5481V70.6134H98.7812V69.5481H103.021ZM100.017 67.5879H101.274V75.3862C101.274 75.7413 101.326 76.0076 101.429 76.1852C101.535 76.3592 101.67 76.4764 101.833 76.5367C102 76.5936 102.176 76.622 102.361 76.622C102.499 76.622 102.613 76.6149 102.702 76.6007C102.79 76.5829 102.862 76.5687 102.915 76.558L103.17 77.6873C103.085 77.7193 102.966 77.7512 102.814 77.7832C102.661 77.8187 102.467 77.8365 102.233 77.8365C101.878 77.8365 101.53 77.7601 101.189 77.6074C100.852 77.4547 100.571 77.2221 100.347 76.9096C100.127 76.5971 100.017 76.2029 100.017 75.7271V67.5879ZM108.255 77.9004C107.466 77.9004 106.786 77.7264 106.215 77.3784C105.646 77.0268 105.208 76.5367 104.899 75.9082C104.594 75.2761 104.441 74.541 104.441 73.7029C104.441 72.8649 104.594 72.1262 104.899 71.487C105.208 70.8443 105.638 70.3436 106.188 69.9849C106.742 69.6227 107.388 69.4416 108.127 69.4416C108.553 69.4416 108.974 69.5126 109.389 69.6546C109.805 69.7967 110.183 70.0275 110.524 70.3471C110.865 70.6632 111.137 71.0822 111.339 71.6042C111.541 72.1262 111.643 72.769 111.643 73.5325V74.0651H105.336V72.9785H110.364C110.364 72.5169 110.272 72.1049 110.087 71.7427C109.906 71.3805 109.647 71.0946 109.309 70.8851C108.976 70.6756 108.581 70.5708 108.127 70.5708C107.626 70.5708 107.193 70.6951 106.827 70.9437C106.465 71.1887 106.186 71.5083 105.991 71.9025C105.796 72.2967 105.698 72.7193 105.698 73.1703V73.8947C105.698 74.5126 105.805 75.0364 106.018 75.4661C106.234 75.8922 106.534 76.2171 106.918 76.4409C107.301 76.661 107.747 76.7711 108.255 76.7711C108.585 76.7711 108.883 76.7249 109.15 76.6326C109.42 76.5367 109.652 76.3947 109.847 76.2065C110.043 76.0147 110.194 75.7768 110.3 75.4927L111.515 75.8336C111.387 76.2455 111.172 76.6078 110.87 76.9203C110.568 77.2292 110.195 77.4707 109.752 77.6447C109.308 77.8151 108.809 77.9004 108.255 77.9004ZM120.181 77.9217C119.663 77.9217 119.192 77.824 118.77 77.6287C118.347 77.4298 118.012 77.144 117.763 76.7711C117.514 76.3947 117.39 75.9401 117.39 75.4075C117.39 74.9387 117.482 74.5588 117.667 74.2676C117.852 73.9728 118.099 73.742 118.407 73.5751C118.716 73.4082 119.057 73.2839 119.43 73.2022C119.807 73.117 120.185 73.0495 120.565 72.9998C121.062 72.9359 121.465 72.8879 121.774 72.856C122.086 72.8205 122.314 72.7619 122.456 72.6802C122.601 72.5985 122.674 72.4565 122.674 72.2541V72.2115C122.674 71.6859 122.53 71.2775 122.243 70.9863C121.959 70.6951 121.527 70.5495 120.948 70.5495C120.348 70.5495 119.878 70.6809 119.537 70.9437C119.196 71.2065 118.956 71.487 118.818 71.7853L117.624 71.3592C117.838 70.862 118.122 70.4749 118.477 70.198C118.835 69.9174 119.226 69.7221 119.649 69.612C120.075 69.4984 120.494 69.4416 120.906 69.4416C121.169 69.4416 121.47 69.4735 121.811 69.5374C122.156 69.5978 122.488 69.7239 122.807 69.9156C123.131 70.1074 123.399 70.3968 123.612 70.7839C123.825 71.171 123.931 71.6894 123.931 72.3393V77.7299H122.674V76.622H122.61C122.525 76.7995 122.383 76.9895 122.184 77.1919C121.985 77.3943 121.721 77.5666 121.39 77.7086C121.06 77.8507 120.657 77.9217 120.181 77.9217ZM120.373 76.7924C120.87 76.7924 121.289 76.6948 121.63 76.4995C121.975 76.3041 122.234 76.052 122.408 75.7431C122.585 75.4341 122.674 75.1092 122.674 74.7683V73.6177C122.621 73.6816 122.504 73.7402 122.323 73.7935C122.145 73.8432 121.939 73.8876 121.705 73.9267C121.474 73.9622 121.248 73.9941 121.028 74.0225C120.812 74.0474 120.636 74.0687 120.501 74.0865C120.174 74.1291 119.869 74.1983 119.585 74.2942C119.304 74.3865 119.077 74.5268 118.903 74.715C118.732 74.8997 118.647 75.1518 118.647 75.4714C118.647 75.9082 118.809 76.2384 119.132 76.4622C119.459 76.6823 119.872 76.7924 120.373 76.7924ZM127.483 72.808V77.7299H126.226V69.5481H127.44V70.8265H127.547C127.739 70.411 128.03 70.0772 128.42 69.8251C128.811 69.5694 129.315 69.4416 129.933 69.4416C130.487 69.4416 130.972 69.5552 131.387 69.7825C131.803 70.0062 132.126 70.3471 132.357 70.8052C132.588 71.2597 132.703 71.835 132.703 72.5311V77.7299H131.446V72.6163C131.446 71.9735 131.279 71.4728 130.945 71.1142C130.611 70.7519 130.153 70.5708 129.571 70.5708C129.17 70.5708 128.811 70.6578 128.495 70.8318C128.182 71.0058 127.936 71.2597 127.755 71.5936C127.573 71.9274 127.483 72.3322 127.483 72.808ZM138.09 77.9004C137.408 77.9004 136.806 77.7281 136.284 77.3837C135.762 77.0357 135.354 76.5456 135.059 75.9135C134.764 75.2779 134.617 74.5268 134.617 73.6603C134.617 72.8009 134.764 72.0552 135.059 71.4231C135.354 70.791 135.764 70.3027 136.289 69.9583C136.815 69.6138 137.422 69.4416 138.111 69.4416C138.644 69.4416 139.064 69.5303 139.373 69.7079C139.686 69.8819 139.924 70.0808 140.087 70.3045C140.254 70.5247 140.384 70.7058 140.476 70.8478H140.583V66.8208H141.84V77.7299H140.625V76.4728H140.476C140.384 76.622 140.252 76.8102 140.082 77.0374C139.911 77.2612 139.668 77.4618 139.352 77.6394C139.036 77.8134 138.615 77.9004 138.09 77.9004ZM138.26 76.7711C138.764 76.7711 139.191 76.6397 139.539 76.3769C139.887 76.1106 140.151 75.7431 140.332 75.2743C140.513 74.802 140.604 74.2569 140.604 73.639C140.604 73.0282 140.515 72.4938 140.338 72.0357C140.16 71.574 139.897 71.2154 139.549 70.9597C139.201 70.7004 138.771 70.5708 138.26 70.5708C137.727 70.5708 137.284 70.7075 136.928 70.981C136.577 71.2509 136.312 71.6184 136.135 72.0836C135.961 72.5453 135.874 73.0637 135.874 73.639C135.874 74.2214 135.963 74.7505 136.14 75.2264C136.321 75.6987 136.588 76.0751 136.939 76.3556C137.294 76.6326 137.735 76.7711 138.26 76.7711ZM148.535 77.7299V69.5481H149.75V70.8265H149.856C150.027 70.3897 150.302 70.0506 150.682 69.8091C151.062 69.5641 151.518 69.4416 152.051 69.4416C152.591 69.4416 153.04 69.5641 153.399 69.8091C153.761 70.0506 154.043 70.3897 154.246 70.8265H154.331C154.54 70.4039 154.855 70.0683 155.274 69.8198C155.693 69.5676 156.195 69.4416 156.781 69.4416C157.513 69.4416 158.111 69.6706 158.576 70.1287C159.041 70.5833 159.274 71.2917 159.274 72.2541V77.7299H158.017V72.2541C158.017 71.6504 157.852 71.2189 157.521 70.9597C157.191 70.7004 156.802 70.5708 156.355 70.5708C155.78 70.5708 155.334 70.7448 155.018 71.0928C154.702 71.4373 154.544 71.8741 154.544 72.4032V77.7299H153.265V72.1262C153.265 71.661 153.115 71.2864 152.813 71.0023C152.511 70.7146 152.122 70.5708 151.646 70.5708C151.319 70.5708 151.014 70.6578 150.73 70.8318C150.449 71.0058 150.222 71.2473 150.048 71.5563C149.878 71.8617 149.792 72.215 149.792 72.6163V77.7299H148.535ZM164.896 77.9004C164.158 77.9004 163.51 77.7246 162.952 77.373C162.398 77.0215 161.965 76.5296 161.652 75.8975C161.343 75.2654 161.189 74.5268 161.189 73.6816C161.189 72.8294 161.343 72.0854 161.652 71.4497C161.965 70.8141 162.398 70.3205 162.952 69.9689C163.51 69.6173 164.158 69.4416 164.896 69.4416C165.635 69.4416 166.281 69.6173 166.835 69.9689C167.393 70.3205 167.826 70.8141 168.135 71.4497C168.447 72.0854 168.604 72.8294 168.604 73.6816C168.604 74.5268 168.447 75.2654 168.135 75.8975C167.826 76.5296 167.393 77.0215 166.835 77.373C166.281 77.7246 165.635 77.9004 164.896 77.9004ZM164.896 76.7711C165.457 76.7711 165.919 76.6273 166.281 76.3396C166.643 76.052 166.912 75.6738 167.086 75.2051C167.26 74.7363 167.347 74.2285 167.347 73.6816C167.347 73.1347 167.26 72.6252 167.086 72.1529C166.912 71.6806 166.643 71.2988 166.281 71.0076C165.919 70.7164 165.457 70.5708 164.896 70.5708C164.335 70.5708 163.874 70.7164 163.511 71.0076C163.149 71.2988 162.881 71.6806 162.707 72.1529C162.533 72.6252 162.446 73.1347 162.446 73.6816C162.446 74.2285 162.533 74.7363 162.707 75.2051C162.881 75.6738 163.149 76.052 163.511 76.3396C163.874 76.6273 164.335 76.7711 164.896 76.7711ZM171.78 72.808V77.7299H170.523V69.5481H171.737V70.8265H171.844C172.035 70.411 172.327 70.0772 172.717 69.8251C173.108 69.5694 173.612 69.4416 174.23 69.4416C174.784 69.4416 175.269 69.5552 175.684 69.7825C176.1 70.0062 176.423 70.3471 176.654 70.8052C176.884 71.2597 177 71.835 177 72.5311V77.7299H175.743V72.6163C175.743 71.9735 175.576 71.4728 175.242 71.1142C174.908 70.7519 174.45 70.5708 173.868 70.5708C173.467 70.5708 173.108 70.6578 172.792 70.8318C172.479 71.0058 172.233 71.2597 172.051 71.5936C171.87 71.9274 171.78 72.3322 171.78 72.808ZM179.297 77.7299V69.5481H180.554V77.7299H179.297ZM179.936 68.1845C179.691 68.1845 179.48 68.101 179.302 67.9341C179.128 67.7672 179.041 67.5666 179.041 67.3322C179.041 67.0978 179.128 66.8972 179.302 66.7303C179.48 66.5634 179.691 66.4799 179.936 66.4799C180.181 66.4799 180.391 66.5634 180.565 66.7303C180.742 66.8972 180.831 67.0978 180.831 67.3322C180.831 67.5666 180.742 67.7672 180.565 67.9341C180.391 68.101 180.181 68.1845 179.936 68.1845ZM186.415 69.5481V70.6134H182.175V69.5481H186.415ZM183.411 67.5879H184.668V75.3862C184.668 75.7413 184.719 76.0076 184.822 76.1852C184.929 76.3592 185.064 76.4764 185.227 76.5367C185.394 76.5936 185.57 76.622 185.754 76.622C185.893 76.622 186.006 76.6149 186.095 76.6007C186.184 76.5829 186.255 76.5687 186.308 76.558L186.564 77.6873C186.479 77.7193 186.36 77.7512 186.207 77.7832C186.054 77.8187 185.861 77.8365 185.627 77.8365C185.271 77.8365 184.923 77.7601 184.582 77.6074C184.245 77.4547 183.965 77.2221 183.741 76.9096C183.521 76.5971 183.411 76.2029 183.411 75.7271V67.5879ZM191.542 77.9004C190.803 77.9004 190.155 77.7246 189.598 77.373C189.044 77.0215 188.61 76.5296 188.298 75.8975C187.989 75.2654 187.834 74.5268 187.834 73.6816C187.834 72.8294 187.989 72.0854 188.298 71.4497C188.61 70.8141 189.044 70.3205 189.598 69.9689C190.155 69.6173 190.803 69.4416 191.542 69.4416C192.28 69.4416 192.927 69.6173 193.481 69.9689C194.038 70.3205 194.472 70.8141 194.78 71.4497C195.093 72.0854 195.249 72.8294 195.249 73.6816C195.249 74.5268 195.093 75.2654 194.78 75.8975C194.472 76.5296 194.038 77.0215 193.481 77.373C192.927 77.7246 192.28 77.9004 191.542 77.9004ZM191.542 76.7711C192.103 76.7711 192.565 76.6273 192.927 76.3396C193.289 76.052 193.557 75.6738 193.731 75.2051C193.905 74.7363 193.992 74.2285 193.992 73.6816C193.992 73.1347 193.905 72.6252 193.731 72.1529C193.557 71.6806 193.289 71.2988 192.927 71.0076C192.565 70.7164 192.103 70.5708 191.542 70.5708C190.981 70.5708 190.519 70.7164 190.157 71.0076C189.795 71.2988 189.527 71.6806 189.353 72.1529C189.179 72.6252 189.092 73.1347 189.092 73.6816C189.092 74.2285 189.179 74.7363 189.353 75.2051C189.527 75.6738 189.795 76.052 190.157 76.3396C190.519 76.6273 190.981 76.7711 191.542 76.7711ZM197.168 77.7299V69.5481H198.383V70.7839H198.468C198.617 70.3791 198.887 70.0506 199.278 69.7985C199.668 69.5463 200.108 69.4203 200.599 69.4203C200.691 69.4203 200.806 69.422 200.945 69.4256C201.083 69.4291 201.188 69.4345 201.259 69.4416V70.72C201.216 70.7093 201.119 70.6933 200.966 70.672C200.817 70.6472 200.659 70.6347 200.492 70.6347C200.094 70.6347 199.739 70.7182 199.427 70.8851C199.118 71.0485 198.873 71.2757 198.692 71.5669C198.514 71.8546 198.425 72.183 198.425 72.5524V77.7299H197.168ZM31.5582 98.9217C31.0398 98.9217 30.5692 98.824 30.1467 98.6287C29.7241 98.4298 29.3885 98.144 29.1399 97.7711C28.8913 97.3947 28.767 96.9401 28.767 96.4075C28.767 95.9387 28.8594 95.5588 29.044 95.2676C29.2287 94.9728 29.4755 94.742 29.7844 94.5751C30.0934 94.4082 30.4343 94.2839 30.8072 94.2022C31.1836 94.117 31.5618 94.0495 31.9418 93.9998C32.4389 93.9359 32.842 93.8879 33.1509 93.856C33.4634 93.8205 33.6907 93.7619 33.8327 93.6802C33.9783 93.5985 34.0511 93.4565 34.0511 93.2541V93.2115C34.0511 92.6859 33.9073 92.2775 33.6197 91.9863C33.3356 91.6951 32.9041 91.5495 32.3253 91.5495C31.7251 91.5495 31.2546 91.6809 30.9137 91.9437C30.5728 92.2065 30.3331 92.487 30.1946 92.7853L29.0014 92.3592C29.2145 91.862 29.4986 91.4749 29.8537 91.198C30.2124 90.9174 30.603 90.7221 31.0256 90.612C31.4517 90.4984 31.8707 90.4416 32.2827 90.4416C32.5455 90.4416 32.8473 90.4735 33.1882 90.5374C33.5327 90.5978 33.8647 90.7239 34.1843 90.9156C34.5075 91.1074 34.7756 91.3968 34.9886 91.7839C35.2017 92.171 35.3082 92.6894 35.3082 93.3393V98.7299H34.0511V97.622H33.9872C33.902 97.7995 33.7599 97.9895 33.5611 98.1919C33.3622 98.3943 33.0977 98.5666 32.7674 98.7086C32.4371 98.8507 32.0341 98.9217 31.5582 98.9217ZM31.75 97.7924C32.2472 97.7924 32.6662 97.6948 33.0071 97.4995C33.3516 97.3041 33.6108 97.052 33.7848 96.7431C33.9624 96.4341 34.0511 96.1092 34.0511 95.7683V94.6177C33.9979 94.6816 33.8807 94.7402 33.6996 94.7935C33.522 94.8432 33.3161 94.8876 33.0817 94.9267C32.8509 94.9622 32.6254 94.9941 32.4052 95.0225C32.1886 95.0474 32.0128 95.0687 31.8778 95.0865C31.5511 95.1291 31.2457 95.1983 30.9616 95.2942C30.6811 95.3865 30.4538 95.5268 30.2798 95.715C30.1094 95.8997 30.0241 96.1518 30.0241 96.4714C30.0241 96.9082 30.1857 97.2384 30.5089 97.4622C30.8356 97.6823 31.2493 97.7924 31.75 97.7924ZM38.8598 87.8208V98.7299H37.6027V87.8208H38.8598ZM42.4194 87.8208V98.7299H41.1623V87.8208H42.4194ZM49.7503 101.798C49.5372 101.798 49.3472 101.78 49.1803 101.745C49.0134 101.713 48.898 101.681 48.8341 101.649L49.1537 100.541C49.4591 100.619 49.729 100.648 49.9633 100.626C50.1977 100.605 50.4055 100.5 50.5866 100.312C50.7712 100.127 50.9399 99.8272 51.0926 99.4117L51.327 98.7725L48.3014 90.5481H49.665L51.9236 97.068H52.0088L54.2673 90.5481H55.6309L52.1579 99.9231C52.0017 100.346 51.8081 100.695 51.5773 100.972C51.3465 101.253 51.0784 101.461 50.773 101.596C50.4711 101.731 50.1302 101.798 49.7503 101.798ZM60.3211 98.9004C59.5825 98.9004 58.9344 98.7246 58.3769 98.373C57.8229 98.0215 57.3896 97.5296 57.0771 96.8975C56.7682 96.2654 56.6137 95.5268 56.6137 94.6816C56.6137 93.8294 56.7682 93.0854 57.0771 92.4497C57.3896 91.8141 57.8229 91.3205 58.3769 90.9689C58.9344 90.6173 59.5825 90.4416 60.3211 90.4416C61.0597 90.4416 61.7061 90.6173 62.26 90.9689C62.8176 91.3205 63.2508 91.8141 63.5597 92.4497C63.8722 93.0854 64.0285 93.8294 64.0285 94.6816C64.0285 95.5268 63.8722 96.2654 63.5597 96.8975C63.2508 97.5296 62.8176 98.0215 62.26 98.373C61.7061 98.7246 61.0597 98.9004 60.3211 98.9004ZM60.3211 97.7711C60.8822 97.7711 61.3438 97.6273 61.7061 97.3396C62.0683 97.052 62.3364 96.6738 62.5104 96.2051C62.6844 95.7363 62.7714 95.2285 62.7714 94.6816C62.7714 94.1347 62.6844 93.6252 62.5104 93.1529C62.3364 92.6806 62.0683 92.2988 61.7061 92.0076C61.3438 91.7164 60.8822 91.5708 60.3211 91.5708C59.76 91.5708 59.2984 91.7164 58.9362 92.0076C58.574 92.2988 58.3058 92.6806 58.1318 93.1529C57.9578 93.6252 57.8708 94.1347 57.8708 94.6816C57.8708 95.2285 57.9578 95.7363 58.1318 96.2051C58.3058 96.6738 58.574 97.052 58.9362 97.3396C59.2984 97.6273 59.76 97.7711 60.3211 97.7711ZM71.1037 95.3847V90.5481H72.3608V98.7299H71.1037V97.345H71.0185C70.8267 97.7605 70.5284 98.1138 70.1236 98.405C69.7188 98.6926 69.2074 98.8365 68.5895 98.8365C68.0781 98.8365 67.6236 98.7246 67.2259 98.5009C66.8281 98.2736 66.5156 97.9327 66.2884 97.4781C66.0611 97.02 65.9474 96.443 65.9474 95.747V90.5481H67.2045V95.6617C67.2045 96.2583 67.3714 96.7342 67.7053 97.0893C68.0426 97.4444 68.4723 97.622 68.9943 97.622C69.3068 97.622 69.6246 97.5421 69.9478 97.3823C70.2745 97.2225 70.5479 96.9774 70.7681 96.6472C70.9918 96.3169 71.1037 95.8961 71.1037 95.3847ZM74.6633 98.7299V90.5481H75.8778V91.7839H75.963C76.1121 91.3791 76.382 91.0506 76.7726 90.7985C77.1633 90.5463 77.6036 90.4203 78.0937 90.4203C78.186 90.4203 78.3014 90.422 78.4399 90.4256C78.5784 90.4291 78.6832 90.4345 78.7542 90.4416V91.72C78.7116 91.7093 78.6139 91.6933 78.4612 91.672C78.3121 91.6472 78.154 91.6347 77.9871 91.6347C77.5894 91.6347 77.2343 91.7182 76.9218 91.8851C76.6128 92.0485 76.3678 92.2757 76.1867 92.5669C76.0091 92.8546 75.9204 93.183 75.9204 93.5524V98.7299H74.6633ZM87.8935 98.9004C87.1051 98.9004 86.4251 98.7264 85.8533 98.3784C85.2852 98.0268 84.8466 97.5367 84.5376 96.9082C84.2322 96.2761 84.0795 95.541 84.0795 94.7029C84.0795 93.8649 84.2322 93.1262 84.5376 92.487C84.8466 91.8443 85.2763 91.3436 85.8267 90.9849C86.3807 90.6227 87.027 90.4416 87.7656 90.4416C88.1918 90.4416 88.6126 90.5126 89.0281 90.6546C89.4435 90.7967 89.8217 91.0275 90.1626 91.3471C90.5036 91.6632 90.7752 92.0822 90.9776 92.6042C91.18 93.1262 91.2812 93.769 91.2812 94.5325V95.0651H84.9744V93.9785H90.0028C90.0028 93.5169 89.9105 93.1049 89.7259 92.7427C89.5447 92.3805 89.2855 92.0946 88.9482 91.8851C88.6143 91.6756 88.2202 91.5708 87.7656 91.5708C87.2649 91.5708 86.8317 91.6951 86.4659 91.9437C86.1037 92.1887 85.8249 92.5083 85.6296 92.9025C85.4343 93.2967 85.3366 93.7193 85.3366 94.1703V94.8947C85.3366 95.5126 85.4432 96.0364 85.6562 96.4661C85.8729 96.8922 86.1729 97.2171 86.5565 97.4409C86.94 97.661 87.3857 97.7711 87.8935 97.7711C88.2237 97.7711 88.522 97.7249 88.7884 97.6326C89.0582 97.5367 89.2908 97.3947 89.4862 97.2065C89.6815 97.0147 89.8324 96.7768 89.9389 96.4927L91.1534 96.8336C91.0256 97.2455 90.8107 97.6078 90.5089 97.9203C90.207 98.2292 89.8342 98.4707 89.3903 98.6447C88.9464 98.8151 88.4474 98.9004 87.8935 98.9004ZM98.7759 101.798V97.4728H98.6694C98.5771 97.622 98.4457 97.8102 98.2752 98.0374C98.1048 98.2612 97.8615 98.4618 97.5455 98.6394C97.2294 98.8134 96.8086 98.9004 96.283 98.9004C95.6012 98.9004 94.9993 98.7281 94.4773 98.3837C93.9553 98.0357 93.5469 97.5456 93.2521 96.9135C92.9574 96.2779 92.81 95.5268 92.81 94.6603C92.81 93.8009 92.9574 93.0552 93.2521 92.4231C93.5469 91.791 93.957 91.3027 94.4826 90.9583C95.0082 90.6138 95.6154 90.4416 96.3043 90.4416C96.837 90.4416 97.2578 90.5303 97.5668 90.7079C97.8793 90.8819 98.1172 91.0808 98.2805 91.3045C98.4474 91.5247 98.5771 91.7058 98.6694 91.8478H98.8185V90.5481H100.033V101.798H98.7759ZM96.4535 97.7711C96.9577 97.7711 97.3839 97.6397 97.7319 97.3769C98.0799 97.1106 98.3445 96.7431 98.5256 96.2743C98.7067 95.802 98.7972 95.2569 98.7972 94.639C98.7972 94.0282 98.7085 93.4938 98.5309 93.0357C98.3533 92.574 98.0906 92.2154 97.7425 91.9597C97.3945 91.7004 96.9648 91.5708 96.4535 91.5708C95.9208 91.5708 95.4769 91.7075 95.1218 91.981C94.7702 92.2509 94.5057 92.6184 94.3281 93.0836C94.1541 93.5453 94.0671 94.0637 94.0671 94.639C94.0671 95.2214 94.1559 95.7505 94.3335 96.2264C94.5146 96.6987 94.7809 97.0751 95.1325 97.3556C95.4876 97.6326 95.9279 97.7711 96.4535 97.7711ZM107.49 95.3847V90.5481H108.748V98.7299H107.49V97.345H107.405C107.213 97.7605 106.915 98.1138 106.51 98.405C106.105 98.6926 105.594 98.8365 104.976 98.8365C104.465 98.8365 104.01 98.7246 103.613 98.5009C103.215 98.2736 102.902 97.9327 102.675 97.4781C102.448 97.02 102.334 96.443 102.334 95.747V90.5481H103.591V95.6617C103.591 96.2583 103.758 96.7342 104.092 97.0893C104.429 97.4444 104.859 97.622 105.381 97.622C105.694 97.622 106.011 97.5421 106.335 97.3823C106.661 97.2225 106.935 96.9774 107.155 96.6472C107.379 96.3169 107.49 95.8961 107.49 95.3847ZM111.05 98.7299V90.5481H112.307V98.7299H111.05ZM111.689 89.1845C111.444 89.1845 111.233 89.101 111.055 88.9341C110.881 88.7672 110.794 88.5666 110.794 88.3322C110.794 88.0978 110.881 87.8972 111.055 87.7303C111.233 87.5634 111.444 87.4799 111.689 87.4799C111.934 87.4799 112.144 87.5634 112.318 87.7303C112.495 87.8972 112.584 88.0978 112.584 88.3322C112.584 88.5666 112.495 88.7672 112.318 88.9341C112.144 89.101 111.934 89.1845 111.689 89.1845ZM118.168 90.5481V91.6134H113.928V90.5481H118.168ZM115.164 88.5879H116.421V96.3862C116.421 96.7413 116.472 97.0076 116.575 97.1852C116.682 97.3592 116.817 97.4764 116.98 97.5367C117.147 97.5936 117.323 97.622 117.507 97.622C117.646 97.622 117.759 97.6149 117.848 97.6007C117.937 97.5829 118.008 97.5687 118.061 97.558L118.317 98.6873C118.232 98.7193 118.113 98.7512 117.96 98.7832C117.807 98.8187 117.614 98.8365 117.379 98.8365C117.024 98.8365 116.676 98.7601 116.335 98.6074C115.998 98.4547 115.718 98.2221 115.494 97.9096C115.274 97.5971 115.164 97.2029 115.164 96.7271V88.5879ZM120.059 98.7299V90.5481H121.316V98.7299H120.059ZM120.698 89.1845C120.453 89.1845 120.242 89.101 120.064 88.9341C119.89 88.7672 119.803 88.5666 119.803 88.3322C119.803 88.0978 119.89 87.8972 120.064 87.7303C120.242 87.5634 120.453 87.4799 120.698 87.4799C120.943 87.4799 121.153 87.5634 121.327 87.7303C121.504 87.8972 121.593 88.0978 121.593 88.3322C121.593 88.5666 121.504 88.7672 121.327 88.9341C121.153 89.101 120.943 89.1845 120.698 89.1845ZM127.049 98.9004C126.26 98.9004 125.58 98.7264 125.009 98.3784C124.44 98.0268 124.002 97.5367 123.693 96.9082C123.388 96.2761 123.235 95.541 123.235 94.7029C123.235 93.8649 123.388 93.1262 123.693 92.487C124.002 91.8443 124.432 91.3436 124.982 90.9849C125.536 90.6227 126.182 90.4416 126.921 90.4416C127.347 90.4416 127.768 90.5126 128.183 90.6546C128.599 90.7967 128.977 91.0275 129.318 91.3471C129.659 91.6632 129.93 92.0822 130.133 92.6042C130.335 93.1262 130.437 93.769 130.437 94.5325V95.0651H124.13V93.9785H129.158C129.158 93.5169 129.066 93.1049 128.881 92.7427C128.7 92.3805 128.441 92.0946 128.103 91.8851C127.77 91.6756 127.375 91.5708 126.921 91.5708C126.42 91.5708 125.987 91.6951 125.621 91.9437C125.259 92.1887 124.98 92.5083 124.785 92.9025C124.59 93.2967 124.492 93.7193 124.492 94.1703V94.8947C124.492 95.5126 124.598 96.0364 124.812 96.4661C125.028 96.8922 125.328 97.2171 125.712 97.4409C126.095 97.661 126.541 97.7711 127.049 97.7711C127.379 97.7711 127.677 97.7249 127.944 97.6326C128.214 97.5367 128.446 97.3947 128.641 97.2065C128.837 97.0147 128.988 96.7768 129.094 96.4927L130.309 96.8336C130.181 97.2455 129.966 97.6078 129.664 97.9203C129.362 98.2292 128.989 98.4707 128.546 98.6447C128.102 98.8151 127.603 98.9004 127.049 98.9004ZM138.144 92.3805L137.015 92.7001C136.944 92.5119 136.839 92.329 136.701 92.1514C136.566 91.9703 136.381 91.8212 136.147 91.704C135.912 91.5868 135.612 91.5282 135.247 91.5282C134.746 91.5282 134.329 91.6436 133.995 91.8745C133.665 92.1017 133.499 92.3911 133.499 92.7427C133.499 93.0552 133.613 93.302 133.84 93.4831C134.068 93.6642 134.423 93.8151 134.906 93.9359L136.12 94.2342C136.852 94.4117 137.397 94.6834 137.755 95.0492C138.114 95.4114 138.293 95.8784 138.293 96.4501C138.293 96.9188 138.158 97.3379 137.889 97.7072C137.622 98.0765 137.249 98.3677 136.77 98.5808C136.291 98.7938 135.733 98.9004 135.097 98.9004C134.263 98.9004 133.572 98.7193 133.025 98.3571C132.478 97.9948 132.132 97.4657 131.987 96.7697L133.18 96.4714C133.293 96.9117 133.508 97.242 133.824 97.4622C134.144 97.6823 134.561 97.7924 135.076 97.7924C135.662 97.7924 136.127 97.6681 136.472 97.4196C136.82 97.1674 136.994 96.8656 136.994 96.514C136.994 96.2299 136.894 95.992 136.695 95.8002C136.497 95.6049 136.191 95.4593 135.779 95.3634L134.416 95.0438C133.666 94.8663 133.116 94.5911 132.764 94.2182C132.416 93.8418 132.242 93.3713 132.242 92.8066C132.242 92.345 132.372 91.9366 132.631 91.5815C132.894 91.2264 133.251 90.9476 133.702 90.7452C134.156 90.5428 134.671 90.4416 135.247 90.4416C136.056 90.4416 136.692 90.6191 137.153 90.9742C137.619 91.3294 137.949 91.7981 138.144 92.3805ZM147.963 90.5481V91.6134H143.723V90.5481H147.963ZM144.958 88.5879H146.216V96.3862C146.216 96.7413 146.267 97.0076 146.37 97.1852C146.477 97.3592 146.612 97.4764 146.775 97.5367C146.942 97.5936 147.118 97.622 147.302 97.622C147.441 97.622 147.554 97.6149 147.643 97.6007C147.732 97.5829 147.803 97.5687 147.856 97.558L148.112 98.6873C148.027 98.7193 147.908 98.7512 147.755 98.7832C147.602 98.8187 147.409 98.8365 147.174 98.8365C146.819 98.8365 146.471 98.7601 146.13 98.6074C145.793 98.4547 145.512 98.2221 145.289 97.9096C145.069 97.5971 144.958 97.2029 144.958 96.7271V88.5879ZM153.09 98.9004C152.351 98.9004 151.703 98.7246 151.145 98.373C150.591 98.0215 150.158 97.5296 149.846 96.8975C149.537 96.2654 149.382 95.5268 149.382 94.6816C149.382 93.8294 149.537 93.0854 149.846 92.4497C150.158 91.8141 150.591 91.3205 151.145 90.9689C151.703 90.6173 152.351 90.4416 153.09 90.4416C153.828 90.4416 154.475 90.6173 155.029 90.9689C155.586 91.3205 156.019 91.8141 156.328 92.4497C156.641 93.0854 156.797 93.8294 156.797 94.6816C156.797 95.5268 156.641 96.2654 156.328 96.8975C156.019 97.5296 155.586 98.0215 155.029 98.373C154.475 98.7246 153.828 98.9004 153.09 98.9004ZM153.09 97.7711C153.651 97.7711 154.112 97.6273 154.475 97.3396C154.837 97.052 155.105 96.6738 155.279 96.2051C155.453 95.7363 155.54 95.2285 155.54 94.6816C155.54 94.1347 155.453 93.6252 155.279 93.1529C155.105 92.6806 154.837 92.2988 154.475 92.0076C154.112 91.7164 153.651 91.5708 153.09 91.5708C152.529 91.5708 152.067 91.7164 151.705 92.0076C151.343 92.2988 151.074 92.6806 150.9 93.1529C150.726 93.6252 150.639 94.1347 150.639 94.6816C150.639 95.2285 150.726 95.7363 150.9 96.2051C151.074 96.6738 151.343 97.052 151.705 97.3396C152.067 97.6273 152.529 97.7711 153.09 97.7711ZM163.744 101.798C163.531 101.798 163.341 101.78 163.174 101.745C163.008 101.713 162.892 101.681 162.828 101.649L163.148 100.541C163.453 100.619 163.723 100.648 163.957 100.626C164.192 100.605 164.4 100.5 164.581 100.312C164.765 100.127 164.934 99.8272 165.087 99.4117L165.321 98.7725L162.296 90.5481H163.659L165.918 97.068H166.003L168.261 90.5481H169.625L166.152 99.9231C165.996 100.346 165.802 100.695 165.571 100.972C165.341 101.253 165.073 101.461 164.767 101.596C164.465 101.731 164.124 101.798 163.744 101.798ZM174.315 98.9004C173.577 98.9004 172.929 98.7246 172.371 98.373C171.817 98.0215 171.384 97.5296 171.071 96.8975C170.762 96.2654 170.608 95.5268 170.608 94.6816C170.608 93.8294 170.762 93.0854 171.071 92.4497C171.384 91.8141 171.817 91.3205 172.371 90.9689C172.929 90.6173 173.577 90.4416 174.315 90.4416C175.054 90.4416 175.7 90.6173 176.254 90.9689C176.812 91.3205 177.245 91.8141 177.554 92.4497C177.866 93.0854 178.023 93.8294 178.023 94.6816C178.023 95.5268 177.866 96.2654 177.554 96.8975C177.245 97.5296 176.812 98.0215 176.254 98.373C175.7 98.7246 175.054 98.9004 174.315 98.9004ZM174.315 97.7711C174.876 97.7711 175.338 97.6273 175.7 97.3396C176.062 97.052 176.331 96.6738 176.505 96.2051C176.679 95.7363 176.766 95.2285 176.766 94.6816C176.766 94.1347 176.679 93.6252 176.505 93.1529C176.331 92.6806 176.062 92.2988 175.7 92.0076C175.338 91.7164 174.876 91.5708 174.315 91.5708C173.754 91.5708 173.293 91.7164 172.93 92.0076C172.568 92.2988 172.3 92.6806 172.126 93.1529C171.952 93.6252 171.865 94.1347 171.865 94.6816C171.865 95.2285 171.952 95.7363 172.126 96.2051C172.3 96.6738 172.568 97.052 172.93 97.3396C173.293 97.6273 173.754 97.7711 174.315 97.7711ZM185.098 95.3847V90.5481H186.355V98.7299H185.098V97.345H185.013C184.821 97.7605 184.523 98.1138 184.118 98.405C183.713 98.6926 183.202 98.8365 182.584 98.8365C182.072 98.8365 181.618 98.7246 181.22 98.5009C180.822 98.2736 180.51 97.9327 180.282 97.4781C180.055 97.02 179.942 96.443 179.942 95.747V90.5481H181.199V95.6617C181.199 96.2583 181.366 96.7342 181.699 97.0893C182.037 97.4444 182.466 97.622 182.988 97.622C183.301 97.622 183.619 97.5421 183.942 97.3823C184.269 97.2225 184.542 96.9774 184.762 96.6472C184.986 96.3169 185.098 95.8961 185.098 95.3847ZM188.657 98.7299V90.5481H189.872V91.7839H189.957C190.106 91.3791 190.376 91.0506 190.767 90.7985C191.157 90.5463 191.598 90.4203 192.088 90.4203C192.18 90.4203 192.296 90.422 192.434 90.4256C192.573 90.4291 192.677 90.4345 192.748 90.4416V91.72C192.706 91.7093 192.608 91.6933 192.455 91.672C192.306 91.6472 192.148 91.6347 191.981 91.6347C191.584 91.6347 191.228 91.7182 190.916 91.8851C190.607 92.0485 190.362 92.2757 190.181 92.5669C190.003 92.8546 189.915 93.183 189.915 93.5524V98.7299H188.657ZM29.1506 122.798V111.548H30.3651V112.848H30.5142C30.6065 112.706 30.7344 112.525 30.8977 112.304C31.0646 112.081 31.3026 111.882 31.6115 111.708C31.924 111.53 32.3466 111.442 32.8793 111.442C33.5682 111.442 34.1754 111.614 34.701 111.958C35.2266 112.303 35.6367 112.791 35.9315 113.423C36.2262 114.055 36.3736 114.801 36.3736 115.66C36.3736 116.527 36.2262 117.278 35.9315 117.914C35.6367 118.546 35.2283 119.036 34.7063 119.384C34.1843 119.728 33.5824 119.9 32.9006 119.9C32.375 119.9 31.9542 119.813 31.6381 119.639C31.3221 119.462 31.0788 119.261 30.9084 119.037C30.7379 118.81 30.6065 118.622 30.5142 118.473H30.4077V122.798H29.1506ZM30.3864 115.639C30.3864 116.257 30.4769 116.802 30.658 117.274C30.8391 117.743 31.1037 118.111 31.4517 118.377C31.7997 118.64 32.2259 118.771 32.7301 118.771C33.2557 118.771 33.6942 118.633 34.0458 118.356C34.4009 118.075 34.6673 117.699 34.8448 117.226C35.0259 116.751 35.1165 116.221 35.1165 115.639C35.1165 115.064 35.0277 114.545 34.8501 114.084C34.6761 113.618 34.4116 113.251 34.0565 112.981C33.7049 112.708 33.2628 112.571 32.7301 112.571C32.2188 112.571 31.7891 112.7 31.4411 112.96C31.093 113.215 30.8303 113.574 30.6527 114.036C30.4751 114.494 30.3864 115.028 30.3864 115.639ZM41.6151 119.9C40.8764 119.9 40.2283 119.725 39.6708 119.373C39.1168 119.021 38.6836 118.53 38.3711 117.898C38.0621 117.265 37.9077 116.527 37.9077 115.682C37.9077 114.829 38.0621 114.085 38.3711 113.45C38.6836 112.814 39.1168 112.32 39.6708 111.969C40.2283 111.617 40.8764 111.442 41.6151 111.442C42.3537 111.442 43 111.617 43.554 111.969C44.1115 112.32 44.5447 112.814 44.8537 113.45C45.1662 114.085 45.3224 114.829 45.3224 115.682C45.3224 116.527 45.1662 117.265 44.8537 117.898C44.5447 118.53 44.1115 119.021 43.554 119.373C43 119.725 42.3537 119.9 41.6151 119.9ZM41.6151 118.771C42.1761 118.771 42.6378 118.627 43 118.34C43.3622 118.052 43.6303 117.674 43.8043 117.205C43.9783 116.736 44.0653 116.228 44.0653 115.682C44.0653 115.135 43.9783 114.625 43.8043 114.153C43.6303 113.681 43.3622 113.299 43 113.008C42.6378 112.716 42.1761 112.571 41.6151 112.571C41.054 112.571 40.5923 112.716 40.2301 113.008C39.8679 113.299 39.5998 113.681 39.4258 114.153C39.2518 114.625 39.1648 115.135 39.1648 115.682C39.1648 116.228 39.2518 116.736 39.4258 117.205C39.5998 117.674 39.8679 118.052 40.2301 118.34C40.5923 118.627 41.054 118.771 41.6151 118.771ZM47.2414 119.73V111.548H48.4559V112.784H48.5411C48.6903 112.379 48.9601 112.051 49.3508 111.798C49.7414 111.546 50.1817 111.42 50.6718 111.42C50.7641 111.42 50.8795 111.422 51.018 111.426C51.1565 111.429 51.2613 111.434 51.3323 111.442V112.72C51.2897 112.709 51.192 112.693 51.0393 112.672C50.8902 112.647 50.7322 112.635 50.5653 112.635C50.1675 112.635 49.8124 112.718 49.4999 112.885C49.191 113.048 48.9459 113.276 48.7648 113.567C48.5873 113.855 48.4985 114.183 48.4985 114.552V119.73H47.2414ZM56.8934 111.548V112.613H52.6533V111.548H56.8934ZM53.8891 109.588H55.1462V117.386C55.1462 117.741 55.1977 118.008 55.3007 118.185C55.4072 118.359 55.5422 118.476 55.7055 118.537C55.8724 118.594 56.0482 118.622 56.2329 118.622C56.3714 118.622 56.485 118.615 56.5738 118.601C56.6626 118.583 56.7336 118.569 56.7868 118.558L57.0425 119.687C56.9573 119.719 56.8383 119.751 56.6856 119.783C56.5329 119.819 56.3394 119.836 56.105 119.836C55.7499 119.836 55.4019 119.76 55.061 119.607C54.7236 119.455 54.4431 119.222 54.2194 118.91C53.9992 118.597 53.8891 118.203 53.8891 117.727V109.588ZM62.4278 111.548V112.613H58.0173V111.548H62.4278ZM59.3383 119.73V110.419C59.3383 109.95 59.4484 109.559 59.6686 109.247C59.8888 108.934 60.1746 108.7 60.5262 108.544C60.8778 108.388 61.2488 108.309 61.6395 108.309C61.9484 108.309 62.2006 108.334 62.3959 108.384C62.5912 108.434 62.7368 108.48 62.8327 108.523L62.4704 109.609C62.4065 109.588 62.3177 109.561 62.2041 109.529C62.094 109.497 61.9484 109.481 61.7673 109.481C61.3518 109.481 61.0518 109.586 60.8671 109.796C60.686 110.005 60.5954 110.312 60.5954 110.717V119.73H59.3383ZM67.1766 119.9C66.4379 119.9 65.7899 119.725 65.2323 119.373C64.6784 119.021 64.2451 118.53 63.9326 117.898C63.6237 117.265 63.4692 116.527 63.4692 115.682C63.4692 114.829 63.6237 114.085 63.9326 113.45C64.2451 112.814 64.6784 112.32 65.2323 111.969C65.7899 111.617 66.4379 111.442 67.1766 111.442C67.9152 111.442 68.5615 111.617 69.1155 111.969C69.673 112.32 70.1063 112.814 70.4152 113.45C70.7277 114.085 70.884 114.829 70.884 115.682C70.884 116.527 70.7277 117.265 70.4152 117.898C70.1063 118.53 69.673 119.021 69.1155 119.373C68.5615 119.725 67.9152 119.9 67.1766 119.9ZM67.1766 118.771C67.7377 118.771 68.1993 118.627 68.5615 118.34C68.9237 118.052 69.1919 117.674 69.3659 117.205C69.5399 116.736 69.6269 116.228 69.6269 115.682C69.6269 115.135 69.5399 114.625 69.3659 114.153C69.1919 113.681 68.9237 113.299 68.5615 113.008C68.1993 112.716 67.7377 112.571 67.1766 112.571C66.6155 112.571 66.1539 112.716 65.7916 113.008C65.4294 113.299 65.1613 113.681 64.9873 114.153C64.8133 114.625 64.7263 115.135 64.7263 115.682C64.7263 116.228 64.8133 116.736 64.9873 117.205C65.1613 117.674 65.4294 118.052 65.7916 118.34C66.1539 118.627 66.6155 118.771 67.1766 118.771ZM74.06 108.821V119.73H72.8029V108.821H74.06ZM76.3625 119.73V111.548H77.6196V119.73H76.3625ZM77.0017 110.184C76.7567 110.184 76.5454 110.101 76.3678 109.934C76.1938 109.767 76.1068 109.567 76.1068 109.332C76.1068 109.098 76.1938 108.897 76.3678 108.73C76.5454 108.563 76.7567 108.48 77.0017 108.48C77.2467 108.48 77.4562 108.563 77.6302 108.73C77.8078 108.897 77.8966 109.098 77.8966 109.332C77.8966 109.567 77.8078 109.767 77.6302 109.934C77.4562 110.101 77.2467 110.184 77.0017 110.184ZM83.2459 119.9C82.5073 119.9 81.8592 119.725 81.3017 119.373C80.7477 119.021 80.3145 118.53 80.002 117.898C79.693 117.265 79.5385 116.527 79.5385 115.682C79.5385 114.829 79.693 114.085 80.002 113.45C80.3145 112.814 80.7477 112.32 81.3017 111.969C81.8592 111.617 82.5073 111.442 83.2459 111.442C83.9846 111.442 84.6309 111.617 85.1848 111.969C85.7424 112.32 86.1756 112.814 86.4846 113.45C86.7971 114.085 86.9533 114.829 86.9533 115.682C86.9533 116.527 86.7971 117.265 86.4846 117.898C86.1756 118.53 85.7424 119.021 85.1848 119.373C84.6309 119.725 83.9846 119.9 83.2459 119.9ZM83.2459 118.771C83.807 118.771 84.2686 118.627 84.6309 118.34C84.9931 118.052 85.2612 117.674 85.4352 117.205C85.6092 116.736 85.6962 116.228 85.6962 115.682C85.6962 115.135 85.6092 114.625 85.4352 114.153C85.2612 113.681 84.9931 113.299 84.6309 113.008C84.2686 112.716 83.807 112.571 83.2459 112.571C82.6848 112.571 82.2232 112.716 81.861 113.008C81.4988 113.299 81.2306 113.681 81.0566 114.153C80.8826 114.625 80.7956 115.135 80.7956 115.682C80.7956 116.228 80.8826 116.736 81.0566 117.205C81.2306 117.674 81.4988 118.052 81.861 118.34C82.2232 118.627 82.6848 118.771 83.2459 118.771ZM96.5214 119.9C95.733 119.9 95.053 119.726 94.4813 119.378C93.9131 119.027 93.4745 118.537 93.1656 117.908C92.8602 117.276 92.7075 116.541 92.7075 115.703C92.7075 114.865 92.8602 114.126 93.1656 113.487C93.4745 112.844 93.9042 112.344 94.4546 111.985C95.0086 111.623 95.6549 111.442 96.3936 111.442C96.8197 111.442 97.2405 111.513 97.656 111.655C98.0715 111.797 98.4497 112.028 98.7906 112.347C99.1315 112.663 99.4031 113.082 99.6056 113.604C99.808 114.126 99.9092 114.769 99.9092 115.532V116.065H93.6024V114.978H98.6308C98.6308 114.517 98.5384 114.105 98.3538 113.743C98.1727 113.38 97.9134 113.095 97.5761 112.885C97.2423 112.676 96.8481 112.571 96.3936 112.571C95.8928 112.571 95.4596 112.695 95.0938 112.944C94.7316 113.189 94.4529 113.508 94.2575 113.903C94.0622 114.297 93.9646 114.719 93.9646 115.17V115.895C93.9646 116.513 94.0711 117.036 94.2842 117.466C94.5008 117.892 94.8009 118.217 95.1844 118.441C95.5679 118.661 96.0136 118.771 96.5214 118.771C96.8517 118.771 97.1499 118.725 97.4163 118.633C97.6862 118.537 97.9188 118.395 98.1141 118.206C98.3094 118.015 98.4603 117.777 98.5669 117.493L99.7813 117.834C99.6535 118.246 99.4387 118.608 99.1368 118.92C98.835 119.229 98.4621 119.471 98.0182 119.645C97.5743 119.815 97.0754 119.9 96.5214 119.9ZM104.229 119.922C103.711 119.922 103.24 119.824 102.818 119.629C102.395 119.43 102.059 119.144 101.811 118.771C101.562 118.395 101.438 117.94 101.438 117.407C101.438 116.939 101.53 116.559 101.715 116.268C101.9 115.973 102.146 115.742 102.455 115.575C102.764 115.408 103.105 115.284 103.478 115.202C103.854 115.117 104.233 115.05 104.613 115C105.11 114.936 105.513 114.888 105.822 114.856C106.134 114.82 106.362 114.762 106.504 114.68C106.649 114.599 106.722 114.456 106.722 114.254V114.211C106.722 113.686 106.578 113.278 106.291 112.986C106.006 112.695 105.575 112.55 104.996 112.55C104.396 112.55 103.926 112.681 103.585 112.944C103.244 113.206 103.004 113.487 102.866 113.785L101.672 113.359C101.885 112.862 102.169 112.475 102.525 112.198C102.883 111.917 103.274 111.722 103.696 111.612C104.123 111.498 104.542 111.442 104.954 111.442C105.216 111.442 105.518 111.474 105.859 111.537C106.204 111.598 106.536 111.724 106.855 111.916C107.178 112.107 107.446 112.397 107.66 112.784C107.873 113.171 107.979 113.689 107.979 114.339V119.73H106.722V118.622H106.658C106.573 118.8 106.431 118.99 106.232 119.192C106.033 119.394 105.769 119.567 105.438 119.709C105.108 119.851 104.705 119.922 104.229 119.922ZM104.421 118.792C104.918 118.792 105.337 118.695 105.678 118.499C106.022 118.304 106.282 118.052 106.456 117.743C106.633 117.434 106.722 117.109 106.722 116.768V115.618C106.669 115.682 106.552 115.74 106.37 115.793C106.193 115.843 105.987 115.888 105.753 115.927C105.522 115.962 105.296 115.994 105.076 116.023C104.859 116.047 104.684 116.069 104.549 116.086C104.222 116.129 103.917 116.198 103.633 116.294C103.352 116.387 103.125 116.527 102.951 116.715C102.78 116.9 102.695 117.152 102.695 117.471C102.695 117.908 102.857 118.238 103.18 118.462C103.506 118.682 103.92 118.792 104.421 118.792ZM116.069 113.38L114.94 113.7C114.869 113.512 114.764 113.329 114.626 113.151C114.491 112.97 114.306 112.821 114.072 112.704C113.837 112.587 113.537 112.528 113.171 112.528C112.671 112.528 112.253 112.644 111.92 112.874C111.589 113.102 111.424 113.391 111.424 113.743C111.424 114.055 111.538 114.302 111.765 114.483C111.992 114.664 112.347 114.815 112.83 114.936L114.045 115.234C114.776 115.412 115.322 115.683 115.68 116.049C116.039 116.411 116.218 116.878 116.218 117.45C116.218 117.919 116.083 118.338 115.813 118.707C115.547 119.077 115.174 119.368 114.695 119.581C114.215 119.794 113.658 119.9 113.022 119.9C112.188 119.9 111.497 119.719 110.95 119.357C110.403 118.995 110.057 118.466 109.911 117.77L111.105 117.471C111.218 117.912 111.433 118.242 111.749 118.462C112.069 118.682 112.486 118.792 113.001 118.792C113.587 118.792 114.052 118.668 114.396 118.42C114.744 118.167 114.919 117.866 114.919 117.514C114.919 117.23 114.819 116.992 114.62 116.8C114.421 116.605 114.116 116.459 113.704 116.363L112.34 116.044C111.591 115.866 111.041 115.591 110.689 115.218C110.341 114.842 110.167 114.371 110.167 113.807C110.167 113.345 110.297 112.937 110.556 112.581C110.819 112.226 111.176 111.948 111.627 111.745C112.081 111.543 112.596 111.442 113.171 111.442C113.981 111.442 114.617 111.619 115.078 111.974C115.544 112.329 115.874 112.798 116.069 113.38ZM118.111 119.73V111.548H119.368V119.73H118.111ZM118.75 110.184C118.505 110.184 118.293 110.101 118.116 109.934C117.942 109.767 117.855 109.567 117.855 109.332C117.855 109.098 117.942 108.897 118.116 108.73C118.293 108.563 118.505 108.48 118.75 108.48C118.995 108.48 119.204 108.563 119.378 108.73C119.556 108.897 119.645 109.098 119.645 109.332C119.645 109.567 119.556 109.767 119.378 109.934C119.204 110.101 118.995 110.184 118.75 110.184ZM122.927 108.821V119.73H121.67V108.821H122.927ZM126.039 122.798C125.826 122.798 125.636 122.78 125.469 122.745C125.302 122.713 125.187 122.681 125.123 122.649L125.443 121.541C125.748 121.619 126.018 121.648 126.252 121.626C126.487 121.605 126.695 121.5 126.876 121.312C127.06 121.127 127.229 120.827 127.382 120.412L127.616 119.773L124.59 111.548H125.954L128.213 118.068H128.298L130.556 111.548H131.92L128.447 120.923C128.291 121.346 128.097 121.695 127.866 121.972C127.636 122.253 127.367 122.461 127.062 122.596C126.76 122.731 126.419 122.798 126.039 122.798Z" fill="white"/>
<rect x="28" y="144.73" width="181" height="48" rx="6" fill="white"/>
<path d="M56.5813 166.267C56.4783 165.944 56.3398 165.655 56.1658 165.399C55.9954 165.14 55.7912 164.92 55.5533 164.738C55.3153 164.554 55.0437 164.414 54.7383 164.318C54.4364 164.222 54.1044 164.174 53.7422 164.174C53.1278 164.174 52.5739 164.332 52.0803 164.648C51.5866 164.964 51.196 165.427 50.9084 166.038C50.6243 166.645 50.4822 167.389 50.4822 168.27C50.4822 169.154 50.6261 169.902 50.9137 170.513C51.2013 171.123 51.5955 171.587 52.0962 171.903C52.5969 172.219 53.1669 172.377 53.8061 172.377C54.3991 172.377 54.9158 172.256 55.3562 172.015C55.8001 171.773 56.1428 171.432 56.3842 170.992C56.6293 170.548 56.7518 170.026 56.7518 169.426L57.1779 169.506H54.0565V168.148H58.3445V169.389C58.3445 170.305 58.1491 171.1 57.7585 171.775C57.3714 172.446 56.8352 172.965 56.1499 173.33C55.468 173.696 54.6868 173.879 53.8061 173.879C52.8189 173.879 51.9524 173.652 51.2067 173.197C50.4645 172.743 49.8857 172.098 49.4702 171.264C49.0547 170.426 48.8469 169.431 48.8469 168.281C48.8469 167.411 48.9677 166.629 49.2092 165.937C49.4506 165.244 49.7898 164.657 50.2266 164.174C50.6669 163.687 51.1836 163.316 51.7766 163.061C52.3732 162.801 53.0249 162.672 53.7315 162.672C54.321 162.672 54.8697 162.759 55.3775 162.933C55.8888 163.107 56.3434 163.353 56.7411 163.673C57.1424 163.993 57.4744 164.373 57.7372 164.813C58 165.25 58.1776 165.735 58.2699 166.267H56.5813ZM63.3323 173.895C62.5262 173.895 61.8319 173.723 61.2496 173.378C60.6707 173.03 60.2233 172.542 59.9072 171.914C59.5947 171.281 59.4385 170.541 59.4385 169.692C59.4385 168.854 59.5947 168.116 59.9072 167.476C60.2233 166.837 60.6636 166.338 61.2282 165.98C61.7964 165.621 62.4605 165.442 63.2204 165.442C63.6821 165.442 64.1295 165.518 64.5628 165.671C64.996 165.823 65.3849 166.063 65.7293 166.39C66.0738 166.716 66.3454 167.141 66.5443 167.663C66.7432 168.181 66.8426 168.812 66.8426 169.554V170.118H60.3387V168.925H65.2819C65.2819 168.506 65.1966 168.135 65.0262 167.812C64.8557 167.485 64.616 167.228 64.3071 167.04C64.0017 166.851 63.643 166.757 63.2311 166.757C62.7836 166.757 62.393 166.867 62.0592 167.088C61.729 167.304 61.4733 167.588 61.2922 167.94C61.1146 168.288 61.0258 168.666 61.0258 169.074V170.007C61.0258 170.553 61.1217 171.019 61.3135 171.402C61.5088 171.786 61.7805 172.079 62.1285 172.281C62.4765 172.48 62.8831 172.579 63.3483 172.579C63.6501 172.579 63.9253 172.537 64.1739 172.452C64.4225 172.363 64.6373 172.231 64.8184 172.057C64.9996 171.883 65.1381 171.668 65.2339 171.413L66.7414 171.684C66.6206 172.128 66.404 172.517 66.0915 172.851C65.7826 173.181 65.3937 173.439 64.925 173.623C64.4598 173.804 63.9289 173.895 63.3323 173.895ZM71.929 165.548V166.827H67.4599V165.548H71.929ZM68.6584 163.588H70.2511V171.328C70.2511 171.637 70.2972 171.869 70.3896 172.025C70.4819 172.178 70.6009 172.283 70.7464 172.34C70.8956 172.393 71.0572 172.42 71.2312 172.42C71.359 172.42 71.4709 172.411 71.5668 172.393C71.6626 172.375 71.7372 172.361 71.7905 172.35L72.0781 173.666C71.9858 173.702 71.8544 173.737 71.6839 173.773C71.5135 173.812 71.3004 173.833 71.0447 173.836C70.6257 173.844 70.2351 173.769 69.8729 173.613C69.5107 173.456 69.2177 173.215 68.994 172.888C68.7702 172.562 68.6584 172.151 68.6584 171.658V163.588ZM82.7915 167.546L81.348 167.801C81.2876 167.617 81.1918 167.441 81.0604 167.274C80.9325 167.107 80.7585 166.97 80.5384 166.864C80.3182 166.757 80.043 166.704 79.7127 166.704C79.2617 166.704 78.8853 166.805 78.5835 167.008C78.2816 167.206 78.1307 167.464 78.1307 167.78C78.1307 168.053 78.2319 168.274 78.4343 168.441C78.6367 168.607 78.9634 168.744 79.4144 168.851L80.7141 169.149C81.467 169.323 82.0281 169.591 82.3974 169.953C82.7667 170.316 82.9513 170.786 82.9513 171.365C82.9513 171.855 82.8093 172.292 82.5252 172.675C82.2447 173.055 81.8523 173.353 81.348 173.57C80.8473 173.787 80.2667 173.895 79.6062 173.895C78.69 173.895 77.9425 173.7 77.3636 173.309C76.7848 172.915 76.4297 172.356 76.2983 171.631L77.8377 171.397C77.9336 171.798 78.1307 172.102 78.429 172.308C78.7273 172.51 79.1161 172.611 79.5955 172.611C80.1175 172.611 80.5348 172.503 80.8473 172.286C81.1598 172.066 81.3161 171.798 81.3161 171.482C81.3161 171.226 81.2202 171.012 81.0284 170.838C80.8402 170.664 80.5508 170.532 80.1602 170.443L78.7752 170.14C78.0117 169.966 77.4471 169.689 77.0813 169.309C76.7191 168.929 76.538 168.448 76.538 167.865C76.538 167.382 76.6729 166.96 76.9428 166.597C77.2127 166.235 77.5856 165.953 78.0614 165.751C78.5373 165.545 79.0824 165.442 79.6967 165.442C80.581 165.442 81.277 165.633 81.7848 166.017C82.2926 166.397 82.6282 166.906 82.7915 167.546ZM88.0218 165.548V166.827H83.5526V165.548H88.0218ZM84.7512 163.588H86.3438V171.328C86.3438 171.637 86.39 171.869 86.4823 172.025C86.5747 172.178 86.6936 172.283 86.8392 172.34C86.9884 172.393 87.1499 172.42 87.324 172.42C87.4518 172.42 87.5637 172.411 87.6595 172.393C87.7554 172.375 87.83 172.361 87.8833 172.35L88.1709 173.666C88.0786 173.702 87.9472 173.737 87.7767 173.773C87.6063 173.812 87.3932 173.833 87.1375 173.836C86.7185 173.844 86.3279 173.769 85.9656 173.613C85.6034 173.456 85.3105 173.215 85.0867 172.888C84.863 172.562 84.7512 172.151 84.7512 171.658V163.588ZM91.6646 173.911C91.1461 173.911 90.6774 173.815 90.2583 173.623C89.8393 173.428 89.5073 173.146 89.2623 172.776C89.0208 172.407 88.9 171.954 88.9 171.418C88.9 170.956 88.9888 170.577 89.1664 170.278C89.3439 169.98 89.5836 169.744 89.8855 169.57C90.1873 169.396 90.5247 169.264 90.8975 169.176C91.2704 169.087 91.6504 169.019 92.0375 168.973C92.5275 168.916 92.9252 168.87 93.2306 168.835C93.536 168.796 93.758 168.733 93.8965 168.648C94.035 168.563 94.1042 168.425 94.1042 168.233V168.195C94.1042 167.73 93.9728 167.37 93.71 167.114C93.4508 166.858 93.0637 166.731 92.5488 166.731C92.0126 166.731 91.59 166.85 91.2811 167.088C90.9757 167.322 90.7644 167.583 90.6472 167.871L89.1504 167.53C89.3279 167.032 89.5872 166.631 89.9281 166.326C90.2725 166.017 90.6685 165.793 91.1159 165.655C91.5634 165.513 92.0339 165.442 92.5275 165.442C92.8542 165.442 93.2005 165.481 93.5662 165.559C93.9355 165.633 94.28 165.772 94.5996 165.974C94.9228 166.177 95.1873 166.466 95.3933 166.842C95.5993 167.215 95.7022 167.7 95.7022 168.297V173.73H94.1468V172.611H94.0829C93.9799 172.817 93.8255 173.02 93.6195 173.219C93.4135 173.417 93.149 173.583 92.8258 173.714C92.5027 173.845 92.1156 173.911 91.6646 173.911ZM92.0108 172.633C92.4512 172.633 92.8276 172.546 93.1401 172.372C93.4561 172.198 93.6958 171.97 93.8592 171.69C94.0261 171.406 94.1096 171.102 94.1096 170.779V169.724C94.0527 169.781 93.9426 169.834 93.7793 169.884C93.6195 169.93 93.4366 169.971 93.2306 170.007C93.0247 170.039 92.824 170.069 92.6287 170.097C92.4334 170.122 92.2701 170.143 92.1387 170.161C91.8297 170.2 91.5474 170.266 91.2917 170.358C91.0396 170.45 90.8372 170.584 90.6845 170.758C90.5353 170.928 90.4608 171.155 90.4608 171.439C90.4608 171.834 90.6064 172.132 90.8975 172.334C91.1887 172.533 91.5598 172.633 92.0108 172.633ZM97.3236 173.73V165.548H98.863V166.848H98.9482C99.0974 166.407 99.3602 166.061 99.7366 165.809C100.117 165.553 100.546 165.426 101.026 165.426C101.125 165.426 101.242 165.429 101.377 165.436C101.516 165.443 101.624 165.452 101.702 165.463V166.986C101.638 166.969 101.525 166.949 101.361 166.928C101.198 166.903 101.035 166.89 100.871 166.89C100.495 166.89 100.159 166.97 99.8644 167.13C99.5732 167.286 99.3424 167.505 99.172 167.785C99.0015 168.062 98.9163 168.378 98.9163 168.733V173.73H97.3236ZM106.883 165.548V166.827H102.414V165.548H106.883ZM103.612 163.588H105.205V171.328C105.205 171.637 105.251 171.869 105.344 172.025C105.436 172.178 105.555 172.283 105.701 172.34C105.85 172.393 106.011 172.42 106.185 172.42C106.313 172.42 106.425 172.411 106.521 172.393C106.617 172.375 106.691 172.361 106.745 172.35L107.032 173.666C106.94 173.702 106.809 173.737 106.638 173.773C106.468 173.812 106.255 173.833 105.999 173.836C105.58 173.844 105.189 173.769 104.827 173.613C104.465 173.456 104.172 173.215 103.948 172.888C103.724 172.562 103.612 172.151 103.612 171.658V163.588ZM111.583 173.895C110.777 173.895 110.083 173.723 109.501 173.378C108.922 173.03 108.474 172.542 108.158 171.914C107.846 171.281 107.689 170.541 107.689 169.692C107.689 168.854 107.846 168.116 108.158 167.476C108.474 166.837 108.915 166.338 109.479 165.98C110.047 165.621 110.711 165.442 111.471 165.442C111.933 165.442 112.381 165.518 112.814 165.671C113.247 165.823 113.636 166.063 113.98 166.39C114.325 166.716 114.596 167.141 114.795 167.663C114.994 168.181 115.094 168.812 115.094 169.554V170.118H108.59V168.925H113.533C113.533 168.506 113.448 168.135 113.277 167.812C113.107 167.485 112.867 167.228 112.558 167.04C112.253 166.851 111.894 166.757 111.482 166.757C111.035 166.757 110.644 166.867 110.31 167.088C109.98 167.304 109.724 167.588 109.543 167.94C109.366 168.288 109.277 168.666 109.277 169.074V170.007C109.277 170.553 109.373 171.019 109.564 171.402C109.76 171.786 110.031 172.079 110.379 172.281C110.727 172.48 111.134 172.579 111.599 172.579C111.901 172.579 112.176 172.537 112.425 172.452C112.673 172.363 112.888 172.231 113.069 172.057C113.251 171.883 113.389 171.668 113.485 171.413L114.992 171.684C114.872 172.128 114.655 172.517 114.343 172.851C114.034 173.181 113.645 173.439 113.176 173.623C112.711 173.804 112.18 173.895 111.583 173.895ZM119.424 173.89C118.763 173.89 118.174 173.721 117.655 173.384C117.14 173.043 116.735 172.558 116.441 171.929C116.149 171.297 116.004 170.539 116.004 169.655C116.004 168.771 116.151 168.014 116.446 167.386C116.744 166.757 117.153 166.276 117.671 165.942C118.19 165.608 118.777 165.442 119.434 165.442C119.942 165.442 120.35 165.527 120.659 165.697C120.972 165.864 121.213 166.059 121.384 166.283C121.558 166.507 121.693 166.704 121.789 166.874H121.884V162.821H123.477V173.73H121.922V172.457H121.789C121.693 172.631 121.554 172.83 121.373 173.053C121.196 173.277 120.951 173.472 120.638 173.639C120.326 173.806 119.921 173.89 119.424 173.89ZM119.775 172.531C120.233 172.531 120.62 172.411 120.936 172.169C121.256 171.924 121.497 171.585 121.661 171.152C121.828 170.719 121.911 170.214 121.911 169.639C121.911 169.071 121.829 168.574 121.666 168.148C121.503 167.721 121.263 167.389 120.947 167.151C120.631 166.914 120.24 166.795 119.775 166.795C119.296 166.795 118.896 166.919 118.577 167.167C118.257 167.416 118.016 167.755 117.852 168.185C117.692 168.615 117.612 169.099 117.612 169.639C117.612 170.186 117.694 170.678 117.858 171.115C118.021 171.551 118.262 171.898 118.582 172.153C118.905 172.405 119.303 172.531 119.775 172.531ZM130.313 168.872V173.73H128.72V165.548H130.249V166.88H130.35C130.538 166.447 130.833 166.099 131.234 165.836C131.639 165.573 132.149 165.442 132.763 165.442C133.321 165.442 133.809 165.559 134.228 165.793C134.647 166.024 134.972 166.368 135.203 166.827C135.434 167.285 135.549 167.851 135.549 168.526V173.73H133.956V168.717C133.956 168.124 133.802 167.661 133.493 167.327C133.184 166.99 132.759 166.821 132.22 166.821C131.85 166.821 131.522 166.901 131.234 167.061C130.95 167.221 130.725 167.455 130.558 167.764C130.394 168.069 130.313 168.439 130.313 168.872ZM140.631 173.895C139.864 173.895 139.195 173.719 138.623 173.368C138.051 173.016 137.608 172.524 137.291 171.892C136.975 171.26 136.817 170.521 136.817 169.676C136.817 168.828 136.975 168.085 137.291 167.45C137.608 166.814 138.051 166.32 138.623 165.969C139.195 165.617 139.864 165.442 140.631 165.442C141.398 165.442 142.068 165.617 142.639 165.969C143.211 166.32 143.655 166.814 143.971 167.45C144.287 168.085 144.445 168.828 144.445 169.676C144.445 170.521 144.287 171.26 143.971 171.892C143.655 172.524 143.211 173.016 142.639 173.368C142.068 173.719 141.398 173.895 140.631 173.895ZM140.637 172.558C141.134 172.558 141.546 172.427 141.872 172.164C142.199 171.901 142.441 171.551 142.597 171.115C142.757 170.678 142.837 170.197 142.837 169.671C142.837 169.149 142.757 168.67 142.597 168.233C142.441 167.792 142.199 167.439 141.872 167.173C141.546 166.906 141.134 166.773 140.637 166.773C140.136 166.773 139.72 166.906 139.39 167.173C139.063 167.439 138.82 167.792 138.66 168.233C138.504 168.67 138.426 169.149 138.426 169.671C138.426 170.197 138.504 170.678 138.66 171.115C138.82 171.551 139.063 171.901 139.39 172.164C139.72 172.427 140.136 172.558 140.637 172.558ZM147.248 173.73L144.84 165.548H146.486L148.089 171.557H148.169L149.778 165.548H151.424L153.022 171.53H153.102L154.695 165.548H156.34L153.938 173.73H152.313L150.652 167.823H150.529L148.867 173.73H147.248Z" fill="#43BA00"/>
<rect width="24" height="24" transform="translate(165 156.73)" fill="white"/>
<path d="M179 162.73L185 168.73M185 168.73L179 174.73M185 168.73H170" stroke="#43BA00" stroke-width="2" stroke-linecap="round" stroke-linejoin="round"/>
<ellipse cx="31.9499" cy="32.0131" rx="31.9499" ry="32.0131" transform="matrix(1.00041 0 -0.00116086 0.999591 251.074 28.7299)" fill="#43BA00"/>
<path d="M280.016 77.5727C275.037 77.1303 270.082 73.4718 270.084 71.5568C270.086 69.6841 271.606 68.7977 273.099 67.6641C274.592 66.5306 281.401 73.4122 285.476 72.028C289.55 70.6438 287.102 66.9714 283.439 64.5827C279.123 61.7685 276.009 59.6746 273.113 55.19C271.551 52.9783 269.057 46.7624 274.231 44.0022C275.85 43.1389 276.464 42.5928 281.231 42.7387L281.334 39.4684C282.438 38.207 287.036 38.2664 288.31 39.6819L288.206 42.9522C291.131 43.6603 298.099 45.6361 298.783 47.7586C299.599 48.6332 300.21 51.174 298.777 52.9171C296.4 55.8093 280.063 46.1351 281.35 52.9171C282.405 58.4754 301.792 64.2138 296.293 72.7069C295.131 75.5677 290.192 78.0227 287.099 77.7895L286.997 80.9809C285.455 82.8002 280.963 82.5269 280.012 81.0801L280.016 77.5727Z" fill="white"/>
</svg>
