<svg width="342" height="73" viewBox="0 0 342 73" fill="none" xmlns="http://www.w3.org/2000/svg">
<rect x="0.5" y="1.22992" width="341" height="71" rx="7.5" stroke="black" stroke-opacity="0.15"/>
<ellipse cx="36" cy="36.7299" rx="20" ry="20" fill="#43BA00"/>
<path opacity="0.4" d="M37.1391 27.1759L39.7366 32.1278C39.928 32.4866 40.2932 32.7357 40.7145 32.7911L46.5491 33.5972C46.8898 33.6426 47.1991 33.8132 47.4079 34.0734C47.6145 34.3303 47.7032 34.6558 47.653 34.9758C47.6122 35.2416 47.4803 35.4874 47.2784 35.6757L43.0507 39.5635C42.7414 39.8348 42.6014 40.2367 42.6761 40.6298L43.717 46.0955C43.8278 46.7555 43.3669 47.3778 42.6761 47.5029C42.3914 47.5461 42.0996 47.5007 41.8429 47.3767L36.6385 44.8044C36.2522 44.6195 35.7959 44.6195 35.4097 44.8044L30.2052 47.3767C29.5658 47.6989 28.7734 47.4797 28.4175 46.8817C28.2857 46.6436 28.239 46.3723 28.2822 46.1077L29.3231 40.6409C29.3977 40.2489 29.2565 39.8447 28.9485 39.5734L24.7207 35.6879C24.2178 35.2272 24.2026 34.4687 24.6869 33.9914C24.6974 33.9815 24.7091 33.9704 24.7207 33.9593C24.9214 33.7656 25.1852 33.6426 25.4699 33.6105L31.3045 32.8033C31.7246 32.7468 32.0898 32.4999 32.2824 32.1389L34.7866 27.1759C35.0094 26.7507 35.4715 26.4861 35.9733 26.4971H36.1297C36.5649 26.547 36.9442 26.8027 37.1391 27.1759Z" fill="white"/>
<path d="M35.9907 44.6665C35.7647 44.6731 35.5446 44.7307 35.3466 44.8337L30.1676 47.4002C29.5339 47.6871 28.7755 47.4644 28.4202 46.8896C28.2886 46.6547 28.2409 46.3856 28.2851 46.122L29.3195 40.6667C29.3894 40.2702 29.2496 39.867 28.9456 39.5879L24.716 35.7033C24.2139 35.237 24.2046 34.4716 24.6962 33.9942C24.7032 33.9875 24.709 33.982 24.716 33.9765C24.9163 33.7881 25.1749 33.6641 25.4533 33.6253L31.2928 32.8101C31.7157 32.7591 32.0826 32.5088 32.269 32.1455L34.8072 27.12C35.0483 26.7146 35.5108 26.4732 36 26.4986C35.9907 26.8276 35.9907 44.4427 35.9907 44.6665Z" fill="white"/>
<path d="M73.3583 16.3663H75.6222L79.5582 25.9771H79.7031L83.6392 16.3663H85.9031V28.7299H84.1282V19.7832H84.0135L80.3672 28.7118H78.8942L75.2479 19.7771H75.1332V28.7299H73.3583V16.3663ZM89.6112 32.2072C89.3416 32.2072 89.0961 32.1851 88.8747 32.1408C88.6534 32.1005 88.4884 32.0563 88.3797 32.008L88.8144 30.5289C89.1444 30.6175 89.4382 30.6557 89.6958 30.6436C89.9533 30.6316 90.1807 30.535 90.3779 30.3539C90.5792 30.1727 90.7562 29.8769 90.9092 29.4664L91.1325 28.8507L87.7398 19.4572H89.6716L92.02 26.6532H92.1166L94.4649 19.4572H96.4028L92.5814 29.9675C92.4043 30.4504 92.1789 30.8589 91.9053 31.193C91.6316 31.5311 91.3056 31.7846 90.9273 31.9536C90.549 32.1227 90.1103 32.2072 89.6112 32.2072ZM105.164 28.7299L101.735 16.3663H103.697L106.106 25.9409H106.22L108.726 16.3663H110.67L113.175 25.9469H113.29L115.692 16.3663H117.66L114.225 28.7299H112.348L109.746 19.4693H109.649L107.047 28.7299H105.164ZM121.002 28.9352C120.414 28.9352 119.883 28.8265 119.408 28.6092C118.933 28.3878 118.557 28.0679 118.279 27.6493C118.005 27.2307 117.869 26.7176 117.869 26.1099C117.869 25.5867 117.969 25.1561 118.17 24.818C118.372 24.4799 118.643 24.2123 118.985 24.0151C119.328 23.8179 119.71 23.669 120.132 23.5683C120.555 23.4677 120.986 23.3913 121.424 23.3389C121.98 23.2745 122.431 23.2222 122.777 23.182C123.123 23.1377 123.374 23.0673 123.531 22.9707C123.688 22.8741 123.767 22.7171 123.767 22.4998V22.4575C123.767 21.9303 123.618 21.5218 123.32 21.232C123.026 20.9423 122.587 20.7974 122.004 20.7974C121.396 20.7974 120.917 20.9322 120.567 21.2019C120.221 21.4675 119.982 21.7633 119.849 22.0893L118.152 21.7029C118.354 21.1395 118.647 20.6847 119.034 20.3386C119.424 19.9884 119.873 19.7349 120.38 19.5779C120.887 19.4169 121.42 19.3365 121.98 19.3365C122.35 19.3365 122.742 19.3807 123.157 19.4693C123.576 19.5538 123.966 19.7107 124.328 19.9401C124.694 20.1695 124.994 20.4976 125.228 20.9242C125.461 21.3468 125.578 21.8961 125.578 22.5722V28.7299H123.815V27.4622H123.743C123.626 27.6956 123.451 27.925 123.217 28.1504C122.984 28.3758 122.684 28.5629 122.318 28.7118C121.952 28.8607 121.513 28.9352 121.002 28.9352ZM121.394 27.4863C121.893 27.4863 122.32 27.3877 122.674 27.1905C123.032 26.9933 123.304 26.7357 123.489 26.4178C123.678 26.0958 123.773 25.7517 123.773 25.3855V24.1901C123.708 24.2545 123.584 24.3149 123.398 24.3713C123.217 24.4236 123.01 24.4699 122.777 24.5101C122.543 24.5463 122.316 24.5805 122.094 24.6127C121.873 24.6409 121.688 24.6651 121.539 24.6852C121.189 24.7294 120.869 24.8039 120.579 24.9085C120.293 25.0132 120.064 25.1641 119.891 25.3613C119.722 25.5545 119.637 25.8121 119.637 26.134C119.637 26.5808 119.802 26.9188 120.132 27.1482C120.462 27.3736 120.883 27.4863 121.394 27.4863ZM132.31 19.4572V20.9061H127.245V19.4572H132.31ZM128.604 17.2356H130.409V26.0073C130.409 26.3574 130.461 26.621 130.566 26.7981C130.67 26.9712 130.805 27.0899 130.97 27.1543C131.139 27.2146 131.322 27.2448 131.52 27.2448C131.665 27.2448 131.791 27.2348 131.9 27.2146C132.009 27.1945 132.093 27.1784 132.153 27.1664L132.479 28.6575C132.375 28.6977 132.226 28.738 132.033 28.7782C131.84 28.8225 131.598 28.8466 131.308 28.8507C130.833 28.8587 130.391 28.7742 129.98 28.5971C129.57 28.42 129.238 28.1463 128.984 27.7761C128.731 27.4058 128.604 26.941 128.604 26.3816V17.2356ZM138.113 28.9171C137.216 28.9171 136.443 28.7138 135.795 28.3073C135.151 27.8968 134.656 27.3314 134.31 26.611C133.964 25.8905 133.791 25.0655 133.791 24.1358C133.791 23.1941 133.968 22.363 134.322 21.6426C134.676 20.9181 135.175 20.3527 135.819 19.9462C136.463 19.5397 137.222 19.3365 138.095 19.3365C138.8 19.3365 139.427 19.4673 139.979 19.7289C140.53 19.9864 140.975 20.3486 141.313 20.8155C141.655 21.2824 141.858 21.8277 141.923 22.4515H140.166C140.069 22.0169 139.848 21.6426 139.502 21.3286C139.16 21.0147 138.701 20.8578 138.126 20.8578C137.622 20.8578 137.182 20.9906 136.803 21.2562C136.429 21.5178 136.137 21.8921 135.928 22.3791C135.719 22.862 135.614 23.4335 135.614 24.0936C135.614 24.7697 135.717 25.3533 135.922 25.8443C136.127 26.3353 136.417 26.7156 136.791 26.9852C137.17 27.2549 137.614 27.3897 138.126 27.3897C138.468 27.3897 138.778 27.3273 139.055 27.2026C139.337 27.0738 139.572 26.8907 139.762 26.6532C139.955 26.4158 140.09 26.13 140.166 25.796H141.923C141.858 26.3956 141.663 26.9309 141.337 27.4018C141.011 27.8727 140.575 28.2429 140.027 28.5126C139.484 28.7822 138.846 28.9171 138.113 28.9171ZM145.658 23.2242V28.7299H143.853V16.3663H145.634V20.9664H145.749C145.966 20.4674 146.298 20.0709 146.745 19.7771C147.191 19.4834 147.775 19.3365 148.495 19.3365C149.131 19.3365 149.687 19.4673 150.162 19.7289C150.641 19.9905 151.011 20.3808 151.272 20.9C151.538 21.4152 151.671 22.0591 151.671 22.8318V28.7299H149.866V23.0492C149.866 22.369 149.691 21.8418 149.341 21.4675C148.991 21.0892 148.504 20.9 147.88 20.9C147.453 20.9 147.071 20.9906 146.733 21.1717C146.399 21.3528 146.135 21.6184 145.942 21.9686C145.753 22.3147 145.658 22.7332 145.658 23.2242ZM155.885 16.3663V28.7299H154.08V16.3663H155.885ZM158.313 28.7299V19.4572H160.118V28.7299H158.313ZM159.225 18.0264C158.911 18.0264 158.641 17.9218 158.416 17.7125C158.194 17.4992 158.084 17.2457 158.084 16.9519C158.084 16.654 158.194 16.4005 158.416 16.1912C158.641 15.9779 158.911 15.8713 159.225 15.8713C159.539 15.8713 159.806 15.9779 160.028 16.1912C160.253 16.4005 160.366 16.654 160.366 16.9519C160.366 17.2457 160.253 17.4992 160.028 17.7125C159.806 17.9218 159.539 18.0264 159.225 18.0264ZM169.495 21.721L167.859 22.0108C167.791 21.8015 167.682 21.6023 167.533 21.4132C167.388 21.224 167.191 21.0691 166.941 20.9483C166.692 20.8276 166.38 20.7672 166.006 20.7672C165.494 20.7672 165.068 20.8819 164.726 21.1113C164.384 21.3367 164.213 21.6285 164.213 21.9867C164.213 22.2966 164.327 22.5461 164.557 22.7352C164.786 22.9244 165.156 23.0794 165.668 23.2001L167.141 23.5382C167.994 23.7354 168.63 24.0392 169.048 24.4497C169.467 24.8602 169.676 25.3935 169.676 26.0495C169.676 26.6049 169.515 27.0999 169.193 27.5346C168.875 27.9652 168.43 28.3033 167.859 28.5488C167.291 28.7943 166.633 28.9171 165.885 28.9171C164.847 28.9171 163.999 28.6957 163.343 28.253C162.687 27.8063 162.285 27.1724 162.136 26.3514L163.881 26.0857C163.989 26.5405 164.213 26.8846 164.551 27.1181C164.889 27.3475 165.329 27.4622 165.873 27.4622C166.464 27.4622 166.937 27.3394 167.291 27.0939C167.646 26.8444 167.823 26.5405 167.823 26.1823C167.823 25.8926 167.714 25.6491 167.497 25.4519C167.283 25.2547 166.955 25.1057 166.513 25.0051L164.943 24.661C164.078 24.4638 163.438 24.1499 163.023 23.7193C162.613 23.2886 162.408 22.7433 162.408 22.0833C162.408 21.5359 162.561 21.057 162.866 20.6465C163.172 20.236 163.595 19.916 164.134 19.6866C164.673 19.4532 165.291 19.3365 165.987 19.3365C166.99 19.3365 167.778 19.5538 168.354 19.9884C168.929 20.4191 169.31 20.9966 169.495 21.721ZM175.989 19.4572V20.9061H170.924V19.4572H175.989ZM172.282 17.2356H174.088V26.0073C174.088 26.3574 174.14 26.621 174.244 26.7981C174.349 26.9712 174.484 27.0899 174.649 27.1543C174.818 27.2146 175.001 27.2448 175.198 27.2448C175.343 27.2448 175.47 27.2348 175.579 27.2146C175.687 27.1945 175.772 27.1784 175.832 27.1664L176.158 28.6575C176.054 28.6977 175.905 28.738 175.711 28.7782C175.518 28.8225 175.277 28.8466 174.987 28.8507C174.512 28.8587 174.069 28.7742 173.659 28.5971C173.248 28.42 172.916 28.1463 172.663 27.7761C172.409 27.4058 172.282 26.941 172.282 26.3816V17.2356Z" fill="black"/>
<path opacity="0.7" d="M73.321 50.7299V39.8208H74.642V45.2328H74.7699L79.6705 39.8208H81.3963L76.8153 44.7427L81.3963 50.7299H79.7983L76.0057 45.6589L74.642 47.193V50.7299H73.321ZM85.7655 50.9004C84.9772 50.9004 84.2971 50.7264 83.7254 50.3784C83.1572 50.0268 82.7187 49.5367 82.4097 48.9082C82.1043 48.2761 81.9516 47.541 81.9516 46.7029C81.9516 45.8649 82.1043 45.1262 82.4097 44.487C82.7187 43.8443 83.1483 43.3436 83.6988 42.9849C84.2528 42.6227 84.8991 42.4416 85.6377 42.4416C86.0638 42.4416 86.4846 42.5126 86.9001 42.6546C87.3156 42.7967 87.6938 43.0275 88.0347 43.3471C88.3756 43.6632 88.6473 44.0822 88.8497 44.6042C89.0521 45.1262 89.1533 45.769 89.1533 46.5325V47.0651H82.8465V45.9785H87.8749C87.8749 45.5169 87.7826 45.1049 87.5979 44.7427C87.4168 44.3805 87.1576 44.0946 86.8202 43.8851C86.4864 43.6756 86.0922 43.5708 85.6377 43.5708C85.137 43.5708 84.7037 43.6951 84.338 43.9437C83.9758 44.1887 83.697 44.5083 83.5017 44.9025C83.3064 45.2967 83.2087 45.7193 83.2087 46.1703V46.8947C83.2087 47.5126 83.3153 48.0364 83.5283 48.4661C83.7449 48.8922 84.045 49.2171 84.4285 49.4409C84.8121 49.661 85.2577 49.7711 85.7655 49.7711C86.0958 49.7711 86.3941 49.7249 86.6604 49.6326C86.9303 49.5367 87.1629 49.3947 87.3582 49.2065C87.5535 49.0147 87.7045 48.7768 87.811 48.4927L89.0255 48.8336C88.8976 49.2455 88.6828 49.6078 88.3809 49.9203C88.0791 50.2292 87.7062 50.4707 87.2623 50.6447C86.8184 50.8151 86.3195 50.9004 85.7655 50.9004ZM94.496 50.9004C93.7077 50.9004 93.0276 50.7264 92.4559 50.3784C91.8877 50.0268 91.4491 49.5367 91.1402 48.9082C90.8348 48.2761 90.6821 47.541 90.6821 46.7029C90.6821 45.8649 90.8348 45.1262 91.1402 44.487C91.4491 43.8443 91.8788 43.3436 92.4292 42.9849C92.9832 42.6227 93.6295 42.4416 94.3682 42.4416C94.7943 42.4416 95.2151 42.5126 95.6306 42.6546C96.0461 42.7967 96.4243 43.0275 96.7652 43.3471C97.1061 43.6632 97.3778 44.0822 97.5802 44.6042C97.7826 45.1262 97.8838 45.769 97.8838 46.5325V47.0651H91.577V45.9785H96.6054C96.6054 45.5169 96.5131 45.1049 96.3284 44.7427C96.1473 44.3805 95.8881 44.0946 95.5507 43.8851C95.2169 43.6756 94.8227 43.5708 94.3682 43.5708C93.8675 43.5708 93.4342 43.6951 93.0684 43.9437C92.7062 44.1887 92.4275 44.5083 92.2322 44.9025C92.0368 45.2967 91.9392 45.7193 91.9392 46.1703V46.8947C91.9392 47.5126 92.0457 48.0364 92.2588 48.4661C92.4754 48.8922 92.7755 49.2171 93.159 49.4409C93.5425 49.661 93.9882 49.7711 94.496 49.7711C94.8263 49.7711 95.1246 49.7249 95.3909 49.6326C95.6608 49.5367 95.8934 49.3947 96.0887 49.2065C96.284 49.0147 96.4349 48.7768 96.5415 48.4927L97.7559 48.8336C97.6281 49.2455 97.4133 49.6078 97.1114 49.9203C96.8096 50.2292 96.4367 50.4707 95.9928 50.6447C95.5489 50.8151 95.05 50.9004 94.496 50.9004ZM99.7961 53.7981V42.5481H101.011V43.8478H101.16C101.252 43.7058 101.38 43.5247 101.543 43.3045C101.71 43.0808 101.948 42.8819 102.257 42.7079C102.57 42.5303 102.992 42.4416 103.525 42.4416C104.214 42.4416 104.821 42.6138 105.347 42.9583C105.872 43.3027 106.282 43.791 106.577 44.4231C106.872 45.0552 107.019 45.8009 107.019 46.6603C107.019 47.5268 106.872 48.2779 106.577 48.9135C106.282 49.5456 105.874 50.0357 105.352 50.3837C104.83 50.7281 104.228 50.9004 103.546 50.9004C103.021 50.9004 102.6 50.8134 102.284 50.6394C101.968 50.4618 101.724 50.2612 101.554 50.0374C101.383 49.8102 101.252 49.622 101.16 49.4728H101.053V53.7981H99.7961ZM101.032 46.639C101.032 47.2569 101.122 47.802 101.304 48.2743C101.485 48.7431 101.749 49.1106 102.097 49.3769C102.445 49.6397 102.871 49.7711 103.376 49.7711C103.901 49.7711 104.34 49.6326 104.691 49.3556C105.046 49.0751 105.313 48.6987 105.49 48.2264C105.671 47.7505 105.762 47.2214 105.762 46.639C105.762 46.0637 105.673 45.5453 105.496 45.0836C105.322 44.6184 105.057 44.2509 104.702 43.981C104.35 43.7075 103.908 43.5708 103.376 43.5708C102.864 43.5708 102.435 43.7004 102.087 43.9597C101.739 44.2154 101.476 44.574 101.298 45.0357C101.121 45.4938 101.032 46.0282 101.032 46.639ZM115.563 50.9217C115.045 50.9217 114.574 50.824 114.152 50.6287C113.729 50.4298 113.393 50.144 113.145 49.7711C112.896 49.3947 112.772 48.9401 112.772 48.4075C112.772 47.9387 112.864 47.5588 113.049 47.2676C113.234 46.9728 113.48 46.742 113.789 46.5751C114.098 46.4082 114.439 46.2839 114.812 46.2022C115.188 46.117 115.567 46.0495 115.947 45.9998C116.444 45.9359 116.847 45.8879 117.156 45.856C117.468 45.8205 117.696 45.7619 117.838 45.6802C117.983 45.5985 118.056 45.4565 118.056 45.2541V45.2115C118.056 44.6859 117.912 44.2775 117.625 43.9863C117.34 43.6951 116.909 43.5495 116.33 43.5495C115.73 43.5495 115.259 43.6809 114.919 43.9437C114.578 44.2065 114.338 44.487 114.199 44.7853L113.006 44.3592C113.219 43.862 113.503 43.4749 113.859 43.198C114.217 42.9174 114.608 42.7221 115.03 42.612C115.457 42.4984 115.876 42.4416 116.288 42.4416C116.55 42.4416 116.852 42.4735 117.193 42.5374C117.538 42.5978 117.87 42.7239 118.189 42.9156C118.512 43.1074 118.78 43.3968 118.994 43.7839C119.207 44.171 119.313 44.6894 119.313 45.3393V50.7299H118.056V49.622H117.992C117.907 49.7995 117.765 49.9895 117.566 50.1919C117.367 50.3943 117.103 50.5666 116.772 50.7086C116.442 50.8507 116.039 50.9217 115.563 50.9217ZM115.755 49.7924C116.252 49.7924 116.671 49.6948 117.012 49.4995C117.356 49.3041 117.616 49.052 117.79 48.7431C117.967 48.4341 118.056 48.1092 118.056 47.7683V46.6177C118.003 46.6816 117.886 46.7402 117.704 46.7935C117.527 46.8432 117.321 46.8876 117.087 46.9267C116.856 46.9622 116.63 46.9941 116.41 47.0225C116.193 47.0474 116.018 47.0687 115.883 47.0865C115.556 47.1291 115.251 47.1983 114.967 47.2942C114.686 47.3865 114.459 47.5268 114.285 47.715C114.114 47.8997 114.029 48.1518 114.029 48.4714C114.029 48.9082 114.191 49.2384 114.514 49.4622C114.84 49.6823 115.254 49.7924 115.755 49.7924ZM122.865 45.808V50.7299H121.608V42.5481H122.822V43.8265H122.929C123.12 43.411 123.412 43.0772 123.802 42.8251C124.193 42.5694 124.697 42.4416 125.315 42.4416C125.869 42.4416 126.354 42.5552 126.769 42.7825C127.185 43.0062 127.508 43.3471 127.739 43.8052C127.969 44.2597 128.085 44.835 128.085 45.5311V50.7299H126.828V45.6163C126.828 44.9735 126.661 44.4728 126.327 44.1142C125.993 43.7519 125.535 43.5708 124.953 43.5708C124.551 43.5708 124.193 43.6578 123.877 43.8318C123.564 44.0058 123.317 44.2597 123.136 44.5936C122.955 44.9274 122.865 45.3322 122.865 45.808ZM138.031 50.9004C137.243 50.9004 136.563 50.7264 135.991 50.3784C135.423 50.0268 134.984 49.5367 134.675 48.9082C134.37 48.2761 134.217 47.541 134.217 46.7029C134.217 45.8649 134.37 45.1262 134.675 44.487C134.984 43.8443 135.414 43.3436 135.964 42.9849C136.518 42.6227 137.165 42.4416 137.903 42.4416C138.329 42.4416 138.75 42.5126 139.166 42.6546C139.581 42.7967 139.959 43.0275 140.3 43.3471C140.641 43.6632 140.913 44.0822 141.115 44.6042C141.318 45.1262 141.419 45.769 141.419 46.5325V47.0651H135.112V45.9785H140.141C140.141 45.5169 140.048 45.1049 139.864 44.7427C139.682 44.3805 139.423 44.0946 139.086 43.8851C138.752 43.6756 138.358 43.5708 137.903 43.5708C137.403 43.5708 136.969 43.6951 136.604 43.9437C136.241 44.1887 135.963 44.5083 135.767 44.9025C135.572 45.2967 135.474 45.7193 135.474 46.1703V46.8947C135.474 47.5126 135.581 48.0364 135.794 48.4661C136.011 48.8922 136.311 49.2171 136.694 49.4409C137.078 49.661 137.523 49.7711 138.031 49.7711C138.361 49.7711 138.66 49.7249 138.926 49.6326C139.196 49.5367 139.429 49.3947 139.624 49.2065C139.819 49.0147 139.97 48.7768 140.077 48.4927L141.291 48.8336C141.163 49.2455 140.948 49.6078 140.647 49.9203C140.345 50.2292 139.972 50.4707 139.528 50.6447C139.084 50.8151 138.585 50.9004 138.031 50.9004ZM143.892 53.7981C143.679 53.7981 143.489 53.7803 143.322 53.7448C143.155 53.7129 143.04 53.6809 142.976 53.649L143.295 52.541C143.601 52.6191 143.871 52.6475 144.105 52.6262C144.339 52.6049 144.547 52.5002 144.728 52.312C144.913 52.1273 145.081 51.8272 145.234 51.4117L145.469 50.7725L142.443 42.5481H143.807L146.065 49.068H146.15L148.409 42.5481H149.773L146.3 51.9231C146.143 52.3457 145.95 52.6955 145.719 52.9725C145.488 53.253 145.22 53.4607 144.915 53.5957C144.613 53.7306 144.272 53.7981 143.892 53.7981ZM154.569 50.9004C153.781 50.9004 153.101 50.7264 152.529 50.3784C151.961 50.0268 151.522 49.5367 151.213 48.9082C150.908 48.2761 150.755 47.541 150.755 46.7029C150.755 45.8649 150.908 45.1262 151.213 44.487C151.522 43.8443 151.952 43.3436 152.502 42.9849C153.056 42.6227 153.703 42.4416 154.441 42.4416C154.868 42.4416 155.288 42.5126 155.704 42.6546C156.119 42.7967 156.498 43.0275 156.838 43.3471C157.179 43.6632 157.451 44.0822 157.653 44.6042C157.856 45.1262 157.957 45.769 157.957 46.5325V47.0651H151.65V45.9785H156.679C156.679 45.5169 156.586 45.1049 156.402 44.7427C156.221 44.3805 155.961 44.0946 155.624 43.8851C155.29 43.6756 154.896 43.5708 154.441 43.5708C153.941 43.5708 153.507 43.6951 153.142 43.9437C152.779 44.1887 152.501 44.5083 152.305 44.9025C152.11 45.2967 152.012 45.7193 152.012 46.1703V46.8947C152.012 47.5126 152.119 48.0364 152.332 48.4661C152.549 48.8922 152.849 49.2171 153.232 49.4409C153.616 49.661 154.061 49.7711 154.569 49.7711C154.9 49.7711 155.198 49.7249 155.464 49.6326C155.734 49.5367 155.967 49.3947 156.162 49.2065C156.357 49.0147 156.508 48.7768 156.615 48.4927L157.829 48.8336C157.701 49.2455 157.487 49.6078 157.185 49.9203C156.883 50.2292 156.51 50.4707 156.066 50.6447C155.622 50.8151 155.123 50.9004 154.569 50.9004ZM167.412 50.9004C166.673 50.9004 166.025 50.7246 165.468 50.373C164.914 50.0215 164.48 49.5296 164.168 48.8975C163.859 48.2654 163.705 47.5268 163.705 46.6816C163.705 45.8294 163.859 45.0854 164.168 44.4497C164.48 43.8141 164.914 43.3205 165.468 42.9689C166.025 42.6173 166.673 42.4416 167.412 42.4416C168.151 42.4416 168.797 42.6173 169.351 42.9689C169.908 43.3205 170.342 43.8141 170.651 44.4497C170.963 45.0854 171.119 45.8294 171.119 46.6816C171.119 47.5268 170.963 48.2654 170.651 48.8975C170.342 49.5296 169.908 50.0215 169.351 50.373C168.797 50.7246 168.151 50.9004 167.412 50.9004ZM167.412 49.7711C167.973 49.7711 168.435 49.6273 168.797 49.3396C169.159 49.052 169.427 48.6738 169.601 48.2051C169.775 47.7363 169.862 47.2285 169.862 46.6816C169.862 46.1347 169.775 45.6252 169.601 45.1529C169.427 44.6806 169.159 44.2988 168.797 44.0076C168.435 43.7164 167.973 43.5708 167.412 43.5708C166.851 43.5708 166.389 43.7164 166.027 44.0076C165.665 44.2988 165.397 44.6806 165.223 45.1529C165.049 45.6252 164.962 46.1347 164.962 46.6816C164.962 47.2285 165.049 47.7363 165.223 48.2051C165.397 48.6738 165.665 49.052 166.027 49.3396C166.389 49.6273 166.851 49.7711 167.412 49.7711ZM174.295 45.808V50.7299H173.038V42.5481H174.253V43.8265H174.359C174.551 43.411 174.842 43.0772 175.233 42.8251C175.623 42.5694 176.128 42.4416 176.746 42.4416C177.3 42.4416 177.784 42.5552 178.2 42.7825C178.615 43.0062 178.938 43.3471 179.169 43.8052C179.4 44.2597 179.516 44.835 179.516 45.5311V50.7299H178.258V45.6163C178.258 44.9735 178.092 44.4728 177.758 44.1142C177.424 43.7519 176.966 43.5708 176.383 43.5708C175.982 43.5708 175.623 43.6578 175.307 43.8318C174.995 44.0058 174.748 44.2597 174.567 44.5936C174.386 44.9274 174.295 45.3322 174.295 45.808ZM186.841 53.7981C186.628 53.7981 186.438 53.7803 186.271 53.7448C186.104 53.7129 185.989 53.6809 185.925 53.649L186.244 52.541C186.55 52.6191 186.82 52.6475 187.054 52.6262C187.289 52.6049 187.496 52.5002 187.677 52.312C187.862 52.1273 188.031 51.8272 188.183 51.4117L188.418 50.7725L185.392 42.5481H186.756L189.014 49.068H189.1L191.358 42.5481H192.722L189.249 51.9231C189.093 52.3457 188.899 52.6955 188.668 52.9725C188.437 53.253 188.169 53.4607 187.864 53.5957C187.562 53.7306 187.221 53.7981 186.841 53.7981ZM197.412 50.9004C196.673 50.9004 196.025 50.7246 195.468 50.373C194.914 50.0215 194.48 49.5296 194.168 48.8975C193.859 48.2654 193.705 47.5268 193.705 46.6816C193.705 45.8294 193.859 45.0854 194.168 44.4497C194.48 43.8141 194.914 43.3205 195.468 42.9689C196.025 42.6173 196.673 42.4416 197.412 42.4416C198.151 42.4416 198.797 42.6173 199.351 42.9689C199.908 43.3205 200.342 43.8141 200.651 44.4497C200.963 45.0854 201.119 45.8294 201.119 46.6816C201.119 47.5268 200.963 48.2654 200.651 48.8975C200.342 49.5296 199.908 50.0215 199.351 50.373C198.797 50.7246 198.151 50.9004 197.412 50.9004ZM197.412 49.7711C197.973 49.7711 198.435 49.6273 198.797 49.3396C199.159 49.052 199.427 48.6738 199.601 48.2051C199.775 47.7363 199.862 47.2285 199.862 46.6816C199.862 46.1347 199.775 45.6252 199.601 45.1529C199.427 44.6806 199.159 44.2988 198.797 44.0076C198.435 43.7164 197.973 43.5708 197.412 43.5708C196.851 43.5708 196.389 43.7164 196.027 44.0076C195.665 44.2988 195.397 44.6806 195.223 45.1529C195.049 45.6252 194.962 46.1347 194.962 46.6816C194.962 47.2285 195.049 47.7363 195.223 48.2051C195.397 48.6738 195.665 49.052 196.027 49.3396C196.389 49.6273 196.851 49.7711 197.412 49.7711ZM208.195 47.3847V42.5481H209.452V50.7299H208.195V49.345H208.109C207.918 49.7605 207.619 50.1138 207.214 50.405C206.81 50.6926 206.298 50.8365 205.68 50.8365C205.169 50.8365 204.714 50.7246 204.317 50.5009C203.919 50.2736 203.606 49.9327 203.379 49.4781C203.152 49.02 203.038 48.443 203.038 47.747V42.5481H204.295V47.6617C204.295 48.2583 204.462 48.7342 204.796 49.0893C205.133 49.4444 205.563 49.622 206.085 49.622C206.398 49.622 206.715 49.5421 207.039 49.3823C207.365 49.2225 207.639 48.9774 207.859 48.6472C208.083 48.3169 208.195 47.8961 208.195 47.3847ZM211.754 50.7299V42.5481H212.969V43.7839H213.054C213.203 43.3791 213.473 43.0506 213.863 42.7985C214.254 42.5463 214.694 42.4203 215.184 42.4203C215.277 42.4203 215.392 42.422 215.531 42.4256C215.669 42.4291 215.774 42.4345 215.845 42.4416V43.72C215.802 43.7093 215.705 43.6933 215.552 43.672C215.403 43.6472 215.245 43.6347 215.078 43.6347C214.68 43.6347 214.325 43.7182 214.013 43.8851C213.704 44.0485 213.459 44.2757 213.278 44.5669C213.1 44.8546 213.011 45.183 213.011 45.5524V50.7299H211.754ZM225.197 42.5481V43.6134H220.787V42.5481H225.197ZM222.108 50.7299V41.4188C222.108 40.9501 222.218 40.5595 222.438 40.247C222.658 39.9345 222.944 39.7001 223.296 39.5438C223.647 39.3876 224.018 39.3095 224.409 39.3095C224.718 39.3095 224.97 39.3343 225.165 39.384C225.361 39.4338 225.506 39.4799 225.602 39.5225L225.24 40.6092C225.176 40.5879 225.087 40.5612 224.974 40.5293C224.864 40.4973 224.718 40.4813 224.537 40.4813C224.121 40.4813 223.821 40.5861 223.637 40.7956C223.456 41.0051 223.365 41.3123 223.365 41.7171V50.7299H222.108ZM229.132 50.9217C228.614 50.9217 228.143 50.824 227.721 50.6287C227.298 50.4298 226.963 50.144 226.714 49.7711C226.466 49.3947 226.341 48.9401 226.341 48.4075C226.341 47.9387 226.434 47.5588 226.618 47.2676C226.803 46.9728 227.05 46.742 227.359 46.5751C227.668 46.4082 228.009 46.2839 228.381 46.2022C228.758 46.117 229.136 46.0495 229.516 45.9998C230.013 45.9359 230.416 45.8879 230.725 45.856C231.038 45.8205 231.265 45.7619 231.407 45.6802C231.553 45.5985 231.625 45.4565 231.625 45.2541V45.2115C231.625 44.6859 231.482 44.2775 231.194 43.9863C230.91 43.6951 230.478 43.5495 229.9 43.5495C229.299 43.5495 228.829 43.6809 228.488 43.9437C228.147 44.2065 227.907 44.487 227.769 44.7853L226.576 44.3592C226.789 43.862 227.073 43.4749 227.428 43.198C227.787 42.9174 228.177 42.7221 228.6 42.612C229.026 42.4984 229.445 42.4416 229.857 42.4416C230.12 42.4416 230.422 42.4735 230.762 42.5374C231.107 42.5978 231.439 42.7239 231.759 42.9156C232.082 43.1074 232.35 43.3968 232.563 43.7839C232.776 44.171 232.882 44.6894 232.882 45.3393V50.7299H231.625V49.622H231.561C231.476 49.7995 231.334 49.9895 231.135 50.1919C230.936 50.3943 230.672 50.5666 230.342 50.7086C230.011 50.8507 229.608 50.9217 229.132 50.9217ZM229.324 49.7924C229.821 49.7924 230.24 49.6948 230.581 49.4995C230.926 49.3041 231.185 49.052 231.359 48.7431C231.537 48.4341 231.625 48.1092 231.625 47.7683V46.6177C231.572 46.6816 231.455 46.7402 231.274 46.7935C231.096 46.8432 230.89 46.8876 230.656 46.9267C230.425 46.9622 230.2 46.9941 229.979 47.0225C229.763 47.0474 229.587 47.0687 229.452 47.0865C229.125 47.1291 228.82 47.1983 228.536 47.2942C228.255 47.3865 228.028 47.5268 227.854 47.715C227.684 47.8997 227.598 48.1518 227.598 48.4714C227.598 48.9082 227.76 49.2384 228.083 49.4622C228.41 49.6823 228.824 49.7924 229.324 49.7924ZM241.574 42.5481L238.549 50.7299H237.27L234.245 42.5481H235.608L237.867 49.068H237.952L240.211 42.5481H241.574ZM246.264 50.9004C245.526 50.9004 244.878 50.7246 244.32 50.373C243.766 50.0215 243.333 49.5296 243.021 48.8975C242.712 48.2654 242.557 47.5268 242.557 46.6816C242.557 45.8294 242.712 45.0854 243.021 44.4497C243.333 43.8141 243.766 43.3205 244.32 42.9689C244.878 42.6173 245.526 42.4416 246.264 42.4416C247.003 42.4416 247.649 42.6173 248.203 42.9689C248.761 43.3205 249.194 43.8141 249.503 44.4497C249.816 45.0854 249.972 45.8294 249.972 46.6816C249.972 47.5268 249.816 48.2654 249.503 48.8975C249.194 49.5296 248.761 50.0215 248.203 50.373C247.649 50.7246 247.003 50.9004 246.264 50.9004ZM246.264 49.7711C246.826 49.7711 247.287 49.6273 247.649 49.3396C248.012 49.052 248.28 48.6738 248.454 48.2051C248.628 47.7363 248.715 47.2285 248.715 46.6816C248.715 46.1347 248.628 45.6252 248.454 45.1529C248.28 44.6806 248.012 44.2988 247.649 44.0076C247.287 43.7164 246.826 43.5708 246.264 43.5708C245.703 43.5708 245.242 43.7164 244.88 44.0076C244.517 44.2988 244.249 44.6806 244.075 45.1529C243.901 45.6252 243.814 46.1347 243.814 46.6816C243.814 47.2285 243.901 47.7363 244.075 48.2051C244.249 48.6738 244.517 49.052 244.88 49.3396C245.242 49.6273 245.703 49.7711 246.264 49.7711ZM251.891 50.7299V42.5481H253.105V43.7839H253.191C253.34 43.3791 253.61 43.0506 254 42.7985C254.391 42.5463 254.831 42.4203 255.321 42.4203C255.414 42.4203 255.529 42.422 255.667 42.4256C255.806 42.4291 255.911 42.4345 255.982 42.4416V43.72C255.939 43.7093 255.841 43.6933 255.689 43.672C255.54 43.6472 255.382 43.6347 255.215 43.6347C254.817 43.6347 254.462 43.7182 254.149 43.8851C253.84 44.0485 253.595 44.2757 253.414 44.5669C253.237 44.8546 253.148 45.183 253.148 45.5524V50.7299H251.891ZM257.472 50.7299V42.5481H258.729V50.7299H257.472ZM258.111 41.1845C257.866 41.1845 257.655 41.101 257.477 40.9341C257.303 40.7672 257.216 40.5666 257.216 40.3322C257.216 40.0978 257.303 39.8972 257.477 39.7303C257.655 39.5634 257.866 39.4799 258.111 39.4799C258.356 39.4799 258.566 39.5634 258.74 39.7303C258.917 39.8972 259.006 40.0978 259.006 40.3322C259.006 40.5666 258.917 40.7672 258.74 40.9341C258.566 41.101 258.356 41.1845 258.111 41.1845ZM264.59 42.5481V43.6134H260.35V42.5481H264.59ZM261.585 40.5879H262.843V48.3862C262.843 48.7413 262.894 49.0076 262.997 49.1852C263.104 49.3592 263.238 49.4764 263.402 49.5367C263.569 49.5936 263.744 49.622 263.929 49.622C264.068 49.622 264.181 49.6149 264.27 49.6007C264.359 49.5829 264.43 49.5687 264.483 49.558L264.739 50.6873C264.654 50.7193 264.535 50.7512 264.382 50.7832C264.229 50.8187 264.036 50.8365 263.801 50.8365C263.446 50.8365 263.098 50.7601 262.757 50.6074C262.42 50.4547 262.139 50.2221 261.916 49.9096C261.695 49.5971 261.585 49.2029 261.585 48.7271V40.5879ZM269.823 50.9004C269.035 50.9004 268.355 50.7264 267.783 50.3784C267.215 50.0268 266.776 49.5367 266.467 48.9082C266.162 48.2761 266.009 47.541 266.009 46.7029C266.009 45.8649 266.162 45.1262 266.467 44.487C266.776 43.8443 267.206 43.3436 267.756 42.9849C268.31 42.6227 268.957 42.4416 269.695 42.4416C270.121 42.4416 270.542 42.5126 270.958 42.6546C271.373 42.7967 271.751 43.0275 272.092 43.3471C272.433 43.6632 272.705 44.0822 272.907 44.6042C273.11 45.1262 273.211 45.769 273.211 46.5325V47.0651H266.904V45.9785H271.933C271.933 45.5169 271.84 45.1049 271.656 44.7427C271.474 44.3805 271.215 44.0946 270.878 43.8851C270.544 43.6756 270.15 43.5708 269.695 43.5708C269.195 43.5708 268.761 43.6951 268.396 43.9437C268.033 44.1887 267.755 44.5083 267.559 44.9025C267.364 45.2967 267.266 45.7193 267.266 46.1703V46.8947C267.266 47.5126 267.373 48.0364 267.586 48.4661C267.803 48.8922 268.103 49.2171 268.486 49.4409C268.87 49.661 269.315 49.7711 269.823 49.7711C270.153 49.7711 270.452 49.7249 270.718 49.6326C270.988 49.5367 271.221 49.3947 271.416 49.2065C271.611 49.0147 271.762 48.7768 271.869 48.4927L273.083 48.8336C272.955 49.2455 272.74 49.6078 272.439 49.9203C272.137 50.2292 271.764 50.4707 271.32 50.6447C270.876 50.8151 270.377 50.9004 269.823 50.9004ZM281.75 50.9217C281.231 50.9217 280.761 50.824 280.338 50.6287C279.915 50.4298 279.58 50.144 279.331 49.7711C279.083 49.3947 278.958 48.9401 278.958 48.4075C278.958 47.9387 279.051 47.5588 279.235 47.2676C279.42 46.9728 279.667 46.742 279.976 46.5751C280.285 46.4082 280.626 46.2839 280.999 46.2022C281.375 46.117 281.753 46.0495 282.133 45.9998C282.63 45.9359 283.033 45.8879 283.342 45.856C283.655 45.8205 283.882 45.7619 284.024 45.6802C284.17 45.5985 284.243 45.4565 284.243 45.2541V45.2115C284.243 44.6859 284.099 44.2775 283.811 43.9863C283.527 43.6951 283.096 43.5495 282.517 43.5495C281.917 43.5495 281.446 43.6809 281.105 43.9437C280.764 44.2065 280.525 44.487 280.386 44.7853L279.193 44.3592C279.406 43.862 279.69 43.4749 280.045 43.198C280.404 42.9174 280.794 42.7221 281.217 42.612C281.643 42.4984 282.062 42.4416 282.474 42.4416C282.737 42.4416 283.039 42.4735 283.38 42.5374C283.724 42.5978 284.056 42.7239 284.376 42.9156C284.699 43.1074 284.967 43.3968 285.18 43.7839C285.393 44.171 285.5 44.6894 285.5 45.3393V50.7299H284.243V49.622H284.179C284.093 49.7995 283.951 49.9895 283.752 50.1919C283.554 50.3943 283.289 50.5666 282.959 50.7086C282.629 50.8507 282.225 50.9217 281.75 50.9217ZM281.941 49.7924C282.439 49.7924 282.858 49.6948 283.199 49.4995C283.543 49.3041 283.802 49.052 283.976 48.7431C284.154 48.4341 284.243 48.1092 284.243 47.7683V46.6177C284.189 46.6816 284.072 46.7402 283.891 46.7935C283.713 46.8432 283.507 46.8876 283.273 46.9267C283.042 46.9622 282.817 46.9941 282.597 47.0225C282.38 47.0474 282.204 47.0687 282.069 47.0865C281.743 47.1291 281.437 47.1983 281.153 47.2942C280.873 47.3865 280.645 47.5268 280.471 47.715C280.301 47.8997 280.216 48.1518 280.216 48.4714C280.216 48.9082 280.377 49.2384 280.7 49.4622C281.027 49.6823 281.441 49.7924 281.941 49.7924ZM293.59 44.3805L292.46 44.7001C292.389 44.5119 292.285 44.329 292.146 44.1514C292.011 43.9703 291.826 43.8212 291.592 43.704C291.358 43.5868 291.058 43.5282 290.692 43.5282C290.191 43.5282 289.774 43.6436 289.44 43.8745C289.11 44.1017 288.945 44.3911 288.945 44.7427C288.945 45.0552 289.058 45.302 289.286 45.4831C289.513 45.6642 289.868 45.8151 290.351 45.9359L291.565 46.2342C292.297 46.4117 292.842 46.6834 293.201 47.0492C293.559 47.4114 293.739 47.8784 293.739 48.4501C293.739 48.9188 293.604 49.3379 293.334 49.7072C293.068 50.0765 292.695 50.3677 292.215 50.5808C291.736 50.7938 291.178 50.9004 290.543 50.9004C289.708 50.9004 289.017 50.7193 288.471 50.3571C287.924 49.9948 287.578 49.4657 287.432 48.7697L288.625 48.4714C288.739 48.9117 288.954 49.242 289.27 49.4622C289.589 49.6823 290.006 49.7924 290.521 49.7924C291.107 49.7924 291.573 49.6681 291.917 49.4196C292.265 49.1674 292.439 48.8656 292.439 48.514C292.439 48.2299 292.34 47.992 292.141 47.8002C291.942 47.6049 291.636 47.4593 291.225 47.3634L289.861 47.0438C289.112 46.8663 288.561 46.5911 288.21 46.2182C287.862 45.8418 287.688 45.3713 287.688 44.8066C287.688 44.345 287.817 43.9366 288.076 43.5815C288.339 43.2264 288.696 42.9476 289.147 42.7452C289.602 42.5428 290.117 42.4416 290.692 42.4416C291.502 42.4416 292.137 42.6191 292.599 42.9742C293.064 43.3294 293.394 43.7981 293.59 44.3805ZM301.426 44.3805L300.297 44.7001C300.226 44.5119 300.121 44.329 299.983 44.1514C299.848 43.9703 299.663 43.8212 299.429 43.704C299.195 43.5868 298.895 43.5282 298.529 43.5282C298.028 43.5282 297.611 43.6436 297.277 43.8745C296.947 44.1017 296.782 44.3911 296.782 44.7427C296.782 45.0552 296.895 45.302 297.123 45.4831C297.35 45.6642 297.705 45.8151 298.188 45.9359L299.402 46.2342C300.134 46.4117 300.679 46.6834 301.038 47.0492C301.396 47.4114 301.576 47.8784 301.576 48.4501C301.576 48.9188 301.441 49.3379 301.171 49.7072C300.904 50.0765 300.532 50.3677 300.052 50.5808C299.573 50.7938 299.015 50.9004 298.38 50.9004C297.545 50.9004 296.854 50.7193 296.308 50.3571C295.761 49.9948 295.414 49.4657 295.269 48.7697L296.462 48.4714C296.576 48.9117 296.79 49.242 297.107 49.4622C297.426 49.6823 297.843 49.7924 298.358 49.7924C298.944 49.7924 299.409 49.6681 299.754 49.4196C300.102 49.1674 300.276 48.8656 300.276 48.514C300.276 48.2299 300.176 47.992 299.978 47.8002C299.779 47.6049 299.473 47.4593 299.061 47.3634L297.698 47.0438C296.949 46.8663 296.398 46.5911 296.047 46.2182C295.699 45.8418 295.525 45.3713 295.525 44.8066C295.525 44.345 295.654 43.9366 295.913 43.5815C296.176 43.2264 296.533 42.9476 296.984 42.7452C297.439 42.5428 297.953 42.4416 298.529 42.4416C299.338 42.4416 299.974 42.6191 300.436 42.9742C300.901 43.3294 301.231 43.7981 301.426 44.3805ZM306.898 50.9004C306.11 50.9004 305.43 50.7264 304.858 50.3784C304.29 50.0268 303.851 49.5367 303.543 48.9082C303.237 48.2761 303.084 47.541 303.084 46.7029C303.084 45.8649 303.237 45.1262 303.543 44.487C303.851 43.8443 304.281 43.3436 304.832 42.9849C305.386 42.6227 306.032 42.4416 306.771 42.4416C307.197 42.4416 307.617 42.5126 308.033 42.6546C308.448 42.7967 308.827 43.0275 309.168 43.3471C309.508 43.6632 309.78 44.0822 309.983 44.6042C310.185 45.1262 310.286 45.769 310.286 46.5325V47.0651H303.979V45.9785H309.008C309.008 45.5169 308.915 45.1049 308.731 44.7427C308.55 44.3805 308.29 44.0946 307.953 43.8851C307.619 43.6756 307.225 43.5708 306.771 43.5708C306.27 43.5708 305.837 43.6951 305.471 43.9437C305.109 44.1887 304.83 44.5083 304.634 44.9025C304.439 45.2967 304.342 45.7193 304.342 46.1703V46.8947C304.342 47.5126 304.448 48.0364 304.661 48.4661C304.878 48.8922 305.178 49.2171 305.561 49.4409C305.945 49.661 306.391 49.7711 306.898 49.7711C307.229 49.7711 307.527 49.7249 307.793 49.6326C308.063 49.5367 308.296 49.3947 308.491 49.2065C308.686 49.0147 308.837 48.7768 308.944 48.4927L310.158 48.8336C310.03 49.2455 309.816 49.6078 309.514 49.9203C309.212 50.2292 308.839 50.4707 308.395 50.6447C307.951 50.8151 307.452 50.9004 306.898 50.9004ZM315.757 42.5481V43.6134H311.517V42.5481H315.757ZM312.752 40.5879H314.009V48.3862C314.009 48.7413 314.061 49.0076 314.164 49.1852C314.271 49.3592 314.405 49.4764 314.569 49.5367C314.736 49.5936 314.911 49.622 315.096 49.622C315.235 49.622 315.348 49.6149 315.437 49.6007C315.526 49.5829 315.597 49.5687 315.65 49.558L315.906 50.6873C315.821 50.7193 315.702 50.7512 315.549 50.7832C315.396 50.8187 315.203 50.8365 314.968 50.8365C314.613 50.8365 314.265 50.7601 313.924 50.6074C313.587 50.4547 313.306 50.2221 313.083 49.9096C312.862 49.5971 312.752 49.2029 312.752 48.7271V40.5879ZM323.297 44.3805L322.167 44.7001C322.096 44.5119 321.992 44.329 321.853 44.1514C321.718 43.9703 321.533 43.8212 321.299 43.704C321.065 43.5868 320.765 43.5282 320.399 43.5282C319.898 43.5282 319.481 43.6436 319.147 43.8745C318.817 44.1017 318.652 44.3911 318.652 44.7427C318.652 45.0552 318.765 45.302 318.993 45.4831C319.22 45.6642 319.575 45.8151 320.058 45.9359L321.272 46.2342C322.004 46.4117 322.549 46.6834 322.908 47.0492C323.266 47.4114 323.446 47.8784 323.446 48.4501C323.446 48.9188 323.311 49.3379 323.041 49.7072C322.775 50.0765 322.402 50.3677 321.922 50.5808C321.443 50.7938 320.885 50.9004 320.25 50.9004C319.415 50.9004 318.725 50.7193 318.178 50.3571C317.631 49.9948 317.285 49.4657 317.139 48.7697L318.332 48.4714C318.446 48.9117 318.661 49.242 318.977 49.4622C319.296 49.6823 319.714 49.7924 320.228 49.7924C320.814 49.7924 321.28 49.6681 321.624 49.4196C321.972 49.1674 322.146 48.8656 322.146 48.514C322.146 48.2299 322.047 47.992 321.848 47.8002C321.649 47.6049 321.343 47.4593 320.932 47.3634L319.568 47.0438C318.819 46.8663 318.268 46.5911 317.917 46.2182C317.569 45.8418 317.395 45.3713 317.395 44.8066C317.395 44.345 317.524 43.9366 317.783 43.5815C318.046 43.2264 318.403 42.9476 318.854 42.7452C319.309 42.5428 319.824 42.4416 320.399 42.4416C321.209 42.4416 321.844 42.6191 322.306 42.9742C322.771 43.3294 323.101 43.7981 323.297 44.3805Z" fill="black"/>
</svg>
