<svg width="40" height="41" viewBox="0 0 40 41" fill="none" xmlns="http://www.w3.org/2000/svg">
<ellipse cx="20" cy="20.7299" rx="20" ry="20" fill="#43BA00"/>
<path opacity="0.4" d="M21.1391 11.1759L23.7366 16.1278C23.928 16.4866 24.2932 16.7357 24.7145 16.7911L30.5491 17.5972C30.8898 17.6426 31.1991 17.8132 31.4079 18.0734C31.6145 18.3303 31.7032 18.6558 31.653 18.9758C31.6122 19.2416 31.4803 19.4874 31.2784 19.6757L27.0507 23.5635C26.7414 23.8348 26.6014 24.2367 26.6761 24.6298L27.717 30.0955C27.8278 30.7555 27.3669 31.3778 26.6761 31.5029C26.3914 31.5461 26.0996 31.5007 25.8429 31.3767L20.6385 28.8044C20.2522 28.6195 19.7959 28.6195 19.4097 28.8044L14.2052 31.3767C13.5658 31.6989 12.7734 31.4797 12.4175 30.8817C12.2857 30.6436 12.239 30.3723 12.2822 30.1077L13.3231 24.6409C13.3977 24.2489 13.2565 23.8447 12.9485 23.5734L8.72073 19.6879C8.21779 19.2272 8.20262 18.4687 8.68689 17.9914C8.69739 17.9815 8.70906 17.9704 8.72073 17.9593C8.92144 17.7656 9.18516 17.6426 9.46989 17.6105L15.3045 16.8033C15.7246 16.7468 16.0898 16.4999 16.2824 16.1389L18.7866 11.1759C19.0094 10.7507 19.4715 10.4861 19.9733 10.4971H20.1297C20.5649 10.547 20.9442 10.8027 21.1391 11.1759Z" fill="white"/>
<path d="M19.9907 28.6665C19.7647 28.6731 19.5446 28.7307 19.3466 28.8337L14.1676 31.4002C13.5339 31.6871 12.7755 31.4644 12.4202 30.8896C12.2886 30.6547 12.2409 30.3856 12.2851 30.122L13.3195 24.6667C13.3894 24.2702 13.2496 23.867 12.9456 23.5879L8.71597 19.7033C8.21391 19.237 8.20459 18.4716 8.69616 17.9942C8.70315 17.9875 8.70898 17.982 8.71597 17.9765C8.91632 17.7881 9.17493 17.6641 9.45333 17.6253L15.2928 16.8101C15.7157 16.7591 16.0826 16.5088 16.269 16.1455L18.8072 11.12C19.0483 10.7146 19.5108 10.4732 20 10.4986C19.9907 10.8276 19.9907 28.4427 19.9907 28.6665Z" fill="white"/>
</svg>
