<svg width="26" height="26" viewBox="0 0 26 26" fill="none" xmlns="http://www.w3.org/2000/svg">
<path opacity="0.4" d="M17.8627 2.82007H8.14676C4.60614 2.82007 2.6001 4.82611 2.6001 8.36673V18.0734C2.6001 21.614 4.60614 23.6201 8.14676 23.6201H17.8627C21.4033 23.6201 23.4001 21.614 23.4001 18.0734V8.36673C23.4001 4.82611 21.4033 2.82007 17.8627 2.82007" fill="#808080"/>
<path d="M8.18346 10.4839C7.712 10.4839 7.32373 10.8722 7.32373 11.3529V18.4988C7.32373 18.9703 7.712 19.3586 8.18346 19.3586C8.66417 19.3586 9.05244 18.9703 9.05244 18.4988V11.3529C9.05244 10.8722 8.66417 10.4839 8.18346 10.4839" fill="#808080"/>
<path d="M13.037 7.07263C12.5655 7.07263 12.1772 7.4609 12.1772 7.94161V18.4988C12.1772 18.9702 12.5655 19.3585 13.037 19.3585C13.5177 19.3585 13.906 18.9702 13.906 18.4988V7.94161C13.906 7.4609 13.5177 7.07263 13.037 7.07263" fill="#808080"/>
<path d="M17.8256 14.2555C17.3449 14.2555 16.9567 14.6438 16.9567 15.1245V18.4987C16.9567 18.9702 17.3449 19.3584 17.8164 19.3584C18.2971 19.3584 18.6854 18.9702 18.6854 18.4987V15.1245C18.6854 14.6438 18.2971 14.2555 17.8256 14.2555" fill="#808080"/>
</svg>
