<svg width="14" height="14" viewBox="0 0 14 14" fill="none" xmlns="http://www.w3.org/2000/svg">
<g clip-path="url(#clip0_170_1303)">
<path fill-rule="evenodd" clip-rule="evenodd" d="M14 12.5C14 12.8978 13.842 13.2794 13.5607 13.5607C13.2794 13.842 12.8978 14 12.5 14H5.5C5.10218 14 4.72064 13.842 4.43934 13.5607C4.15804 13.2794 4 12.8978 4 12.5V10.561C4.40575 10.236 4.66902 9.76579 4.734 9.25H8.25C8.54547 9.25 8.83806 9.1918 9.11104 9.07873C9.38402 8.96566 9.63206 8.79992 9.84099 8.59099C10.0499 8.38206 10.2157 8.13402 10.3287 7.86104C10.4418 7.58806 10.5 7.29547 10.5 7C10.5 6.70453 10.4418 6.41194 10.3287 6.13896C10.2157 5.86598 10.0499 5.61794 9.84099 5.40901C9.63206 5.20008 9.38402 5.03434 9.11104 4.92127C8.83806 4.8082 8.54547 4.75 8.25 4.75L4.734 4.75C4.66902 4.23421 4.40575 3.764 4 3.439V1.5C4 1.10218 4.15804 0.720644 4.43934 0.43934C4.72064 0.158035 5.10218 0 5.5 0H12.5C12.8978 0 13.2794 0.158035 13.5607 0.43934C13.842 0.720644 14 1.10218 14 1.5L14 12.5ZM3.037 9.693C3.17406 9.63623 3.29121 9.54009 3.37362 9.41673C3.45604 9.29338 3.50002 9.14835 3.5 9V8H8.25C8.51522 8 8.76957 7.89464 8.95711 7.70711C9.14464 7.51957 9.25 7.26522 9.25 7C9.25 6.73478 9.14464 6.48043 8.95711 6.29289C8.76957 6.10536 8.51522 6 8.25 6H3.5L3.5 5C3.49987 4.85176 3.45581 4.70688 3.37339 4.58367C3.29097 4.46045 3.17389 4.36442 3.03692 4.30771C2.89996 4.251 2.74926 4.23615 2.60386 4.26503C2.45846 4.29392 2.32489 4.36524 2.22 4.47L0.22 6.47C0.0795498 6.61063 0.000659943 6.80125 0.000659943 7C0.000659943 7.19875 0.0795498 7.38937 0.22 7.53L2.22 9.53C2.32481 9.63489 2.45837 9.70636 2.60379 9.73537C2.7492 9.76438 2.89996 9.74964 3.037 9.693Z" fill="black"/>
</g>
<defs>
<clipPath id="clip0_170_1303">
<rect width="14" height="14" fill="white" transform="matrix(-1 0 0 -1 14 14)"/>
</clipPath>
</defs>
</svg>
