<svg version="1.1" id="Layer_1" xmlns="http://www.w3.org/2000/svg" xmlns:xlink="http://www.w3.org/1999/xlink" x="0px" y="0px"
	 width="100%" viewBox="0 0 500 500" enable-background="new 0 0 500 500" xml:space="preserve">
<path fill="#FDFDFD" opacity="1.000000" stroke="none" 
	d="
M290.000000,501.000000 
	C193.333359,501.000000 97.166710,501.000000 1.000051,501.000000 
	C1.000034,334.333405 1.000034,167.666794 1.000017,1.000141 
	C167.666565,1.000094 334.333130,1.000094 500.999756,1.000047 
	C500.999847,167.666519 500.999847,334.333038 500.999939,500.999786 
	C430.833344,501.000000 360.666656,501.000000 290.000000,501.000000 
M375.393127,250.744858 
	C377.362793,250.707993 379.332458,250.671112 382.126587,250.816406 
	C383.326202,251.997299 384.691833,253.057892 385.665924,254.402206 
	C386.294678,255.269928 386.349548,256.553497 386.661621,257.650696 
	C387.989807,256.549316 390.601654,255.173370 390.434479,254.391861 
	C389.466888,249.868378 392.985931,245.473969 390.149109,240.782196 
	C388.451172,237.973938 387.437469,237.308746 385.088654,239.483231 
	C384.272980,240.238358 383.607574,241.155792 382.743713,242.148270 
	C379.259186,239.877319 373.727448,239.980103 374.965149,233.078400 
	C375.204559,231.896301 375.443939,230.714218 376.045380,228.797684 
	C378.543121,224.884644 377.625519,217.914948 374.109711,214.877823 
	C373.566711,214.408752 372.097198,214.027283 371.928162,214.254364 
	C367.813354,219.782303 362.525940,215.379181 357.866394,215.998657 
	C354.369293,216.463593 350.876709,217.203476 347.370514,217.278336 
	C344.822021,217.332779 341.984802,215.591934 339.752106,216.254593 
	C335.198975,217.605927 332.158813,217.446167 327.346741,215.018326 
	C322.279602,212.461823 321.898254,210.077606 321.990723,205.904938 
	C322.042389,203.573151 322.011017,201.239212 321.997833,198.906357 
	C321.963440,192.816666 321.319550,192.067001 315.054413,192.047729 
	C311.956146,192.038193 310.824921,191.105576 309.641693,187.873383 
	C308.499573,184.753448 305.123749,181.414719 301.986908,180.341187 
	C298.572205,179.172562 297.941528,177.754639 297.974335,174.791916 
	C298.053589,167.627365 298.267548,160.444214 297.812988,153.307678 
	C297.696167,151.473053 295.637146,148.806625 293.892731,148.209396 
	C288.546356,146.378937 286.008331,143.616608 286.003021,137.876633 
	C285.992676,126.711891 286.001068,115.547142 285.999603,104.382393 
	C285.998657,97.323792 284.167725,95.202614 277.019318,95.079926 
	C272.570038,95.003548 268.108246,95.953476 263.651672,95.957314 
	C193.163849,96.018044 122.675949,96.015152 52.188122,95.959923 
	C48.231026,95.956825 44.256508,94.981133 40.322044,95.160179 
	C35.397991,95.384262 30.114998,95.414474 25.732685,97.280098 
	C22.544886,98.637199 19.500933,102.462601 18.317829,105.858215 
	C16.843849,110.088669 17.048731,115.008545 17.044912,119.631157 
	C16.981865,195.951294 16.962334,272.271545 17.044132,348.591644 
	C17.055338,359.047211 17.556448,369.506836 18.023430,379.955963 
	C18.449373,389.486908 23.306845,393.998352 32.769009,393.998505 
	C173.578110,394.000671 314.387207,394.000031 455.196320,393.999298 
	C456.362732,393.999298 457.543243,394.103912 458.693207,393.963318 
	C465.514526,393.129395 471.298706,388.155029 471.155396,380.483459 
	C470.474548,344.038818 470.153931,307.584656 470.042358,271.132843 
	C469.878143,217.475891 470.009979,163.818085 469.960175,110.160706 
	C469.958344,108.193703 469.370789,106.227242 469.056183,104.260529 
	C468.551636,104.364372 468.047119,104.468208 467.542603,104.572052 
	C467.694977,106.326485 467.979736,108.080872 467.980469,109.835373 
	C468.003723,165.325806 468.012482,220.816269 467.978699,276.306702 
	C467.975403,281.735107 465.792145,283.906311 460.430176,283.977173 
	C453.599213,284.067474 446.754669,283.759125 439.937988,284.083893 
	C435.335571,284.303131 433.429993,282.762909 433.968567,278.106140 
	C434.492981,273.571228 432.204071,271.829407 427.756287,271.952362 
	C421.095825,272.136383 414.389862,271.570404 407.772675,272.135925 
	C402.477844,272.588409 399.794922,270.481537 399.475098,265.663635 
	C399.128448,260.442230 395.523804,260.044220 391.615234,259.095337 
	C391.137329,261.182739 390.722565,262.994415 390.143921,265.522034 
	C386.595642,262.626312 383.610229,260.189911 381.056305,258.105652 
	C378.320465,257.255280 375.900177,256.502991 373.031799,255.611404 
	C369.107666,262.850983 362.573181,262.660004 355.188538,260.179962 
	C356.386688,254.004898 359.188660,259.291809 361.714386,259.593781 
	C362.974762,257.891235 364.293304,256.110138 365.611847,254.329056 
	C365.196320,253.996490 364.780792,253.663925 364.365265,253.331345 
	C362.991089,254.256226 361.616943,255.181091 359.343353,256.711304 
	C359.188934,254.152267 359.094604,252.589233 359.752014,250.843643 
	C361.290314,250.855316 362.828613,250.866989 365.196228,250.769608 
	C368.345306,250.781662 371.494415,250.793716 375.393127,250.744858 
z"/>
<path fill="#FCFCFC" opacity="1.000000" stroke="none" 
	d="
M359.000275,251.026199 
	C359.094604,252.589233 359.188934,254.152267 359.343353,256.711304 
	C361.616943,255.181091 362.991089,254.256226 364.365265,253.331345 
	C364.780792,253.663925 365.196320,253.996490 365.611847,254.329056 
	C364.293304,256.110138 362.974762,257.891235 361.714386,259.593781 
	C359.188660,259.291809 356.386688,254.004898 355.188538,260.179962 
	C362.573181,262.660004 369.107666,262.850983 373.031799,255.611404 
	C375.900177,256.502991 378.320465,257.255280 381.056305,258.105652 
	C383.610229,260.189911 386.595642,262.626312 390.143921,265.522034 
	C390.722565,262.994415 391.137329,261.182739 391.615234,259.095337 
	C395.523804,260.044220 399.128448,260.442230 399.475098,265.663635 
	C399.794922,270.481537 402.477844,272.588409 407.772675,272.135925 
	C414.389862,271.570404 421.095825,272.136383 427.756287,271.952362 
	C432.204071,271.829407 434.492981,273.571228 433.968567,278.106140 
	C433.429993,282.762909 435.335571,284.303131 439.937988,284.083893 
	C446.754669,283.759125 453.599213,284.067474 460.430176,283.977173 
	C465.792145,283.906311 467.975403,281.735107 467.978699,276.306702 
	C468.012482,220.816269 468.003723,165.325806 467.980469,109.835373 
	C467.979736,108.080872 467.694977,106.326485 467.542603,104.572052 
	C468.047119,104.468208 468.551636,104.364372 469.056183,104.260529 
	C469.370789,106.227242 469.958344,108.193703 469.960175,110.160706 
	C470.009979,163.818085 469.878143,217.475891 470.042358,271.132843 
	C470.153931,307.584656 470.474548,344.038818 471.155396,380.483459 
	C471.298706,388.155029 465.514526,393.129395 458.693207,393.963318 
	C457.543243,394.103912 456.362732,393.999298 455.196320,393.999298 
	C314.387207,394.000031 173.578110,394.000671 32.769009,393.998505 
	C23.306845,393.998352 18.449373,389.486908 18.023430,379.955963 
	C17.556448,369.506836 17.055338,359.047211 17.044132,348.591644 
	C16.962334,272.271545 16.981865,195.951294 17.044912,119.631157 
	C17.048731,115.008545 16.843849,110.088669 18.317829,105.858215 
	C19.500933,102.462601 22.544886,98.637199 25.732685,97.280098 
	C30.114998,95.414474 35.397991,95.384262 40.322044,95.160179 
	C44.256508,94.981133 48.231026,95.956825 52.188122,95.959923 
	C122.675949,96.015152 193.163849,96.018044 263.651672,95.957314 
	C268.108246,95.953476 272.570038,95.003548 277.019318,95.079926 
	C284.167725,95.202614 285.998657,97.323792 285.999603,104.382393 
	C286.001068,115.547142 285.992676,126.711891 286.003021,137.876633 
	C286.008331,143.616608 288.546356,146.378937 293.892731,148.209396 
	C295.637146,148.806625 297.696167,151.473053 297.812988,153.307678 
	C298.267548,160.444214 298.053589,167.627365 297.974335,174.791916 
	C297.941528,177.754639 298.572205,179.172562 301.986908,180.341187 
	C305.123749,181.414719 308.499573,184.753448 309.641693,187.873383 
	C310.824921,191.105576 311.956146,192.038193 315.054413,192.047729 
	C321.319550,192.067001 321.963440,192.816666 321.997833,198.906357 
	C322.011017,201.239212 322.042389,203.573151 321.990723,205.904938 
	C321.898254,210.077606 322.279602,212.461823 327.346741,215.018326 
	C332.158813,217.446167 335.198975,217.605927 339.752106,216.254593 
	C341.984802,215.591934 344.822021,217.332779 347.370514,217.278336 
	C350.876709,217.203476 354.369293,216.463593 357.866394,215.998657 
	C362.525940,215.379181 367.813354,219.782303 371.928162,214.254364 
	C372.097198,214.027283 373.566711,214.408752 374.109711,214.877823 
	C377.625519,217.914948 378.543121,224.884644 375.659821,228.952972 
	C374.911041,228.654129 374.547852,228.199982 374.130066,227.441925 
	C372.992645,225.960846 371.909790,224.783707 370.850830,223.266479 
	C370.561798,222.437973 370.248871,221.949539 369.935913,221.461121 
	C369.623962,221.975418 369.311981,222.489746 368.662231,223.071960 
	C367.866791,223.168762 367.409119,223.197647 366.699524,223.015808 
	C364.966278,222.943634 363.484985,223.082153 361.565613,223.177216 
	C358.792603,223.231964 356.457764,223.330170 353.884094,223.299973 
	C353.347839,223.457748 353.050415,223.743912 352.752991,224.030090 
	C353.179779,224.332489 353.606567,224.634888 354.331543,225.263702 
	C356.132782,234.131592 357.385620,242.658859 352.846924,250.912903 
	C351.119690,250.318741 349.739227,249.688599 348.366699,248.772125 
	C348.462708,248.114014 348.550812,247.742233 348.878418,247.186432 
	C348.997009,246.112061 348.876068,245.221680 348.755127,244.331299 
	C348.120544,244.831589 347.485992,245.331879 346.555267,245.961960 
	C345.158478,246.702438 344.057861,247.313141 342.538849,247.923767 
	C339.711823,247.677704 337.303192,247.431717 334.787262,246.814301 
	C334.792542,243.636429 334.905121,240.829956 335.411377,238.040100 
	C337.907318,238.602783 340.009521,239.148834 342.528381,239.803116 
	C343.390533,238.031219 344.326080,236.108475 345.334930,234.035065 
	C343.874268,234.241730 342.928528,234.375534 341.966278,234.141541 
	C341.569458,233.375610 341.189148,232.977493 340.808807,232.579361 
	C340.572327,233.270950 340.335876,233.962555 339.792236,234.885284 
	C337.804626,234.787750 336.124115,234.459061 334.460449,233.731522 
	C334.614624,232.555832 334.751923,231.779022 335.246735,230.995392 
	C336.228027,230.685089 336.851837,230.381638 337.475616,230.078171 
	C336.592957,229.718094 335.710327,229.358017 334.706299,228.639740 
	C334.738739,227.546219 334.892548,226.810913 335.449768,225.973938 
	C338.350250,226.349884 340.847382,226.827499 343.193909,227.645447 
	C342.841461,228.780228 342.639648,229.574646 342.437805,230.369049 
	C342.675903,230.456345 342.913971,230.543625 343.152039,230.630905 
	C343.507416,229.905991 343.862793,229.181076 344.543030,228.499969 
	C345.767639,227.025726 346.667419,225.507675 347.911194,223.972107 
	C348.660736,223.593231 349.066284,223.231873 349.471832,222.870514 
	C349.237427,222.734924 348.862183,222.431625 348.791534,222.490982 
	C348.337952,222.872009 347.951141,223.332550 347.273529,223.512329 
	C343.280884,223.328369 339.557098,223.399048 335.407898,223.420685 
	C332.975616,223.361115 330.968750,223.350571 328.801208,223.132233 
	C327.948364,223.170364 327.256134,223.416306 326.563934,223.662231 
	C327.045044,224.104553 327.526184,224.546875 328.217712,225.201355 
	C328.789215,225.887192 329.150238,226.360886 329.440887,227.308563 
	C329.517151,233.918808 329.663818,240.055115 329.629089,246.475159 
	C328.644379,247.524078 327.841095,248.289246 326.741516,249.027313 
	C326.181427,249.443710 325.917572,249.887238 325.653687,250.330780 
	C326.171814,250.414139 326.689941,250.497513 327.643799,250.607758 
	C330.991455,250.575897 333.903412,250.517197 337.246246,250.616684 
	C339.521790,250.869644 341.366455,250.964417 343.456787,251.285767 
	C344.877838,253.303284 346.053253,255.094208 347.626709,257.491608 
	C344.280182,257.771790 339.889404,255.396652 341.598206,259.916107 
	C342.732666,262.916443 341.814026,264.810059 341.486206,267.265839 
	C341.294128,268.704895 341.571167,271.373596 342.180023,271.543457 
	C344.403442,272.163818 347.896667,272.972870 348.983551,271.848022 
	C350.740295,270.029877 352.464294,265.976685 351.564758,264.210754 
	C348.920929,259.020386 351.110077,255.094131 353.565247,250.812225 
	C355.655640,250.862274 357.327942,250.944244 359.000275,251.026199 
M193.690292,266.673004 
	C194.234558,266.484283 194.778839,266.295532 195.818314,265.660187 
	C195.848587,264.785004 195.878845,263.909790 196.712006,263.014801 
	C201.573853,262.365814 207.131668,262.919434 208.163361,255.312775 
	C209.341385,256.693939 210.197876,257.307281 210.507614,258.127167 
	C212.060104,262.236664 213.460297,265.664825 218.733124,261.474884 
	C220.073151,260.410065 223.131042,261.507019 225.399612,261.610687 
	C224.983307,263.532898 224.441528,265.439209 224.194855,267.382965 
	C224.030792,268.675812 223.880569,270.936310 224.429779,271.181183 
	C226.459167,272.086060 228.772736,272.556946 231.001892,272.649139 
	C231.482422,272.669037 232.111877,270.452545 232.574600,269.229095 
	C233.319626,267.259186 233.603729,264.982239 234.791382,263.351074 
	C235.899567,261.829010 237.931183,260.979248 239.556335,259.833557 
	C239.478363,259.424133 239.400375,259.014709 239.322388,258.605286 
	C235.123306,258.605286 230.924210,258.597931 226.725143,258.607361 
	C222.537476,258.616760 218.205154,259.120087 215.082260,255.938110 
	C216.696701,253.927002 217.848038,252.492752 219.814056,250.874039 
	C221.723007,250.786621 223.631958,250.699203 225.426529,250.617035 
	C223.699982,247.312088 222.020905,244.396164 220.620911,241.351883 
	C218.205765,236.100159 216.025604,230.740189 213.597534,225.494751 
	C213.114899,224.452133 211.961502,223.719986 211.117416,222.844681 
	C210.366577,223.768204 209.414001,224.591400 208.896805,225.631149 
	C204.758560,233.950500 200.702667,242.310791 195.784317,250.878952 
	C194.858688,252.208435 193.238266,253.496033 193.155045,254.876312 
	C192.992157,257.578033 193.686844,260.331421 194.159363,263.569336 
	C194.056549,264.372955 193.953735,265.176544 193.690292,266.673004 
M146.429077,271.170990 
	C146.373062,270.322632 146.317047,269.474243 146.941696,267.970734 
	C146.999802,261.612030 147.057907,255.253342 147.071899,248.059875 
	C146.397842,245.781174 145.723785,243.502457 145.049728,241.223755 
	C143.007080,243.965057 141.524292,246.192886 141.451309,248.465958 
	C141.251328,254.695755 141.644135,260.944580 141.971497,267.642181 
	C142.141739,267.929230 142.374283,268.150940 142.760117,269.093109 
	C144.369888,270.536774 140.815552,274.326691 145.628464,274.279694 
	C145.859650,274.059113 146.131226,273.914337 147.234024,273.917297 
	C148.004395,273.721222 148.774750,273.525146 149.545120,273.329071 
	C149.529388,273.060730 149.513657,272.792389 149.497925,272.524078 
	C148.529480,272.354095 147.561035,272.184143 146.429077,271.170990 
M167.762726,225.306854 
	C167.515884,227.212173 167.269043,229.117477 166.512680,231.122620 
	C166.328308,231.400253 166.143936,231.677887 165.316223,232.143951 
	C164.601685,233.428497 163.887146,234.713043 162.402191,235.999359 
	C161.380173,235.999054 160.358154,235.998734 159.116089,235.126129 
	C158.250351,230.493896 157.384628,225.861664 156.518906,221.229446 
	C150.500366,237.690903 152.304306,245.342300 156.124435,255.279846 
	C156.843628,252.958069 157.436050,251.045486 158.798904,249.749039 
	C160.277191,250.166626 161.755478,250.584198 163.635941,251.561462 
	C164.351669,253.709335 165.067413,255.857224 165.197372,258.121918 
	C165.564850,258.714050 165.932327,259.306183 166.988098,259.728241 
	C167.736664,257.224945 168.485245,254.721634 169.880402,251.625595 
	C170.155762,247.755554 170.431122,243.885529 171.543793,240.003372 
	C172.963333,239.899063 174.382858,239.794769 176.555420,239.859497 
	C177.083511,242.094284 177.611603,244.329071 178.139709,246.563858 
	C179.650803,244.561859 179.716858,242.463455 180.413971,240.601288 
	C183.846649,231.431717 181.546326,222.512680 179.355072,213.606979 
	C179.229141,213.095078 177.529602,212.970337 176.305756,211.818344 
	C175.870239,211.417725 175.434738,211.017090 174.999222,210.616470 
	C174.757385,210.971924 174.515549,211.327377 174.273712,211.682831 
	C175.062469,212.048187 175.851212,212.413544 177.246063,213.356415 
	C176.451721,216.904907 175.657379,220.453400 174.029373,224.006332 
	C172.135941,224.450089 170.242523,224.893845 167.762726,225.306854 
M120.788673,236.767868 
	C120.864311,237.842209 120.939949,238.916534 120.866600,240.636169 
	C121.564980,240.950409 122.263367,241.264648 123.027985,242.265656 
	C123.831192,242.469116 125.137001,243.078064 125.354263,242.808792 
	C126.567924,241.304428 127.518341,239.587677 128.579712,237.910278 
	C127.101616,236.779694 125.846298,235.819504 124.556435,234.330261 
	C124.473549,234.174179 124.390663,234.018082 124.757828,233.047485 
	C124.885231,227.364304 125.012627,221.681137 125.804520,215.983780 
	C126.378975,215.606796 126.953430,215.229813 127.527885,214.852814 
	C126.661972,214.949936 125.796059,215.047043 124.434349,215.087845 
	C124.434349,215.087845 123.938622,215.030869 123.594528,214.309357 
	C122.967850,212.288727 122.341164,210.268082 121.714485,208.247452 
	C121.253304,208.357437 120.792130,208.467438 120.330956,208.577423 
	C120.632530,210.389343 120.934113,212.201279 120.856026,214.399078 
	C120.576004,214.617508 120.295990,214.835938 119.241859,215.139435 
	C119.425980,221.498947 119.610100,227.858444 119.990517,234.002731 
	C119.990517,234.002731 119.783783,234.208221 119.872231,234.745010 
	C120.231422,235.153503 120.590622,235.562012 120.788673,236.767868 
M251.067368,249.303986 
	C250.946320,248.042175 250.825272,246.780350 250.801498,246.532516 
	C248.161118,247.280212 246.071838,248.165375 243.912827,248.395035 
	C242.014496,248.596939 240.038101,248.065170 237.812103,247.098999 
	C237.784576,239.243011 235.480316,231.178726 239.858887,223.308136 
	C236.477707,223.308136 233.005432,223.308136 228.634644,223.308136 
	C233.981461,227.484924 232.062622,232.592087 232.067307,237.125320 
	C232.071899,241.585327 231.084824,246.046341 230.520615,250.606186 
	C232.875168,250.606186 236.347519,250.606186 240.700104,250.881821 
	C244.098236,250.550766 247.496353,250.219711 250.980362,250.695892 
	C251.503952,251.423309 252.076263,252.810013 252.543533,252.775497 
	C256.894104,252.454025 257.629578,255.319763 258.127563,258.606323 
	C258.237640,259.332703 258.850311,259.982941 259.064667,260.368286 
	C262.141846,259.953186 264.837036,259.589600 266.998657,259.298004 
	C266.049103,256.519257 265.072144,253.660202 265.016174,250.731674 
	C266.125214,250.581421 267.234253,250.431152 267.710052,250.366684 
	C264.981354,245.985031 262.496033,241.994202 260.216888,237.362503 
	C260.138397,235.577164 260.059906,233.791824 260.220154,231.329651 
	C261.812897,229.550278 263.405670,227.770905 265.851074,226.152115 
	C268.778534,226.501129 271.702545,226.883591 274.634949,227.184387 
	C276.007690,227.325195 277.416809,227.449310 278.763062,227.256775 
	C279.072479,227.212524 279.556305,225.309906 279.337585,225.157898 
	C278.069702,224.276733 276.608673,223.059616 275.226044,223.075729 
	C271.483612,223.119431 267.747681,223.725540 263.331543,223.988113 
	C261.471649,225.792511 259.611786,227.596909 257.246887,229.772018 
	C256.967010,230.524918 256.687134,231.277817 256.027100,232.878769 
	C254.545181,239.200684 255.821426,244.693970 260.151276,249.378296 
	C257.058167,249.554581 253.965042,249.730865 251.067368,249.303986 
M296.904602,223.174561 
	C293.416962,223.174561 289.929321,223.174561 285.745880,223.174561 
	C290.300598,228.347031 290.230072,243.640854 285.428925,250.909653 
	C283.318390,250.440125 281.207855,249.970581 279.688690,248.887939 
	C280.129669,245.639282 280.570679,242.390640 281.015228,239.115692 
	C277.959381,239.115692 274.646881,239.115692 270.838440,239.115692 
	C276.682068,244.607849 276.006622,247.167755 268.288025,249.807144 
	C269.194214,250.307144 269.845886,250.666718 269.857727,251.264481 
	C268.954346,255.025879 272.920258,265.118134 275.923462,266.351807 
	C276.705322,266.673004 277.849609,266.590454 278.664581,266.273926 
	C283.470612,264.407379 287.634827,266.682983 289.143768,271.623962 
	C289.584351,273.066620 291.451569,274.073547 292.664856,275.280212 
	C292.963287,274.942932 293.261688,274.605621 293.560089,274.268341 
	C293.079437,272.344086 292.598755,270.419861 292.118103,268.495605 
	C292.530914,268.254791 292.943695,268.013947 293.356506,267.773132 
	C294.706848,269.061554 296.057190,270.349976 297.623077,271.844055 
	C298.482666,270.264832 299.250519,268.854095 300.199188,267.111176 
	C302.285126,272.851166 302.917786,273.046570 306.530334,269.909546 
	C305.942902,268.128601 305.401794,266.488068 304.860657,264.847534 
	C306.599701,265.070984 308.338745,265.294403 310.285309,265.544495 
	C317.278290,260.008911 320.505615,259.174255 322.715759,267.322876 
	C325.198578,267.322876 327.881439,266.682068 329.999512,267.501373 
	C332.159576,268.336914 333.764435,270.607697 336.008514,272.602173 
	C338.818909,259.954041 337.364655,257.363831 327.089722,257.007446 
	C324.334076,256.911865 322.515686,256.312805 323.422119,252.830353 
	C323.613953,252.093430 322.195557,250.937363 321.389038,249.345993 
	C321.608398,248.610504 321.827759,247.875015 322.039642,247.164520 
	C317.495972,247.824860 313.017242,248.475754 308.538513,249.126648 
	C308.254272,248.612213 307.970032,248.097763 307.685791,247.583328 
	C312.588196,239.882446 317.490601,232.181580 323.174988,223.252335 
	C315.591492,223.252335 309.371002,223.139923 303.166107,223.399521 
	C302.419647,223.430756 301.757538,225.477722 301.036713,226.621521 
	C305.903351,226.621521 310.175934,226.621521 315.230072,226.621521 
	C312.491119,230.753922 310.105560,234.121811 307.966492,237.639587 
	C305.340240,241.958511 302.919922,246.402664 299.359314,250.855362 
	C298.662933,250.776367 297.966583,250.697372 297.172180,249.967697 
	C296.268707,248.394592 294.696594,246.865082 294.590607,245.239944 
	C294.304169,240.848099 294.641418,236.415558 295.471252,231.992966 
	C296.170105,231.523056 296.868958,231.053131 297.567810,230.583206 
	C296.623505,230.054413 295.679199,229.525620 294.502136,228.278381 
	C295.582275,226.640259 296.662445,225.002136 298.341766,223.111557 
	C298.713623,222.666626 299.085480,222.221680 299.457336,221.776749 
	C299.219513,221.616928 298.981689,221.457123 298.743866,221.297318 
	C298.374573,221.950684 298.005280,222.604034 296.904602,223.174561 
M427.500000,392.000000 
	C436.443207,392.000000 445.386414,392.000000 454.329651,392.000000 
	C454.312958,391.568085 454.296265,391.136169 454.279602,390.704254 
	C317.427673,390.704254 180.575775,390.704254 43.723862,390.704254 
	C43.724209,391.136169 43.724556,391.568085 43.724903,392.000000 
	C171.316605,392.000000 298.908295,392.000000 427.500000,392.000000 
M202.500000,98.000000 
	C149.570496,98.000000 96.641006,98.000000 43.711506,98.000000 
	C43.714691,98.440430 43.717876,98.880859 43.721062,99.321289 
	C119.241867,99.321289 194.762680,99.321289 270.283478,99.321289 
	C270.284607,98.880859 270.285706,98.440430 270.286835,98.000000 
	C248.024551,98.000000 225.762283,98.000000 202.500000,98.000000 
M375.437347,280.000000 
	C377.436279,279.999237 379.462830,280.198578 381.424500,279.927948 
	C382.748993,279.745178 385.014435,279.005890 385.083527,278.333130 
	C385.450500,274.761230 385.256042,271.131653 385.256042,267.522034 
	C383.985992,268.894073 382.860809,270.545349 383.255157,271.657990 
	C385.576080,278.205780 381.552155,278.052673 377.114380,278.030457 
	C361.457001,277.952057 345.795593,277.797638 330.142120,278.057373 
	C314.725739,278.313141 299.326141,277.614227 283.903046,277.882141 
	C258.758209,278.318817 233.600128,278.044952 208.448029,277.956329 
	C204.186737,277.941315 199.927444,277.351807 195.880768,277.043915 
	C195.161148,275.079529 194.644211,273.668396 194.047363,272.039154 
	C193.245346,272.688293 192.658112,272.921356 192.517990,273.313995 
	C190.910065,277.819672 193.031616,279.995422 199.056641,279.996094 
	C257.523468,280.002594 315.990326,280.000000 375.437347,280.000000 
M112.185852,254.979309 
	C115.203545,249.437027 114.176987,235.903534 110.528465,233.129303 
	C105.714203,236.708450 105.671501,251.548157 111.023903,262.267914 
	C111.380096,259.407104 111.608849,257.569794 112.185852,254.979309 
M131.008575,248.204590 
	C132.692200,247.583206 135.831024,246.970352 135.834732,246.339096 
	C135.872513,239.910736 137.937729,233.183929 134.132355,227.049347 
	C129.587814,229.214249 128.029114,239.389618 131.008575,248.204590 
M251.589798,262.871124 
	C252.549149,263.942535 253.508499,265.013947 254.467850,266.085358 
	C254.892288,265.672211 255.316711,265.259064 255.741135,264.845917 
	C254.483795,264.021240 253.226456,263.196533 251.589798,262.871124 
M184.722855,265.116669 
	C184.531067,264.575500 184.339264,264.034302 184.147476,263.493164 
	C183.869553,263.619751 183.591629,263.746338 183.313690,263.872894 
	C183.638702,264.430084 183.963730,264.987274 184.722855,265.116669 
M110.735474,228.198380 
	C110.758675,228.242462 110.781883,228.286560 110.805092,228.330658 
	C110.549568,228.274368 110.294044,228.218079 110.038521,228.161774 
	C110.192207,228.173615 110.345886,228.185455 110.735474,228.198380 
M184.800629,269.394501 
	C184.796402,269.786804 184.792175,270.179108 184.787949,270.571411 
	C184.950577,270.572876 185.254532,270.585266 185.255386,270.574249 
	C185.285553,270.184082 185.287308,269.791718 184.800629,269.394501 
M323.201050,219.605682 
	C323.205292,219.213272 323.209534,218.820862 323.213806,218.428452 
	C323.050964,218.426895 322.746613,218.414413 322.745789,218.425385 
	C322.715607,218.815857 322.713837,219.208511 323.201050,219.605682 
M168.394379,220.201019 
	C168.786758,220.205246 169.179123,220.209488 169.571503,220.213715 
	C169.573044,220.050888 169.585526,219.746552 169.574554,219.745712 
	C169.184113,219.715546 168.791489,219.713760 168.394379,220.201019 
M191.625885,266.281525 
	C191.531128,266.349121 191.436386,266.416687 191.341629,266.484283 
	C191.427505,266.562622 191.510025,266.698029 191.600159,266.703278 
	C191.690903,266.708588 191.789185,266.584534 191.625885,266.281525 
z"/>
<path fill="#FCFCFC" opacity="1.000000" stroke="none" 
	d="
M374.880249,233.683868 
	C373.727448,239.980103 379.259186,239.877319 382.743713,242.148270 
	C383.607574,241.155792 384.272980,240.238358 385.088654,239.483231 
	C387.437469,237.308746 388.451172,237.973938 390.149109,240.782196 
	C392.985931,245.473969 389.466888,249.868378 390.434479,254.391861 
	C390.601654,255.173370 387.989807,256.549316 386.661621,257.650696 
	C386.349548,256.553497 386.294678,255.269928 385.665924,254.402206 
	C384.691833,253.057892 383.326202,251.997299 381.603088,250.475464 
	C377.529877,246.192444 373.956055,242.271317 370.481232,238.264313 
	C370.231384,237.976212 370.704742,237.060959 371.138458,236.437836 
	C372.283569,235.612289 373.132050,234.786240 374.207703,233.898376 
	C374.434875,233.836563 374.880249,233.683868 374.880249,233.683868 
z"/>
<path fill="#4D4D4D" opacity="1.000000" stroke="none" 
	d="
M353.193695,250.876907 
	C357.385620,242.658859 356.132782,234.131592 354.357483,225.012131 
	C354.097778,224.098892 354.110321,223.763626 354.122894,223.428375 
	C356.457764,223.330170 358.792603,223.231964 361.525757,223.402649 
	C361.924042,223.671539 361.966461,224.127411 362.011658,224.454544 
	C362.092712,224.998871 362.128601,225.216080 361.990540,225.716309 
	C361.548218,229.327698 361.279816,232.656067 360.965515,236.296875 
	C360.874817,237.727951 360.829987,238.846588 360.809540,240.351410 
	C360.793732,241.508484 360.753540,242.279373 360.479370,243.276733 
	C360.501709,244.669327 360.758118,245.835434 361.171051,247.287064 
	C362.340729,248.674606 363.353821,249.776627 364.366913,250.878662 
	C362.828613,250.866989 361.290314,250.855316 359.376160,250.934921 
	C357.327942,250.944244 355.655640,250.862274 353.529175,250.887955 
	C353.075012,250.995605 353.193695,250.876907 353.193695,250.876907 
z"/>
<path fill="#565656" opacity="1.000000" stroke="none" 
	d="
M370.841858,236.437317 
	C370.704742,237.060959 370.231384,237.976212 370.481232,238.264313 
	C373.956055,242.271317 377.529877,246.192444 381.190857,250.384384 
	C379.332458,250.671112 377.362793,250.707993 374.842407,250.465240 
	C370.870636,246.418289 367.449585,242.650940 363.907104,238.590332 
	C363.504791,237.725479 363.223846,237.153900 363.295105,236.541199 
	C365.056458,236.317871 366.465637,236.135651 368.374207,235.996643 
	C369.529663,236.172348 370.185760,236.304825 370.841858,236.437317 
z"/>
<path fill="#FCFCFC" opacity="1.000000" stroke="none" 
	d="
M364.028503,238.883591 
	C367.449585,242.650940 370.870636,246.418289 374.467590,250.495697 
	C371.494415,250.793716 368.345306,250.781662 364.781555,250.824127 
	C363.353821,249.776627 362.340729,248.674606 361.340210,247.024124 
	C361.139679,245.333847 360.926514,244.192047 360.713379,243.050247 
	C360.753540,242.279373 360.793732,241.508484 361.129547,240.222183 
	C362.292938,239.432358 363.160736,239.157974 364.028503,238.883591 
z"/>
<path fill="#797979" opacity="1.000000" stroke="none" 
	d="
M374.922699,233.381134 
	C374.880249,233.683868 374.434875,233.836563 374.187195,233.455734 
	C374.021210,231.298553 374.102936,229.522202 374.184631,227.745850 
	C374.547852,228.199982 374.911041,228.654129 375.478790,229.320190 
	C375.443939,230.714218 375.204559,231.896301 374.922699,233.381134 
z"/>
<path fill="#FDFDFD" opacity="1.000000" stroke="none" 
	d="
M427.000000,392.000000 
	C298.908295,392.000000 171.316605,392.000000 43.724903,392.000000 
	C43.724556,391.568085 43.724209,391.136169 43.723862,390.704254 
	C180.575775,390.704254 317.427673,390.704254 454.279602,390.704254 
	C454.296265,391.136169 454.312958,391.568085 454.329651,392.000000 
	C445.386414,392.000000 436.443207,392.000000 427.000000,392.000000 
z"/>
<path fill="#FDFDFD" opacity="1.000000" stroke="none" 
	d="
M279.097321,249.501053 
	C281.207855,249.970581 283.318390,250.440125 286.066528,250.830521 
	C286.704163,250.751389 287.000458,250.961411 287.001923,251.358490 
	C288.113159,255.738083 293.619537,258.412354 298.125732,257.306091 
	C297.418396,255.222549 296.709412,253.134140 296.201355,250.943924 
	C296.676605,250.709595 296.965942,250.635010 297.270203,250.618378 
	C297.966583,250.697372 298.662933,250.776367 300.267822,250.790039 
	C302.450989,250.804977 303.725647,250.885254 305.000244,251.397278 
	C306.039642,255.459381 307.079071,259.089722 308.118500,262.720062 
	C308.740021,262.919067 309.361542,263.118073 309.983063,263.317108 
	C308.314056,252.169113 316.624420,257.441437 320.920990,256.046936 
	C319.728638,254.008514 318.864685,252.531540 318.315887,250.982758 
	C319.593719,250.598740 320.556396,250.286560 321.519073,249.974396 
	C322.195557,250.937363 323.613953,252.093430 323.422119,252.830353 
	C322.515686,256.312805 324.334076,256.911865 327.089722,257.007446 
	C337.364655,257.363831 338.818909,259.954041 336.008514,272.602173 
	C333.764435,270.607697 332.159576,268.336914 329.999512,267.501373 
	C327.881439,266.682068 325.198578,267.322876 322.715759,267.322876 
	C320.505615,259.174255 317.278290,260.008911 310.285309,265.544495 
	C308.338745,265.294403 306.599701,265.070984 304.860657,264.847534 
	C305.401794,266.488068 305.942902,268.128601 306.530334,269.909546 
	C302.917786,273.046570 302.285126,272.851166 300.199188,267.111176 
	C299.250519,268.854095 298.482666,270.264832 297.623077,271.844055 
	C296.057190,270.349976 294.706848,269.061554 293.356506,267.773132 
	C292.943695,268.013947 292.530914,268.254791 292.118103,268.495605 
	C292.598755,270.419861 293.079437,272.344086 293.560089,274.268341 
	C293.261688,274.605621 292.963287,274.942932 292.664856,275.280212 
	C291.451569,274.073547 289.584351,273.066620 289.143768,271.623962 
	C287.634827,266.682983 283.470612,264.407379 278.664581,266.273926 
	C277.849609,266.590454 276.705322,266.673004 275.923462,266.351807 
	C272.920258,265.118134 268.954346,255.025879 270.617188,251.145660 
	C273.950226,250.518234 276.523773,250.009644 279.097321,249.501053 
M276.215851,257.221466 
	C280.960175,263.148712 282.528412,263.817169 286.523560,262.310028 
	C285.025452,260.519318 283.236328,258.565887 281.662323,256.452301 
	C279.703094,253.821365 277.937164,253.185516 276.215851,257.221466 
M297.994843,262.980133 
	C299.500214,262.898651 301.005554,262.817169 302.510925,262.735687 
	C302.586700,262.235687 302.662506,261.735687 302.738281,261.235687 
	C301.491821,260.991486 300.188721,260.422272 299.020294,260.625885 
	C298.327972,260.746613 297.848206,262.087036 297.994843,262.980133 
M329.938751,265.198853 
	C331.599945,261.238342 331.362854,260.821320 326.469513,260.690796 
	C327.639771,262.359497 328.504822,263.593018 329.938751,265.198853 
z"/>
<path fill="#FDFDFD" opacity="1.000000" stroke="none" 
	d="
M203.000000,98.000000 
	C225.762283,98.000000 248.024551,98.000000 270.286835,98.000000 
	C270.285706,98.440430 270.284607,98.880859 270.283478,99.321289 
	C194.762680,99.321289 119.241867,99.321289 43.721062,99.321289 
	C43.717876,98.880859 43.714691,98.440430 43.711506,98.000000 
	C96.641006,98.000000 149.570496,98.000000 203.000000,98.000000 
z"/>
<path fill="#FDFDFD" opacity="1.000000" stroke="none" 
	d="
M374.947266,280.000000 
	C315.990326,280.000000 257.523468,280.002594 199.056641,279.996094 
	C193.031616,279.995422 190.910065,277.819672 192.517990,273.313995 
	C192.658112,272.921356 193.245346,272.688293 194.047363,272.039154 
	C194.644211,273.668396 195.161148,275.079529 195.880768,277.043915 
	C199.927444,277.351807 204.186737,277.941315 208.448029,277.956329 
	C233.600128,278.044952 258.758209,278.318817 283.903046,277.882141 
	C299.326141,277.614227 314.725739,278.313141 330.142120,278.057373 
	C345.795593,277.797638 361.457001,277.952057 377.114380,278.030457 
	C381.552155,278.052673 385.576080,278.205780 383.255157,271.657990 
	C382.860809,270.545349 383.985992,268.894073 385.256042,267.522034 
	C385.256042,271.131653 385.450500,274.761230 385.083527,278.333130 
	C385.014435,279.005890 382.748993,279.745178 381.424500,279.927948 
	C379.462830,280.198578 377.436279,279.999237 374.947266,280.000000 
z"/>
<path fill="#FDFDFD" opacity="1.000000" stroke="none" 
	d="
M194.026550,263.063416 
	C193.686844,260.331421 192.992157,257.578033 193.155045,254.876312 
	C193.238266,253.496033 194.858688,252.208435 196.594223,250.781021 
	C200.032211,250.711334 202.660309,250.739563 205.803497,250.834351 
	C209.369232,250.884766 212.419876,250.868622 215.823929,250.809967 
	C217.118027,250.864487 218.058701,250.961502 218.999390,251.058517 
	C217.848038,252.492752 216.696701,253.927002 215.082260,255.938110 
	C218.205154,259.120087 222.537476,258.616760 226.725143,258.607361 
	C230.924210,258.597931 235.123306,258.605286 239.322388,258.605286 
	C239.400375,259.014709 239.478363,259.424133 239.556335,259.833557 
	C237.931183,260.979248 235.899567,261.829010 234.791382,263.351074 
	C233.603729,264.982239 233.319626,267.259186 232.574600,269.229095 
	C232.111877,270.452545 231.482422,272.669037 231.001892,272.649139 
	C228.772736,272.556946 226.459167,272.086060 224.429779,271.181183 
	C223.880569,270.936310 224.030792,268.675812 224.194855,267.382965 
	C224.441528,265.439209 224.983307,263.532898 225.399597,261.610657 
	C223.131042,261.507019 220.073151,260.410065 218.733124,261.474884 
	C213.460297,265.664825 212.060104,262.236664 210.507614,258.127167 
	C210.197876,257.307281 209.341385,256.693939 208.163361,255.312775 
	C207.131668,262.919434 201.573853,262.365814 195.996750,263.012665 
	C194.863174,263.028168 194.444870,263.045807 194.026550,263.063416 
z"/>
<path fill="#4D4D4D" opacity="1.000000" stroke="none" 
	d="
M205.288391,250.767792 
	C202.660309,250.739563 200.032211,250.711334 197.012848,250.670822 
	C200.702667,242.310791 204.758560,233.950500 208.896805,225.631149 
	C209.414001,224.591400 210.366577,223.768204 211.117416,222.844681 
	C211.961502,223.719986 213.114899,224.452133 213.597534,225.494751 
	C216.025604,230.740189 218.205765,236.100159 220.620911,241.351883 
	C222.020905,244.396164 223.699982,247.312088 225.426529,250.617035 
	C223.631958,250.699203 221.723007,250.786621 219.406723,250.966278 
	C218.058701,250.961502 217.118027,250.864487 215.750687,250.457581 
	C215.589310,248.307419 215.854568,246.467148 216.119827,244.626862 
	C212.333145,244.450241 208.185654,243.228027 204.856339,244.376877 
	C201.170105,245.648849 204.704971,248.576462 205.288391,250.767792 
M211.698273,233.011383 
	C211.294815,232.144897 210.891373,231.278397 210.045609,229.461899 
	C208.204086,234.235001 207.059586,237.201462 205.604568,240.972794 
	C209.116928,240.771912 211.601059,240.629837 214.642746,240.455872 
	C213.519684,237.690247 212.717957,235.715958 211.698273,233.011383 
z"/>
<path fill="#515151" opacity="1.000000" stroke="none" 
	d="
M305.000336,250.965546 
	C303.725647,250.885254 302.450989,250.804977 300.793457,250.758698 
	C302.919922,246.402664 305.340240,241.958511 307.966492,237.639587 
	C310.105560,234.121811 312.491119,230.753922 315.230072,226.621521 
	C310.175934,226.621521 305.903351,226.621521 301.036713,226.621521 
	C301.757538,225.477722 302.419647,223.430756 303.166107,223.399521 
	C309.371002,223.139923 315.591492,223.252335 323.174988,223.252335 
	C317.490601,232.181580 312.588196,239.882446 307.685791,247.583328 
	C307.970032,248.097763 308.254272,248.612213 308.538513,249.126648 
	C313.017242,248.475754 317.495972,247.824860 322.039642,247.164520 
	C321.827759,247.875015 321.608398,248.610504 321.454041,249.660187 
	C320.556396,250.286560 319.593719,250.598740 317.865906,250.860443 
	C313.067322,250.861816 309.033813,250.913681 305.000336,250.965546 
z"/>
<path fill="#565656" opacity="1.000000" stroke="none" 
	d="
M287.000458,250.961411 
	C287.000458,250.961411 286.704163,250.751389 286.526520,250.788818 
	C290.230072,243.640854 290.300598,228.347031 285.745880,223.174561 
	C289.929321,223.174561 293.416962,223.174561 297.345398,223.194168 
	C297.786224,223.213776 297.742615,223.364014 297.742615,223.364014 
	C296.662445,225.002136 295.582275,226.640259 294.500671,229.003723 
	C294.576538,230.485748 294.653900,231.242462 294.731262,231.999161 
	C294.641418,236.415558 294.304169,240.848099 294.590607,245.239944 
	C294.696594,246.865082 296.268707,248.394592 297.221191,250.293030 
	C296.965942,250.635010 296.676605,250.709595 295.757629,250.861389 
	C292.408813,250.907578 289.704620,250.934494 287.000458,250.961411 
z"/>
<path fill="#565656" opacity="1.000000" stroke="none" 
	d="
M176.562408,212.665405 
	C177.529602,212.970337 179.229141,213.095078 179.355072,213.606979 
	C181.546326,222.512680 183.846649,231.431717 180.413971,240.601288 
	C179.716858,242.463455 179.650803,244.561859 178.139709,246.563858 
	C177.611603,244.329071 177.083511,242.094284 176.077484,239.434937 
	C175.361450,238.340607 175.123337,237.670807 175.026138,236.564270 
	C175.069244,233.084610 174.971420,230.041687 175.008194,226.635712 
	C175.049545,225.515732 174.956284,224.758804 174.863037,224.001892 
	C175.657379,220.453400 176.451721,216.904907 176.922791,213.032410 
	C176.599533,212.708405 176.562408,212.665405 176.562408,212.665405 
z"/>
<path fill="#444444" opacity="1.000000" stroke="none" 
	d="
M158.028488,249.132919 
	C157.436050,251.045486 156.843628,252.958069 156.124435,255.279846 
	C152.304306,245.342300 150.500366,237.690903 156.518906,221.229446 
	C157.384628,225.861664 158.250351,230.493896 159.125244,235.954346 
	C159.201279,237.852646 159.268173,238.922729 159.228241,240.434570 
	C158.816162,243.550873 158.510895,246.225403 158.161011,248.957916 
	C158.116379,249.015900 158.028488,249.132919 158.028488,249.132919 
z"/>
<path fill="#484848" opacity="1.000000" stroke="none" 
	d="
M112.011726,255.355911 
	C111.608849,257.569794 111.380096,259.407104 111.023903,262.267914 
	C105.671501,251.548157 105.714203,236.708450 110.528465,233.129303 
	C114.176987,235.903534 115.203545,249.437027 112.011726,255.355911 
z"/>
<path fill="#FDFDFD" opacity="1.000000" stroke="none" 
	d="
M348.358795,249.058441 
	C349.739227,249.688599 351.119690,250.318741 352.846924,250.912903 
	C353.193695,250.876907 353.075012,250.995605 353.111084,250.919876 
	C351.110077,255.094131 348.920929,259.020386 351.564758,264.210754 
	C352.464294,265.976685 350.740295,270.029877 348.983551,271.848022 
	C347.896667,272.972870 344.403442,272.163818 342.180023,271.543457 
	C341.571167,271.373596 341.294128,268.704895 341.486206,267.265839 
	C341.814026,264.810059 342.732666,262.916443 341.598206,259.916107 
	C339.889404,255.396652 344.280182,257.771790 347.626709,257.491608 
	C346.053253,255.094208 344.877838,253.303284 343.457367,251.128128 
	C343.212311,250.743896 343.056335,250.470444 343.461487,250.530304 
	C345.364014,250.079590 346.861420,249.569016 348.358795,249.058441 
z"/>
<path fill="#4D4D4D" opacity="1.000000" stroke="none" 
	d="
M239.819870,250.606186 
	C236.347519,250.606186 232.875168,250.606186 230.520615,250.606186 
	C231.084824,246.046341 232.071899,241.585327 232.067307,237.125320 
	C232.062622,232.592087 233.981461,227.484924 228.634644,223.308136 
	C233.005432,223.308136 236.477707,223.308136 239.858887,223.308136 
	C235.480316,231.178726 237.784576,239.243011 237.965057,247.781403 
	C238.685287,249.177933 239.252579,249.892059 239.819870,250.606186 
z"/>
<path fill="#404040" opacity="1.000000" stroke="none" 
	d="
M328.961884,223.340027 
	C330.968750,223.350571 332.975616,223.361115 335.368286,223.699371 
	C335.518158,224.709915 335.282257,225.392761 335.046356,226.075607 
	C334.892548,226.810913 334.738739,227.546219 334.577637,228.968842 
	C334.676636,230.104858 334.782928,230.553543 334.889221,231.002213 
	C334.751923,231.779022 334.614624,232.555832 334.293213,233.972916 
	C334.411987,235.749939 334.714844,236.886703 335.017670,238.023483 
	C334.905121,240.829956 334.792542,243.636429 334.798157,247.105835 
	C335.549377,248.665344 336.182373,249.561905 336.815369,250.458481 
	C333.903412,250.517197 330.991455,250.575897 327.638611,250.349731 
	C327.144409,249.728027 327.091095,249.391235 327.037781,249.054428 
	C327.841095,248.289246 328.644379,247.524078 329.898529,246.227386 
	C330.506195,242.892609 330.904510,240.076706 330.758850,237.289230 
	C330.576111,233.792175 329.947449,230.318405 329.511261,226.834595 
	C329.150238,226.360886 328.789215,225.887192 328.317993,224.982819 
	C328.459198,224.148102 328.710541,223.744080 328.961884,223.340027 
z"/>
<path fill="#2E2E2E" opacity="1.000000" stroke="none" 
	d="
M130.873535,247.791443 
	C128.029114,239.389618 129.587814,229.214249 134.132355,227.049347 
	C137.937729,233.183929 135.872513,239.910736 135.834732,246.339096 
	C135.831024,246.970352 132.692200,247.583206 130.873535,247.791443 
z"/>
<path fill="#484848" opacity="1.000000" stroke="none" 
	d="
M264.998413,225.991516 
	C263.405670,227.770905 261.812897,229.550278 259.826050,231.913620 
	C259.624908,234.332855 259.817841,236.168106 260.010742,238.003372 
	C262.496033,241.994202 264.981354,245.985031 267.710052,250.366684 
	C267.234253,250.431152 266.125214,250.581421 264.569153,250.607086 
	C264.122162,250.482513 264.122437,250.162750 263.991394,249.929840 
	C263.220154,249.472961 262.579956,249.248978 261.675842,249.022064 
	C261.236328,249.029236 261.060699,249.039337 260.885101,249.049454 
	C255.821426,244.693970 254.545181,239.200684 256.540527,232.352509 
	C257.286591,231.017929 257.519226,230.209610 257.751892,229.401306 
	C259.611786,227.596909 261.471649,225.792511 263.783264,224.289963 
	C264.489471,225.058380 264.743958,225.524948 264.998413,225.991516 
z"/>
<path fill="#565656" opacity="1.000000" stroke="none" 
	d="
M279.393005,249.194489 
	C276.523773,250.009644 273.950226,250.518234 270.937134,251.026550 
	C269.845886,250.666718 269.194214,250.307144 268.288025,249.807144 
	C276.006622,247.167755 276.682068,244.607849 270.838440,239.115692 
	C274.646881,239.115692 277.959381,239.115692 281.015228,239.115692 
	C280.570679,242.390640 280.129669,245.639282 279.393005,249.194489 
z"/>
<path fill="#2E2E2E" opacity="1.000000" stroke="none" 
	d="
M142.669159,268.307251 
	C142.374283,268.150940 142.141739,267.929230 142.012390,266.947388 
	C142.081665,261.515045 142.071655,256.776855 142.151154,252.040146 
	C142.209564,248.560135 143.843002,247.389099 147.116028,248.894638 
	C147.057907,255.253342 146.999802,261.612030 146.349457,268.286743 
	C145.493088,268.807373 145.228943,269.011963 144.742371,268.971497 
	C143.903015,268.586731 143.286087,268.446991 142.669159,268.307251 
z"/>
<path fill="#2E2E2E" opacity="1.000000" stroke="none" 
	d="
M125.140022,215.997955 
	C125.012627,221.681137 124.885231,227.364304 124.156235,233.450119 
	C122.297691,233.971237 121.040733,234.089737 119.783783,234.208221 
	C119.783783,234.208221 119.990517,234.002731 119.966408,233.630798 
	C119.966858,227.190689 119.991417,221.122513 120.015976,215.054352 
	C120.295990,214.835938 120.576004,214.617508 121.281456,214.398163 
	C122.450798,214.608459 123.194710,214.819656 123.938622,215.030869 
	C123.938622,215.030869 124.434349,215.087845 124.675873,215.343918 
	C124.917404,215.599991 125.140022,215.997955 125.140022,215.997955 
z"/>
<path fill="#FDFDFD" opacity="1.000000" stroke="none" 
	d="
M260.518188,249.213867 
	C261.060699,249.039337 261.236328,249.029236 261.824341,249.251007 
	C262.865295,249.709518 263.493866,249.936127 264.122437,250.162750 
	C264.122437,250.162750 264.122162,250.482513 264.108643,250.641815 
	C265.072144,253.660202 266.049103,256.519257 266.998657,259.298004 
	C264.837036,259.589600 262.141846,259.953186 259.064667,260.368286 
	C258.850311,259.982941 258.237640,259.332703 258.127563,258.606323 
	C257.629578,255.319763 256.894104,252.454025 252.543533,252.775497 
	C252.076263,252.810013 251.503952,251.423309 250.976913,250.352951 
	C250.973465,250.010010 250.871933,249.907150 250.871933,249.907150 
	C253.965042,249.730865 257.058167,249.554581 260.518188,249.213867 
z"/>
<path fill="#2E2E2E" opacity="1.000000" stroke="none" 
	d="
M165.959564,231.955521 
	C166.143936,231.677887 166.328308,231.400253 166.975647,231.234375 
	C167.876877,231.606949 168.315140,231.867783 168.864227,232.324020 
	C168.975052,232.519440 169.031906,232.965149 168.978027,233.314911 
	C169.363480,234.458618 169.802826,235.252533 170.272369,236.449738 
	C170.437210,237.907166 170.571838,238.961319 170.706482,240.015488 
	C170.431122,243.885529 170.155762,247.755554 169.206116,251.891815 
	C167.346481,251.276642 165.139664,250.393631 165.141052,249.514084 
	C165.150238,243.660812 165.631653,237.808289 165.959564,231.955521 
z"/>
<path fill="#858585" opacity="1.000000" stroke="none" 
	d="
M147.093964,248.477264 
	C143.843002,247.389099 142.209564,248.560135 142.151154,252.040146 
	C142.071655,256.776855 142.081665,261.515045 141.927780,266.719238 
	C141.644135,260.944580 141.251328,254.695755 141.451309,248.465958 
	C141.524292,246.192886 143.007080,243.965057 145.049728,241.223755 
	C145.723785,243.502457 146.397842,245.781174 147.093964,248.477264 
z"/>
<path fill="#515151" opacity="1.000000" stroke="none" 
	d="
M374.130096,227.441925 
	C374.102936,229.522202 374.021210,231.298553 373.960022,233.517548 
	C373.132050,234.786240 372.283569,235.612289 371.138458,236.437836 
	C370.185760,236.304825 369.529663,236.172348 368.530518,235.665894 
	C368.449402,232.902176 369.703003,229.888885 368.700348,228.294342 
	C367.653259,226.629135 364.434113,226.329758 362.164490,225.433304 
	C362.128601,225.216080 362.092712,224.998871 362.390137,224.419830 
	C364.132812,223.780823 365.542145,223.503677 366.951477,223.226532 
	C367.409119,223.197647 367.866791,223.168762 368.939880,223.245270 
	C369.979218,223.435989 370.403076,223.521286 370.826935,223.606567 
	C371.909790,224.783707 372.992645,225.960846 374.130096,227.441925 
z"/>
<path fill="#858585" opacity="1.000000" stroke="none" 
	d="
M165.637894,232.049744 
	C165.631653,237.808289 165.150238,243.660812 165.141052,249.514084 
	C165.139664,250.393631 167.346481,251.276642 168.882812,252.188202 
	C168.485245,254.721634 167.736664,257.224945 166.572861,259.493805 
	C166.032791,258.841278 165.907959,258.423187 165.783142,258.005096 
	C165.067413,255.857224 164.351669,253.709335 163.502899,250.908234 
	C163.317078,249.500549 163.264313,248.746124 163.285995,247.553162 
	C163.307526,244.745529 163.254608,242.376404 163.278183,239.610245 
	C163.293976,238.141342 163.233292,237.069458 163.172607,235.997589 
	C163.887146,234.713043 164.601685,233.428497 165.637894,232.049744 
z"/>
<path fill="#797979" opacity="1.000000" stroke="none" 
	d="
M335.449768,225.973938 
	C335.282257,225.392761 335.518158,224.709915 335.793701,223.748398 
	C339.557098,223.399048 343.280884,223.328369 347.281677,223.565765 
	C347.558655,223.873840 347.567200,223.989609 347.567200,223.989609 
	C346.667419,225.507675 345.767639,227.025726 344.478149,228.252945 
	C343.840485,227.743118 343.592499,227.524109 343.344482,227.305099 
	C340.847382,226.827499 338.350250,226.349884 335.449768,225.973938 
z"/>
<path fill="#515151" opacity="1.000000" stroke="none" 
	d="
M265.424744,226.071808 
	C264.743958,225.524948 264.489471,225.058380 264.122101,224.350189 
	C267.747681,223.725540 271.483612,223.119431 275.226044,223.075729 
	C276.608673,223.059616 278.069702,224.276733 279.337585,225.157898 
	C279.556305,225.309906 279.072479,227.212524 278.763062,227.256775 
	C277.416809,227.449310 276.007690,227.325195 274.634949,227.184387 
	C271.702545,226.883591 268.778534,226.501129 265.424744,226.071808 
z"/>
<path fill="#797979" opacity="1.000000" stroke="none" 
	d="
M335.411377,238.040100 
	C334.714844,236.886703 334.411987,235.749939 334.276367,234.371780 
	C336.124115,234.459061 337.804626,234.787750 340.105896,234.936417 
	C341.145386,234.674057 341.564056,234.591705 341.982758,234.509338 
	C342.928528,234.375534 343.874268,234.241730 345.334930,234.035065 
	C344.326080,236.108475 343.390533,238.031219 342.528381,239.803116 
	C340.009521,239.148834 337.907318,238.602783 335.411377,238.040100 
z"/>
<path fill="#8C8C8C" opacity="1.000000" stroke="none" 
	d="
M240.259979,250.744003 
	C239.252579,249.892059 238.685287,249.177933 238.107086,248.160614 
	C240.038101,248.065170 242.014496,248.596939 243.912827,248.395035 
	C246.071838,248.165375 248.161118,247.280212 250.801498,246.532516 
	C250.825272,246.780350 250.946320,248.042175 250.969650,249.605560 
	C250.871933,249.907150 250.973465,250.010010 250.933975,249.949326 
	C247.496353,250.219711 244.098236,250.550766 240.259979,250.744003 
z"/>
<path fill="#797979" opacity="1.000000" stroke="none" 
	d="
M329.440887,227.308563 
	C329.947449,230.318405 330.576111,233.792175 330.758850,237.289230 
	C330.904510,240.076706 330.506195,242.892609 330.079926,245.943649 
	C329.663818,240.055115 329.517151,233.918808 329.440887,227.308563 
z"/>
<path fill="#565656" opacity="1.000000" stroke="none" 
	d="
M119.628922,215.096893 
	C119.991417,221.122513 119.966858,227.190689 119.868256,233.738403 
	C119.610100,227.858444 119.425980,221.498947 119.628922,215.096893 
z"/>
<path fill="#FDFDFD" opacity="1.000000" stroke="none" 
	d="
M124.590973,234.859314 
	C125.846298,235.819504 127.101616,236.779694 128.579712,237.910278 
	C127.518341,239.587677 126.567924,241.304428 125.354263,242.808792 
	C125.137001,243.078064 123.831192,242.469116 123.042908,241.591003 
	C123.568886,238.897339 124.079933,236.878326 124.590973,234.859314 
z"/>
<path fill="#565656" opacity="1.000000" stroke="none" 
	d="
M123.766571,214.670105 
	C123.194710,214.819656 122.450798,214.608459 121.471283,214.205231 
	C120.934113,212.201279 120.632530,210.389343 120.330956,208.577423 
	C120.792130,208.467438 121.253304,208.357437 121.714485,208.247452 
	C122.341164,210.268082 122.967850,212.288727 123.766571,214.670105 
z"/>
<path fill="#797979" opacity="1.000000" stroke="none" 
	d="
M337.246246,250.616684 
	C336.182373,249.561905 335.549377,248.665344 334.905457,247.477249 
	C337.303192,247.431717 339.711823,247.677704 342.506165,248.348816 
	C342.946716,249.339432 343.001526,249.904938 343.056335,250.470444 
	C343.056335,250.470444 343.212311,250.743896 343.211731,250.901535 
	C341.366455,250.964417 339.521790,250.869644 337.246246,250.616684 
z"/>
<path fill="#565656" opacity="1.000000" stroke="none" 
	d="
M124.573700,234.594788 
	C124.079933,236.878326 123.568886,238.897339 123.009796,241.247620 
	C122.263367,241.264648 121.564980,240.950409 121.174149,240.086395 
	C121.304405,238.347931 121.127106,237.159210 120.949814,235.970505 
	C120.590622,235.562012 120.231422,235.153503 119.828003,234.476624 
	C121.040733,234.089737 122.297691,233.971237 123.931206,233.857376 
	C124.390663,234.018082 124.473549,234.174179 124.573700,234.594788 
z"/>
<path fill="#FDFDFD" opacity="1.000000" stroke="none" 
	d="
M162.787399,235.998474 
	C163.233292,237.069458 163.293976,238.141342 162.888885,239.607788 
	C161.393768,239.999176 160.364426,239.995987 159.335068,239.992798 
	C159.268173,238.922729 159.201279,237.852646 159.235260,236.390503 
	C160.358154,235.998734 161.380173,235.999054 162.787399,235.998474 
z"/>
<path fill="#FDFDFD" opacity="1.000000" stroke="none" 
	d="
M171.125137,240.009430 
	C170.571838,238.961319 170.437210,237.907166 170.466156,236.516388 
	C170.629745,236.179764 171.024323,236.068985 171.253174,236.325562 
	C172.616409,236.721756 173.750809,236.861389 174.885208,237.001022 
	C175.123337,237.670807 175.361450,238.340607 175.700989,239.350433 
	C174.382858,239.794769 172.963333,239.899063 171.125137,240.009430 
z"/>
<path fill="#FDFDFD" opacity="1.000000" stroke="none" 
	d="
M174.446198,224.004120 
	C174.956284,224.758804 175.049545,225.515732 174.590286,226.635086 
	C172.360458,226.998352 170.683151,226.999176 168.872070,226.732742 
	C168.608582,226.089523 168.478851,225.713577 168.349106,225.337616 
	C170.242523,224.893845 172.135941,224.450089 174.446198,224.004120 
z"/>
<path fill="#858585" opacity="1.000000" stroke="none" 
	d="
M168.055908,225.322235 
	C168.478851,225.713577 168.608582,226.089523 168.799194,227.155243 
	C168.824524,229.272858 168.788971,230.700729 168.753418,232.128601 
	C168.315140,231.867783 167.876877,231.606949 167.230408,231.184448 
	C167.269043,229.117477 167.515884,227.212173 168.055908,225.322235 
z"/>
<path fill="#404040" opacity="1.000000" stroke="none" 
	d="
M343.461487,250.530304 
	C343.001526,249.904938 342.946716,249.339432 342.924561,248.348877 
	C344.057861,247.313141 345.158478,246.702438 346.890137,246.171600 
	C347.893768,246.624435 348.266357,246.997437 348.638916,247.370438 
	C348.550812,247.742233 348.462708,248.114014 348.366699,248.772125 
	C346.861420,249.569016 345.364014,250.079590 343.461487,250.530304 
z"/>
<path fill="#797979" opacity="1.000000" stroke="none" 
	d="
M142.714630,268.700195 
	C143.286087,268.446991 143.903015,268.586731 144.765686,269.402039 
	C145.080139,271.552368 145.148819,273.027039 145.217499,274.501740 
	C140.815552,274.326691 144.369888,270.536774 142.714630,268.700195 
z"/>
<path fill="#565656" opacity="1.000000" stroke="none" 
	d="
M260.113831,237.682938 
	C259.817841,236.168106 259.624908,234.332855 259.706665,232.252045 
	C260.059906,233.791824 260.138397,235.577164 260.113831,237.682938 
z"/>
<path fill="#E9E9E9" opacity="1.000000" stroke="none" 
	d="
M251.779449,262.621490 
	C253.226456,263.196533 254.483795,264.021240 255.741135,264.845917 
	C255.316711,265.259064 254.892288,265.672211 254.467850,266.085358 
	C253.508499,265.013947 252.549149,263.942535 251.779449,262.621490 
z"/>
<path fill="#858585" opacity="1.000000" stroke="none" 
	d="
M145.422974,274.390717 
	C145.148819,273.027039 145.080139,271.552368 144.988129,269.647095 
	C145.228943,269.011963 145.493088,268.807373 146.009125,268.614319 
	C146.317047,269.474243 146.373062,270.322632 146.437927,271.891357 
	C146.445572,273.022919 146.444382,273.434143 146.443192,273.845337 
	C146.131226,273.914337 145.859650,274.059113 145.422974,274.390717 
z"/>
<path fill="#FDFDFD" opacity="1.000000" stroke="none" 
	d="
M163.211548,247.991699 
	C163.264313,248.746124 163.317078,249.500549 163.301819,250.628387 
	C161.755478,250.584198 160.277191,250.166626 158.413696,249.440979 
	C158.028488,249.132919 158.116379,249.015900 158.599884,248.922867 
	C160.459442,248.550461 161.835495,248.271072 163.211548,247.991699 
z"/>
<path fill="#797979" opacity="1.000000" stroke="none" 
	d="
M366.699524,223.015808 
	C365.542145,223.503677 364.132812,223.780823 362.344971,224.092682 
	C361.966461,224.127411 361.924042,223.671539 361.963867,223.446106 
	C363.484985,223.082153 364.966278,222.943634 366.699524,223.015808 
z"/>
<path fill="#8C8C8C" opacity="1.000000" stroke="none" 
	d="
M348.878418,247.186432 
	C348.266357,246.997437 347.893768,246.624435 347.186340,246.041809 
	C347.485992,245.331879 348.120544,244.831589 348.755127,244.331299 
	C348.876068,245.221680 348.997009,246.112061 348.878418,247.186432 
z"/>
<path fill="#FDFDFD" opacity="1.000000" stroke="none" 
	d="
M295.101257,231.996063 
	C294.653900,231.242462 294.576538,230.485748 294.617035,229.362946 
	C295.679199,229.525620 296.623505,230.054413 297.567810,230.583221 
	C296.868958,231.053131 296.170105,231.523056 295.101257,231.996063 
z"/>
<path fill="#797979" opacity="1.000000" stroke="none" 
	d="
M328.801208,223.132233 
	C328.710541,223.744080 328.459198,224.148102 328.107574,224.770660 
	C327.526184,224.546875 327.045044,224.104553 326.563934,223.662231 
	C327.256134,223.416306 327.948364,223.170364 328.801208,223.132233 
z"/>
<path fill="#FDFDFD" opacity="1.000000" stroke="none" 
	d="
M184.505798,265.330566 
	C183.963730,264.987274 183.638702,264.430084 183.313690,263.872925 
	C183.591629,263.746338 183.869553,263.619751 184.147476,263.493164 
	C184.339264,264.034302 184.531067,264.575500 184.505798,265.330566 
z"/>
<path fill="#FDFDFD" opacity="1.000000" stroke="none" 
	d="
M125.472275,215.990875 
	C125.140022,215.997955 124.917404,215.599991 124.923775,215.372070 
	C125.796059,215.047043 126.661972,214.949936 127.527885,214.852814 
	C126.953430,215.229813 126.378975,215.606796 125.472275,215.990875 
z"/>
<path fill="#FDFDFD" opacity="1.000000" stroke="none" 
	d="
M176.434082,212.241882 
	C176.562408,212.665405 176.599533,212.708405 176.619751,212.743652 
	C175.851212,212.413544 175.062469,212.048187 174.273712,211.682831 
	C174.515549,211.327377 174.757385,210.971924 174.999222,210.616470 
	C175.434738,211.017090 175.870239,211.417725 176.434082,212.241882 
z"/>
<path fill="#FDFDFD" opacity="1.000000" stroke="none" 
	d="
M146.838608,273.881317 
	C146.444382,273.434143 146.445572,273.022919 146.519684,272.312927 
	C147.561035,272.184143 148.529480,272.354095 149.497925,272.524078 
	C149.513657,272.792389 149.529388,273.060730 149.545120,273.329071 
	C148.774750,273.525146 148.004395,273.721222 146.838608,273.881317 
z"/>
<path fill="#FDFDFD" opacity="1.000000" stroke="none" 
	d="
M335.246735,230.995392 
	C334.782928,230.553543 334.676636,230.104858 334.699005,229.327057 
	C335.710327,229.358017 336.592957,229.718094 337.475616,230.078171 
	C336.851837,230.381638 336.228027,230.685089 335.246735,230.995392 
z"/>
<path fill="#FDFDFD" opacity="1.000000" stroke="none" 
	d="
M343.193909,227.645447 
	C343.592499,227.524109 343.840485,227.743118 344.153351,228.209137 
	C343.862793,229.181076 343.507416,229.905991 343.152039,230.630905 
	C342.913971,230.543625 342.675903,230.456345 342.437805,230.369049 
	C342.639648,229.574646 342.841461,228.780228 343.193909,227.645447 
z"/>
<path fill="#8C8C8C" opacity="1.000000" stroke="none" 
	d="
M194.092957,263.316376 
	C194.444870,263.045807 194.863174,263.028168 195.595306,263.022583 
	C195.878845,263.909790 195.848587,264.785004 195.203003,265.845642 
	C194.342117,266.014099 194.096527,265.997131 193.850922,265.980164 
	C193.953735,265.176544 194.056549,264.372955 194.092957,263.316376 
z"/>
<path fill="#484848" opacity="1.000000" stroke="none" 
	d="
M110.617523,228.197830 
	C110.345886,228.185455 110.192207,228.173615 110.038521,228.161789 
	C110.294044,228.218079 110.549568,228.274368 110.805092,228.330658 
	C110.781883,228.286560 110.758675,228.242462 110.617523,228.197830 
z"/>
<path fill="#2E2E2E" opacity="1.000000" stroke="none" 
	d="
M120.869240,236.369186 
	C121.127106,237.159210 121.304405,238.347931 121.248642,239.763763 
	C120.939949,238.916534 120.864311,237.842209 120.869240,236.369186 
z"/>
<path fill="#FDFDFD" opacity="1.000000" stroke="none" 
	d="
M347.911194,223.972107 
	C347.567200,223.989609 347.558655,223.873840 347.550537,223.820404 
	C347.951141,223.332550 348.337952,222.872009 348.791534,222.490982 
	C348.862183,222.431625 349.237427,222.734924 349.471832,222.870514 
	C349.066284,223.231873 348.660736,223.593231 347.911194,223.972107 
z"/>
<path fill="#FDFDFD" opacity="1.000000" stroke="none" 
	d="
M341.966278,234.141541 
	C341.564056,234.591705 341.145386,234.674057 340.413025,234.705276 
	C340.335876,233.962555 340.572327,233.270950 340.808807,232.579361 
	C341.189148,232.977493 341.569458,233.375610 341.966278,234.141541 
z"/>
<path fill="#FDFDFD" opacity="1.000000" stroke="none" 
	d="
M185.046829,269.397095 
	C185.287308,269.791718 185.285553,270.184082 185.255386,270.574249 
	C185.254532,270.585266 184.950577,270.572876 184.787949,270.571411 
	C184.792175,270.179108 184.796402,269.786804 185.046829,269.397095 
z"/>
<path fill="#565656" opacity="1.000000" stroke="none" 
	d="
M257.499390,229.586670 
	C257.519226,230.209610 257.286591,231.017929 256.730591,231.928467 
	C256.687134,231.277817 256.967010,230.524918 257.499390,229.586670 
z"/>
<path fill="#797979" opacity="1.000000" stroke="none" 
	d="
M353.884094,223.299988 
	C354.110321,223.763626 354.097778,224.098892 354.059296,224.685730 
	C353.606567,224.634888 353.179779,224.332489 352.752991,224.030090 
	C353.050415,223.743912 353.347839,223.457748 353.884094,223.299988 
z"/>
<path fill="#8C8C8C" opacity="1.000000" stroke="none" 
	d="
M326.741516,249.027313 
	C327.091095,249.391235 327.144409,249.728027 327.202911,250.322861 
	C326.689941,250.497513 326.171814,250.414139 325.653687,250.330780 
	C325.917572,249.887238 326.181427,249.443710 326.741516,249.027313 
z"/>
<path fill="#FDFDFD" opacity="1.000000" stroke="none" 
	d="
M322.954590,219.603271 
	C322.713837,219.208511 322.715607,218.815857 322.745789,218.425385 
	C322.746613,218.414413 323.050964,218.426895 323.213806,218.428452 
	C323.209534,218.820862 323.205292,219.213272 322.954590,219.603271 
z"/>
<path fill="#FDFDFD" opacity="1.000000" stroke="none" 
	d="
M165.490265,258.063507 
	C165.907959,258.423187 166.032791,258.841278 166.228729,259.578857 
	C165.932327,259.306183 165.564850,258.714050 165.490265,258.063507 
z"/>
<path fill="#FDFDFD" opacity="1.000000" stroke="none" 
	d="
M168.396759,219.954529 
	C168.791489,219.713760 169.184113,219.715546 169.574554,219.745712 
	C169.585526,219.746552 169.573044,220.050888 169.571503,220.213715 
	C169.179123,220.209488 168.786758,220.205246 168.396759,219.954529 
z"/>
<path fill="#FDFDFD" opacity="1.000000" stroke="none" 
	d="
M297.711121,223.235596 
	C298.005280,222.604034 298.374573,221.950684 298.743866,221.297318 
	C298.981689,221.457123 299.219513,221.616928 299.457336,221.776749 
	C299.085480,222.221680 298.713623,222.666626 298.042175,223.237793 
	C297.742615,223.364014 297.786224,223.213776 297.711121,223.235596 
z"/>
<path fill="#FDFDFD" opacity="1.000000" stroke="none" 
	d="
M370.850830,223.266479 
	C370.403076,223.521286 369.979218,223.435989 369.277679,223.177368 
	C369.311981,222.489746 369.623962,221.975418 369.935913,221.461121 
	C370.248871,221.949539 370.561798,222.437973 370.850830,223.266479 
z"/>
<path fill="#858585" opacity="1.000000" stroke="none" 
	d="
M191.755020,266.399353 
	C191.789185,266.584534 191.690903,266.708588 191.600159,266.703278 
	C191.510025,266.698029 191.427505,266.562622 191.341629,266.484283 
	C191.436386,266.416687 191.531128,266.349121 191.755020,266.399353 
z"/>
<path fill="#858585" opacity="1.000000" stroke="none" 
	d="
M193.770599,266.326599 
	C194.096527,265.997131 194.342117,266.014099 194.955399,266.068939 
	C194.778839,266.295532 194.234558,266.484283 193.770599,266.326599 
z"/>
<path fill="#E9E9E9" opacity="1.000000" stroke="none" 
	d="
M361.990540,225.716309 
	C364.434113,226.329758 367.653259,226.629135 368.700348,228.294342 
	C369.703003,229.888885 368.449402,232.902176 368.031128,235.622681 
	C366.465637,236.135651 365.056458,236.317871 363.100159,236.369995 
	C362.039185,236.154739 361.525299,236.069595 361.011414,235.984436 
	C361.279816,232.656067 361.548218,229.327698 361.990540,225.716309 
z"/>
<path fill="#858585" opacity="1.000000" stroke="none" 
	d="
M360.965515,236.296875 
	C361.525299,236.069595 362.039185,236.154739 362.747986,236.411102 
	C363.223846,237.153900 363.504791,237.725479 363.907104,238.590332 
	C363.160736,239.157974 362.292938,239.432358 361.105164,239.835983 
	C360.829987,238.846588 360.874817,237.727951 360.965515,236.296875 
z"/>
<path fill="#858585" opacity="1.000000" stroke="none" 
	d="
M360.479340,243.276733 
	C360.926514,244.192047 361.139679,245.333847 361.183655,246.738586 
	C360.758118,245.835434 360.501709,244.669327 360.479340,243.276733 
z"/>
<path fill="#FCFCFC" opacity="1.000000" stroke="none" 
	d="
M305.000244,251.397293 
	C309.033813,250.913681 313.067322,250.861816 317.550781,250.932266 
	C318.864685,252.531540 319.728638,254.008514 320.920990,256.046936 
	C316.624420,257.441437 308.314056,252.169113 309.983063,263.317108 
	C309.361542,263.118073 308.740021,262.919067 308.118500,262.720062 
	C307.079071,259.089722 306.039642,255.459381 305.000244,251.397293 
z"/>
<path fill="#FCFCFC" opacity="1.000000" stroke="none" 
	d="
M287.001923,251.358490 
	C289.704620,250.934494 292.408813,250.907578 295.556702,250.963196 
	C296.709412,253.134140 297.418396,255.222549 298.125732,257.306091 
	C293.619537,258.412354 288.113159,255.738083 287.001923,251.358490 
z"/>
<path fill="#FCFCFC" opacity="1.000000" stroke="none" 
	d="
M276.169739,256.866394 
	C277.937164,253.185516 279.703094,253.821365 281.662323,256.452301 
	C283.236328,258.565887 285.025452,260.519318 286.523560,262.310028 
	C282.528412,263.817169 280.960175,263.148712 276.169739,256.866394 
z"/>
<path fill="#FCFCFC" opacity="1.000000" stroke="none" 
	d="
M297.633850,262.929565 
	C297.848206,262.087036 298.327972,260.746613 299.020294,260.625885 
	C300.188721,260.422272 301.491821,260.991486 302.738281,261.235687 
	C302.662506,261.735687 302.586700,262.235687 302.510925,262.735687 
	C301.005554,262.817169 299.500214,262.898651 297.633850,262.929565 
z"/>
<path fill="#FCFCFC" opacity="1.000000" stroke="none" 
	d="
M329.654297,265.012695 
	C328.504822,263.593018 327.639771,262.359497 326.469513,260.690796 
	C331.362854,260.821320 331.599945,261.238342 329.654297,265.012695 
z"/>
<path fill="#FCFCFC" opacity="1.000000" stroke="none" 
	d="
M205.803497,250.834351 
	C204.704971,248.576462 201.170105,245.648849 204.856339,244.376877 
	C208.185654,243.228027 212.333145,244.450241 216.119827,244.626862 
	C215.854568,246.467148 215.589310,248.307419 215.397278,250.500092 
	C212.419876,250.868622 209.369232,250.884766 205.803497,250.834351 
z"/>
<path fill="#DADADA" opacity="1.000000" stroke="none" 
	d="
M211.807251,233.376526 
	C212.717957,235.715958 213.519684,237.690247 214.642746,240.455872 
	C211.601059,240.629837 209.116928,240.771912 205.604568,240.972794 
	C207.059586,237.201462 208.204086,234.235001 210.045609,229.461899 
	C210.891373,231.278397 211.294815,232.144897 211.807251,233.376526 
z"/>
<path fill="#FCFCFC" opacity="1.000000" stroke="none" 
	d="
M168.864227,232.324020 
	C168.788971,230.700729 168.824524,229.272858 168.932953,227.422485 
	C170.683151,226.999176 172.360458,226.998352 174.455688,226.998154 
	C174.971420,230.041687 175.069244,233.084610 175.026138,236.564270 
	C173.750809,236.861389 172.616409,236.721756 171.178391,235.981796 
	C170.260483,234.576035 169.646194,233.770599 169.031906,232.965149 
	C169.031906,232.965149 168.975052,232.519440 168.864227,232.324020 
z"/>
<path fill="#FCFCFC" opacity="1.000000" stroke="none" 
	d="
M163.285995,247.553177 
	C161.835495,248.271072 160.459442,248.550461 158.644501,248.864883 
	C158.510895,246.225403 158.816162,243.550873 159.228241,240.434570 
	C160.364426,239.995987 161.393768,239.999176 162.812408,240.004822 
	C163.254608,242.376404 163.307526,244.745529 163.285995,247.553177 
z"/>
<path fill="#565656" opacity="1.000000" stroke="none" 
	d="
M263.991394,249.929840 
	C263.493866,249.936127 262.865295,249.709518 262.088226,249.253952 
	C262.579956,249.248978 263.220154,249.472961 263.991394,249.929840 
z"/>
<path fill="#858585" opacity="1.000000" stroke="none" 
	d="
M168.978027,233.314911 
	C169.646194,233.770599 170.260483,234.576035 170.949554,235.725220 
	C171.024323,236.068985 170.629745,236.179764 170.435974,236.113113 
	C169.802826,235.252533 169.363480,234.458618 168.978027,233.314911 
z"/>
</svg>