<?xml version="1.0" standalone="no"?>
<!DOCTYPE svg PUBLIC "-//W3C//DTD SVG 20010904//EN"
 "http://www.w3.org/TR/2001/REC-SVG-20010904/DTD/svg10.dtd">
<svg version="1.0" xmlns="http://www.w3.org/2000/svg"
 width="500.000000pt" height="500.000000pt" viewBox="0 0 500.000000 500.000000"
 preserveAspectRatio="xMidYMid meet">

<g transform="translate(0.000000,500.000000) scale(0.100000,-0.100000)"
fill="#fff" stroke="none">
<path d="M1200 2895 c0 -19 -4 -35 -10 -35 -6 0 -10 -38 -10 -94 0 -53 4 -98
10 -101 6 -3 10 -21 11 -38 l1 -32 11 32 c7 17 15 35 20 39 4 4 7 49 7 100 0
75 -3 93 -16 98 -12 4 -15 15 -12 36 3 17 1 30 -4 30 -4 0 -8 -16 -8 -35z"/>
<path d="M1771 2853 c0 -17 -5 -35 -11 -38 -6 -3 -10 -48 -10 -100 0 -52 4
-97 10 -100 6 -3 11 -21 11 -38 2 -27 2 -28 6 -7 2 14 10 39 17 55 15 35 13
169 -2 188 -6 6 -12 26 -15 42 l-4 30 -2 -32z"/>
<path d="M1310 2756 c0 -19 -4 -38 -10 -41 -5 -3 -10 -44 -10 -90 0 -46 5 -87
10 -90 6 -3 10 -22 10 -41 0 -21 4 -33 10 -29 6 3 10 19 10 36 0 16 5 29 10
29 6 0 10 38 10 94 0 53 -4 98 -10 101 -5 3 -10 19 -10 36 0 16 -4 29 -10 29
-5 0 -10 -15 -10 -34z"/>
<path d="M1540 2761 c0 -16 -4 -33 -10 -36 -5 -3 -10 -46 -10 -95 0 -49 5 -92
10 -95 6 -3 10 -22 10 -41 0 -19 4 -33 9 -29 6 3 8 14 6 24 -2 11 3 27 10 38
20 25 20 181 0 206 -7 11 -11 25 -9 32 3 7 1 16 -5 20 -7 4 -11 -5 -11 -24z"/>
<path d="M2675 2780 c-87 -20 -125 -65 -125 -148 0 -102 98 -159 206 -120 27
10 32 16 31 42 0 17 3 39 7 49 7 15 2 17 -39 17 -46 0 -47 -1 -32 -18 27 -29
22 -70 -8 -78 -63 -16 -125 48 -125 129 0 60 7 75 41 92 28 15 70 11 121 -10
20 -8 37 20 22 34 -14 13 -66 19 -99 11z"/>
<path d="M2084 2763 c-20 -62 -101 -236 -111 -240 -7 -3 -10 -9 -7 -14 7 -12
61 -11 69 1 3 6 1 10 -4 10 -17 0 -13 47 5 54 9 3 38 6 65 6 42 0 51 -3 58
-22 5 -13 5 -28 0 -34 -13 -16 0 -24 35 -24 39 0 65 14 42 23 -9 4 -24 25 -33
48 -88 206 -105 235 -119 192z m36 -111 c10 -22 16 -43 12 -46 -3 -3 -23 -6
-44 -6 -44 0 -46 6 -21 67 20 47 27 45 53 -15z"/>
<path d="M2297 2774 c-3 -4 0 -13 8 -21 11 -11 15 -40 15 -109 0 -81 -3 -97
-20 -114 l-20 -20 105 0 c95 0 105 2 115 21 15 28 5 36 -19 15 -25 -23 -87
-32 -106 -16 -22 18 -22 218 0 226 8 4 12 10 9 15 -6 10 -77 12 -87 3z"/>
<path d="M2866 2771 c-4 -5 0 -11 6 -13 10 -4 13 -36 13 -118 0 -82 -3 -114
-13 -118 -24 -8 0 -22 38 -22 40 0 61 14 35 24 -12 4 -15 27 -15 116 0 89 3
112 15 116 8 4 12 10 9 15 -7 12 -81 12 -88 0z"/>
<path d="M3015 2762 c-3 -8 -5 -15 -5 -16 0 -1 27 2 60 8 38 6 64 6 70 0 6 -6
-19 -51 -66 -122 -42 -62 -74 -115 -72 -117 1 -2 45 -5 96 -6 83 -3 95 -1 104
16 9 16 8 17 -8 11 -32 -13 -121 -19 -127 -9 -3 5 28 60 69 122 41 63 73 116
70 118 -2 2 -45 5 -95 6 -68 2 -92 -1 -96 -11z"/>
<path d="M3264 2769 c-2 -4 3 -9 11 -13 12 -4 15 -26 15 -108 0 -105 -4 -121
-30 -131 -8 -3 33 -6 92 -6 99 -1 108 1 118 20 15 26 4 38 -13 15 -16 -22 -91
-33 -112 -16 -19 15 -21 96 -2 103 6 2 25 0 41 -4 32 -9 46 -5 46 15 0 8 -16
12 -47 12 l-48 -1 -3 38 c-2 21 2 45 9 53 15 19 59 18 87 -2 13 -9 23 -11 24
-5 4 35 3 36 -90 36 -52 0 -96 -3 -98 -6z"/>
<path d="M3560 2771 c-32 -4 -40 -8 -27 -13 15 -6 17 -22 17 -117 0 -94 -3
-111 -17 -120 -10 -6 -13 -11 -8 -12 58 -7 95 -7 100 1 3 6 0 10 -8 10 -18 0
-27 21 -27 66 0 66 51 52 111 -31 18 -25 43 -48 56 -51 30 -8 41 2 22 19 -22
18 -89 104 -89 114 0 4 9 14 20 21 13 8 20 23 20 45 0 43 -10 55 -51 67 -36
11 -47 11 -119 1z m108 -27 c15 -10 22 -25 22 -48 0 -28 -5 -36 -29 -46 -49
-20 -66 -11 -69 38 -5 67 27 91 76 56z"/>
<path d="M1658 2744 c-5 -4 -8 -20 -8 -35 0 -15 -4 -30 -9 -33 -11 -7 -11
-175 0 -182 5 -3 9 -21 9 -40 0 -19 5 -34 10 -34 6 0 10 16 10 35 0 19 5 35
10 35 13 0 13 182 1 196 -5 5 -11 22 -13 37 -2 16 -6 25 -10 21z"/>
<path d="M1086 2715 c-12 -27 -20 -220 -11 -242 4 -10 7 -28 6 -40 -1 -13 2
-23 8 -23 6 0 11 11 11 24 0 14 5 28 10 31 13 8 13 188 1 201 -5 5 -11 23 -13
39 -3 27 -4 28 -12 10z"/>
<path d="M1426 2560 c-14 -58 -18 -212 -7 -234 6 -12 12 -32 14 -46 4 -21 5
-20 6 7 0 17 6 35 11 38 13 8 13 188 1 201 -5 5 -11 23 -13 39 l-3 30 -9 -35z"/>
<path d="M1808 2383 c6 -2 18 -2 25 0 6 3 1 5 -13 5 -14 0 -19 -2 -12 -5z"/>
<path d="M1891 2338 c1 -55 5 -50 11 15 2 20 0 37 -4 37 -4 0 -7 -24 -7 -52z"/>
<path d="M2006 2374 c-3 -9 -4 -19 -1 -22 3 -3 5 1 5 9 0 11 2 11 10 -1 5 -8
10 -10 10 -5 0 6 -4 16 -9 23 -6 11 -10 10 -15 -4z"/>
<path d="M2092 2343 c-2 -46 0 -53 17 -53 11 0 22 4 25 9 4 5 -3 7 -13 4 -17
-4 -20 1 -24 43 l-3 49 -2 -52z"/>
<path d="M2110 2386 c0 -2 7 -6 15 -10 8 -3 15 -1 15 4 0 6 -7 10 -15 10 -8 0
-15 -2 -15 -4z"/>
<path d="M2190 2340 l0 -50 33 1 c29 2 30 2 5 6 -24 4 -27 8 -26 41 1 20 6 40
12 44 7 5 4 8 -6 8 -15 0 -18 -9 -18 -50z"/>
<path d="M2347 2383 c-14 -13 -6 -31 21 -47 l27 -17 -24 20 c-13 12 -21 27
-17 36 6 16 3 19 -7 8z"/>
<path d="M2375 2380 c3 -5 8 -10 11 -10 2 0 4 5 4 10 0 6 -5 10 -11 10 -5 0
-7 -4 -4 -10z"/>
<path d="M2443 2340 c0 -30 2 -43 4 -27 2 15 2 39 0 55 -2 15 -4 2 -4 -28z"/>
<path d="M2501 2340 l2 -55 7 45 c4 25 4 49 -1 55 -5 5 -8 -13 -8 -45z"/>
<path d="M2547 2383 c-3 -5 -1 -28 3 -53 l7 -45 2 53 c1 49 -2 62 -12 45z"/>
<path d="M2611 2338 c1 -55 5 -50 11 15 2 20 0 37 -4 37 -4 0 -7 -24 -7 -52z"/>
<path d="M2649 2381 c9 -6 11 -16 7 -27 -6 -15 -4 -16 5 -7 14 14 5 43 -13 43
-10 0 -9 -3 1 -9z"/>
<path d="M2712 2343 c-2 -52 -1 -53 26 -52 22 1 23 2 5 6 -18 4 -23 12 -26 51
l-3 47 -2 -52z"/>
<path d="M2978 2353 c6 -65 10 -70 11 -15 0 28 -3 52 -7 52 -4 0 -6 -17 -4
-37z"/>
<path d="M3063 2340 c0 -30 2 -43 4 -27 2 15 2 39 0 55 -2 15 -4 2 -4 -28z"/>
<path d="M3095 2380 c3 -5 8 -10 11 -10 2 0 4 5 4 10 0 6 -5 10 -11 10 -5 0
-7 -4 -4 -10z"/>
<path d="M3177 2383 c-4 -3 -7 -11 -7 -17 0 -6 5 -5 12 2 6 6 9 14 7 17 -3 3
-9 2 -12 -2z"/>
<path d="M3278 2383 c18 -4 22 -11 22 -43 0 -31 -4 -40 -20 -43 -17 -4 -16 -4
2 -3 20 1 23 6 23 46 0 41 -2 45 -25 47 -22 1 -22 1 -2 -4z"/>
<path d="M3360 2340 c0 -48 1 -50 28 -49 24 2 25 2 4 6 -22 4 -24 9 -20 49 2
24 0 44 -4 44 -5 0 -8 -22 -8 -50z"/>
<path d="M3510 2379 c0 -5 5 -7 10 -4 6 3 10 8 10 11 0 2 -4 4 -10 4 -5 0 -10
-5 -10 -11z"/>
<path d="M3611 2340 l2 -55 7 45 c4 25 4 49 -1 55 -5 5 -8 -13 -8 -45z"/>
<path d="M3657 2383 c-3 -5 -1 -28 3 -53 l7 -45 2 53 c1 49 -2 62 -12 45z"/>
<path d="M3740 2381 c0 -5 5 -13 10 -16 6 -3 10 -2 10 4 0 5 -4 13 -10 16 -5
3 -10 2 -10 -4z"/>
<path d="M3823 2340 c0 -30 2 -43 4 -27 2 15 2 39 0 55 -2 15 -4 2 -4 -28z"/>
<path d="M3848 2383 c7 -3 16 -2 19 1 4 3 -2 6 -13 5 -11 0 -14 -3 -6 -6z"/>
<path d="M3938 2353 c6 -65 10 -70 11 -15 0 28 -3 52 -7 52 -4 0 -6 -17 -4
-37z"/>
<path d="M1812 2345 c0 -16 2 -22 5 -12 2 9 2 23 0 30 -3 6 -5 -1 -5 -18z"/>
<path d="M2525 2350 c3 -5 8 -10 11 -10 2 0 4 5 4 10 0 6 -5 10 -11 10 -5 0
-7 -4 -4 -10z"/>
<path d="M3097 2353 c-4 -3 -7 -13 -7 -22 1 -13 3 -13 11 2 11 19 8 33 -4 20z"/>
<path d="M3528 2345 c29 -23 30 -49 1 -42 -16 4 -19 3 -11 -5 15 -15 44 -2 40
18 -2 9 -14 23 -28 32 -25 14 -25 14 -2 -3z"/>
<path d="M3635 2350 c3 -5 8 -10 11 -10 2 0 4 5 4 10 0 6 -5 10 -11 10 -5 0
-7 -4 -4 -10z"/>
<path d="M3161 2333 c-1 -6 -4 -20 -7 -30 -5 -14 -4 -15 4 -4 6 8 19 12 31 8
12 -3 21 -1 21 4 0 5 -9 9 -19 9 -11 0 -22 6 -24 13 -4 8 -6 8 -6 0z"/>
<path d="M3761 2331 c-1 -8 -8 -11 -21 -8 -12 3 -20 0 -20 -8 0 -8 8 -11 21
-8 12 4 25 0 30 -8 11 -18 10 -1 -1 26 -5 11 -9 14 -9 6z"/>
<path d="M1990 2318 c0 -5 11 -8 25 -8 14 0 25 3 25 8 0 4 -11 7 -25 7 -14 0
-25 -3 -25 -7z"/>
<path d="M1930 2311 c0 -6 4 -13 10 -16 6 -3 7 1 4 9 -7 18 -14 21 -14 7z"/>
<path d="M2340 2312 c0 -18 29 -27 43 -13 9 9 8 11 -7 5 -11 -4 -21 -2 -27 7
-6 10 -9 11 -9 1z"/>
<path d="M3860 2311 c0 -6 4 -13 10 -16 6 -3 7 1 4 9 -7 18 -14 21 -14 7z"/>
<path d="M2823 2293 c9 -2 23 -2 30 0 6 3 -1 5 -18 5 -16 0 -22 -2 -12 -5z"/>
</g>
</svg>
