<?xml version="1.0" encoding="UTF-8"?>
<!DOCTYPE svg PUBLIC "-//W3C//DTD SVG 1.1//EN" "http://www.w3.org/Graphics/SVG/1.1/DTD/svg11.dtd">
<svg xmlns="http://www.w3.org/2000/svg" version="1.1" width="500px" height="500px" style="shape-rendering:geometricPrecision; text-rendering:geometricPrecision; image-rendering:optimizeQuality; fill-rule:evenodd; clip-rule:evenodd" xmlns:xlink="http://www.w3.org/1999/xlink">
<g><path style="opacity:1" fill="#fdfdfd" d="M -0.5,-0.5 C 166.167,-0.5 332.833,-0.5 499.5,-0.5C 499.5,166.167 499.5,332.833 499.5,499.5C 332.833,499.5 166.167,499.5 -0.5,499.5C -0.5,332.833 -0.5,166.167 -0.5,-0.5 Z"/></g>
<g><path style="opacity:1" fill="#838383" d="M 120.5,206.5 C 121.268,208.715 121.935,211.048 122.5,213.5C 120.656,211.721 119.99,209.388 120.5,206.5 Z"/></g>
<g><path style="opacity:1" fill="#292929" d="M 119.5,206.5 C 119.833,206.5 120.167,206.5 120.5,206.5C 119.99,209.388 120.656,211.721 122.5,213.5C 122.977,222.482 121.977,231.149 119.5,239.5C 119.5,237.5 119.5,235.5 119.5,233.5C 118.54,226.922 118.207,220.255 118.5,213.5C 119.468,211.393 119.802,209.059 119.5,206.5 Z"/></g>
<g><path style="opacity:1" fill="#d5d5d5" d="M 119.5,206.5 C 119.802,209.059 119.468,211.393 118.5,213.5C 117.509,219.979 117.176,226.646 117.5,233.5C 115.539,226.913 114.872,219.913 115.5,212.5C 116.5,212.5 117.5,212.5 118.5,212.5C 118.205,210.265 118.539,208.265 119.5,206.5 Z"/></g>
<g><path style="opacity:1" fill="#565656" d="M 118.5,213.5 C 118.207,220.255 118.54,226.922 119.5,233.5C 118.833,233.5 118.167,233.5 117.5,233.5C 117.176,226.646 117.509,219.979 118.5,213.5 Z"/></g>
<g><path style="opacity:1" fill="#696969" d="M 122.5,213.5 C 124.037,222.507 123.37,231.507 120.5,240.5C 119.893,240.376 119.56,240.043 119.5,239.5C 121.977,231.149 122.977,222.482 122.5,213.5 Z"/></g>
<g><path style="opacity:1" fill="#999999" d="M 275.5,221.5 C 270.03,221.246 264.696,221.913 259.5,223.5C 260.842,222.207 262.509,221.374 264.5,221C 268.358,220.19 272.024,220.357 275.5,221.5 Z"/></g>
<g><path style="opacity:1" fill="#767676" d="M 236.5,223.5 C 234.167,222.167 231.833,222.167 229.5,223.5C 228.624,223.631 227.957,223.298 227.5,222.5C 231.167,221.167 234.833,221.167 238.5,222.5C 238.043,223.298 237.376,223.631 236.5,223.5 Z"/></g>
<g><path style="opacity:1" fill="#787878" d="M 293.5,223.5 C 291.167,222.167 288.833,222.167 286.5,223.5C 285.624,223.631 284.957,223.298 284.5,222.5C 288.167,221.167 291.833,221.167 295.5,222.5C 295.043,223.298 294.376,223.631 293.5,223.5 Z"/></g>
<g><path style="opacity:1" fill="#8b8b8b" d="M 301.5,222.5 C 301.842,221.662 302.508,221.328 303.5,221.5C 309.537,221.171 315.537,221.504 321.5,222.5C 321.145,223.522 320.478,224.189 319.5,224.5C 313.926,222.547 307.926,221.88 301.5,222.5 Z"/></g>
<g><path style="opacity:1" fill="#878787" d="M 345.5,222.5 C 338.978,222.177 332.645,222.51 326.5,223.5C 325.957,223.44 325.624,223.107 325.5,222.5C 332.322,221.182 338.989,221.182 345.5,222.5 Z"/></g>
<g><path style="opacity:1" fill="#858585" d="M 368.5,222.5 C 362.974,222.179 357.64,222.512 352.5,223.5C 351.957,223.44 351.624,223.107 351.5,222.5C 357.32,221.184 362.987,221.184 368.5,222.5 Z"/></g>
<g><path style="opacity:1" fill="#474747" d="M 286.5,223.5 C 288.833,222.167 291.167,222.167 293.5,223.5C 292.507,231.65 292.174,239.983 292.5,248.5C 290.219,248.923 288.552,248.256 287.5,246.5C 287.825,238.648 287.492,230.982 286.5,223.5 Z"/></g>
<g><path style="opacity:1" fill="#464646" d="M 326.5,223.5 C 332.645,222.51 338.978,222.177 345.5,222.5C 345.5,223.833 345.5,225.167 345.5,226.5C 344.209,226.737 343.209,226.404 342.5,225.5C 342.389,224.883 342.056,224.383 341.5,224C 339.167,223.333 336.833,223.333 334.5,224C 332.232,227.071 331.899,230.404 333.5,234C 336.23,234.728 338.897,234.562 341.5,233.5C 342.386,234.325 342.719,235.325 342.5,236.5C 339.284,236.984 335.951,236.984 332.5,236.5C 331.946,248.444 336.613,250.777 346.5,243.5C 347.684,245.467 347.351,247.134 345.5,248.5C 339.074,249.12 333.074,248.453 327.5,246.5C 327.5,246.167 327.5,245.833 327.5,245.5C 328.655,238.679 328.821,231.679 328,224.5C 327.617,223.944 327.117,223.611 326.5,223.5 Z"/></g>
<g><path style="opacity:1" fill="#818181" d="M 153.5,220.5 C 153.56,219.957 153.893,219.624 154.5,219.5C 155.474,221.743 155.808,224.076 155.5,226.5C 154.833,224.5 154.167,222.5 153.5,220.5 Z"/></g>
<g><path style="opacity:1" fill="#2a2a2a" d="M 178.5,237.5 C 177.686,239.631 177.186,241.964 177,244.5C 176.814,241.964 176.314,239.631 175.5,237.5C 175.5,231.5 175.5,225.5 175.5,219.5C 176.5,219.5 177.5,219.5 178.5,219.5C 178.5,225.5 178.5,231.5 178.5,237.5 Z"/></g>
<g><path style="opacity:1" fill="#383838" d="M 211.5,222.5 C 213.833,228.499 216.166,234.499 218.5,240.5C 218.797,243.559 220.13,246.059 222.5,248C 219.633,248.801 216.966,248.634 214.5,247.5C 215.833,245.833 215.833,244.167 214.5,242.5C 210.366,241.515 206.032,241.182 201.5,241.5C 205.298,240.517 209.298,240.183 213.5,240.5C 213.768,238.901 213.434,237.568 212.5,236.5C 211.833,234.833 211.167,233.167 210.5,231.5C 209.071,228.692 208.405,225.692 208.5,222.5C 209.5,222.5 210.5,222.5 211.5,222.5 Z"/></g>
<g><path style="opacity:1" fill="#b7b7b7" d="M 277.5,225.5 C 271.97,225.504 266.303,225.838 260.5,226.5C 260.611,225.883 260.944,225.383 261.5,225C 266.861,224.391 272.195,224.558 277.5,225.5 Z"/></g>
<g><path style="opacity:1" fill="#bababa" d="M 303.5,221.5 C 302.508,221.328 301.842,221.662 301.5,222.5C 300.224,223.386 300.224,224.386 301.5,225.5C 305.626,223.719 309.959,223.052 314.5,223.5C 314.715,225.179 314.048,226.179 312.5,226.5C 308.322,225.429 303.989,225.429 299.5,226.5C 299.34,224.801 299.506,223.134 300,221.5C 301.292,220.209 302.458,220.209 303.5,221.5 Z"/></g>
<g><path style="opacity:1" fill="#464646" d="M 352.5,223.5 C 357.64,222.512 362.974,222.179 368.5,222.5C 369.671,223.345 371.005,224.011 372.5,224.5C 372.736,227.609 372.403,230.609 371.5,233.5C 371.158,234.338 370.492,234.672 369.5,234.5C 368.508,234.672 367.842,234.338 367.5,233.5C 369.922,228.152 368.255,224.818 362.5,223.5C 360.962,223.453 359.962,224.12 359.5,225.5C 358.167,232.167 358.167,238.833 359.5,245.5C 360.007,246.859 361.007,247.859 362.5,248.5C 358.833,249.833 355.167,249.833 351.5,248.5C 351.833,247.5 352.5,246.833 353.5,246.5C 354.665,239.189 354.831,231.856 354,224.5C 353.617,223.944 353.117,223.611 352.5,223.5 Z"/></g>
<g><path style="opacity:1" fill="#f8f8f8" d="M 366.5,233.5 C 364.735,234.461 362.735,234.795 360.5,234.5C 360.5,231.5 360.5,228.5 360.5,225.5C 362.5,225.5 364.5,225.5 366.5,225.5C 367.53,228.229 367.53,230.896 366.5,233.5 Z"/></g>
<g><path style="opacity:1" fill="#c4c4c4" d="M 367.5,233.5 C 367.167,233.5 366.833,233.5 366.5,233.5C 367.53,230.896 367.53,228.229 366.5,225.5C 364.5,225.5 362.5,225.5 360.5,225.5C 360.5,228.5 360.5,231.5 360.5,234.5C 359.523,231.713 359.19,228.713 359.5,225.5C 359.962,224.12 360.962,223.453 362.5,223.5C 368.255,224.818 369.922,228.152 367.5,233.5 Z"/></g>
<g><path style="opacity:1" fill="#939393" d="M 110.5,232.5 C 109.691,230.708 109.191,228.708 109,226.5C 108.809,228.708 108.309,230.708 107.5,232.5C 107.5,230.167 107.5,227.833 107.5,225.5C 108.5,225.5 109.5,225.5 110.5,225.5C 110.5,227.833 110.5,230.167 110.5,232.5 Z"/></g>
<g><path style="opacity:1" fill="#b1b1b1" d="M 236.5,223.5 C 236.5,230.833 236.5,238.167 236.5,245.5C 239.167,245.5 241.833,245.5 244.5,245.5C 243.508,247.026 242.008,247.693 240,247.5C 238.564,247.441 237.231,247.108 236,246.5C 235.178,238.655 235.344,230.989 236.5,223.5 Z"/></g>
<g><path style="opacity:1" fill="#afafaf" d="M 372.5,224.5 C 374.631,226.849 374.965,229.516 373.5,232.5C 373.043,233.298 372.376,233.631 371.5,233.5C 372.403,230.609 372.736,227.609 372.5,224.5 Z"/></g>
<g><path style="opacity:1" fill="#787878" d="M 129.5,227.5 C 129.209,233.923 129.542,240.256 130.5,246.5C 129.833,246.5 129.167,246.5 128.5,246.5C 128.177,239.978 128.51,233.645 129.5,227.5 Z"/></g>
<g><path style="opacity:1" fill="#343434" d="M 133.5,226.5 C 134.13,229.917 134.463,233.417 134.5,237C 134.485,240.576 133.818,243.742 132.5,246.5C 131.833,246.5 131.167,246.5 130.5,246.5C 129.542,240.256 129.209,233.923 129.5,227.5C 130.165,225.302 130.832,222.969 131.5,220.5C 132.169,222.631 132.835,224.631 133.5,226.5 Z"/></g>
<g><path style="opacity:1" fill="#2e2e2e" d="M 153.5,220.5 C 154.167,222.5 154.833,224.5 155.5,226.5C 157.399,232.882 158.066,239.549 157.5,246.5C 156.5,246.5 155.5,246.5 154.5,246.5C 154.167,255.833 153.833,255.833 153.5,246.5C 152.167,239.833 152.167,233.167 153.5,226.5C 153.5,224.5 153.5,222.5 153.5,220.5 Z"/></g>
<g><path style="opacity:1" fill="#d2d2d2" d="M 180.5,237.5 C 180.666,231.491 180.499,225.491 180,219.5C 177.954,217.3 176.954,214.633 177,211.5C 174.754,219.931 173.92,228.598 174.5,237.5C 173.18,234.572 172.514,231.239 172.5,227.5C 173.037,221.465 173.703,215.465 174.5,209.5C 175.978,209.238 177.311,209.571 178.5,210.5C 179.374,212.747 179.708,215.08 179.5,217.5C 180.552,217.351 181.552,217.517 182.5,218C 181.85,224.599 181.184,231.099 180.5,237.5 Z"/></g>
<g><path style="opacity:1" fill="#545454" d="M 180.5,237.5 C 180.167,237.5 179.833,237.5 179.5,237.5C 179.167,237.5 178.833,237.5 178.5,237.5C 178.5,231.5 178.5,225.5 178.5,219.5C 177.5,219.5 176.5,219.5 175.5,219.5C 175.5,225.5 175.5,231.5 175.5,237.5C 175.167,237.5 174.833,237.5 174.5,237.5C 173.92,228.598 174.754,219.931 177,211.5C 176.954,214.633 177.954,217.3 180,219.5C 180.499,225.491 180.666,231.491 180.5,237.5 Z"/></g>
<g><path style="opacity:1" fill="#aeaeae" d="M 317.5,227.5 C 317.539,230.089 316.539,232.089 314.5,233.5C 314.992,231.181 315.992,229.181 317.5,227.5 Z"/></g>
<g><path style="opacity:1" fill="#b3b3b3" d="M 260.5,226.5 C 259.167,231.5 259.167,236.5 260.5,241.5C 259.883,241.389 259.383,241.056 259,240.5C 258.333,236.167 258.333,231.833 259,227.5C 259.383,226.944 259.883,226.611 260.5,226.5 Z"/></g>
<g><path style="opacity:1" fill="#cccccc" d="M 133.5,226.5 C 132.835,224.631 132.169,222.631 131.5,220.5C 130.832,222.969 130.165,225.302 129.5,227.5C 128.51,233.645 128.177,239.978 128.5,246.5C 127.835,243.016 127.501,239.349 127.5,235.5C 127.32,229.956 127.986,224.622 129.5,219.5C 130.833,219.5 132.167,219.5 133.5,219.5C 133.5,221.833 133.5,224.167 133.5,226.5 Z"/></g>
<g><path style="opacity:1" fill="#dfdfdf" d="M 210.5,231.5 C 211.167,233.167 211.833,234.833 212.5,236.5C 212.5,237.5 212.5,238.5 212.5,239.5C 209.833,239.5 207.167,239.5 204.5,239.5C 204.506,236.482 205.506,233.816 207.5,231.5C 208.425,230.438 209.425,230.438 210.5,231.5 Z"/></g>
<g><path style="opacity:1" fill="#cecece" d="M 342.5,225.5 C 340.143,225.337 337.81,225.503 335.5,226C 335.833,226.333 336.167,226.667 336.5,227C 334.44,228.493 334.107,230.326 335.5,232.5C 337.987,232.218 340.653,232.218 343.5,232.5C 343.768,234.099 343.434,235.432 342.5,236.5C 342.719,235.325 342.386,234.325 341.5,233.5C 338.897,234.562 336.23,234.728 333.5,234C 331.899,230.404 332.232,227.071 334.5,224C 336.833,223.333 339.167,223.333 341.5,224C 342.056,224.383 342.389,224.883 342.5,225.5 Z"/></g>
<g><path style="opacity:1" fill="#a9a9a9" d="M 167.5,230.5 C 168.82,233.428 169.486,236.761 169.5,240.5C 169.498,244.018 169.165,247.351 168.5,250.5C 168.793,243.745 168.46,237.078 167.5,230.5 Z"/></g>
<g><path style="opacity:1" fill="#bebebe" d="M 326.5,223.5 C 327.117,223.611 327.617,223.944 328,224.5C 328.821,231.679 328.655,238.679 327.5,245.5C 327.764,238.11 327.43,230.777 326.5,223.5 Z"/></g>
<g><path style="opacity:1" fill="#7c7c7c" d="M 359.5,225.5 C 359.19,228.713 359.523,231.713 360.5,234.5C 362.735,234.795 364.735,234.461 366.5,233.5C 366.833,233.5 367.167,233.5 367.5,233.5C 367.842,234.338 368.508,234.672 369.5,234.5C 368.89,235.391 368.557,236.391 368.5,237.5C 367.469,236.645 366.303,235.978 365,235.5C 363.97,235.836 363.47,236.503 363.5,237.5C 362.167,237.5 360.833,237.5 359.5,237.5C 359.5,240.167 359.5,242.833 359.5,245.5C 358.167,238.833 358.167,232.167 359.5,225.5 Z"/></g>
<g><path style="opacity:1" fill="#606060" d="M 153.5,226.5 C 152.167,233.167 152.167,239.833 153.5,246.5C 152.18,243.572 151.514,240.239 151.5,236.5C 151.514,232.761 152.18,229.428 153.5,226.5 Z"/></g>
<g><path style="opacity:1" fill="#5b5b5b" d="M 167.5,230.5 C 168.46,237.078 168.793,243.745 168.5,250.5C 168.167,250.5 167.833,250.5 167.5,250.5C 167.955,243.986 167.455,237.653 166,231.5C 165.586,231.957 165.086,232.291 164.5,232.5C 163.504,238.463 163.171,244.463 163.5,250.5C 161.988,241.825 162.654,233.158 165.5,224.5C 166.169,226.631 166.835,228.631 167.5,230.5 Z"/></g>
<g><path style="opacity:1" fill="#292929" d="M 167.5,250.5 C 167.167,250.5 166.833,250.5 166.5,250.5C 165.833,250.5 165.167,250.5 164.5,250.5C 164.167,250.5 163.833,250.5 163.5,250.5C 163.171,244.463 163.504,238.463 164.5,232.5C 165.086,232.291 165.586,231.957 166,231.5C 167.455,237.653 167.955,243.986 167.5,250.5 Z"/></g>
<g><path style="opacity:1" fill="#b8b8b8" d="M 279.5,239.5 C 278.486,238.235 276.986,237.569 275,237.5C 273.5,237.667 272,237.833 270.5,238C 271.056,238.383 271.389,238.883 271.5,239.5C 269.952,239.179 269.285,238.179 269.5,236.5C 273.167,236.5 276.833,236.5 280.5,236.5C 280.737,237.791 280.404,238.791 279.5,239.5 Z"/></g>
<g><path style="opacity:1" fill="#292929" d="M 110.5,232.5 C 110.5,233.167 110.833,233.5 111.5,233.5C 111.5,239.5 111.5,245.5 111.5,251.5C 109.833,251.5 108.167,251.5 106.5,251.5C 106.5,245.5 106.5,239.5 106.5,233.5C 107.167,233.5 107.5,233.167 107.5,232.5C 108.309,230.708 108.809,228.708 109,226.5C 109.191,228.708 109.691,230.708 110.5,232.5 Z"/></g>
<g><path style="opacity:1" fill="#999999" d="M 106.5,233.5 C 106.5,239.5 106.5,245.5 106.5,251.5C 106.833,252.167 107.167,252.833 107.5,253.5C 106.18,250.572 105.514,247.239 105.5,243.5C 105.502,239.982 105.835,236.649 106.5,233.5 Z"/></g>
<g><path style="opacity:1" fill="#4a4a4a" d="M 275.5,221.5 C 277.104,222.287 277.771,223.62 277.5,225.5C 272.195,224.558 266.861,224.391 261.5,225C 260.944,225.383 260.611,225.883 260.5,226.5C 259.883,226.611 259.383,226.944 259,227.5C 258.333,231.833 258.333,236.167 259,240.5C 259.383,241.056 259.883,241.389 260.5,241.5C 263.343,247.17 267.509,248.504 273,245.5C 273.738,243.119 273.238,241.119 271.5,239.5C 271.389,238.883 271.056,238.383 270.5,238C 272,237.833 273.5,237.667 275,237.5C 276.986,237.569 278.486,238.235 279.5,239.5C 278.527,241.948 278.194,244.615 278.5,247.5C 269.314,251.571 261.481,249.905 255,242.5C 254.333,238.167 254.333,233.833 255,229.5C 255.971,227.039 257.471,225.039 259.5,223.5C 264.696,221.913 270.03,221.246 275.5,221.5 Z"/></g>
<g><path style="opacity:1" fill="#9d9d9d" d="M 201.5,241.5 C 206.032,241.182 210.366,241.515 214.5,242.5C 210.5,242.5 206.5,242.5 202.5,242.5C 202.5,244.167 202.5,245.833 202.5,247.5C 201.539,245.735 201.205,243.735 201.5,241.5 Z"/></g>
<g><path style="opacity:1" fill="#888888" d="M 307.5,235.5 C 306.206,238.781 304.206,241.448 301.5,243.5C 302.762,240.243 304.762,237.577 307.5,235.5 Z"/></g>
<g><path style="opacity:1" fill="#535353" d="M 211.5,222.5 C 210.5,222.5 209.5,222.5 208.5,222.5C 208.405,225.692 209.071,228.692 210.5,231.5C 209.425,230.438 208.425,230.438 207.5,231.5C 205.506,233.816 204.506,236.482 204.5,239.5C 207.167,239.5 209.833,239.5 212.5,239.5C 212.5,238.5 212.5,237.5 212.5,236.5C 213.434,237.568 213.768,238.901 213.5,240.5C 209.298,240.183 205.298,240.517 201.5,241.5C 201.205,243.735 201.539,245.735 202.5,247.5C 203.043,247.56 203.376,247.893 203.5,248.5C 200.833,249.833 198.167,249.833 195.5,248.5C 197.243,246.679 198.743,244.679 200,242.5C 202.004,237 204.337,231.667 207,226.5C 207.494,224.866 207.66,223.199 207.5,221.5C 209.099,221.232 210.432,221.566 211.5,222.5 Z"/></g>
<g><path style="opacity:1" fill="#444444" d="M 301.5,222.5 C 307.926,221.88 313.926,222.547 319.5,224.5C 319.068,225.71 318.401,226.71 317.5,227.5C 315.992,229.181 314.992,231.181 314.5,233.5C 312.738,234.262 311.738,235.596 311.5,237.5C 309.852,239.429 308.185,241.429 306.5,243.5C 305.754,244.736 305.421,246.07 305.5,247.5C 310.122,247.844 314.455,247.177 318.5,245.5C 319.472,244.249 320.139,244.582 320.5,246.5C 320.457,247.416 320.124,248.083 319.5,248.5C 312.646,248.824 305.979,248.491 299.5,247.5C 299.733,245.938 300.4,244.605 301.5,243.5C 304.206,241.448 306.206,238.781 307.5,235.5C 308.394,232.043 310.06,229.043 312.5,226.5C 314.048,226.179 314.715,225.179 314.5,223.5C 309.959,223.052 305.626,223.719 301.5,225.5C 300.224,224.386 300.224,223.386 301.5,222.5 Z"/></g>
<g><path style="opacity:1" fill="#4a4a4a" d="M 368.5,237.5 C 369.239,237.369 369.906,237.536 370.5,238C 372.66,242.319 375.66,245.819 379.5,248.5C 377.167,249.833 374.833,249.833 372.5,248.5C 370.199,244.212 367.199,240.545 363.5,237.5C 363.47,236.503 363.97,235.836 365,235.5C 366.303,235.978 367.469,236.645 368.5,237.5 Z"/></g>
<g><path style="opacity:1" fill="#b4b4b4" d="M 175.5,237.5 C 176.314,239.631 176.814,241.964 177,244.5C 177.186,241.964 177.686,239.631 178.5,237.5C 178.833,237.5 179.167,237.5 179.5,237.5C 177.444,249.204 176.111,249.204 175.5,237.5 Z"/></g>
<g><path style="opacity:1" fill="#4c4c4c" d="M 229.5,223.5 C 231.833,222.167 234.167,222.167 236.5,223.5C 235.344,230.989 235.178,238.655 236,246.5C 237.231,247.108 238.564,247.441 240,247.5C 242.008,247.693 243.508,247.026 244.5,245.5C 246.484,245.617 248.15,244.95 249.5,243.5C 250.229,245.595 249.563,247.428 247.5,249C 240.808,249.831 234.142,249.664 227.5,248.5C 228.242,247.713 229.075,247.047 230,246.5C 230.822,238.655 230.656,230.989 229.5,223.5 Z"/></g>
<g><path style="opacity:1" fill="#b8b8b8" d="M 311.5,237.5 C 310.949,240.267 309.616,242.6 307.5,244.5C 311.107,245.489 314.774,245.823 318.5,245.5C 314.455,247.177 310.122,247.844 305.5,247.5C 305.421,246.07 305.754,244.736 306.5,243.5C 308.185,241.429 309.852,239.429 311.5,237.5 Z"/></g>
<g><path style="opacity:1" fill="#676767" d="M 130.5,246.5 C 131.167,246.5 131.833,246.5 132.5,246.5C 133.01,249.388 132.344,251.721 130.5,253.5C 130.5,251.167 130.5,248.833 130.5,246.5 Z"/></g>
<g><path style="opacity:1" fill="#d2d2d2" d="M 133.5,226.5 C 134.822,229.768 135.489,233.435 135.5,237.5C 135.648,243.281 134.981,248.947 133.5,254.5C 131.775,256.092 130.775,255.758 130.5,253.5C 132.344,251.721 133.01,249.388 132.5,246.5C 133.818,243.742 134.485,240.576 134.5,237C 134.463,233.417 134.13,229.917 133.5,226.5 Z"/></g>
<g><path style="opacity:1" fill="#2e2e2e" d="M 141.5,247.5 C 142.833,247.5 144.167,247.5 145.5,247.5C 145.5,253.833 145.5,260.167 145.5,266.5C 144.833,266.5 144.5,266.833 144.5,267.5C 143.698,268.952 143.198,270.618 143,272.5C 142.802,270.618 142.302,268.952 141.5,267.5C 140.191,260.734 140.191,254.068 141.5,247.5 Z"/></g>
<g><path style="opacity:1" fill="#7b7b7b" d="M 145.5,266.5 C 145.5,260.167 145.5,253.833 145.5,247.5C 144.167,247.5 142.833,247.5 141.5,247.5C 141.192,245.076 141.526,242.743 142.5,240.5C 143.466,242.396 143.799,244.396 143.5,246.5C 144.5,246.5 145.5,246.5 146.5,246.5C 146.824,253.354 146.491,260.021 145.5,266.5 Z"/></g>
<g><path style="opacity:1" fill="#787878" d="M 218.5,240.5 C 220.031,243.385 222.031,246.052 224.5,248.5C 220.833,249.833 217.167,249.833 213.5,248.5C 213.624,247.893 213.957,247.56 214.5,247.5C 216.966,248.634 219.633,248.801 222.5,248C 220.13,246.059 218.797,243.559 218.5,240.5 Z"/></g>
<g><path style="opacity:1" fill="#898989" d="M 293.5,223.5 C 292.906,232.035 293.573,240.368 295.5,248.5C 291.833,249.833 288.167,249.833 284.5,248.5C 285.357,247.575 286.357,246.908 287.5,246.5C 288.552,248.256 290.219,248.923 292.5,248.5C 292.174,239.983 292.507,231.65 293.5,223.5 Z"/></g>
<g><path style="opacity:1" fill="#8e8e8e" d="M 299.5,247.5 C 305.979,248.491 312.646,248.824 319.5,248.5C 312.656,249.819 305.656,249.819 298.5,248.5C 298.624,247.893 298.957,247.56 299.5,247.5 Z"/></g>
<g><path style="opacity:1" fill="#919191" d="M 327.5,246.5 C 333.074,248.453 339.074,249.12 345.5,248.5C 338.656,249.819 331.656,249.819 324.5,248.5C 325.357,247.575 326.357,246.908 327.5,246.5 Z"/></g>
<g><path style="opacity:1" fill="#636363" d="M 164.5,250.5 C 165.167,250.5 165.833,250.5 166.5,250.5C 165.833,259.833 165.167,259.833 164.5,250.5 Z"/></g>
<g><path style="opacity:1" fill="#757575" d="M 111.5,233.5 C 112.165,236.482 112.498,239.648 112.5,243C 112.584,248.695 111.918,254.195 110.5,259.5C 109.5,259.5 108.5,259.5 107.5,259.5C 107.5,257.5 107.5,255.5 107.5,253.5C 107.167,252.833 106.833,252.167 106.5,251.5C 108.167,251.5 109.833,251.5 111.5,251.5C 111.5,245.5 111.5,239.5 111.5,233.5 Z"/></g>
<g><path style="opacity:1" fill="#7c7a7a" d="M 236.5,265.5 C 233.916,264.952 232.916,263.285 233.5,260.5C 235.467,260.261 237.301,260.594 239,261.5C 239.688,262.332 239.521,262.998 238.5,263.5C 237.377,261.711 236.044,261.378 234.5,262.5C 235.193,263.518 235.859,264.518 236.5,265.5 Z"/></g>
<g><path style="opacity:1" fill="#807e7e" d="M 350.5,260.5 C 352.167,260.5 353.833,260.5 355.5,260.5C 355.649,261.552 355.483,262.552 355,263.5C 354.29,262.027 353.124,261.36 351.5,261.5C 351.671,264.797 351.005,265.131 349.5,262.5C 349.863,261.817 350.196,261.15 350.5,260.5 Z"/></g>
<g><path style="opacity:1" fill="#7a7878" d="M 199.5,260.5 C 200.496,260.414 201.329,260.748 202,261.5C 203.366,264.564 203.866,267.564 203.5,270.5C 201.684,267.936 199.851,267.936 198,270.5C 198.473,267.242 198.973,263.909 199.5,260.5 Z"/></g>
<g><path style="opacity:1" fill="#7a7879" d="M 373.5,260.5 C 374.497,260.47 375.164,260.97 375.5,262C 376.578,264.795 377.078,267.629 377,270.5C 376.481,269.484 375.647,268.818 374.5,268.5C 373.164,269.423 371.83,269.923 370.5,270C 371.579,266.85 372.579,263.684 373.5,260.5 Z"/></g>
<g><path style="opacity:1" fill="#656565" d="M 391.5,261.5 C 392.946,260.387 394.613,260.22 396.5,261C 394.812,263.825 393.979,266.991 394,270.5C 394.07,267.008 393.237,264.008 391.5,261.5 Z"/></g>
<g><path style="opacity:1" fill="#636363" d="M 294.5,261.5 C 296.288,260.378 298.288,260.211 300.5,261C 298.812,263.825 297.979,266.991 298,270.5C 297.502,267.518 297.335,264.518 297.5,261.5C 296.5,261.5 295.5,261.5 294.5,261.5 Z"/></g>
<g><path style="opacity:1" fill="#f0eeee" d="M 200.5,262.5 C 201.234,263.878 201.901,265.378 202.5,267C 201.365,267.749 200.365,267.583 199.5,266.5C 200.246,265.264 200.579,263.93 200.5,262.5 Z"/></g>
<g><path style="opacity:1" fill="#7b7879" d="M 208.5,260.5 C 212.57,259.508 214.57,261.008 214.5,265C 214.819,269.313 212.819,271.146 208.5,270.5C 208.5,267.167 208.5,263.833 208.5,260.5 Z"/></g>
<g><path style="opacity:1" fill="#fcfafb" d="M 209.5,261.5 C 210.5,261.5 211.5,261.5 212.5,261.5C 212.5,264.167 212.5,266.833 212.5,269.5C 211.5,269.5 210.5,269.5 209.5,269.5C 209.5,266.833 209.5,264.167 209.5,261.5 Z"/></g>
<g><path style="opacity:1" fill="#716f6f" d="M 218.5,260.5 C 220.527,260.338 222.527,260.505 224.5,261C 222.866,261.494 221.199,261.66 219.5,261.5C 219.5,262.5 219.5,263.5 219.5,264.5C 223.5,264.833 223.5,265.167 219.5,265.5C 219.5,266.833 219.5,268.167 219.5,269.5C 221.199,269.34 222.866,269.506 224.5,270C 222.527,270.495 220.527,270.662 218.5,270.5C 218.5,267.167 218.5,263.833 218.5,260.5 Z"/></g>
<g><path style="opacity:1" fill="#565455" d="M 335.5,260.5 C 341.167,260.664 341.5,260.997 336.5,261.5C 336.5,264.167 336.5,266.833 336.5,269.5C 338.199,269.34 339.866,269.506 341.5,270C 339.527,270.495 337.527,270.662 335.5,270.5C 335.5,267.167 335.5,263.833 335.5,260.5 Z"/></g>
<g><path style="opacity:1" fill="#6f6c6d" d="M 362.5,263.5 C 361.686,265.631 361.186,267.964 361,270.5C 360.333,267.167 360.333,263.833 361,260.5C 362.039,261.244 362.539,262.244 362.5,263.5 Z"/></g>
<g><path style="opacity:1" fill="#727171" d="M 188.5,260.5 C 190.467,260.261 192.301,260.594 194,261.5C 193.005,264.126 192.672,266.793 193,269.5C 190.826,264.138 189.493,264.471 189,270.5C 188.502,267.183 188.335,263.85 188.5,260.5 Z"/></g>
<g><path style="opacity:1" fill="#fdfcfc" d="M 189.5,261.5 C 190.5,261.5 191.5,261.5 192.5,261.5C 192.5,262.5 192.5,263.5 192.5,264.5C 191.5,264.5 190.5,264.5 189.5,264.5C 189.5,263.5 189.5,262.5 189.5,261.5 Z"/></g>
<g><path style="opacity:1" fill="#767272" d="M 251.5,263.5 C 252.167,263.5 252.833,263.5 253.5,263.5C 252.833,266.167 252.167,266.167 251.5,263.5 Z"/></g>
<g><path style="opacity:1" fill="#777475" d="M 253.5,263.5 C 253.461,262.244 253.961,261.244 255,260.5C 255.667,263.833 255.667,267.167 255,270.5C 254.814,267.964 254.314,265.631 253.5,263.5 Z"/></g>
<g><path style="opacity:1" fill="#7f7d7d" d="M 265.5,261.5 C 266.918,264.934 265.585,266.601 261.5,266.5C 261.657,267.873 261.49,269.207 261,270.5C 260.502,267.183 260.335,263.85 260.5,260.5C 262.415,260.216 264.081,260.549 265.5,261.5 Z"/></g>
<g><path style="opacity:1" fill="#efedee" d="M 265.5,261.5 C 265.5,262.5 265.5,263.5 265.5,264.5C 264.167,264.5 262.833,264.5 261.5,264.5C 261.5,263.5 261.5,262.5 261.5,261.5C 262.833,261.5 264.167,261.5 265.5,261.5 Z"/></g>
<g><path style="opacity:1" fill="#888686" d="M 329.5,269.5 C 328.081,270.451 326.415,270.784 324.5,270.5C 324.5,267.167 324.5,263.833 324.5,260.5C 326.5,260.5 328.5,260.5 330.5,260.5C 330.81,263.713 330.477,266.713 329.5,269.5 Z"/></g>
<g><path style="opacity:1" fill="#fbf8f9" d="M 329.5,269.5 C 328.5,269.5 327.5,269.5 326.5,269.5C 326.5,266.833 326.5,264.167 326.5,261.5C 327.5,261.5 328.5,261.5 329.5,261.5C 329.5,264.167 329.5,266.833 329.5,269.5 Z"/></g>
<g><path style="opacity:1" fill="#747272" d="M 362.5,263.5 C 363.167,263.5 363.833,263.5 364.5,263.5C 363.833,266.167 363.167,266.167 362.5,263.5 Z"/></g>
<g><path style="opacity:1" fill="#767374" d="M 364.5,263.5 C 364.461,262.244 364.961,261.244 366,260.5C 366.667,263.833 366.667,267.167 366,270.5C 365.814,267.964 365.314,265.631 364.5,263.5 Z"/></g>
<g><path style="opacity:1" fill="#f2f0f1" d="M 373.5,263.5 C 376.383,265.982 376.05,267.149 372.5,267C 373.337,265.989 373.67,264.822 373.5,263.5 Z"/></g>
<g><path style="opacity:1" fill="#737272" d="M 381.5,260.5 C 383.467,260.261 385.301,260.594 387,261.5C 386.005,264.126 385.672,266.793 386,269.5C 383.826,264.138 382.493,264.471 382,270.5C 381.502,267.183 381.335,263.85 381.5,260.5 Z"/></g>
<g><path style="opacity:1" fill="#fcfbfc" d="M 382.5,261.5 C 383.5,261.5 384.5,261.5 385.5,261.5C 385.5,262.5 385.5,263.5 385.5,264.5C 384.5,264.5 383.5,264.5 382.5,264.5C 382.5,263.5 382.5,262.5 382.5,261.5 Z"/></g>
<g><path style="opacity:1" fill="#a0a0a0" d="M 178.5,261.5 C 180.288,260.378 182.288,260.211 184.5,261C 182.961,263.878 181.961,267.045 181.5,270.5C 181.094,267.061 180.094,264.061 178.5,261.5 Z"/></g>
<g><path style="opacity:1" fill="#6e6b6c" d="M 251.5,263.5 C 250.686,265.631 250.186,267.964 250,270.5C 249.333,267.167 249.333,263.833 250,260.5C 251.039,261.244 251.539,262.244 251.5,263.5 Z"/></g>
<g><path style="opacity:1" fill="#696868" d="M 270.5,260.5 C 271.477,263.287 271.81,266.287 271.5,269.5C 273.199,269.34 274.866,269.506 276.5,270C 274.527,270.495 272.527,270.662 270.5,270.5C 270.5,267.167 270.5,263.833 270.5,260.5 Z"/></g>
<g><path style="opacity:1" fill="#8b8a8a" d="M 279.5,260.5 C 281.527,260.338 283.527,260.505 285.5,261C 284.207,261.49 282.873,261.657 281.5,261.5C 281.36,263.124 282.027,264.29 283.5,265C 281.893,266.049 281.227,267.549 281.5,269.5C 282.873,269.343 284.207,269.51 285.5,270C 283.527,270.495 281.527,270.662 279.5,270.5C 279.5,267.167 279.5,263.833 279.5,260.5 Z"/></g>
<g><path style="opacity:1" fill="#817f80" d="M 305.5,260.5 C 311.431,259.742 312.764,261.742 309.5,266.5C 310.04,267.748 310.707,268.915 311.5,270C 311.167,270.167 310.833,270.333 310.5,270.5C 309.5,269.167 308.5,267.833 307.5,266.5C 306.719,267.729 306.219,269.062 306,270.5C 305.502,267.183 305.335,263.85 305.5,260.5 Z"/></g>
<g><path style="opacity:1" fill="#fdfbfc" d="M 306.5,261.5 C 307.5,261.5 308.5,261.5 309.5,261.5C 309.5,262.5 309.5,263.5 309.5,264.5C 308.5,264.5 307.5,264.5 306.5,264.5C 306.5,263.5 306.5,262.5 306.5,261.5 Z"/></g>
<g><path style="opacity:1" fill="#6e6d6d" d="M 316.5,260.5 C 318.908,261.315 319.741,262.981 319,265.5C 318.016,263.205 317.183,263.539 316.5,266.5C 318.555,267.187 320.221,268.354 321.5,270C 319.689,269.293 317.689,268.793 315.5,268.5C 315.575,265.794 315.908,263.127 316.5,260.5 Z"/></g>
<g><path style="opacity:1" fill="#737071" d="M 354.5,269.5 C 354.094,267.891 354.094,266.557 354.5,265.5C 355.782,266.958 355.782,268.292 354.5,269.5 Z"/></g>
<g><path style="opacity:1" fill="#979797" d="M 141.5,267.5 C 142.302,268.952 142.802,270.618 143,272.5C 143.198,270.618 143.698,268.952 144.5,267.5C 144.5,269.5 144.5,271.5 144.5,273.5C 143.5,273.5 142.5,273.5 141.5,273.5C 141.5,271.5 141.5,269.5 141.5,267.5 Z"/></g>
<g><path style="opacity:1" fill="#817f7f" d="M 236.5,265.5 C 239.076,265.722 239.91,267.055 239,269.5C 237.612,270.554 236.112,270.72 234.5,270C 235.448,269.517 236.448,269.351 237.5,269.5C 237.567,268.041 237.234,266.708 236.5,265.5 Z"/></g>
<g><path style="opacity:1" fill="#848182" d="M 354.5,269.5 C 352.58,270.94 350.913,270.607 349.5,268.5C 349.833,268.167 350.167,267.833 350.5,267.5C 351.524,268.853 352.857,269.52 354.5,269.5 Z"/></g>
</svg>
